<?xml version="1.0" encoding="UTF-8"?>
<svg xmlns="http://www.w3.org/2000/svg" version="1.1" xmlns:xlink="http://www.w3.org/1999/xlink" viewBox="0 0 1474 411">
  <defs>
    <style>
      .cls-1 {
        fill: #ccc;
      }

      .cls-1, .cls-2, .cls-3, .cls-4, .cls-5, .cls-6, .cls-7, .cls-8, .cls-9, .cls-10, .cls-11, .cls-12, .cls-13, .cls-14, .cls-15, .cls-16, .cls-17, .cls-18, .cls-19, .cls-20, .cls-21, .cls-22, .cls-23, .cls-24, .cls-25, .cls-26, .cls-27, .cls-28, .cls-29, .cls-30, .cls-31, .cls-32, .cls-33, .cls-34, .cls-35, .cls-36, .cls-37, .cls-38, .cls-39, .cls-40, .cls-41, .cls-42, .cls-43, .cls-44, .cls-45, .cls-46, .cls-47, .cls-48, .cls-49, .cls-50, .cls-51, .cls-52, .cls-53, .cls-54, .cls-55, .cls-56, .cls-57, .cls-58, .cls-59, .cls-60, .cls-61, .cls-62, .cls-63, .cls-64 {
        stroke-width: 0px;
      }

      .cls-2 {
        fill: #dc8b54;
      }

      .cls-65, .cls-66, .cls-67, .cls-35, .cls-68, .cls-69, .cls-70, .cls-71, .cls-72, .cls-73, .cls-74, .cls-75, .cls-76 {
        fill: none;
      }

      .cls-65, .cls-66, .cls-69, .cls-70, .cls-74, .cls-75, .cls-76 {
        stroke-linecap: round;
      }

      .cls-65, .cls-76 {
        stroke: #595959;
      }

      .cls-3 {
        fill: #242424;
      }

      .cls-4 {
        fill: #f8ffd0;
      }

      .cls-5 {
        fill: #6e97f7;
      }

      .cls-6 {
        fill: #b87a59;
      }

      .cls-6, .cls-17, .cls-31, .cls-44, .cls-58 {
        fill-rule: evenodd;
      }

      .cls-7 {
        fill: #674c3c;
      }

      .cls-8 {
        fill: #545454;
      }

      .cls-9 {
        fill: url(#linear-gradient);
      }

      .cls-66 {
        stroke-width: 18px;
      }

      .cls-66, .cls-69, .cls-74 {
        stroke: #2091b6;
      }

      .cls-10 {
        fill: #de804c;
      }

      .cls-11 {
        fill: #bdbdbd;
      }

      .cls-12 {
        fill: #b8baae;
      }

      .cls-13 {
        fill: #c07542;
      }

      .cls-14 {
        fill: #000;
      }

      .cls-15 {
        fill: #f2b977;
      }

      .cls-77 {
        fill: #9b9b9b;
        stroke: #9b9b9b;
      }

      .cls-77, .cls-72, .cls-78, .cls-79 {
        stroke-linejoin: round;
      }

      .cls-16 {
        fill: #175d7b;
      }

      .cls-80 {
        opacity: .5;
      }

      .cls-17 {
        fill: #197cad;
      }

      .cls-18 {
        fill: #1a5a7d;
      }

      .cls-19 {
        fill: #15602a;
      }

      .cls-20 {
        fill: #298fb0;
      }

      .cls-21 {
        fill: #e8c9bd;
      }

      .cls-81 {
        isolation: isolate;
      }

      .cls-22 {
        fill: #8bd34b;
      }

      .cls-23 {
        fill: #858585;
      }

      .cls-24 {
        fill: #102a7b;
      }

      .cls-25 {
        fill: #989898;
      }

      .cls-26 {
        fill: #c19158;
      }

      .cls-27 {
        fill: #d9d9d9;
      }

      .cls-28 {
        fill: #895627;
      }

      .cls-29 {
        fill: #c4c3b1;
      }

      .cls-30 {
        fill: #e98e62;
      }

      .cls-67 {
        stroke: #b01f1f;
        stroke-width: 4px;
      }

      .cls-31 {
        fill: #17a681;
      }

      .cls-32 {
        fill: #7a5d40;
      }

      .cls-33 {
        fill: #f4f4f4;
      }

      .cls-34 {
        fill: #3d3d3d;
      }

      .cls-68 {
        stroke: #311d12;
      }

      .cls-36 {
        fill: #653771;
      }

      .cls-37 {
        fill: #f0bdaa;
      }

      .cls-38, .cls-44 {
        fill: #7dba47;
      }

      .cls-69 {
        stroke-width: 28px;
      }

      .cls-39 {
        fill: #0a7d56;
      }

      .cls-70 {
        stroke: #443523;
      }

      .cls-70, .cls-72, .cls-78, .cls-79, .cls-76 {
        stroke-width: 2px;
      }

      .cls-71 {
        stroke: #532d0a;
      }

      .cls-40 {
        fill: #b01f1f;
      }

      .cls-41 {
        fill: #999;
      }

      .cls-72, .cls-78, .cls-79 {
        stroke: #fff;
      }

      .cls-42 {
        fill: #eab5a1;
      }

      .cls-43 {
        fill: #b8c6cf;
      }

      .cls-45 {
        fill: url(#linear-gradient-2);
      }

      .cls-78 {
        fill-opacity: .6;
      }

      .cls-78, .cls-47, .cls-53, .cls-55 {
        fill: #fff;
      }

      .cls-46 {
        fill: #626262;
      }

      .cls-73 {
        stroke: #4c2f1f;
      }

      .cls-47 {
        fill-opacity: .6;
      }

      .cls-48 {
        fill: #5f972d;
      }

      .cls-49 {
        fill: #b6c0c8;
      }

      .cls-82 {
        mix-blend-mode: darken;
        opacity: .4;
      }

      .cls-50 {
        fill: #88bdbe;
      }

      .cls-51 {
        fill: #179262;
      }

      .cls-52 {
        fill: #c67a56;
      }

      .cls-74 {
        stroke-width: 7px;
      }

      .cls-53 {
        fill-opacity: .5;
      }

      .cls-54 {
        fill: #b6b6b6;
      }

      .cls-83 {
        mask: url(#mask);
      }

      .cls-75 {
        stroke: #786536;
        stroke-width: 6px;
      }

      .cls-56 {
        fill: #ffd9d9;
      }

      .cls-57 {
        fill: #72ac3e;
      }

      .cls-58 {
        fill: #eccd52;
      }

      .cls-59 {
        fill: #b4ffcd;
      }

      .cls-60 {
        fill: #adb3bf;
      }

      .cls-79, .cls-64 {
        fill: #143263;
      }

      .cls-61 {
        fill: #b4bbc5;
      }

      .cls-62 {
        fill: #cf1414;
      }

      .cls-63 {
        fill: #393939;
      }
    </style>
    <mask id="mask" x="489.4" y="284.9" width="26.6" height="10.8" maskUnits="userSpaceOnUse">
      <g id="path-115-outside-1_452_6890" data-name="path-115-outside-1 452 6890">
        <rect class="cls-55" x="489.4" y="284.9" width="26.6" height="10.8"/>
        <path class="cls-14" d="M491.6,293.5l-.4-5.8h2c.5-.2.8-.1,1.1,0,.3.1.5.3.7.6.2.3.2.6.3.9,0,.3,0,.7-.1.9-.1.3-.3.5-.6.7-.3.2-.6.3-1.1.3h-1.4c0,0,0-.5,0-.5h1.4c.3-.1.6-.2.7-.3.2-.1.3-.3.4-.5,0-.2.1-.4,0-.6,0-.2,0-.4-.2-.6,0-.2-.2-.3-.4-.4-.2,0-.5-.1-.8-.1h-1.2c0,0,.4,5.3.4,5.3h-.7ZM497,293.4l-.5-.3,2.7-4.7.5.3-2.7,4.7ZM498.3,293.2c-.4,0-.7,0-1.1-.2-.3-.2-.6-.4-.7-.7-.2-.3-.3-.7-.3-1.2,0-.5,0-.9.2-1.2.1-.4.4-.6.6-.8.3-.2.6-.3,1-.4.4,0,.7,0,1.1.2.3.2.6.4.7.7.2.3.3.7.3,1.2,0,.5,0,.8-.2,1.2-.1.3-.4.6-.6.8-.3.2-.6.3-1,.4ZM498.3,292.6c.3,0,.5-.1.7-.3.2-.2.3-.4.4-.6,0-.3.1-.5,0-.8,0-.3,0-.6-.2-.8-.1-.2-.3-.4-.5-.6-.2-.1-.5-.2-.8-.2-.3,0-.5.1-.7.3-.2.2-.3.4-.4.6,0,.3-.1.5,0,.8,0,.3,0,.6.2.8.1.2.3.4.5.6.2.1.5.2.8.2ZM501.6,287l.4,5.8h-.7s-.4-5.8-.4-5.8h.7ZM506,289.2l-.6.2c0,0-.1-.2-.2-.3,0,0-.2-.2-.3-.2-.1,0-.3,0-.5,0-.3,0-.5,0-.7.2-.2.1-.2.3-.2.5,0,.2,0,.3.2.4.1,0,.3.2.6.2h.7c.4.2.7.3.9.5.2.2.3.4.3.7,0,.2,0,.5-.2.7-.1.2-.3.4-.6.5-.2.1-.5.2-.9.2-.4,0-.8,0-1.1-.2-.3-.2-.5-.4-.6-.8l.6-.2c0,.2.2.4.4.5.2.1.4.1.7.1.3,0,.6-.1.7-.2.2-.1.3-.3.2-.5,0-.2,0-.3-.2-.4-.1,0-.3-.2-.5-.2h-.7c-.4-.2-.7-.3-.9-.5-.2-.2-.3-.4-.3-.7,0-.2,0-.5.2-.7.1-.2.3-.4.5-.5.2-.1.5-.2.8-.2.4,0,.8,0,1,.2.3.2.5.4.6.7ZM509.2,292.4c-.4,0-.8,0-1.1-.2-.3-.2-.6-.4-.8-.7-.2-.3-.3-.7-.3-1.2,0-.4,0-.8.2-1.2.1-.4.4-.6.6-.8.3-.2.6-.3,1-.4.2,0,.5,0,.7,0,.2,0,.4.2.6.3.2.2.4.4.5.6.1.3.2.6.2,1v.3s-3.3.2-3.3.2v-.6s2.6-.2,2.6-.2c0-.2,0-.5-.2-.6-.1-.2-.3-.3-.4-.4-.2,0-.4-.1-.6-.1-.3,0-.5.1-.7.2-.2.1-.3.3-.4.5,0,.2-.1.4-.1.7v.4c0,.3.1.6.3.8.1.2.3.4.5.5.2.1.5.1.7.1.2,0,.3,0,.5-.1.1,0,.3-.1.4-.3,0-.1.2-.2.2-.4h.7c0,.4-.2.6-.3.7-.2.2-.3.3-.6.4-.2.1-.5.2-.8.2ZM512,292.1l-.3-4.4h.6s0,.6,0,.6h0c0-.2.2-.4.4-.6.2-.1.4-.2.7-.2,0,0,.1,0,.2,0s.1,0,.2,0v.7s0,0-.1,0c0,0-.2,0-.3,0-.2,0-.4,0-.6.2-.2,0-.3.2-.4.4,0,.2-.1.3-.1.5l.2,2.8h-.7Z"/>
      </g>
    </mask>
    <linearGradient id="linear-gradient" x1="281.8" y1="386.7" x2="277.9" y2="386.9" gradientTransform="translate(564 590) scale(1 -1)" gradientUnits="userSpaceOnUse">
      <stop offset="0" stop-color="#f0bdaa"/>
      <stop offset="1" stop-color="#9b553a"/>
    </linearGradient>
    <linearGradient id="linear-gradient-2" x1="185.7" y1="373.8" x2="198" y2="373.8" gradientTransform="translate(564 590) scale(1 -1)" gradientUnits="userSpaceOnUse">
      <stop offset="0" stop-color="#f0bdaa"/>
      <stop offset="1" stop-color="#c07542"/>
    </linearGradient>
  </defs>
  <g class="cls-81">
    <g id="Layer_1" data-name="Layer 1">
      <path class="cls-17" d="M746.5,90c72.9,4,133.4,18.4,201.9,28.2,87.9,12.6,202.8,9.8,257.6,37.6,54.9,27.8,47.8,68.2,14.1,100.1-31.4,29.8-114.3,47-188,64.6-58.1,13.9-129.1,15.1-191.8,26-80,14-138.2,51.5-226.3,47.2-85.7-4.2-127.5-40.5-174.3-66.7-41.4-23.2-94.3-21.8-115.8-48.3-25.3-31.1-86.3-20.4-58.6-51.2,28-31.2,152.2-120.7,235.8-133.6,76.8-11.8,162.7-8.4,245.3-3.9Z"/>
      <path class="cls-29" d="M293.4,241.2c-3.1-7.8,2-26.3,3.3-30.3l99.8,76.5c-12.7-2.8-46.6-5.7-50.3-6.6-4.7-1.2-17.1-8.9-21.7-14-3.7-4-12.9-9.2-17.1-11.3-3.4-1.6-10.9-6.6-14-14.4Z"/>
      <path class="cls-6" d="M391,286.3c-8.6-1.4-21-2.8-30.6-3.8-7.2-.8-12.8-1.4-14.2-1.7-4.7-1.2-17.1-8.9-21.7-14-1.5-1.7-4-3.5-6.7-5.3l1.1-2.9-1.9-5.8.8-5,73.3,38.6Z"/>
      <path class="cls-58" d="M736.1,102.3c89.1,1.3,179.3-10.4,261.1-.2,92.2,11.5,185.5,31,210,58.9,24.3,27.5,29.4,61-30.1,83.8-48.7,18.6-215.8,5.2-276,20.8-73.2,19-91.2,38.2-185.9,46.2-94.8,8-167.3,3.6-245.7-13.6-77-16.8-138.1-50-155.7-77.3-16.6-25.7,33.4-24.9,58.7-50,26.5-26.3,2.6-61.5,82.7-76.6,80.5-15.2,184.6,6.6,281,8Z"/>
      <path class="cls-75" d="M297.1,220.6c.2,3.9,1.5,13.2,4.4,15.7,3.1,2.7,5.2,5.7,9.2,7.1,2.6.9,4.7,2.6,7,4,1,.6,2,1.3,3.1,1.8,1.8.9,2.6,2.4,3.7,3.9.6.8,1.6,2.1,2.5,2.6,2.3,1.4,3.7,3.6,5.8,5.2,2.5,2,5.8,2.8,8.1,5.2,1,1.1,2.5,1.8,3.8,2.4,1.7.8,3.1,2.2,5,2.7,2.8.8,5.8,1.6,8.7,2.2.8.2,6.1,1.5,6.7.3"/>
      <path class="cls-44" d="M713.6,91.5c89.1,1.3,179.3-10.4,261.1-.2,92.2,11.5,185.5,31,210,58.9,24.3,27.5-28.8,56.4-88.3,79.2-48.7,18.6-146.6,18-206.8,33.6-73.2,19-81.2,57.5-176,65.5-94.8,8-194.2-10.4-272.7-27.5-77-16.8-125.1-44.4-142.6-71.6-16.6-25.7,26.5-44.1,51.7-69.2,26.5-26.3,2.6-61.5,82.7-76.6,80.5-15.2,184.6,6.6,281,8Z"/>
      <path class="cls-69" d="M354.2,136.3c.3,2.8,2.7,4,4.7,5.8,4.1,3.6,7.8,7.7,11.8,11.6,9.3,8.9,18.2,17.4,29.8,23.3,30.4,15.5,64.5,15,97.7,9.6,15.6-2.5,31.2-5.9,47-6.2,12.2-.2,30.4-1.7,39,9,5.7,7.1-2.5,12.6-9,12.6s-8.5,0-12.8,0c-4.3,0-8.2-2.8-12.5-3.6-11.6-2.3-22.3-6.7-34.3-6.7s-20.9-.4-31.3,0c-5.4.2-12.8-1.7-18.3-1.7s-12,0-14,0"/>
      <path class="cls-48" d="M918.2,45.1c-40.4-1.2-81.3,40.9-96.7,62.1h206.5c-19.8-20.2-69.5-60.9-109.9-62.1Z"/>
      <path class="cls-57" d="M797.1,59.5c-32.9-10.2-70.5,13.5-87.7,34.9l131.6,16.7h157.2c-44.8-12.9-168.2-41.4-201.1-51.6Z"/>
      <path class="cls-38" d="M1017.6,73.5c35.1-1.2,65.2,24.6,73,37.7h-255c29.6-12,147-36.4,182.1-37.7Z"/>
      <path class="cls-22" d="M709.8,94.4c2.8,0,6.3.5,10.3,1.2l64.2,7.7c13.5,6.2,38.2,21,29.5,30.3-10.9,11.6-34.2,18.2-36.1,24.1-1.9,5.8,22.9,6.6,57.1,19.4,27.3,10.2,26.9,35.8,23.3,47.4-5.3,6.5-17.4,23.3-23.3,38.8-5.9,15.5-13.5,25-8.5,26.8-27.2,16.7-66.8,37.8-81.1,29.1-14.3-8.7,13.6-34.5,23.3-46.6,12.3-8.4,35.9-29.8,32.2-48.1-3.7-18.3-30.5-27.3-43.5-29.5-13.8-4.9-41-16.8-38.8-25.2,2.2-8.4,13.8-17,19.4-20.2,15.8-5.8,43.1-21,26-34.9-13-10.6-30.8-16.6-43.6-18.9l-10.3-1.2Z"/>
      <path class="cls-31" d="M946.5,133.6c17.2-.4,35.4,0,49,1.7,15.1,2,25.3,5,26,8.2.7,3.3-7,6.7-22.5,8.8-14.4,1.9-34.2.9-52.5,1.2-21.8.3-47.9,3.2-63.2.6-15.4-2.6-1.2-7,4.6-10.6,3.9-2.4,12.1-4.3,22.5-6,10.5-1.8,21.4-3.5,36.2-3.9Z"/>
      <path class="cls-24" d="M950.5,70.4l-40.5,19.6v52.3l40.5,3.8v-75.8Z"/>
      <path class="cls-5" d="M1012.4,84.5l-61.9-14.2v75.7l61.9-4.1v-57.5Z"/>
      <path class="cls-50" d="M582.9,247.1l-146.1,58.8c236.8,31.2,414.1,19.8,470.5,6.7l-124.8-65.6h-199.6Z"/>
      <path class="cls-18" d="M436.9,318.9v-13c162,21.6,381.1,14.3,470.5,6.7v14.5c-290.2,17.8-400.4,4.3-470.5-8.2Z"/>
      <path class="cls-50" d="M510.1,312.7l-20.2,8.7-20.2-1.4,20.2-8.2,20.2,1Z"/>
      <path class="cls-16" d="M469.7,333.9v-14l20.2,1.4v14.5l-20.2-1.9Z"/>
      <path class="cls-20" d="M508.2,329l-18.3,6.7v-14.5l18.3-7.8v15.6Z"/>
      <path class="cls-20" d="M844.4,338.3l.4-14-20.3.9-.4,14.5,20.3-1.4Z"/>
      <path class="cls-18" d="M806,332.4l18.1,7.3.4-14.5-18.1-7.3-.4,14.5Z"/>
      <path class="cls-50" d="M804.2,317.5l20.3,7.7,20.3-.9-20-8.8-20.6,2Z"/>
      <path class="cls-12" d="M768.4,298.1l-6.3,7.3v-48.1l2.4-10.7,3.9,6.8v44.7Z"/>
      <path class="cls-4" d="M551,257.3v48.1h211.1v-48.1h-211.1Z"/>
      <path class="cls-26" d="M553.4,247.1l211.1-.5-2.4,10.7h-211.1l2.4-10.2Z"/>
      <rect class="cls-56" x="587.6" y="257.2" width="33.7" height="48.2"/>
      <rect class="cls-54" x="621.4" y="257.2" width="21.2" height="48.2"/>
      <rect class="cls-54" x="710.1" y="257.2" width="21.2" height="48.2"/>
      <rect class="cls-59" x="642.6" y="257.2" width="33.7" height="48.2"/>
      <rect class="cls-15" x="676.3" y="257.2" width="33.7" height="48.2"/>
      <g class="cls-82">
        <rect class="cls-36" x="679.2" y="262" width="5" height="9"/>
      </g>
      <g class="cls-82">
        <rect class="cls-36" x="687.2" y="262" width="5" height="9"/>
      </g>
      <g class="cls-82">
        <rect class="cls-36" x="695.2" y="262" width="5" height="9"/>
      </g>
      <g class="cls-82">
        <rect class="cls-36" x="703.2" y="262" width="5" height="9"/>
      </g>
      <g class="cls-82">
        <rect class="cls-36" x="646.4" y="267.8" width="5" height="9"/>
      </g>
      <g class="cls-82">
        <rect class="cls-36" x="654.4" y="267.8" width="5" height="9"/>
      </g>
      <g class="cls-82">
        <rect class="cls-36" x="662.4" y="267.8" width="5" height="9"/>
      </g>
      <g class="cls-82">
        <rect class="cls-36" x="670.4" y="267.8" width="5" height="9"/>
      </g>
      <g class="cls-82">
        <rect class="cls-36" x="590.5" y="267.8" width="5" height="9"/>
      </g>
      <g class="cls-82">
        <rect class="cls-36" x="598.5" y="267.8" width="5" height="9"/>
      </g>
      <g class="cls-82">
        <rect class="cls-36" x="606.5" y="267.8" width="5" height="9"/>
      </g>
      <g class="cls-82">
        <rect class="cls-36" x="614.5" y="267.8" width="5" height="9"/>
      </g>
      <g class="cls-82">
        <rect class="cls-36" x="625.2" y="261.1" width="4.8" height="8.7"/>
      </g>
      <g class="cls-82">
        <rect class="cls-36" x="713.9" y="263" width="4.8" height="8.7"/>
      </g>
      <g class="cls-82">
        <rect class="cls-36" x="721.6" y="263" width="4.8" height="8.7"/>
      </g>
      <g class="cls-82">
        <rect class="cls-36" x="625.2" y="289" width="4.8" height="8.7"/>
      </g>
      <g class="cls-82">
        <rect class="cls-36" x="713.9" y="290.9" width="4.8" height="8.7"/>
      </g>
      <g class="cls-82">
        <rect class="cls-36" x="721.6" y="290.9" width="4.8" height="8.7"/>
      </g>
      <g class="cls-82">
        <rect class="cls-36" x="632.9" y="261.1" width="4.8" height="8.7"/>
      </g>
      <g class="cls-82">
        <rect class="cls-36" x="632.9" y="289" width="4.8" height="8.7"/>
      </g>
      <g class="cls-82">
        <rect class="cls-36" x="733.2" y="267.8" width="5" height="9"/>
      </g>
      <g class="cls-82">
        <rect class="cls-36" x="741.2" y="267.8" width="5" height="9"/>
      </g>
      <g class="cls-82">
        <rect class="cls-36" x="749.2" y="267.8" width="5" height="9"/>
      </g>
      <g class="cls-82">
        <rect class="cls-36" x="757.2" y="267.8" width="5" height="9"/>
      </g>
      <g class="cls-82">
        <rect class="cls-36" x="646.4" y="285.2" width="5" height="9"/>
      </g>
      <g class="cls-82">
        <rect class="cls-36" x="654.4" y="285.2" width="5" height="9"/>
      </g>
      <g class="cls-82">
        <rect class="cls-36" x="662.4" y="285.2" width="5" height="9"/>
      </g>
      <g class="cls-82">
        <rect class="cls-36" x="670.4" y="285.2" width="5" height="9"/>
      </g>
      <g class="cls-82">
        <rect class="cls-36" x="590.5" y="285.2" width="5" height="9"/>
      </g>
      <g class="cls-82">
        <rect class="cls-36" x="598.5" y="285.2" width="5" height="9"/>
      </g>
      <g class="cls-82">
        <rect class="cls-36" x="606.5" y="285.2" width="5" height="9"/>
      </g>
      <g class="cls-82">
        <rect class="cls-36" x="614.5" y="285.2" width="5" height="9"/>
      </g>
      <g class="cls-82">
        <rect class="cls-36" x="733.2" y="285.2" width="5" height="9"/>
      </g>
      <g class="cls-82">
        <rect class="cls-36" x="741.2" y="285.2" width="5" height="9"/>
      </g>
      <g class="cls-82">
        <rect class="cls-36" x="749.2" y="285.2" width="5" height="9"/>
      </g>
      <g class="cls-82">
        <rect class="cls-36" x="757.2" y="285.2" width="5" height="9"/>
      </g>
      <g class="cls-82">
        <rect class="cls-36" x="679.2" y="275.5" width="5" height="9"/>
      </g>
      <g class="cls-82">
        <rect class="cls-36" x="687.2" y="275.5" width="5" height="9"/>
      </g>
      <g class="cls-82">
        <rect class="cls-36" x="695.2" y="275.5" width="5" height="9"/>
      </g>
      <g class="cls-82">
        <rect class="cls-36" x="703.2" y="275.5" width="5" height="9"/>
      </g>
      <g class="cls-82">
        <rect class="cls-36" x="679.2" y="289" width="5" height="9"/>
      </g>
      <g class="cls-82">
        <rect class="cls-36" x="687.2" y="289" width="5" height="9"/>
      </g>
      <g class="cls-82">
        <rect class="cls-36" x="695.2" y="289" width="5" height="9"/>
      </g>
      <g class="cls-82">
        <rect class="cls-36" x="703.2" y="289" width="5" height="9"/>
      </g>
      <g class="cls-82">
        <rect class="cls-36" x="554.9" y="262" width="5" height="9"/>
      </g>
      <g class="cls-82">
        <rect class="cls-36" x="562.9" y="262" width="5" height="9"/>
      </g>
      <g class="cls-82">
        <rect class="cls-36" x="570.9" y="262" width="5" height="9"/>
      </g>
      <g class="cls-82">
        <rect class="cls-36" x="578.9" y="262" width="5" height="9"/>
      </g>
      <g class="cls-82">
        <rect class="cls-36" x="554.9" y="275.5" width="5" height="9"/>
      </g>
      <g class="cls-82">
        <rect class="cls-36" x="562.9" y="275.5" width="5" height="9"/>
      </g>
      <g class="cls-82">
        <rect class="cls-36" x="570.9" y="275.5" width="5" height="9"/>
      </g>
      <g class="cls-82">
        <rect class="cls-36" x="578.9" y="275.5" width="5" height="9"/>
      </g>
      <g class="cls-82">
        <rect class="cls-36" x="554.9" y="289" width="5" height="9"/>
      </g>
      <g class="cls-82">
        <rect class="cls-36" x="562.9" y="289" width="5" height="9"/>
      </g>
      <g class="cls-82">
        <rect class="cls-36" x="570.9" y="289" width="5" height="9"/>
      </g>
      <g class="cls-82">
        <rect class="cls-36" x="578.9" y="289" width="5" height="9"/>
      </g>
      <g class="cls-82">
        <rect class="cls-36" x="625.2" y="275.5" width="4.8" height="8.7"/>
      </g>
      <g class="cls-82">
        <rect class="cls-36" x="713.9" y="277.4" width="4.8" height="8.7"/>
      </g>
      <g class="cls-82">
        <rect class="cls-36" x="632.9" y="275.5" width="4.8" height="8.7"/>
      </g>
      <g class="cls-82">
        <rect class="cls-36" x="721.6" y="277.4" width="4.8" height="8.7"/>
      </g>
      <path class="cls-27" d="M815.9,283.8h-20.2l-4-3.6h18.4l5.8,3.6Z"/>
      <path class="cls-33" d="M795.7,296v-12.2h20.2v12.2h-20.2Z"/>
      <path class="cls-25" d="M791.7,291.4v-11.2l4,3.6v12.3l-4-4.7Z"/>
      <path class="cls-76" d="M805.4,274.6c-.6,0-1.2-.2-1.7-.2-.6,0-1.2,0-1.8,0-.9,0-1.9-.1-2.7.2-.8.3-1.4.5-1.7,1.3,0,.3,0,.6.3.7.5.5,1.2.7,2,.8,1.2.2,2.5,0,3.8-.2.5,0,1.1-.2,1.6-.4.5-.2.7-.3.7-.9s-.3-.3-.7-.3c-1.2,0-2.4-.3-3.5-.3s-1.8-.1-2.7,0c-.3,0-1,.3-.4.5.5.2,1.1.5,1.6.6.5.1,1.1.1,1.7,0,.4,0,.8-.1,1.2-.1s0,0-.1,0c-.4,0-.7.2-1.1.4-.5.3-1.2.9-1.8.9s0,0-.1-.1c0,0,0,.5.1.6,0,.5-.2,1-.5,1.4-.2.4-.4.7-.6,1-.2.3-.3.7-.4,1,0,.2-.2.4-.2.6s0-.4,0-.5c.2-.8.4-1.5.7-2.2.2-.4.5-1,.5-1.4v-.8c0-.2,0-.3-.1-.1-.2.1-.4.3-.5.5-.7.6-1.5.9-2.1,1.5-.4.4-.8.8-1.2,1.2,0,0-.4.5-.4.2s.4-.5.7-.7c.7-.6,1.5-1.2,2.2-2,.6-.7,1.1-1,2-1.1,1.2-.1,2.4,0,3.5-.3.8-.2,1.9-.3,2.4.5.6,1,1.2,1.9,1.8,2.9.3.4.6.9.9,1.3,0,0,.2.1.1,0-.2-.2-.3-.3-.5-.5-.5-.7-.9-1.3-1.4-2-.2-.3-.5-.7-.7-1-.3-.3-.5-.7-.9-.9-.3-.2-.4-.3-.4,0-.1.5-.4,1.1-.6,1.5-.5,1.2-.8,2.5-.9,3.8,0,.2,0,.8,0,.3"/>
      <path class="cls-76" d="M805.5,274.8c.3,0,.6-.5.8-.6.2-.2.3-.4.4-.6.2-.3.5-.5.7-.7.2-.2.6-.6.6-.9,0,0-.2-.1,0,0,.8.5,1.7.9,2.5,1.3.3.1.6.3.9.4.3.1.7.2.9.5.5.6-1.4-.8-2.1-1.1-.7-.4-1.4-1-2.3-1s-.7,0-.7.1c0,.5-.6,1-.9,1.4-.3.4-.5.8-.8,1.2,0,.1-.4.7-.4.4s.2-.5.2-.7c.3-.6.8-1.2,1.3-1.7.2-.2,0,0,0,0-.2.2-.3.4-.6.5-.5.3-1.2.8-1.8.8"/>
      <path class="cls-76" d="M807.8,272.9c.5,0,1.2,0,1.6.3.2.1.4,0,.6.1.2,0,.4.2.6.2.2,0,1.3.7,1.4.5"/>
      <path class="cls-65" d="M797.4,275.1c-.5,0-1,0-1.4,0-.3,0-.5.1-.8.2-.4,0-.7.1-1.1.2,0,0-.5.1-.4,0,.1-.2.5-.1.7-.2.5,0,1.1,0,1.6-.1.5,0,.9,0,1.4,0s.5,0,.4,0c-.2,0-.8-.2-1-.3-.6-.2-1.2-.5-1.8-.6,0,0-.4,0-.3,0,.6,0,1.2.5,1.7.8.4.2,1,.3,1.3.7.2.3-.6.2-.7.1-.3,0-.7,0-1,0s-.9,0-1-.2"/>
      <path class="cls-65" d="M808.1,271.3c.2-.4.2-.8.4-1.2"/>
      <path class="cls-65" d="M808.3,271.9c.6-.1,1.1-.7,1.6-1,.2-.1.4-.4.6-.5"/>
      <path class="cls-65" d="M801.7,266.8c-.3,0-.5.2-.8.4-.2.2-.6.7-.7,1-.2.8.7,1.2,1.3,1.2.4,0,1.2-.2,1.4-.6.2-.5.3-1,0-1.4-.2-.2-.5-.4-.8-.4-.1,0-.4,0-.5-.2"/>
      <path class="cls-65" d="M801.6,269.6c0,.6-.3,1.2-.3,1.8v1.6c0,.4-.4.7-.6,1.1-.1.3-.4,1.2-.7,1.3"/>
      <path class="cls-65" d="M801.7,269.9c.9,1.3,1.8,2.5,2.9,3.6"/>
      <path class="cls-65" d="M802,269.9c.6.2,1.2.4,1.8.6.3.1.6.4.9.5.1,0,.8.4.8.3"/>
      <path class="cls-8" d="M519.2,264.2l-36.5-5.9v24.1l36.5-1.6v-16.6Z"/>
      <path class="cls-3" d="M496.9,304.8c.8,2,3.2,2.2,4.3,2.1l-1.4-4.1-3.8-3.8c0,1.1.1,3.7.9,5.8Z"/>
      <path class="cls-34" d="M497.6,301.7c.3,5.4,3.7,5.7,5.3,5.2,4.9-1.9,3.9-8.2,2.1-10.3-2.8-.4-7.7-.2-7.4,5.1Z"/>
      <path class="cls-64" d="M460.9,260.9l20.8-8,.7,29.8,36.9-1.5v14.7l-11.2,2.6c-4.1-4.3-7.7-.4-8.9,2.1l-16.3,3.3-21.9-5.4v-37.6Z"/>
      <path class="cls-72" d="M482.9,303.8l-21.9-5.4v-37.6l20.8-8,.7,29.8M482.9,303.8l16.3-3.3c1.3-2.5,4.8-6.4,8.9-2.1l11.2-2.6v-14.7l-36.9,1.5M482.9,303.8l-.5-21.2"/>
      <path class="cls-53" d="M519,264.1l-37-6.1v12.6l37,2.2v-8.7Z"/>
      <path class="cls-79" d="M519.2,264l-37.3-6.1v-4.8l37.3,6.7v4.2Z"/>
      <path class="cls-72" d="M496.1,260.3v21.7"/>
      <path class="cls-72" d="M519.3,259.6l-37.7-6.6.9,29.7,36.8-1.5v-21.5Z"/>
      <path class="cls-72" d="M507.7,262v19.7"/>
      <path class="cls-78" d="M542.2,261.1l-29.5-9.1-29.2,6.1,35.6,5.7,23.2-2.7Z"/>
      <path class="cls-62" d="M491.6,293.5l-.4-5.8h2c.5-.2.8-.1,1.1,0,.3.1.5.3.7.6.2.3.2.6.3.9,0,.3,0,.7-.1.9-.1.3-.3.5-.6.7-.3.2-.6.3-1.1.3h-1.4c0,0,0-.5,0-.5h1.4c.3-.1.6-.2.7-.3.2-.1.3-.3.4-.5,0-.2.1-.4,0-.6,0-.2,0-.4-.2-.6,0-.2-.2-.3-.4-.4-.2,0-.5-.1-.8-.1h-1.2c0,0,.4,5.3.4,5.3h-.7ZM497,293.4l-.5-.3,2.7-4.7.5.3-2.7,4.7ZM498.3,293.2c-.4,0-.7,0-1.1-.2-.3-.2-.6-.4-.7-.7-.2-.3-.3-.7-.3-1.2,0-.5,0-.9.2-1.2.1-.4.4-.6.6-.8.3-.2.6-.3,1-.4.4,0,.7,0,1.1.2.3.2.6.4.7.7.2.3.3.7.3,1.2,0,.5,0,.8-.2,1.2-.1.3-.4.6-.6.8-.3.2-.6.3-1,.4ZM498.3,292.6c.3,0,.5-.1.7-.3.2-.2.3-.4.4-.6,0-.3.1-.5,0-.8,0-.3,0-.6-.2-.8-.1-.2-.3-.4-.5-.6-.2-.1-.5-.2-.8-.2-.3,0-.5.1-.7.3-.2.2-.3.4-.4.6,0,.3-.1.5,0,.8,0,.3,0,.6.2.8.1.2.3.4.5.6.2.1.5.2.8.2ZM501.6,287l.4,5.8h-.7s-.4-5.8-.4-5.8h.7ZM506,289.2l-.6.2c0,0-.1-.2-.2-.3,0,0-.2-.2-.3-.2-.1,0-.3,0-.5,0-.3,0-.5,0-.7.2-.2.1-.2.3-.2.5,0,.2,0,.3.2.4.1,0,.3.2.6.2h.7c.4.2.7.3.9.5.2.2.3.4.3.7,0,.2,0,.5-.2.7-.1.2-.3.4-.6.5-.2.1-.5.2-.9.2-.4,0-.8,0-1.1-.2-.3-.2-.5-.4-.6-.8l.6-.2c0,.2.2.4.4.5.2.1.4.1.7.1.3,0,.6-.1.7-.2.2-.1.3-.3.2-.5,0-.2,0-.3-.2-.4-.1,0-.3-.2-.5-.2h-.7c-.4-.2-.7-.3-.9-.5-.2-.2-.3-.4-.3-.7,0-.2,0-.5.2-.7.1-.2.3-.4.5-.5.2-.1.5-.2.8-.2.4,0,.8,0,1,.2.3.2.5.4.6.7ZM509.2,292.4c-.4,0-.8,0-1.1-.2-.3-.2-.6-.4-.8-.7-.2-.3-.3-.7-.3-1.2,0-.4,0-.8.2-1.2.1-.4.4-.6.6-.8.3-.2.6-.3,1-.4.2,0,.5,0,.7,0,.2,0,.4.2.6.3.2.2.4.4.5.6.1.3.2.6.2,1v.3s-3.3.2-3.3.2v-.6s2.6-.2,2.6-.2c0-.2,0-.5-.2-.6-.1-.2-.3-.3-.4-.4-.2,0-.4-.1-.6-.1-.3,0-.5.1-.7.2-.2.1-.3.3-.4.5,0,.2-.1.4-.1.7v.4c0,.3.1.6.3.8.1.2.3.4.5.5.2.1.5.1.7.1.2,0,.3,0,.5-.1.1,0,.3-.1.4-.3,0-.1.2-.2.2-.4h.7c0,.4-.2.6-.3.7-.2.2-.3.3-.6.4-.2.1-.5.2-.8.2ZM512,292.1l-.3-4.4h.6s0,.6,0,.6h0c0-.2.2-.4.4-.6.2-.1.4-.2.7-.2,0,0,.1,0,.2,0s.1,0,.2,0v.7s0,0-.1,0c0,0-.2,0-.3,0-.2,0-.4,0-.6.2-.2,0-.3.2-.4.4,0,.2-.1.3-.1.5l.2,2.8h-.7Z"/>
      <g class="cls-83">
        <path class="cls-55" d="M491.6,293.5h-1c0,.6.5,1,1.1,1v-1ZM491.2,287.7v-1c-.6,0-1,.5-1,1.1h1ZM494.3,287.8l-.4.9h0s.4-.9.4-.9ZM495,288.4l-.9.5h0l.9-.5ZM495.1,290.3l-.9-.4h0s.9.4.9.4ZM494.5,291l.6.8h0s-.6-.8-.6-.8ZM492,291.4h-1c0,.6.5,1,1.1,1v-1ZM492,290.8v-1c-.6,0-1,.5-1,1.1h1ZM494.1,290.5l-.6-.8h0l.6.8ZM494.5,290l-.9-.4h0s.9.4.9.4ZM494.4,288.7l-.9.5h0s.9-.5.9-.5ZM493.9,288.3l-.4.9h0s.4-.9.4-.9ZM491.9,288.3v-1c-.6,0-1,.5-1,1.1h1ZM492.3,293.5v1c.6,0,1-.5,1-1.1h-1ZM492.6,293.5l-.4-5.8h-2c0,.1.4,5.9.4,5.9h2ZM491.3,288.7h2c0-.1-.1-2.1-.1-2.1h-2c0,.1.1,2.1.1,2.1ZM493.2,288.6c.3,0,.5,0,.6,0l.9-1.8c-.5-.2-1.1-.3-1.6-.3v2ZM493.9,288.7c.1,0,.2.1.3.2l1.7-1c-.3-.5-.7-.8-1.1-1l-.9,1.8ZM494.1,288.9c0,.1.1.3.1.5h2c0-.6-.2-1.1-.4-1.5l-1.7,1ZM494.3,289.4c0,.2,0,.4,0,.5l1.8.8c.2-.4.3-.9.2-1.4h-2ZM494.2,289.9c0,0-.1.2-.2.3l1.1,1.7c.4-.3.8-.7,1-1.2l-1.9-.8ZM494,290.1c0,0-.3.1-.6.2v2c.7,0,1.3-.2,1.7-.5l-1.1-1.7ZM493.4,290.3h-1.4c0,0,.1,2.1.1,2.1h1.4c0,0-.1-2.1-.1-2.1ZM493,291.3v-.6s-2,.1-2,.1v.6s2-.1,2-.1ZM492,291.8h1.4c0,0-.1-2.1-.1-2.1h-1.4c0,0,.1,2.1.1,2.1ZM493.4,291.7c.4,0,.8-.1,1.2-.4l-1.1-1.7s0,0-.3,0v2ZM494.7,291.3c.3-.2.6-.5.8-.9l-1.9-.7s0,0,0,0c0,0,0,0,0,0,0,0,0,0,0,0,0,0,0,0,0,0l1.1,1.7ZM495.4,290.4c.1-.3.2-.7.2-1.1h-2c0,.2,0,.3,0,.3l1.9.7ZM495.6,289.3c0-.4-.1-.7-.3-1l-1.7,1s0,0,0,.2h2ZM495.3,288.3c-.2-.4-.5-.7-.9-.8l-.8,1.8s0,0,0,0c0,0,0,0,0,0s0,0,0,0c0,0,0,0,0,0s0,0,0,0l1.8-1ZM494.4,287.4c-.4-.2-.8-.2-1.3-.2v2c.4,0,.4,0,.4,0l.8-1.8ZM493.1,287.2h-1.2c0,0,.1,2.1.1,2.1h1.2c0,0-.1-2.1-.1-2.1ZM490.9,288.4l.4,5.2h2c0-.1-.4-5.3-.4-5.3h-2ZM492.2,292.5h-.7s.1,2,.1,2h.7s-.1-2-.1-2ZM497,293.4l-.5.9c.2.1.5.2.8.1.3,0,.5-.2.6-.5l-.9-.5ZM496.6,293.1l-.9-.5c-.3.5-.1,1.1.4,1.4l.5-.9ZM499.3,288.4l.5-.9c-.2-.1-.5-.2-.8-.1-.3,0-.5.2-.6.5l.9.5ZM499.7,288.7l.9.5c.3-.5.1-1.1-.4-1.4l-.5.9ZM497.2,293l-.5.9h0s.5-.9.5-.9ZM496.5,292.2l-.9.5h0s.9-.5.9-.5ZM496.3,289.9l-.9-.4h0s.9.4.9.4ZM497,289l-.6-.8h0s.6.8.6.8ZM499,288.9l-.5.9h0s.5-.9.5-.9ZM499.8,289.6l-.9.5h0s.9-.5.9-.5ZM500,292l-.9-.4h0s.9.4.9.4ZM499.3,292.8l-.6-.8h0s.6.8.6.8ZM499,292.3l-.7-.7.7.7ZM499.4,291.7l1,.3h0l-1-.3ZM499.3,290l.9-.4h0l-.9.4ZM498.8,289.5l.6-.8h0l-.6.8ZM497.3,289.6l-.7-.7h0l.7.7ZM496.9,290.2l-1-.3h0l1,.3ZM497,291.8l-.9.4.9-.4ZM497.5,292.4l.6-.8h0l-.6.8ZM497.5,292.5l-.5-.3-1,1.7.5.3,1-1.7ZM497.4,293.6l2.7-4.7-1.7-1-2.7,4.7,1.7,1ZM498.8,289.3l.5.3,1-1.7-.5-.3-1,1.7ZM498.9,288.2l-2.7,4.7,1.7,1,2.7-4.7-1.7-1ZM498.2,292.2c-.2,0-.4,0-.5,0l-.9,1.8c.5.3,1,.4,1.6.3v-2ZM497.7,292.1c-.1,0-.3-.2-.4-.4l-1.7,1c.3.5.7.9,1.1,1.1l1-1.8ZM497.4,291.7c0-.2-.2-.4-.2-.7h-2c0,.7.2,1.2.5,1.7l1.7-1ZM497.2,291c0-.3,0-.6,0-.8l-1.9-.7c-.2.5-.3,1.1-.2,1.6h2ZM497.3,290.2c0-.2.2-.3.3-.4l-1.2-1.6c-.4.3-.8.8-1,1.3l1.9.8ZM497.6,289.8c.1,0,.3-.1.5-.2v-2c-.7,0-1.2.2-1.7.5l1.2,1.6ZM498.1,289.7c.2,0,.4,0,.5,0l1-1.8c-.5-.3-1-.4-1.6-.3v2ZM498.6,289.8c.1,0,.3.2.4.4l1.7-1c-.3-.5-.7-.9-1.1-1.1l-.9,1.8ZM498.9,290.1c0,.2.2.4.2.7h2c0-.7-.2-1.3-.5-1.7l-1.7,1ZM499.1,290.9c0,.3,0,.6,0,.7l1.9.8c.2-.5.3-1.1.2-1.6h-2ZM499,291.6c0,.2-.2.3-.3.4l1.2,1.6c.4-.3.8-.8,1-1.3l-1.9-.8ZM498.7,292c-.1,0-.3.1-.5.2v2c.7,0,1.2-.2,1.7-.5l-1.2-1.6ZM498.3,293.6c.5,0,.9-.2,1.3-.5l-1.3-1.5s0,0,0,0c0,0,0,0-.1,0v2ZM499.7,293c.3-.3.5-.7.7-1.1l-1.9-.6c0,0,0,.1-.1.2l1.3,1.5ZM500.3,291.9c.1-.4.1-.8.1-1.2h-2c0,.3,0,.5,0,.6l1.9.6ZM500.4,290.8c0-.4-.1-.8-.3-1.1l-1.8.8c0,.1,0,.3.1.5h2ZM500.2,289.6c-.2-.4-.4-.7-.8-1l-1.1,1.6s0,0,.1.2l1.8-.8ZM499.4,288.6c-.4-.3-.9-.4-1.4-.4v2c.2,0,.2,0,.2,0,0,0,0,0,0,0l1.1-1.6ZM498,288.3c-.5,0-.9.2-1.3.5l1.4,1.5s0,0,0,0c0,0,0,0,.1,0v-2ZM496.6,288.8c-.3.3-.5.7-.7,1.1l1.9.6c0,0,0-.1.1-.2l-1.4-1.5ZM496,289.9c-.1.4-.1.8-.1,1.2h2c0-.3,0-.5,0-.6l-1.9-.6ZM495.8,291.1c0,.4.1.8.3,1.1l1.8-.8c0-.1,0-.3-.1-.5h-2ZM496.1,292.2c.2.4.4.7.8,1l1.1-1.6s0,0-.1-.2l-1.8.8ZM496.9,293.2c.4.3.9.4,1.4.4v-2c-.2,0-.2,0-.2,0,0,0,0,0,0,0l-1.1,1.6ZM501.6,287h1c0-.6-.5-1-1.1-1v1ZM502,292.8v1c.6,0,1-.5,1-1.1h-1ZM501.3,292.9h-1c0,.6.5,1,1.1,1v-1ZM500.9,287.1v-1c-.6,0-1,.5-1,1.1h1ZM500.6,287.1l.4,5.8h2c0-.1-.4-5.9-.4-5.9h-2ZM501.9,291.8h-.7s.1,2,.1,2h.7s-.1-2-.1-2ZM502.3,292.8l-.4-5.8h-2c0,.1.4,5.9.4,5.9h2ZM501,288.1h.7s-.1-2-.1-2h-.7s.1,2,.1,2ZM506,289.2l.3.9c.3,0,.5-.3.6-.5.1-.2.1-.5,0-.8l-.9.4ZM505.4,289.4l-.9.4c.2.5.8.7,1.2.5l-.3-.9ZM505.3,289.1l-.8.7s0,0,0,0l.7-.7ZM504.9,288.9l.4-.9-.4.9ZM503.8,289l.6.8h0s-.6-.8-.6-.8ZM503.8,289.9l-.6.8h0l.6-.8ZM504.4,290.1l-.2,1h0s.2-1,.2-1ZM505,290.2l-.2,1h0s.2-1,.2-1ZM505.9,290.6l-.7.7h0s.7-.7.7-.7ZM506.1,292l-.8-.5h0s.9.5.9.5ZM503.5,292.5l.5-.9-.5.9ZM502.9,291.7l-.3-1c-.5.2-.8.7-.7,1.2l1-.3ZM503.5,291.5l.9-.3c-.2-.5-.7-.8-1.3-.6l.3,1ZM503.9,292l-.5.9h0s.5-.9.5-.9ZM505.3,291.9l.6.8h0s-.6-.8-.6-.8ZM505.4,291l-.6.8h0s.6-.8.6-.8ZM504.9,290.8l-.2,1h0l.2-1ZM504.1,290.7l-.2,1h0l.2-1ZM503.2,290.3l-.7.7h0s.7-.7.7-.7ZM503.1,288.9l-.8-.5h0s.8.5.8.5ZM503.6,288.4l-.5-.9h0s.5.9.5.9ZM505.5,288.4l-.6.8h0s.5-.8.5-.8ZM505.7,288.2l-.6.2.7,1.9.6-.2-.7-1.9ZM506.4,288.9c0-.2-.2-.4-.4-.5l-1.5,1.3s0,0,0,0l1.8-.8ZM506,288.4c-.2-.2-.4-.4-.7-.5l-.8,1.8s0,0,0,0c0,0,0,0,0,0l1.5-1.3ZM505.3,287.9c-.3-.1-.6-.2-.9-.1v2c.2,0,.2,0,.2,0,0,0,0,0,0,0l.8-1.8ZM504.4,287.8c-.4,0-.8.2-1.2.4l1.2,1.6s0,0,0,0c0,0,0,0,.1,0v-2ZM503.2,288.3c-.4.3-.6.8-.6,1.3h2c0,0,0,0,0,.1,0,0,0,.1,0,.1l-1.2-1.6ZM502.6,289.6c0,.4.2.9.6,1.1l1.1-1.6c0,0,.1,0,.2.2,0,0,0,.2,0,.2h-2ZM503.2,290.7c.3.2.7.3,1,.4l.4-2c0,0-.2,0-.2,0,0,0,0,0,0,0l-1.1,1.6ZM504.2,291.1h.7c0,.1.3-1.9.3-1.9h-.7c0-.1-.3,1.9-.3,1.9ZM504.9,291.2c.3,0,.4.1.4.1l1.3-1.5c-.4-.4-.9-.5-1.4-.6l-.3,2ZM505.3,291.3s0,0,0,0c0,0,0,0,0,0,0,0,0,0,0,0h2c0-.7-.2-1.2-.7-1.5l-1.3,1.5ZM505.3,291.4s0,0,0,0l1.7,1.1c.2-.4.4-.8.3-1.3h-2ZM505.2,291.5s0,0-.2.2l.9,1.8c.4-.2.7-.5.9-.9l-1.7-1.1ZM505.1,291.6c-.1,0-.3.1-.5.1v2c.6,0,1-.1,1.4-.3l-.9-1.8ZM504.6,291.7c-.3,0-.5,0-.6,0l-1,1.7c.5.3,1.1.4,1.7.3v-2ZM504,291.7c0,0-.1,0-.1-.2l-1.9.5c.2.6.5,1.1,1.1,1.4l1-1.7ZM503.2,292.7l.6-.2-.6-1.9-.6.2.6,1.9ZM502.6,291.8c.1.4.4.8.8,1l1-1.7s0,0,0,0c0,0,0,0,0,0,0,0,0,0,0,0l-1.9.6ZM503.4,292.9c.4.2.8.3,1.3.3v-2c-.3,0-.3,0-.2,0l-1,1.7ZM504.7,293.1c.4,0,.9-.2,1.3-.5l-1.3-1.5s0,0-.2,0v2ZM506,292.7c.4-.3.6-.8.6-1.3h-2c0,0,0,0,0-.1,0,0,0,0,0,0l1.3,1.5ZM506.6,291.3c0-.4-.2-.8-.5-1.1l-1.3,1.5s0,0-.1-.2c0,0,0-.1,0-.2h2ZM506,290.3c-.3-.3-.7-.4-1-.4l-.3,2s0,0,0,0c0,0,0,0,0,0,0,0,0,0,0,0l1.3-1.5ZM505,289.8h-.7c0-.1-.3,1.9-.3,1.9h.7c0,.1.3-1.9.3-1.9ZM504.3,289.7c-.1,0-.2,0-.3,0,0,0,0,0,0,0l-1.4,1.5c.4.4.9.5,1.4.6l.3-2ZM503.9,289.6s0,0,0,0c0,0,0,0,0,0h0s0,0,0,0,0,0,0,0h-2c0,.7.2,1.1.6,1.5l1.4-1.5ZM503.9,289.5s0,0,0,0c0,0,0,0,0,0l-1.7-1.1c-.2.4-.3.8-.3,1.3h2ZM503.9,289.5s0,0,.2-.1l-.9-1.8c-.4.2-.7.5-.9.8l1.7,1.1ZM504.1,289.3c0,0,.2,0,.4-.1v-2c-.6,0-1,.1-1.3.3l.9,1.8ZM504.5,289.2c.3,0,.4,0,.4,0l1.1-1.7c-.5-.3-1.1-.4-1.7-.4v2ZM504.9,289.3c0,0,.2.1.2.3l1.8-.8c-.2-.5-.5-.9-1-1.2l-1.1,1.7ZM508.1,292.2l-.5.9h0s.5-.9.5-.9ZM507.3,291.5l-.9.5h0s.9-.5.9-.5ZM507.2,289.1l-.9-.4h0s.9.4.9.4ZM507.8,288.3l.6.8h0s-.6-.8-.6-.8ZM509.5,288l.3-1h0l-.3,1ZM510.1,288.3l-.6.8h0s.6-.8.6-.8ZM510.6,289l.9-.4h0l-.9.4ZM510.8,290.3v1c.6,0,1-.5,1-1.1h-1ZM507.5,290.5h-1c0,.6.5,1,1.1,1v-1ZM507.4,289.9v-1c-.6,0-1,.5-1,1.1h1ZM510.1,289.7v1c.6,0,1-.5,1-1.1h-1ZM509.9,289.1l-.9.5h0s.9-.5.9-.5ZM509.5,288.7l-.5.9h0s.5-.9.5-.9ZM508.2,288.8l.6.8h0s-.6-.8-.6-.8ZM507.8,289.3l-.9-.4h0l.9.4ZM507.9,291.2l-.9.5h0s.9-.5.9-.5ZM508.4,291.7l-.4.9h0s.4-.9.4-.9ZM509.6,291.7l.4.9h0s-.4-.9-.4-.9ZM510,291.5l.7.7h0s-.7-.7-.7-.7ZM510.2,291.1l.2-1c-.5-.1-1,.2-1.2.7l1,.3ZM510.8,291.2l1,.2c0-.3,0-.5-.1-.8-.1-.2-.4-.4-.6-.4l-.2,1ZM510.5,291.8l.8.6h0s-.8-.6-.8-.6ZM510,292.2l.4.9h0s-.4-.9-.4-.9ZM509.1,291.4c-.3,0-.4,0-.6,0l-.9,1.8c.5.3,1.1.4,1.6.3v-2ZM508.5,291.3c-.1,0-.3-.2-.4-.4l-1.7,1c.3.5.7.9,1.2,1.1l.9-1.8ZM508.2,291c0-.2-.2-.4-.2-.7h-2c0,.7.2,1.2.5,1.7l1.7-1ZM508,290.3c0-.3,0-.6,0-.8l-1.9-.7c-.2.5-.3,1.1-.2,1.6h2ZM508.1,289.5c0-.2.2-.3.3-.4l-1.2-1.6c-.4.3-.8.8-1,1.3l1.9.7ZM508.4,289.1c.1,0,.3-.1.5-.2v-2c-.7,0-1.2.2-1.7.6l1.2,1.6ZM508.9,288.9c.1,0,.2,0,.4,0l.5-1.9c-.3,0-.7-.1-1,0v2ZM509.2,289c0,0,.2,0,.3.1l1.3-1.5c-.3-.2-.6-.4-1-.5l-.5,1.9ZM509.5,289.1c0,0,.1.1.2.3l1.8-.8c-.2-.4-.4-.7-.8-1l-1.3,1.6ZM509.7,289.4c0,.1.1.3.1.7h2c0-.6-.1-1.1-.3-1.5l-1.8.8ZM509.8,290v.3s2-.1,2-.1v-.3s-2,.1-2,.1ZM510.8,289.3l-3.4.2v2c.1,0,3.5-.2,3.5-.2v-2ZM508.5,290.4v-.6s-2,.1-2,.1v.6s2-.1,2-.1ZM507.5,290.9l2.7-.2v-2c-.1,0-2.8.2-2.8.2v2ZM511.1,289.7c0-.4-.1-.8-.3-1.1l-1.7,1s0,0,0,.2h2ZM510.8,288.6c-.2-.3-.5-.6-.8-.8l-.9,1.8s0,0,0,0l1.7-1ZM510,287.8c-.4-.2-.8-.3-1.2-.2v2c.2,0,.2,0,.2,0,0,0,0,0,0,0l.9-1.8ZM508.8,287.5c-.4,0-.9.2-1.2.5l1.2,1.6s0,0,.1,0v-2ZM507.6,288c-.3.3-.6.6-.7.9l1.8.8c0,0,0,0,.1-.1l-1.2-1.6ZM506.8,288.9c-.1.4-.2.7-.2,1.1h2c0-.2,0-.3,0-.4l-1.8-.8ZM506.7,290.1v.4s2-.1,2-.1v-.4s-2,.1-2,.1ZM506.7,290.5c0,.4.1.9.4,1.3l1.7-1c0,0,0-.2,0-.4h-2ZM507,291.7c.2.4.5.7.9.9l.9-1.8s0,0-.1-.1l-1.7,1ZM508,292.6c.4.2.8.3,1.2.2v-2c-.3,0-.3,0-.4,0l-.9,1.8ZM509.2,292.8c.3,0,.5,0,.8-.2l-.8-1.8s0,0-.1,0v2ZM510,292.6c.3-.1.5-.3.7-.5l-1.5-1.3h0s0,0,0,0l.8,1.8ZM510.7,292.1c.2-.2.3-.5.4-.8l-1.9-.6s0,0,0,0c0,0,0,0,0,0l1.5,1.3ZM510,292h.7c0,.1.4-1.8.4-1.8h-.7c0-.1-.4,1.8-.4,1.8ZM509.9,291c0,0,0,.1,0,.2l1.5,1.3c.2-.3.4-.6.5-1l-1.9-.5ZM509.8,291.2c0,0-.1.1-.2.2l.9,1.8c.3-.2.7-.4.9-.7l-1.5-1.3ZM509.5,291.3c-.1,0-.2,0-.4.1v2c.5,0,.9-.1,1.3-.3l-.8-1.8ZM512,292.1h-1c0,.6.5,1,1.1,1v-1ZM511.7,287.8v-1c-.6,0-1,.5-1,1.1h1ZM512.3,287.7h1c0-.6-.5-1-1.1-1v1ZM512.4,288.4h-1c0,.6.5,1,1.1,1v-1ZM512.4,288.4v1c.5,0,.8-.3,1-.7l-1-.3ZM512.8,287.8l-.6-.8h0l.6.8ZM513.9,287.6h1c0-.6-.5-1-1-1v1ZM513.9,288.3l-.2,1c.3,0,.6,0,.8-.2.2-.2.4-.5.3-.8h-1ZM513.8,288.2v1c0,0,0,0,0,0v-1ZM512.9,288.4l.5.9h0s-.5-.9-.5-.9ZM512.6,288.8l-.9-.5h0s.9.5.9.5ZM512.7,292.1v1c.6,0,1-.5,1-1.1h-1ZM513,292.1l-.3-4.4h-2c0,.1.3,4.5.3,4.5h2ZM511.8,288.8h.6s-.1-2-.1-2h-.6s.1,2,.1,2ZM511.3,287.8v.7s2-.1,2-.1v-.7s-2,.1-2,.1ZM512.5,289.4h0s-.1-2-.1-2h0s.1,2,.1,2ZM513.4,288.7s0,0,0,0h0s0,0,0,0l-1.2-1.6c-.4.3-.6.6-.8,1.1l1.9.6ZM513.4,288.6s0,0,.2,0v-2c-.6,0-1,.2-1.4.4l1.2,1.6ZM513.6,288.6s0,0,.2,0v-2c-.2,0-.2,0-.3,0v2ZM513.7,288.6s0,0,0,0c0,0,0,0,0,0v-2s-.1,0-.2,0v2ZM512.9,287.6v.7s2-.1,2-.1v-.7s-2,.1-2,.1ZM514.1,287.3c0,0-.2,0-.3,0v2c-.1,0,0,0,0,0,0,0,0,0,0,0s0,0,0,0c0,0,0,0,0,0l.3-2ZM513.9,287.2c-.1,0-.3,0-.4,0v2c.2,0,.2,0,.2,0l.2-2ZM513.4,287.2c-.4,0-.7.1-1,.3l1.1,1.7s0,0,0,0v-2ZM512.4,287.6c-.3.2-.6.5-.7.8l1.8.9s0,0,0,0h0s0,0,0,0c0,0,0,0,0,0l-1.1-1.7ZM511.7,288.3c-.2.3-.2.7-.2,1.1h2c0-.2,0-.2,0-.2,0,0,0,0,0,0,0,0,0,0,0,0l-1.8-.9ZM511.5,289.4l.2,2.8h2c0-.1-.2-2.9-.2-2.9h-2ZM512.6,291.1h-.7s.1,2,.1,2h.7s-.1-2-.1-2Z"/>
      </g>
      <path class="cls-31" d="M837.1,190c21,3.2,42.9,8.8,58.3,17.2,17.1,9.3,27.8,20.2,26.7,29.2-1.1,9.3-12.4,16.7-32.3,18.5-18.5,1.6-41.9-6.1-64.2-10-26.6-4.6-59.8-3.4-76.9-14.5-17.1-11.1,2.6-19.7,11.7-28,6.1-5.6,17.2-8.8,30.7-11,13.7-2.2,28-4.2,46-1.5Z"/>
      <path class="cls-31" d="M674.2,94.8c17.4,2.6,35.4,7.3,48.1,14.2,14.1,7.7,22.9,16.7,22,24.1-.9,7.7-10.3,13.8-26.7,15.3-15.3,1.3-34.6-5-53-8.2-22-3.8-49.4-2.8-63.5-12-14.1-9.2,2.2-16.3,9.6-23.1,5-4.6,14.2-7.2,25.4-9,11.3-1.8,23.1-3.5,38-1.2Z"/>
      <path class="cls-21" d="M843.3,208.3l-4.7,2.2,11.9,2.7-7.2-4.9Z"/>
      <path class="cls-9" d="M842.7,194.2l41.3,9.7c-11.8,2.8-35.1,8.4-34.8,8.6h0s0,0,0,0l-7.2-3,.8-15.2Z"/>
      <path class="cls-2" d="M912.2,196.3l-78.1-16.5,1.2,13.4,47,11.2,29.8-8.1Z"/>
      <path class="cls-13" d="M834.3,192.3l-1,16.9-33.8-10.4,34.8-6.5Z"/>
      <path class="cls-10" d="M912.2,196.3l-63.1,15.9,3.6,19.5,74.9-22.9-15.4-12.5Z"/>
      <path class="cls-10" d="M834.1,193.4l-36.9,6.2-24.1-10.1,61.1-9.6,2.4,6.9-3.2,2,.7,1.1v3.5Z"/>
      <path class="cls-42" d="M834.1,189.9l-1.4,18.6c3.3,4,7.7,2.3,9.5,1l.6-18.8c-3.9,1-7.4,0-8.7-.8Z"/>
      <path class="cls-30" d="M773.1,189.4l-16.8,11.1c0,6.4,65.1,24.2,97.5,31.9l-4.8-20.1c-10.3-1.5-54.9-15.9-76-22.8Z"/>
      <path class="cls-37" d="M761.8,222.7l89.7,31.3,2.7-23.1c-9.5.3-69.1-20.1-97.9-30.5l5.5,10.4v11.9Z"/>
      <path class="cls-45" d="M749.7,220.9c2.8,3.6,9.4,2.4,12.3,1.4v-11.2c-6.5.6-10.9-1.2-12.2-2.1v11.9Z"/>
      <path class="cls-13" d="M925.3,229.1l-73.8,24.8,2-23.1,74.1-22-2.3,20.3Z"/>
      <path class="cls-52" d="M749,208.7l7.2-8.5,6.2,11.5c-9.7.6-12.9-1.7-13.4-2.9Z"/>
      <path class="cls-77" d="M843.8,189.9c-4.3,3.1-9,.5-10.8-1.2,1.3-.3,4.4-3.2,5.8-4.6.6,1.1,3.3,4.4,5,5.8Z"/>
      <path class="cls-74" d="M721.7,123c1.6,1.5,4.4,4.9,6.7,5.1,1.2,0,2.3.5,3.6.5s2.3-.8,3.3-1.3c1.8-.9,4.3-.8,5.2,1.2.5,1.1,1.8,3.2,3,3.6,1.2.4,2.4,0,3.7,0,3,0,5.9,1,8.8,1.3,4.1.5,11.3.3,11.4-5.4.1-5.2-6.2-7.9-10.4-9.4-2.1-.7-4.9-1.9-7.2-1.2-2.1.7-2.5,1.8-3.6,3.4-1.1,1.6-2.9,3.9-1.2,5.8.4.5.7,1.9,1.1,2.2.7.5,1.1,1,1.7,1.6"/>
      <path class="cls-74" d="M582.1,122.2c.2,1.9.6,3.8,1.3,5.6,1.2,2.9,2.1,6.1,4,8.6,1,1.3,3.3,1.5,4.8,1.7,3,.3,5.9-.6,8.8-1.3,2.4-.5,4.8-1.4,7.3-1.9,1.3-.2,2.5-.3,3-1.7,1.4-3.6-.2-7.9-1.5-11.2-.6-1.4-1.4-2.7-1.9-4.2-.2-.6-.5-2.1-1.3-2.1s-1.1.2-1.7.4c-2.5.7-5.1,1.2-7.6,1.7-3.2.7-6.5,1-9.7,1.9-2.2.7-5.1-.1-7.1,1.5-1,.8,3.5,7.3,3.9,8,2.2,3.7,4.6,8.1,8,11,1.5,1.3,2.7,1.4,4.5.3,3.5-2.3,6.6-5.3,10.5-7.2,2-1,4.5-2.2,5.4-4.4.7-1.6-1-2.8-.7-4.2,0-.5,7,3,7.5,3.4.5.3,4.8,4.7,4.9,3.3.2-1.9-.8-3.7-.8-5.7s.5-.6,1.2.8c.6,1.1,1.3,1.9,2,2.9.2.3.8,1.3.8,1.1"/>
      <path class="cls-66" d="M592.5,125.4c-1.3-.1-5-1.3-3.9-.6.2.1,2,.7,1.9.8-.3.8-4.3-2.3-5.2-2.7-.4-.2,1.4,3,1.6,3.4.9,1.8,2.2,3.6,3.5,5.1.7.8,1.7,2.2,2.7,2.7,2,1,4.2-.9,5.8-1.9,1.8-1.1,3.4-1.9,5.4-2.5,1.2-.4,2.8-1,3.8-1.7,1-.7,1.1-.4.6-1.6-.8-1.8-2.1-3.1-3.8-3.9-.7-.3-4.2-1.2-4.3-2,0-.7,3.3-.4,3.5.9.1.7.4,1.1,0,1.9-.7,1.5-4.1.8-5,.7-3.8-.4-4.2-.9-6.8-.9"/>
      <path class="cls-74" d="M747.3,128.3c1.2,1.1,2.9,2,4.4,2.7,1.3.6,2.5,1.8,4,1.9,2.5.2,4.9.3,7.3.3"/>
      <path class="cls-74" d="M767.6,126.2c-1.4-1.2-3.8-1.9-5.5-2.7-.9-.4-1.7-1.6-2-2.5-.3-.8-1.6-1.4-2.4-1.6-1.7-.5-3.2-1.2-5.1-1.2s-1.4,0-2.1.7c-.5.5-.9.9-1.6.9"/>
      <path class="cls-66" d="M592.9,127c.6.4,7.4,2.6,7.8,1.9"/>
      <path class="cls-23" d="M692.1,87.1c1.3-.5,27.8,10.7,40.8,16l-11.8,13.2-36.4-19.9c1-4.4,5.2-7.7,7.4-9.2Z"/>
      <path class="cls-27" d="M707.9,87.5c-5.7-.6-13.3-.3-16.3,0l36.1,17.3h8.6l1.6-1.4c-12.5-3.7-24.2-12.9-30-15.9Z"/>
      <path class="cls-23" d="M691.6,142.7l-9.1-3.7c-8.7-6.9-26.1-22.6-26.1-30.8s6.3-13.1,9.4-14.6c1.8,5.3,35.2,14.7,47.6,19.8l-21.8,29.3Z"/>
      <path class="cls-27" d="M721.7,115.4l-12.5-1.1c-13.7-6.3-45.8-18.3-44-20,1.8-1.7,14.5.2,20.5,1.3l35.9,19.8Z"/>
      <path class="cls-23" d="M606.3,98.5c5-14.2,9.7-16.9,11.3-16.4l49.8,44.4-19.1,28.8c-6.1-3.5-21.7-25.1-28.8-35.5-10.9-10.4-13.4-18.5-13.3-21.3Z"/>
      <path class="cls-27" d="M641.4,88.9c-15-6.5-22.5-7.2-24.4-6.8,5.5,15.2,14.2,24.2,17.8,28.9,2.8,3.7,24,11,31.7,15h19.6c-21.5-9.8-38.7-28.9-44.6-37.1Z"/>
      <path class="cls-32" d="M683.3,139.3l-35.3,16c4-24.6,13.4-30.3,17.6-30.1l20.5,1.3-2.7,12.9Z"/>
      <path class="cls-32" d="M707.9,113.8l12.6.8c2.6-10,6-11.7,7.4-11.2h10l-2.1,18.6-7.1,4.2-4.2-1.4v-2.7l-1.6.8v3.4h-2.4l-28.9,16.5c7-24.5,13.8-29.5,16.3-28.9Z"/>
      <g class="cls-80">
        <rect class="cls-27" x="659.6" y="128.8" width="1.9" height="7"/>
      </g>
      <g class="cls-80">
        <rect class="cls-27" x="663.3" y="127" width="1.9" height="7"/>
      </g>
      <g class="cls-80">
        <rect class="cls-27" x="663.8" y="135.8" width="1.9" height="7"/>
      </g>
      <g class="cls-80">
        <rect class="cls-27" x="656.4" y="136.7" width="1.9" height="7"/>
      </g>
      <g class="cls-80">
        <rect class="cls-27" x="668.4" y="130.7" width="1.9" height="7"/>
      </g>
      <g class="cls-80">
        <rect class="cls-27" x="668.4" y="139.5" width="1.9" height="5.1"/>
      </g>
      <g class="cls-80">
        <rect class="cls-27" x="673.1" y="127.4" width="1.9" height="5.1"/>
      </g>
      <g class="cls-80">
        <rect class="cls-27" x="673.1" y="135.3" width="1.9" height="5.1"/>
      </g>
      <g class="cls-80">
        <rect class="cls-27" x="660.1" y="141.8" width="1.9" height="5.1"/>
      </g>
      <g class="cls-80">
        <rect class="cls-27" x="653.1" y="145.5" width="1.9" height="5.1"/>
      </g>
      <g class="cls-80">
        <path class="cls-27" d="M677,129h1.9v7h-1.9v-7Z"/>
      </g>
      <g class="cls-80">
        <rect class="cls-27" x="707.4" y="121.4" width="1.9" height="7"/>
      </g>
      <g class="cls-80">
        <rect class="cls-27" x="704.6" y="117.7" width="1.9" height="7"/>
      </g>
      <g class="cls-80">
        <rect class="cls-27" x="731.9" y="110.7" width="1.9" height="7"/>
      </g>
      <g class="cls-80">
        <rect class="cls-27" x="700.9" y="122.8" width="1.9" height="7"/>
      </g>
      <g class="cls-80">
        <rect class="cls-27" x="712" y="116.3" width="1.9" height="7"/>
      </g>
      <g class="cls-80">
        <rect class="cls-27" x="728.7" y="116.3" width="1.9" height="5.1"/>
      </g>
      <g class="cls-80">
        <rect class="cls-27" x="728.7" y="108" width="1.9" height="5.1"/>
      </g>
      <g class="cls-80">
        <rect class="cls-27" x="716.6" y="120.9" width="1.9" height="5.1"/>
      </g>
      <g class="cls-80">
        <rect class="cls-27" x="703.7" y="127.4" width="1.9" height="5.1"/>
      </g>
      <g class="cls-80">
        <rect class="cls-27" x="696.7" y="131.1" width="1.9" height="5.1"/>
      </g>
      <circle class="cls-39" cx="403.5" cy="33.1" r="17.9"/>
      <circle class="cls-39" cx="403.5" cy="33.1" r="17.9"/>
      <circle class="cls-39" cx="421.3" cy="24.5" r="17.9"/>
      <circle class="cls-39" cx="421.3" cy="24.5" r="17.9"/>
      <circle class="cls-39" cx="421.3" cy="45.5" r="17.9"/>
      <circle class="cls-39" cx="421.3" cy="45.5" r="17.9"/>
      <circle class="cls-39" cx="396.5" cy="55.6" r="17.9"/>
      <circle class="cls-39" cx="396.5" cy="55.6" r="17.9"/>
      <circle class="cls-39" cx="419.8" cy="68.8" r="17.9"/>
      <circle class="cls-39" cx="419.8" cy="68.8" r="17.9"/>
      <circle class="cls-39" cx="439.2" cy="38.5" r="17.9"/>
      <circle class="cls-39" cx="439.2" cy="38.5" r="17.9"/>
      <circle class="cls-39" cx="439.2" cy="62.6" r="17.9"/>
      <circle class="cls-39" cx="439.2" cy="62.6" r="17.9"/>
      <circle class="cls-39" cx="440.4" cy="17.9" r="9.7"/>
      <circle class="cls-39" cx="440.4" cy="17.9" r="9.7"/>
      <circle class="cls-39" cx="435.3" cy="54.8" r="17.9"/>
      <circle class="cls-51" cx="435.3" cy="54.8" r="17.9"/>
      <circle class="cls-39" cx="453.2" cy="46.3" r="17.9"/>
      <circle class="cls-51" cx="453.2" cy="46.3" r="17.9"/>
      <circle class="cls-39" cx="453.2" cy="67.2" r="17.9"/>
      <circle class="cls-51" cx="453.2" cy="67.2" r="17.9"/>
      <circle class="cls-39" cx="428.3" cy="77.3" r="17.9"/>
      <circle class="cls-51" cx="428.3" cy="77.3" r="17.9"/>
      <circle class="cls-39" cx="451.6" cy="90.5" r="17.9"/>
      <circle class="cls-51" cx="451.6" cy="90.5" r="17.9"/>
      <circle class="cls-39" cx="471" cy="60.3" r="17.9"/>
      <circle class="cls-51" cx="471" cy="60.3" r="17.9"/>
      <circle class="cls-39" cx="471" cy="84.3" r="17.9"/>
      <circle class="cls-51" cx="471" cy="84.3" r="17.9"/>
      <circle class="cls-39" cx="472.2" cy="39.7" r="9.7"/>
      <circle class="cls-51" cx="472.2" cy="39.7" r="9.7"/>
      <circle class="cls-39" cx="418.2" cy="56.4" r="17.9"/>
      <circle class="cls-51" cx="418.2" cy="56.4" r="17.9"/>
      <circle class="cls-39" cx="400.4" cy="47.8" r="17.9"/>
      <circle class="cls-51" cx="400.4" cy="47.8" r="17.9"/>
      <circle class="cls-39" cx="400.4" cy="68.8" r="17.9"/>
      <circle class="cls-51" cx="400.4" cy="68.8" r="17.9"/>
      <circle class="cls-39" cx="425.2" cy="78.9" r="17.9"/>
      <circle class="cls-51" cx="425.2" cy="78.9" r="17.9"/>
      <circle class="cls-39" cx="401.9" cy="92.1" r="17.9"/>
      <circle class="cls-51" cx="401.9" cy="92.1" r="17.9"/>
      <circle class="cls-39" cx="382.5" cy="61.8" r="17.9"/>
      <circle class="cls-51" cx="382.5" cy="61.8" r="17.9"/>
      <circle class="cls-39" cx="382.5" cy="85.9" r="17.9"/>
      <circle class="cls-51" cx="382.5" cy="85.9" r="17.9"/>
      <circle class="cls-39" cx="381.4" cy="41.2" r="9.7"/>
      <circle class="cls-51" cx="381.4" cy="41.2" r="9.7"/>
      <circle class="cls-39" cx="456.3" cy="64.9" r="17.9"/>
      <circle class="cls-39" cx="456.3" cy="64.9" r="17.9"/>
      <circle class="cls-39" cx="438.4" cy="56.4" r="17.9"/>
      <circle class="cls-39" cx="438.4" cy="56.4" r="17.9"/>
      <circle class="cls-39" cx="438.4" cy="77.3" r="17.9"/>
      <circle class="cls-39" cx="438.4" cy="77.3" r="17.9"/>
      <circle class="cls-39" cx="463.3" cy="87.4" r="17.9"/>
      <circle class="cls-39" cx="463.3" cy="87.4" r="17.9"/>
      <circle class="cls-39" cx="440" cy="100.6" r="17.9"/>
      <circle class="cls-39" cx="440" cy="100.6" r="17.9"/>
      <circle class="cls-39" cx="420.6" cy="70.4" r="17.9"/>
      <circle class="cls-39" cx="420.6" cy="70.4" r="17.9"/>
      <circle class="cls-39" cx="420.6" cy="94.4" r="17.9"/>
      <circle class="cls-39" cx="420.6" cy="94.4" r="17.9"/>
      <circle class="cls-39" cx="419.4" cy="49.8" r="9.7"/>
      <circle class="cls-39" cx="419.4" cy="49.8" r="9.7"/>
      <circle class="cls-39" cx="524.6" cy="54.8" r="17.9"/>
      <circle class="cls-39" cx="524.6" cy="54.8" r="17.9"/>
      <circle class="cls-39" cx="506.8" cy="46.3" r="17.9"/>
      <circle class="cls-39" cx="506.8" cy="46.3" r="17.9"/>
      <circle class="cls-39" cx="506.8" cy="67.2" r="17.9"/>
      <circle class="cls-39" cx="506.8" cy="67.2" r="17.9"/>
      <circle class="cls-39" cx="531.6" cy="77.3" r="17.9"/>
      <circle class="cls-39" cx="531.6" cy="77.3" r="17.9"/>
      <circle class="cls-39" cx="508.3" cy="90.5" r="17.9"/>
      <circle class="cls-39" cx="508.3" cy="90.5" r="17.9"/>
      <circle class="cls-39" cx="488.9" cy="60.3" r="17.9"/>
      <circle class="cls-39" cx="488.9" cy="60.3" r="17.9"/>
      <circle class="cls-39" cx="488.9" cy="84.3" r="17.9"/>
      <circle class="cls-39" cx="488.9" cy="84.3" r="17.9"/>
      <circle class="cls-39" cx="487.7" cy="39.7" r="9.7"/>
      <circle class="cls-39" cx="487.7" cy="39.7" r="9.7"/>
      <circle class="cls-39" cx="492.8" cy="76.6" r="17.9"/>
      <circle class="cls-51" cx="492.8" cy="76.6" r="17.9"/>
      <circle class="cls-39" cx="474.9" cy="68" r="17.9"/>
      <circle class="cls-51" cx="474.9" cy="68" r="17.9"/>
      <circle class="cls-39" cx="474.9" cy="89" r="17.9"/>
      <circle class="cls-51" cx="474.9" cy="89" r="17.9"/>
      <circle class="cls-39" cx="499.8" cy="99.1" r="17.9"/>
      <circle class="cls-51" cx="499.8" cy="99.1" r="17.9"/>
      <circle class="cls-39" cx="476.5" cy="112.3" r="17.9"/>
      <circle class="cls-51" cx="476.5" cy="112.3" r="17.9"/>
      <circle class="cls-39" cx="457.1" cy="82" r="17.9"/>
      <circle class="cls-51" cx="457.1" cy="82" r="17.9"/>
      <circle class="cls-39" cx="457.1" cy="106.1" r="17.9"/>
      <circle class="cls-51" cx="457.1" cy="106.1" r="17.9"/>
      <circle class="cls-39" cx="455.9" cy="61.4" r="9.7"/>
      <circle class="cls-51" cx="455.9" cy="61.4" r="9.7"/>
      <circle class="cls-39" cx="509.9" cy="78.1" r="17.9"/>
      <circle class="cls-51" cx="509.9" cy="78.1" r="17.9"/>
      <circle class="cls-39" cx="527.7" cy="69.6" r="17.9"/>
      <circle class="cls-51" cx="527.7" cy="69.6" r="17.9"/>
      <circle class="cls-39" cx="527.7" cy="90.5" r="17.9"/>
      <circle class="cls-51" cx="527.7" cy="90.5" r="17.9"/>
      <circle class="cls-39" cx="502.9" cy="100.6" r="17.9"/>
      <circle class="cls-51" cx="502.9" cy="100.6" r="17.9"/>
      <circle class="cls-39" cx="526.2" cy="113.8" r="17.9"/>
      <circle class="cls-51" cx="526.2" cy="113.8" r="17.9"/>
      <circle class="cls-39" cx="545.6" cy="83.5" r="17.9"/>
      <circle class="cls-51" cx="545.6" cy="83.5" r="17.9"/>
      <circle class="cls-39" cx="545.6" cy="107.6" r="17.9"/>
      <circle class="cls-51" cx="545.6" cy="107.6" r="17.9"/>
      <circle class="cls-39" cx="546.7" cy="63" r="9.7"/>
      <circle class="cls-51" cx="546.7" cy="63" r="9.7"/>
      <circle class="cls-39" cx="471.8" cy="86.7" r="17.9"/>
      <circle class="cls-39" cx="471.8" cy="86.7" r="17.9"/>
      <circle class="cls-39" cx="489.7" cy="78.1" r="17.9" transform="translate(327.8 546.8) rotate(-80)"/>
      <circle class="cls-39" cx="489.7" cy="78.1" r="17.9" transform="translate(327.8 546.8) rotate(-80)"/>
      <circle class="cls-39" cx="489.7" cy="99.1" r="17.9"/>
      <circle class="cls-39" cx="489.7" cy="99.1" r="17.9"/>
      <circle class="cls-39" cx="464.8" cy="109.2" r="17.9"/>
      <circle class="cls-39" cx="464.8" cy="109.2" r="17.9"/>
      <circle class="cls-39" cx="488.1" cy="122.4" r="17.9" transform="translate(289.1 584.6) rotate(-80.8)"/>
      <circle class="cls-39" cx="488.1" cy="122.4" r="17.9" transform="translate(289.1 584.6) rotate(-80.8)"/>
      <circle class="cls-39" cx="507.5" cy="92.1" r="17.9"/>
      <circle class="cls-39" cx="507.5" cy="92.1" r="17.9"/>
      <circle class="cls-39" cx="507.5" cy="116.2" r="17.9"/>
      <circle class="cls-39" cx="507.5" cy="116.2" r="17.9"/>
      <circle class="cls-39" cx="508.7" cy="71.5" r="9.7"/>
      <circle class="cls-39" cx="508.7" cy="71.5" r="9.7"/>
      <circle class="cls-39" cx="416.7" cy="92.9" r="17.9"/>
      <circle class="cls-51" cx="416.7" cy="92.9" r="17.9"/>
      <circle class="cls-39" cx="434.5" cy="84.3" r="17.9"/>
      <circle class="cls-51" cx="434.5" cy="84.3" r="17.9"/>
      <circle class="cls-39" cx="434.5" cy="105.3" r="17.9"/>
      <circle class="cls-51" cx="434.5" cy="105.3" r="17.9"/>
      <circle class="cls-39" cx="409.7" cy="115.4" r="17.9"/>
      <circle class="cls-51" cx="409.7" cy="115.4" r="17.9"/>
      <circle class="cls-39" cx="433" cy="128.6" r="17.9"/>
      <circle class="cls-51" cx="433" cy="128.6" r="17.9"/>
      <circle class="cls-39" cx="452.4" cy="98.3" r="17.9"/>
      <circle class="cls-51" cx="452.4" cy="98.3" r="17.9"/>
      <circle class="cls-39" cx="452.4" cy="122.4" r="17.9"/>
      <circle class="cls-51" cx="452.4" cy="122.4" r="17.9"/>
      <circle class="cls-39" cx="453.6" cy="77.7" r="9.7"/>
      <circle class="cls-51" cx="453.6" cy="77.7" r="9.7"/>
      <ellipse class="cls-19" cx="372.8" cy="106.2" rx="8.7" ry="11.6" transform="translate(-14.5 89.9) rotate(-13.5)"/>
      <path class="cls-70" d="M371,99.8c1.8,5,3.2,10,4.5,15.1,1.1,4.3,2.2,8.6,2.9,13,.3,1.9.8,3.7,1.1,5.6.1.8.4,1.7.4,2.5"/>
      <path class="cls-70" d="M375.9,114.9c.2-1.8,2-3.2,2.4-4.9.1-.5.6-1,.8-1.6"/>
      <path class="cls-70" d="M374.1,111c-1.4-.4-2.7-1-4.1-1.4-.9-.3-1.6-.8-2.5-1-.6-.1-1-.5-1.6-.5"/>
      <path class="cls-70" d="M373,104.3c.6-.8,1.3-1.6,1.8-2.4.3-.4.9-.9.9-1.4"/>
      <ellipse class="cls-19" cx="563.8" cy="96.1" rx="11.6" ry="8.7" transform="translate(338.8 621.9) rotate(-76.5)"/>
      <path class="cls-70" d="M565.6,89.7c-1.8,5-3.2,10-4.5,15.1-1.1,4.3-2.2,8.6-2.9,13-.3,1.9-.8,3.7-1.1,5.6-.1.8-.4,1.7-.4,2.5"/>
      <path class="cls-70" d="M560.6,104.8c-.2-1.8-2-3.2-2.4-4.9-.1-.5-.6-1-.8-1.6"/>
      <path class="cls-70" d="M562.4,100.9c1.4-.4,2.7-1,4.1-1.4.9-.3,1.6-.8,2.5-1,.6-.1,1-.5,1.6-.5"/>
      <path class="cls-70" d="M563.5,94.2c-.6-.8-1.3-1.6-1.8-2.4-.3-.4-.9-.9-.9-1.4"/>
      <rect class="cls-35" x="1091.4" y="154.2" width="113.4" height="86.2"/>
      <rect class="cls-35" x="237.3" y="231.1" width="90.8" height="132"/>
      <path class="cls-31" d="M412.7,207.8c15.7-.3,27.9,3.8,41,6.9,18.2,4.4,49.8,6.7,48.4,14.5-1.5,7.9-36.5,7.6-53.6,12.7-14.1,4.2-17.4,13.2-35.7,14-18.7.8-32.7-5.6-45.8-10.4-12.8-4.7-28.9-9.8-26.9-16.2,1.9-6.3,22.1-9.1,35.8-13.1,11.7-3.4,21.8-8,37-8.3Z"/>
      <path class="cls-41" d="M430.3,234.2l-67.5-19.4,41.9-19,66.4,19-40.8,19.4Z"/>
      <path class="cls-27" d="M362.7,225.4v-10.7l67.5,19.4v10.5l-67.5-19.2Z"/>
      <path class="cls-11" d="M470.6,214.8l-40.4,19.4v10.5l40.4-20.2v-9.7Z"/>
      <path class="cls-27" d="M376.7,215.2l-1.3-.7v-23l1.3.3v23.3Z"/>
      <path class="cls-11" d="M377.7,191.6l-1,.3v23.3l1-.7v-23Z"/>
      <path class="cls-11" d="M406.2,171.3l-1.2.4v27.2l1.2-.8v-26.8Z"/>
      <path class="cls-27" d="M429.3,229.9l-1.3-.7v-23l1.3.3v23.3Z"/>
      <path class="cls-11" d="M430.3,206.2l-1,.3v23.3l1-.7v-23Z"/>
      <path class="cls-27" d="M459.9,215.2l-1.3-.7v-23l1.3.3v23.3Z"/>
      <path class="cls-11" d="M460.9,191.6l-1,.3v23.3l1-.7v-23Z"/>
      <path class="cls-28" d="M433.8,208.5l-63-18.7c10.3-.4,34-14.2,46-29.4,7.9,7.9,27.7,31.8,48,30.4l-31,17.7Z"/>
      <path class="cls-71" d="M416.9,160.4c.8,10.6,2.3,42.3,17,48.1M416.9,160.4c-12,15.2-35.6,29-46,29.4l63,18.7M416.9,160.4c7.9,7.9,27.7,31.8,48,30.4l-31,17.7"/>
      <path class="cls-46" d="M386.4,213.2l-4.7-3.5v5l4.7,3.5v-5Z"/>
      <path class="cls-1" d="M386.4,208.2l-4.7,1.6,4.7,3.5,4.7-1.6-4.7-3.5Z"/>
      <path class="cls-54" d="M391.1,216.3v-4.7l-4.7,1.6v5l4.7-1.9Z"/>
      <path class="cls-46" d="M423.7,224.5l-4.7-3.5v5l4.7,3.5v-5Z"/>
      <path class="cls-1" d="M423.7,219.4l-4.7,1.6,4.7,3.5,4.7-1.6-4.7-3.5Z"/>
      <path class="cls-54" d="M428.3,227.6v-4.7l-4.7,1.6v5l4.7-1.9Z"/>
      <path class="cls-31" d="M605.5,216.3c7.2-.1,12.8,1.7,18.8,3.1,8.4,2,22.9,3,22.2,6.6-.7,3.6-16.8,3.4-24.6,5.7-6.5,1.9-8,6-16.4,6.3-8.6.4-15-2.5-21.1-4.7-5.9-2.1-13.3-4.4-12.4-7.3.9-2.8,10.1-4.1,16.4-5.9,5.4-1.5,10-3.6,17-3.7Z"/>
      <path class="cls-49" d="M626.2,223.9l-3.4,6.9-.2-14.1,3.6-1.1v8.3Z"/>
      <path class="cls-43" d="M590.8,224.9v-8.8l5.7,2.1v13c0,0-5.7-6.3-5.7-6.3Z"/>
      <path class="cls-60" d="M622.8,230.8l-12.8,2.9v-13.8l13.1-2.2-.3,13.1Z"/>
      <path class="cls-61" d="M610,233.7l-13.6-2.6v-12.8l13.6,1.4v13.9Z"/>
      <path class="cls-7" d="M590.7,202.5h1.7l32.9.7,8.3,5.8-3.5,7.4-18.2,4.4-20.2-2.7-8-8.3,7-7.3Z"/>
      <path class="cls-68" d="M633.9,202.7l-4.6-2.9M624.6,196.8l4.6,2.9M629.3,199.8l-.4,2.8M628.5,205.4l.4-2.8M628.9,202.6l5.2,3.3M628.9,202.6l-4.3-2.8"/>
      <path class="cls-61" d="M602,163.9l-5.2,51.5,14.3,1.7v-53.2h-9.1Z"/>
      <path class="cls-43" d="M591.2,210l5.6,5.5,5.2-51.5-4.8-.3-6.1,46.3Z"/>
      <path class="cls-60" d="M623.8,214.6l-12.6,2.5v-53.3c0,0,7.8,0,7.8,0l4.9,50.8Z"/>
      <path class="cls-49" d="M626.5,209.2l-2.7,5.5-4.9-50.7,2.4-.3,5.2,45.6Z"/>
      <path class="cls-68" d="M593,196.7l-2.3.5M590.7,197.2v5.2M590.7,197.2l-3.5,3.4-.2.2M592.6,199.6l-1.9.3-7.1,6.8v-2.7l3.3-3.2M586.9,200.8v4.9l.2.4"/>
      <path class="cls-63" d="M622,163.7c-11.4,1.5-21.8.6-25.4,0,.3-3.3,2.9-12.5,12.4-13,9.5-.5,13,9.3,13,13Z"/>
      <path class="cls-73" d="M583.5,204.1l3.9,3.8M591.4,211.7v2.9M591.4,211.7l-3.9-3.8M591.4,211.7l10,1.5M591.4,217.5v-2.9M591.4,214.6l-4.3-4.2M591.4,214.6l10,1.5M587.4,207.9l-.4,2.6M587,210.4l-3.5-3.4v2.6M587,210.4l.4,3.2M611.3,220.7v-3M611.3,217.7v-3l-10-1.5M611.3,217.7l-10-1.5M601.3,213.1v3M601.3,216.1v3.3"/>
      <path class="cls-73" d="M612.6,220.8v-3.1M630,216.4l-.3-3.1M629.7,213.3l-.3-3.1-8.4,2.2M629.7,213.3l-17.1,4.4M612.6,217.7v-3.1l8.4-2.2M621,212.4v6.1"/>
      <path class="cls-73" d="M630,216.2l-.2-3M629.8,213.2l-.2-3,2.1-3.7M629.8,213.2l2.2-3.4M634.2,206.3l-.3-3.5-2.1,3.7M634.2,206.3l-.3,2.3M634.2,206.3l-2.2,3.4M631.7,206.5l.3,3.3M632,209.7v2.7"/>
      <path class="cls-40" d="M609.8,162.4c.3-4.1-2.6-5-4.5-4.7-.9,0-5,0-5,4.7s2.4,4.8,4.3,5.1c1.6,0,4.9-1,5.2-5.1Z"/>
      <line class="cls-67" x1="572.1" y1="116.7" x2="640.2" y2="207.6"/>
      <line class="cls-67" x1="638.1" y1="122.9" x2="572" y2="203.9"/>
      <path class="cls-47" d="M571.2,116.1l-8.3,6.1,21.3,29.9,9.3-6.9-22.3-29.1Z"/>
      <path class="cls-47" d="M638.1,122.9l-7.7-6.8-24.8,27,8.7,7.7,23.8-27.9Z"/>
      <path class="cls-47" d="M624.7,173.1l-8,6.4,22.5,28.9,9-7.3-23.5-28.1Z"/>
      <path class="cls-47" d="M602.4,181.8l-7.9-6.6-24,27.7,8.9,7.4,22.9-28.6Z"/>
    </g>
  </g>
</svg>