<svg width="37" height="37" viewBox="0 0 37 37" fill="none" xmlns="http://www.w3.org/2000/svg">
<g clip-path="url(#clip0_552_562)">
<path d="M18.36 3.30623C23.2656 3.30623 23.8465 3.32775 25.7757 3.41381C27.5687 3.4927 28.5369 3.79392 29.1824 4.04494C30.0358 4.37484 30.6526 4.77647 31.2909 5.41477C31.9364 6.06023 32.3308 6.66984 32.6607 7.5233C32.9117 8.16877 33.213 9.14414 33.2918 10.9299C33.3779 12.8663 33.3994 13.4473 33.3994 18.3457C33.3994 23.2512 33.3779 23.8321 33.2918 25.7614C33.213 27.5543 32.9117 28.5226 32.6607 29.168C32.3308 30.0215 31.9292 30.6383 31.2909 31.2765C30.6454 31.922 30.0358 32.3165 29.1824 32.6464C28.5369 32.8974 27.5615 33.1986 25.7757 33.2775C23.8393 33.3636 23.2584 33.3851 18.36 33.3851C13.4544 33.3851 12.8735 33.3636 10.9443 33.2775C9.15131 33.1986 8.18311 32.8974 7.53764 32.6464C6.68419 32.3165 6.06741 31.9148 5.42911 31.2765C4.78364 30.6311 4.38919 30.0215 4.05928 29.168C3.80827 28.5226 3.50705 27.5472 3.42816 25.7614C3.34209 23.825 3.32058 23.244 3.32058 18.3457C3.32058 13.4401 3.34209 12.8592 3.42816 10.9299C3.50705 9.13697 3.80827 8.16877 4.05928 7.5233C4.38919 6.66984 4.79081 6.05306 5.42911 5.41477C6.07458 4.7693 6.68419 4.37484 7.53764 4.04494C8.18311 3.79392 9.15849 3.4927 10.9443 3.41381C12.8735 3.32775 13.4544 3.30623 18.36 3.30623ZM18.36 0C13.3755 0 12.7516 0.0215156 10.7937 0.107578C8.84292 0.193641 7.50178 0.509203 6.33994 0.961031C5.12789 1.43437 4.10231 2.05833 3.08391 3.08391C2.05833 4.10231 1.43438 5.12789 0.961031 6.33277C0.509203 7.50178 0.193641 8.83575 0.107578 10.7865C0.0215156 12.7516 0 13.3755 0 18.36C0 23.3445 0.0215156 23.9684 0.107578 25.9263C0.193641 27.8771 0.509203 29.2182 0.961031 30.3801C1.43438 31.5921 2.05833 32.6177 3.08391 33.6361C4.10231 34.6545 5.12789 35.2856 6.33277 35.7518C7.50178 36.2036 8.83575 36.5192 10.7865 36.6053C12.7444 36.6913 13.3684 36.7128 18.3528 36.7128C23.3373 36.7128 23.9612 36.6913 25.9192 36.6053C27.8699 36.5192 29.211 36.2036 30.3729 35.7518C31.5778 35.2856 32.6033 34.6545 33.6217 33.6361C34.6402 32.6177 35.2713 31.5921 35.7375 30.3872C36.1893 29.2182 36.5048 27.8843 36.5909 25.9335C36.677 23.9756 36.6985 23.3516 36.6985 18.3672C36.6985 13.3827 36.677 12.7588 36.5909 10.8008C36.5048 8.85009 36.1893 7.50895 35.7375 6.34711C35.2856 5.12789 34.6617 4.10231 33.6361 3.08391C32.6177 2.0655 31.5921 1.43438 30.3872 0.968203C29.2182 0.516375 27.8843 0.200813 25.9335 0.11475C23.9684 0.0215156 23.3445 0 18.36 0Z" fill="white"/>
<path d="M18.36 8.92896C13.1532 8.92896 8.92899 13.1532 8.92899 18.36C8.92899 23.5668 13.1532 27.791 18.36 27.791C23.5668 27.791 27.791 23.5668 27.791 18.36C27.791 13.1532 23.5668 8.92896 18.36 8.92896ZM18.36 24.4776C14.982 24.4776 12.2424 21.7379 12.2424 18.36C12.2424 14.982 14.982 12.2424 18.36 12.2424C21.738 12.2424 24.4776 14.982 24.4776 18.36C24.4776 21.7379 21.738 24.4776 18.36 24.4776Z" fill="white"/>
<path d="M30.3657 8.55602C30.3657 9.77524 29.376 10.7578 28.164 10.7578C26.9447 10.7578 25.9622 9.76807 25.9622 8.55602C25.9622 7.3368 26.9519 6.35425 28.164 6.35425C29.376 6.35425 30.3657 7.34397 30.3657 8.55602Z" fill="white"/>
</g>
<defs>
<clipPath id="clip0_552_562">
<rect width="36.72" height="36.72" fill="white"/>
</clipPath>
</defs>
</svg>
