<?xml version="1.0" encoding="UTF-8"?>
<svg id="Capa_1" data-name="Capa 1" xmlns="http://www.w3.org/2000/svg" version="1.1" viewBox="0 0 800 800">
  <defs>
    <style>
      .cls-1 {
        fill: #fff;
        stroke-width: 0px;
      }
    </style>
  </defs>
  <path class="cls-1" d="M735.4,113.6c-41.9-41.9-97.3-64.8-156.5-64.8s-114.8,23.1-156.7,65l-21.9,21.9-22.2-22.2c-41.9-41.9-97.7-65.1-156.9-65.1s-114.6,23.1-156.4,64.8C22.9,155-.2,210.6,0,269.8,0,329,23.2,384.5,65.1,426.4l318.5,318.5c4.4,4.4,10.3,6.8,16.1,6.8s11.7-2.2,16.1-6.6l319.2-318c41.9-41.9,65-97.5,65-156.7.2-59.2-22.7-114.8-64.6-156.7ZM702.8,394.7l-303.1,301.9L97.4,394.1c-33.2-33.2-51.6-77.3-51.6-124.3s18.1-91.1,51.4-124.1c33.1-33.1,77.2-51.4,124-51.4s91.2,18.3,124.5,51.6l38.3,38.3c9,9,23.4,9,32.4,0l38-38c33.2-33.2,77.5-51.6,124.3-51.6s90.9,18.3,124.1,51.4c33.2,33.2,51.4,77.3,51.4,124.3.2,47-18.1,91.1-51.4,124.3Z"/>
</svg>