<svg width="37" height="37" viewBox="0 0 37 37" fill="none" xmlns="http://www.w3.org/2000/svg">
<g clip-path="url(#clip0_552_582)">
<path d="M18.36 0C8.22014 0 0 8.22014 0 18.36C0 26.9701 5.92808 34.1951 13.925 36.1795V23.9708H10.1391V18.36H13.925V15.9424C13.925 9.69335 16.7531 6.79687 22.8883 6.79687C24.0516 6.79687 26.0587 7.02527 26.8798 7.25293V12.3387C26.4465 12.2931 25.6937 12.2704 24.7588 12.2704C21.7485 12.2704 20.5852 13.4109 20.5852 16.3757V18.36H26.5823L25.552 23.9708H20.5852V36.5856C29.6764 35.4877 36.7207 27.7471 36.7207 18.36C36.72 8.22014 28.4999 0 18.36 0Z" fill="white"/>
</g>
<defs>
<clipPath id="clip0_552_582">
<rect width="36.72" height="36.72" fill="white"/>
</clipPath>
</defs>
</svg>
