<?xml version="1.0" encoding="UTF-8"?>
<svg id="Layer_1" data-name="Layer 1" xmlns="http://www.w3.org/2000/svg" version="1.1" viewBox="0 0 398 360.5">
  <defs>
    <style>
      .cls-1 {
        fill: #8fc84e;
        isolation: isolate;
        opacity: .6;
      }

      .cls-1, .cls-2 {
        stroke-width: 0px;
      }

      .cls-2 {
        fill: #7eba45;
      }
    </style>
  </defs>
  <path class="cls-2" d="M398-.2v305.4s-77.5-27.7-183.5,26.3C108.5,385.5,0,331.5,0,331.5V-.2h398Z"/>
  <path class="cls-1" d="M245.3,103.7l37.6,10.3c5.9,1.6,9.2,7.6,7.5,13.4l-6.9,23.1c-1.7,5.8-7.9,9.2-13.8,7.6l-37.6-10.3c-5.9-1.6-9.2-7.6-7.5-13.4l6.9-23.1c1.7-5.8,7.9-9.2,13.8-7.6Z"/>
  <path class="cls-1" d="M75.4,124.5l38.5-6.8c6-1.1,11.8,2.9,12.9,8.9l4.6,23.6c1.2,6-2.8,11.7-8.7,12.7l-38.5,6.8c-6,1.1-11.8-2.9-12.9-8.9l-4.6-23.6c-1.2-6,2.8-11.7,8.7-12.7Z"/>
  <path class="cls-1" d="M398,142.9v49.8l-26.8-10.8c-5.6-2.3-8.2-8.6-5.8-14.2l9.8-22.2c2.4-5.6,9-8.2,14.6-6l8.2,3.3Z"/>
  <path class="cls-1" d="M305.3,202.1l17.7,6c2.6.9,4,3.7,3,6.3l-4.1,11c-1,2.6-3.9,4-6.5,3.1l-17.7-6c-2.6-.9-4-3.7-3-6.3l4.1-11c1-2.6,3.9-4,6.5-3.1Z"/>
  <path class="cls-1" d="M27.2,218.7l17.1-7.3c2.5-1.1,5.5,0,6.7,2.6l5,10.7c1.2,2.5,0,5.4-2.5,6.5l-17.1,7.3c-2.5,1.1-5.5,0-6.7-2.6l-5-10.7c-1.2-2.5,0-5.4,2.5-6.5Z"/>
  <path class="cls-1" d="M168.5,246.2l18.5-3.3c2.7-.5,5.4,1.3,5.9,4l2.2,11.4c.5,2.7-1.2,5.3-4,5.8l-18.5,3.3c-2.7.5-5.4-1.3-5.9-4l-2.2-11.4c-.5-2.7,1.2-5.3,4-5.8Z"/>
  <path class="cls-1" d="M69.9,312.7l18.5-3.3c2.7-.5,5.4,1.3,5.9,4l2.2,11.4c.5,2.7-1.2,5.3-4,5.8l-18.5,3.3c-2.7.5-5.4-1.3-5.9-4l-2.2-11.4c-.5-2.7,1.2-5.3,4-5.8Z"/>
  <path class="cls-1" d="M282.9,278.3l18.5-3.3c2.7-.5,5.4,1.3,5.9,4l2.2,11.4c.5,2.7-1.2,5.3-4,5.8l-18.5,3.3c-2.7.5-5.4-1.3-5.9-4l-2.2-11.4c-.5-2.7,1.2-5.3,4-5.8Z"/>
  <path class="cls-1" d="M398,84.4l-2.3,5.5c-4.3,10.2-16.1,15.2-26.4,11.3l-40.6-15.6c-10.3-3.9-15.2-15.4-10.9-25.6l9.1-21.7c4.3-10.2,16.1-15.2,26.4-11.3l40.6,15.6c1.5.6,2.9,1.3,4.2,2.2v39.6Z"/>
  <path class="cls-1" d="M242.6,16.6l-3.6,22.9c-1.7,10.9-12,18.5-22.9,16.9l-43.5-6.3c-10.9-1.6-18.4-11.7-16.6-22.6l3.6-22.9c.3-1.7.7-3.2,1.4-4.7h76.4c4.2,4.3,6.3,10.4,5.3,16.8Z"/>
  <path class="cls-1" d="M49.7,92.5l-38.9,18.8c-3.5,1.7-7.2,2.3-10.8,1.9V45.9l19.9-9.7c9.9-4.8,22.2-.8,27.4,9l11.1,20.9c5.2,9.8,1.3,21.6-8.6,26.4Z"/>
</svg>