<?xml version="1.0" encoding="UTF-8"?>
<svg xmlns="http://www.w3.org/2000/svg" version="1.1" xmlns:xlink="http://www.w3.org/1999/xlink" viewBox="0 0 1021.1 438">
  <defs>
    <style>
      .cls-1 {
        stroke-width: 28px;
      }

      .cls-1, .cls-2, .cls-3, .cls-4, .cls-5, .cls-6, .cls-7, .cls-8, .cls-9, .cls-10, .cls-11, .cls-12, .cls-13 {
        fill: none;
      }

      .cls-1, .cls-2, .cls-3, .cls-4, .cls-8, .cls-10, .cls-11 {
        stroke-linecap: round;
      }

      .cls-1, .cls-2, .cls-4 {
        stroke: #1e91b6;
      }

      .cls-14 {
        fill: #b4bbc5;
      }

      .cls-14, .cls-15, .cls-16, .cls-17, .cls-18, .cls-19, .cls-20, .cls-21, .cls-22, .cls-23, .cls-24, .cls-25, .cls-26, .cls-27, .cls-28, .cls-29, .cls-30, .cls-31, .cls-32, .cls-33, .cls-34, .cls-35, .cls-36, .cls-37, .cls-38, .cls-6, .cls-39, .cls-40, .cls-41, .cls-42, .cls-43, .cls-44, .cls-45, .cls-46, .cls-47, .cls-48, .cls-49, .cls-50, .cls-51, .cls-52, .cls-53, .cls-54, .cls-55, .cls-56, .cls-57, .cls-58, .cls-59, .cls-60, .cls-61, .cls-62, .cls-63, .cls-64, .cls-65, .cls-66, .cls-67, .cls-68, .cls-69, .cls-70, .cls-71, .cls-72, .cls-73, .cls-74, .cls-75, .cls-76 {
        stroke-width: 0px;
      }

      .cls-15 {
        fill: #15a681;
      }

      .cls-15, .cls-27, .cls-32, .cls-39, .cls-55 {
        fill-rule: evenodd;
      }

      .cls-2 {
        stroke-width: 7px;
      }

      .cls-16 {
        fill: #2a8fb0;
      }

      .cls-17 {
        fill: #71ac43;
      }

      .cls-77, .cls-78, .cls-9, .cls-79 {
        stroke-linejoin: round;
      }

      .cls-77, .cls-8, .cls-9, .cls-79, .cls-11 {
        stroke-width: 2px;
      }

      .cls-77, .cls-9, .cls-79 {
        stroke: #fff;
      }

      .cls-77, .cls-56 {
        fill: #1d3463;
      }

      .cls-18 {
        fill: #ce2027;
      }

      .cls-19 {
        fill: url(#linear-gradient);
      }

      .cls-20 {
        fill: #895627;
      }

      .cls-21 {
        fill: #000;
      }

      .cls-22, .cls-32 {
        fill: #7eba45;
      }

      .cls-23 {
        fill: #999;
      }

      .cls-3, .cls-8 {
        stroke: #595a5a;
      }

      .cls-24 {
        fill: #242424;
      }

      .cls-25 {
        fill: #663771;
      }

      .cls-80 {
        opacity: .5;
      }

      .cls-26 {
        fill: #7a5d41;
      }

      .cls-27 {
        fill: #edcd51;
      }

      .cls-28 {
        fill: #adb3bf;
      }

      .cls-29 {
        fill: #dc8a53;
      }

      .cls-30 {
        fill: #149262;
      }

      .cls-31 {
        fill: #c4c2b0;
      }

      .cls-4 {
        stroke-width: 18px;
      }

      .cls-33 {
        fill: #b6c0c8;
      }

      .cls-81 {
        isolation: isolate;
      }

      .cls-34 {
        fill: #e98d61;
      }

      .cls-35 {
        fill: #b8baae;
      }

      .cls-36 {
        fill: #c09157;
      }

      .cls-5 {
        stroke: #311d12;
      }

      .cls-37 {
        fill: #166131;
      }

      .cls-38 {
        fill: #283476;
      }

      .cls-39 {
        fill: #b87a59;
      }

      .cls-40 {
        fill: #684c3d;
      }

      .cls-41 {
        fill: #8fc84e;
      }

      .cls-42 {
        fill: #b6b6b6;
      }

      .cls-78 {
        fill: #9b9a9a;
        stroke: #9b9a9a;
      }

      .cls-7 {
        stroke: #4c2f20;
      }

      .cls-43 {
        fill: #c07541;
      }

      .cls-44 {
        fill: #545554;
      }

      .cls-45 {
        fill: #185d7c;
      }

      .cls-46 {
        fill: #bdbdbd;
      }

      .cls-47 {
        fill: #f4f4f5;
      }

      .cls-48 {
        fill: #cccccb;
      }

      .cls-49 {
        fill: #e9c9be;
      }

      .cls-50 {
        fill: url(#linear-gradient-2);
      }

      .cls-79 {
        fill-opacity: .6;
      }

      .cls-79, .cls-57, .cls-62, .cls-65 {
        fill: #fff;
      }

      .cls-51 {
        fill: #eab5a1;
      }

      .cls-52 {
        fill: #0c7d57;
      }

      .cls-53 {
        fill: #626363;
      }

      .cls-54 {
        fill: #b8c6cf;
      }

      .cls-55 {
        fill: #1c7cad;
      }

      .cls-57 {
        fill-opacity: .6;
      }

      .cls-58 {
        fill: #b02124;
      }

      .cls-59 {
        fill: #989897;
      }

      .cls-60 {
        fill: #7791ca;
      }

      .cls-82 {
        mix-blend-mode: darken;
        opacity: .4;
      }

      .cls-61 {
        fill: #efbca9;
      }

      .cls-10 {
        stroke: #796536;
        stroke-width: 6px;
      }

      .cls-62 {
        fill-opacity: .5;
      }

      .cls-63 {
        fill: #dad9d9;
      }

      .cls-11 {
        stroke: #443524;
      }

      .cls-64 {
        fill: #3d3d3d;
      }

      .cls-66 {
        fill: #dd804b;
      }

      .cls-83 {
        mask: url(#mask);
      }

      .cls-67 {
        fill: #88bdbf;
      }

      .cls-68 {
        fill: #1a5a7d;
      }

      .cls-69 {
        fill: #f6f7d1;
      }

      .cls-70 {
        fill: #fcd9d9;
      }

      .cls-12 {
        stroke: #522f12;
      }

      .cls-13 {
        stroke: #b02124;
        stroke-width: 4px;
      }

      .cls-71 {
        fill: #c67a56;
      }

      .cls-72 {
        fill: #393939;
      }

      .cls-73 {
        fill: #5e9841;
      }

      .cls-74 {
        fill: #bde0c1;
      }

      .cls-75 {
        fill: #f2b977;
      }

      .cls-76 {
        fill: #848585;
      }
    </style>
    <mask id="mask" x="250.9" y="294.5" width="26.6" height="10.8" maskUnits="userSpaceOnUse">
      <g id="path-115-outside-1_452_6890" data-name="path-115-outside-1 452 6890">
        <rect class="cls-65" x="250.9" y="294.5" width="26.6" height="10.8"/>
        <path class="cls-21" d="M253.1,303.2l-.4-5.8h2c.5-.2.8-.1,1.1,0,.3.1.5.3.7.6.2.3.2.6.3.9,0,.3,0,.7-.1.9-.1.3-.3.5-.6.7-.3.2-.6.3-1.1.3h-1.4c0,0,0-.5,0-.5h1.4c.3-.1.6-.2.7-.3.2-.1.3-.3.4-.5,0-.2.1-.4,0-.6,0-.2,0-.4-.2-.6,0-.2-.2-.3-.4-.4-.2,0-.5-.1-.8-.1h-1.2c0,0,.4,5.3.4,5.3h-.7ZM258.5,303l-.5-.3,2.7-4.7.5.3-2.7,4.7ZM259.8,302.8c-.4,0-.7,0-1.1-.2-.3-.2-.6-.4-.7-.7-.2-.3-.3-.7-.3-1.2,0-.5,0-.9.2-1.2.1-.4.4-.6.6-.8.3-.2.6-.3,1-.4.4,0,.7,0,1.1.2.3.2.6.4.7.7.2.3.3.7.3,1.2,0,.5,0,.8-.2,1.2-.1.3-.4.6-.6.8-.3.2-.6.3-1,.4ZM259.8,302.2c.3,0,.5-.1.7-.3.2-.2.3-.4.4-.6,0-.3.1-.5,0-.8,0-.3,0-.6-.2-.8-.1-.2-.3-.4-.5-.6-.2-.1-.5-.2-.8-.2-.3,0-.5.1-.7.3-.2.2-.3.4-.4.6,0,.3-.1.5,0,.8,0,.3,0,.6.2.8.1.2.3.4.5.6.2.1.5.2.8.2ZM263.1,296.7l.4,5.8h-.7s-.4-5.8-.4-5.8h.7ZM267.5,298.8l-.6.2c0,0-.1-.2-.2-.3,0,0-.2-.2-.3-.2-.1,0-.3,0-.5,0-.3,0-.5,0-.7.2-.2.1-.2.3-.2.5,0,.2,0,.3.2.4.1,0,.3.2.6.2h.7c.4.2.7.3.9.5.2.2.3.4.3.7,0,.2,0,.5-.2.7-.1.2-.3.4-.6.5-.2.1-.5.2-.9.2-.4,0-.8,0-1.1-.2-.3-.2-.5-.4-.6-.8l.6-.2c0,.2.2.4.4.5.2.1.4.1.7.1.3,0,.6-.1.7-.2.2-.1.3-.3.2-.5,0-.2,0-.3-.2-.4-.1,0-.3-.2-.5-.2h-.7c-.4-.2-.7-.3-.9-.5-.2-.2-.3-.4-.3-.7,0-.2,0-.5.2-.7.1-.2.3-.4.5-.5.2-.1.5-.2.8-.2.4,0,.8,0,1,.2.3.2.5.4.6.7ZM270.7,302.1c-.4,0-.8,0-1.1-.2-.3-.2-.6-.4-.8-.7-.2-.3-.3-.7-.3-1.2,0-.4,0-.8.2-1.2.1-.4.4-.6.6-.8.3-.2.6-.3,1-.4.2,0,.5,0,.7,0,.2,0,.4.2.6.3.2.2.4.4.5.6.1.3.2.6.2,1v.3s-3.3.2-3.3.2v-.6s2.6-.2,2.6-.2c0-.2,0-.5-.2-.6-.1-.2-.3-.3-.4-.4-.2,0-.4-.1-.6-.1-.3,0-.5.1-.7.2-.2.1-.3.3-.4.5,0,.2-.1.4-.1.7v.4c0,.3.1.6.3.8.1.2.3.4.5.5.2.1.5.1.7.1.2,0,.3,0,.5-.1.1,0,.3-.1.4-.3,0-.1.2-.2.2-.4h.7c0,.4-.2.6-.3.7-.2.2-.3.3-.6.4-.2.1-.5.2-.8.2ZM273.5,301.8l-.3-4.4h.6s0,.6,0,.6h0c0-.2.2-.4.4-.6.2-.1.4-.2.7-.2,0,0,.1,0,.2,0s.1,0,.2,0v.7s0,0-.1,0c0,0-.2,0-.3,0-.2,0-.4,0-.6.2-.2,0-.3.2-.4.4,0,.2-.1.3-.1.5l.2,2.8h-.7Z"/>
      </g>
    </mask>
    <linearGradient id="linear-gradient" x1="607.3" y1="211.2" x2="603.4" y2="211.4" gradientTransform="translate(0 424.1) scale(1 -1)" gradientUnits="userSpaceOnUse">
      <stop offset="0" stop-color="#efbca9"/>
      <stop offset="1" stop-color="#9b553a"/>
    </linearGradient>
    <linearGradient id="linear-gradient-2" x1="511.2" y1="198.3" x2="523.5" y2="198.2" gradientTransform="translate(0 424.1) scale(1 -1)" gradientUnits="userSpaceOnUse">
      <stop offset="0" stop-color="#efbca9"/>
      <stop offset="1" stop-color="#c07541"/>
    </linearGradient>
  </defs>
  <g class="cls-81">
    <g id="Layer_1" data-name="Layer 1">
      <path class="cls-55" d="M508,99.7c72.9,4,133.4,18.4,201.9,28.2,87.9,12.6,202.8,9.8,257.6,37.6,54.9,27.8,47.8,68.2,14.1,100.1-31.4,29.8-114.3,47-188,64.6-58.1,13.9-129.1,15.1-191.8,26-80,14-138.2,51.5-226.3,47.2-85.7-4.2-127.5-40.5-174.3-66.7-41.4-23.2-94.3-21.8-115.8-48.3-25.3-31.1-86.3-20.4-58.6-51.2,28-31.2,152.2-120.7,235.8-133.6,76.8-11.8,162.7-8.4,245.3-3.9Z"/>
      <path class="cls-31" d="M54.9,250.8c-3.1-7.8,2-26.3,3.3-30.3l99.8,76.5c-12.7-2.8-46.6-5.7-50.3-6.6-4.7-1.2-17.1-8.9-21.7-14-3.7-4-12.9-9.2-17.1-11.3-3.4-1.6-10.9-6.6-14-14.4Z"/>
      <path class="cls-39" d="M152.5,295.9c-8.6-1.4-21-2.8-30.6-3.8-7.2-.8-12.8-1.4-14.2-1.7-4.7-1.2-17.1-8.9-21.7-14-1.5-1.7-4-3.5-6.7-5.3l1.1-2.9-1.9-5.8.8-5,73.3,38.6Z"/>
      <path class="cls-27" d="M497.6,112c89.1,1.3,179.3-10.4,261.1-.2,92.2,11.5,185.5,31,210,58.9,24.3,27.5,29.4,61-30.1,83.8-48.7,18.6-215.8,5.2-276,20.8-73.2,19-91.2,38.2-185.9,46.2-94.8,8-167.3,3.6-245.7-13.6-77-16.8-138.1-50-155.7-77.3-16.6-25.7,33.4-24.9,58.7-50,26.5-26.3,2.6-61.5,82.7-76.6,80.5-15.2,184.6,6.6,281,8Z"/>
      <path class="cls-10" d="M58.6,230.2c.2,3.9,1.5,13.2,4.4,15.7,3.1,2.7,5.2,5.7,9.2,7.1,2.6.9,4.7,2.6,7,4,1,.6,2,1.3,3.1,1.8,1.8.9,2.6,2.4,3.7,3.9.6.8,1.6,2.1,2.5,2.6,2.3,1.4,3.7,3.6,5.8,5.2,2.5,2,5.8,2.8,8.1,5.2,1,1.1,2.5,1.8,3.8,2.4,1.7.8,3.1,2.2,5,2.7,2.8.8,5.8,1.6,8.7,2.2.8.2,6.1,1.5,6.7.3"/>
      <path class="cls-32" d="M475.1,101.1c89.1,1.3,179.3-10.4,261.1-.2,92.2,11.5,185.5,31,210,58.9,24.3,27.5-28.8,56.4-88.3,79.2-48.7,18.6-146.6,18-206.8,33.6-73.2,19-81.2,57.5-176,65.5-94.8,8-194.2-10.4-272.7-27.5-77-16.8-125.1-44.4-142.6-71.6-16.6-25.7,26.5-44.1,51.7-69.2,26.5-26.3,2.6-61.5,82.7-76.6,80.5-15.2,184.6,6.6,281,8Z"/>
      <path class="cls-1" d="M115.7,145.9c.3,2.8,2.7,4,4.7,5.8,4.1,3.6,7.8,7.7,11.8,11.6,9.3,8.9,18.2,17.4,29.8,23.3,30.4,15.5,64.5,15,97.7,9.6,15.6-2.5,31.2-5.9,47-6.2,12.2-.2,30.4-1.7,39,9,5.7,7.1-2.5,12.6-9,12.6s-8.5,0-12.8,0c-4.3,0-8.2-2.8-12.5-3.6-11.6-2.3-22.3-6.7-34.3-6.7s-20.9-.4-31.3,0c-5.4.2-12.8-1.7-18.3-1.7s-12,0-14,0"/>
      <path class="cls-73" d="M679.7,54.7c-40.4-1.2-81.3,40.9-96.7,62.1h206.5c-19.8-20.2-69.5-60.9-109.9-62.1Z"/>
      <path class="cls-17" d="M558.6,69.1c-32.9-10.2-70.5,13.5-87.7,34.9l131.6,16.7h157.2c-44.8-12.9-168.2-41.4-201.1-51.6Z"/>
      <path class="cls-22" d="M779.1,83.1c35.1-1.2,65.2,24.6,73,37.7h-255c29.6-12,147-36.4,182.1-37.7Z"/>
      <path class="cls-41" d="M471.3,104c2.8,0,6.3.5,10.3,1.2l64.2,7.7c13.5,6.2,38.2,21,29.5,30.3-10.9,11.6-34.2,18.2-36.1,24.1-1.9,5.8,22.9,6.6,57.1,19.4,27.3,10.2,26.9,35.8,23.3,47.4-5.3,6.5-17.4,23.3-23.3,38.8-5.9,15.5-13.5,25-8.5,26.8-27.2,16.7-66.8,37.8-81.1,29.1-14.3-8.7,13.6-34.5,23.3-46.6,12.3-8.4,35.9-29.8,32.2-48.1-3.7-18.3-30.5-27.3-43.5-29.5-13.8-4.9-41-16.8-38.8-25.2,2.2-8.4,13.8-17,19.4-20.2,15.8-5.8,43.1-21,26-34.9-13-10.6-30.8-16.6-43.6-18.9l-10.3-1.2Z"/>
      <path class="cls-15" d="M708,143.3c17.2-.4,35.4,0,49,1.7,15.1,2,25.3,5,26,8.2.7,3.3-7,6.7-22.5,8.8-14.4,1.9-34.2.9-52.5,1.2-21.8.3-47.9,3.2-63.2.6-15.4-2.6-1.2-7,4.6-10.6,3.9-2.4,12.1-4.3,22.5-6,10.5-1.8,21.4-3.5,36.2-3.9Z"/>
      <path class="cls-38" d="M712,80l-40.5,19.6v52.3l40.5,3.8v-75.8Z"/>
      <path class="cls-60" d="M773.9,94.2l-61.9-14.2v75.7l61.9-4.1v-57.5Z"/>
      <path class="cls-67" d="M344.4,256.7l-146.1,58.8c236.8,31.2,414.1,19.8,470.5,6.7l-124.8-65.6h-199.6Z"/>
      <path class="cls-68" d="M198.4,328.6v-13c162,21.6,381.1,14.3,470.5,6.7v14.5c-290.2,17.8-400.4,4.3-470.5-8.2Z"/>
      <path class="cls-67" d="M271.6,322.3l-20.2,8.7-20.2-1.4,20.2-8.2,20.2,1Z"/>
      <path class="cls-45" d="M231.1,343.5v-14l20.2,1.4v14.5l-20.2-1.9Z"/>
      <path class="cls-16" d="M269.7,338.7l-18.3,6.7v-14.5l18.3-7.8v15.6Z"/>
      <path class="cls-16" d="M605.9,347.9l.4-14-20.3.9-.4,14.5,20.3-1.4Z"/>
      <path class="cls-68" d="M567.5,342l18.1,7.3.4-14.5-18.1-7.3-.4,14.5Z"/>
      <path class="cls-67" d="M565.7,327.1l20.3,7.7,20.3-.9-20-8.8-20.6,2Z"/>
      <path class="cls-35" d="M529.9,307.7l-6.3,7.3v-48.1l2.4-10.7,3.9,6.8v44.7Z"/>
      <path class="cls-69" d="M312.5,266.9v48.1h211.1v-48.1h-211.1Z"/>
      <path class="cls-36" d="M314.9,256.7l211.1-.5-2.4,10.7h-211.1l2.4-10.2Z"/>
      <rect class="cls-70" x="349.1" y="266.8" width="33.7" height="48.2"/>
      <rect class="cls-42" x="382.9" y="266.8" width="21.2" height="48.2"/>
      <rect class="cls-42" x="471.6" y="266.8" width="21.2" height="48.2"/>
      <rect class="cls-74" x="404.1" y="266.8" width="33.7" height="48.2"/>
      <rect class="cls-75" x="437.8" y="266.8" width="33.7" height="48.2"/>
      <g class="cls-82">
        <rect class="cls-25" x="440.7" y="271.6" width="5" height="9"/>
      </g>
      <g class="cls-82">
        <rect class="cls-25" x="448.7" y="271.6" width="5" height="9"/>
      </g>
      <g class="cls-82">
        <rect class="cls-25" x="456.7" y="271.6" width="5" height="9"/>
      </g>
      <g class="cls-82">
        <rect class="cls-25" x="464.7" y="271.6" width="5" height="9"/>
      </g>
      <g class="cls-82">
        <rect class="cls-25" x="407.9" y="277.4" width="5" height="9"/>
      </g>
      <g class="cls-82">
        <rect class="cls-25" x="415.9" y="277.4" width="5" height="9"/>
      </g>
      <g class="cls-82">
        <rect class="cls-25" x="423.9" y="277.4" width="5" height="9"/>
      </g>
      <g class="cls-82">
        <rect class="cls-25" x="431.9" y="277.4" width="5" height="9"/>
      </g>
      <g class="cls-82">
        <rect class="cls-25" x="352" y="277.4" width="5" height="9"/>
      </g>
      <g class="cls-82">
        <rect class="cls-25" x="360" y="277.4" width="5" height="9"/>
      </g>
      <g class="cls-82">
        <rect class="cls-25" x="368" y="277.4" width="5" height="9"/>
      </g>
      <g class="cls-82">
        <rect class="cls-25" x="376" y="277.4" width="5" height="9"/>
      </g>
      <g class="cls-82">
        <rect class="cls-25" x="386.7" y="270.7" width="4.8" height="8.7"/>
      </g>
      <g class="cls-82">
        <rect class="cls-25" x="475.4" y="272.6" width="4.8" height="8.7"/>
      </g>
      <g class="cls-82">
        <rect class="cls-25" x="483.1" y="272.6" width="4.8" height="8.7"/>
      </g>
      <g class="cls-82">
        <rect class="cls-25" x="386.7" y="298.6" width="4.8" height="8.7"/>
      </g>
      <g class="cls-82">
        <rect class="cls-25" x="475.4" y="300.6" width="4.8" height="8.7"/>
      </g>
      <g class="cls-82">
        <rect class="cls-25" x="483.1" y="300.6" width="4.8" height="8.7"/>
      </g>
      <g class="cls-82">
        <rect class="cls-25" x="394.4" y="270.7" width="4.8" height="8.7"/>
      </g>
      <g class="cls-82">
        <rect class="cls-25" x="394.4" y="298.6" width="4.8" height="8.7"/>
      </g>
      <g class="cls-82">
        <rect class="cls-25" x="494.7" y="277.4" width="5" height="9"/>
      </g>
      <g class="cls-82">
        <rect class="cls-25" x="502.7" y="277.4" width="5" height="9"/>
      </g>
      <g class="cls-82">
        <rect class="cls-25" x="510.7" y="277.4" width="5" height="9"/>
      </g>
      <g class="cls-82">
        <rect class="cls-25" x="518.7" y="277.4" width="5" height="9"/>
      </g>
      <g class="cls-82">
        <rect class="cls-25" x="407.9" y="294.8" width="5" height="9"/>
      </g>
      <g class="cls-82">
        <rect class="cls-25" x="415.9" y="294.8" width="5" height="9"/>
      </g>
      <g class="cls-82">
        <rect class="cls-25" x="423.9" y="294.8" width="5" height="9"/>
      </g>
      <g class="cls-82">
        <rect class="cls-25" x="431.9" y="294.8" width="5" height="9"/>
      </g>
      <g class="cls-82">
        <rect class="cls-25" x="352" y="294.8" width="5" height="9"/>
      </g>
      <g class="cls-82">
        <rect class="cls-25" x="360" y="294.8" width="5" height="9"/>
      </g>
      <g class="cls-82">
        <rect class="cls-25" x="368" y="294.8" width="5" height="9"/>
      </g>
      <g class="cls-82">
        <rect class="cls-25" x="376" y="294.8" width="5" height="9"/>
      </g>
      <g class="cls-82">
        <rect class="cls-25" x="494.7" y="294.8" width="5" height="9"/>
      </g>
      <g class="cls-82">
        <rect class="cls-25" x="502.7" y="294.8" width="5" height="9"/>
      </g>
      <g class="cls-82">
        <rect class="cls-25" x="510.7" y="294.8" width="5" height="9"/>
      </g>
      <g class="cls-82">
        <rect class="cls-25" x="518.7" y="294.8" width="5" height="9"/>
      </g>
      <g class="cls-82">
        <rect class="cls-25" x="440.7" y="285.1" width="5" height="9"/>
      </g>
      <g class="cls-82">
        <rect class="cls-25" x="448.7" y="285.1" width="5" height="9"/>
      </g>
      <g class="cls-82">
        <rect class="cls-25" x="456.7" y="285.1" width="5" height="9"/>
      </g>
      <g class="cls-82">
        <rect class="cls-25" x="464.7" y="285.1" width="5" height="9"/>
      </g>
      <g class="cls-82">
        <rect class="cls-25" x="440.7" y="298.6" width="5" height="9"/>
      </g>
      <g class="cls-82">
        <rect class="cls-25" x="448.7" y="298.6" width="5" height="9"/>
      </g>
      <g class="cls-82">
        <rect class="cls-25" x="456.7" y="298.6" width="5" height="9"/>
      </g>
      <g class="cls-82">
        <rect class="cls-25" x="464.7" y="298.6" width="5" height="9"/>
      </g>
      <g class="cls-82">
        <rect class="cls-25" x="316.4" y="271.6" width="5" height="9"/>
      </g>
      <g class="cls-82">
        <rect class="cls-25" x="324.4" y="271.6" width="5" height="9"/>
      </g>
      <g class="cls-82">
        <rect class="cls-25" x="332.4" y="271.6" width="5" height="9"/>
      </g>
      <g class="cls-82">
        <rect class="cls-25" x="340.4" y="271.6" width="5" height="9"/>
      </g>
      <g class="cls-82">
        <rect class="cls-25" x="316.4" y="285.1" width="5" height="9"/>
      </g>
      <g class="cls-82">
        <rect class="cls-25" x="324.4" y="285.1" width="5" height="9"/>
      </g>
      <g class="cls-82">
        <rect class="cls-25" x="332.4" y="285.1" width="5" height="9"/>
      </g>
      <g class="cls-82">
        <rect class="cls-25" x="340.4" y="285.1" width="5" height="9"/>
      </g>
      <g class="cls-82">
        <rect class="cls-25" x="316.4" y="298.6" width="5" height="9"/>
      </g>
      <g class="cls-82">
        <rect class="cls-25" x="324.4" y="298.6" width="5" height="9"/>
      </g>
      <g class="cls-82">
        <rect class="cls-25" x="332.4" y="298.6" width="5" height="9"/>
      </g>
      <g class="cls-82">
        <rect class="cls-25" x="340.4" y="298.6" width="5" height="9"/>
      </g>
      <g class="cls-82">
        <rect class="cls-25" x="386.7" y="285.1" width="4.8" height="8.7"/>
      </g>
      <g class="cls-82">
        <rect class="cls-25" x="475.4" y="287.1" width="4.8" height="8.7"/>
      </g>
      <g class="cls-82">
        <rect class="cls-25" x="394.4" y="285.1" width="4.8" height="8.7"/>
      </g>
      <g class="cls-82">
        <rect class="cls-25" x="483.1" y="287.1" width="4.8" height="8.7"/>
      </g>
      <path class="cls-63" d="M577.4,293.4h-20.2l-4-3.6h18.4l5.8,3.6Z"/>
      <path class="cls-47" d="M557.2,305.7v-12.2h20.2v12.2h-20.2Z"/>
      <path class="cls-59" d="M553.2,301v-11.2l4,3.6v12.3l-4-4.7Z"/>
      <path class="cls-8" d="M566.9,284.2c-.6,0-1.2-.2-1.7-.2-.6,0-1.2,0-1.8,0-.9,0-1.9-.1-2.7.2-.8.3-1.4.5-1.7,1.3,0,.3,0,.6.3.7.5.5,1.2.7,2,.8,1.2.2,2.5,0,3.8-.2.5,0,1.1-.2,1.6-.4.5-.2.7-.3.7-.9s-.3-.3-.7-.3c-1.2,0-2.4-.3-3.5-.3s-1.8-.1-2.7,0c-.3,0-1,.3-.4.5.5.2,1.1.5,1.6.6.5.1,1.1.1,1.7,0,.4,0,.8-.1,1.2-.1s0,0-.1,0c-.4,0-.7.2-1.1.4-.5.3-1.2.9-1.8.9s0,0-.1-.1c0,0,0,.5.1.6,0,.5-.2,1-.5,1.4-.2.4-.4.7-.6,1-.2.3-.3.7-.4,1,0,.2-.2.4-.2.6s0-.4,0-.5c.2-.8.4-1.5.7-2.2.2-.4.5-1,.5-1.4v-.8c0-.2,0-.3-.1-.1-.2.1-.4.3-.5.5-.7.6-1.5.9-2.1,1.5-.4.4-.8.8-1.2,1.2,0,0-.4.5-.4.2s.4-.5.7-.7c.7-.6,1.5-1.2,2.2-2,.6-.7,1.1-1,2-1.1,1.2-.1,2.4,0,3.5-.3.8-.2,1.9-.3,2.4.5.6,1,1.2,1.9,1.8,2.9.3.4.6.9.9,1.3,0,0,.2.1.1,0-.2-.2-.3-.3-.5-.5-.5-.7-.9-1.3-1.4-2-.2-.3-.5-.7-.7-1-.3-.3-.5-.7-.9-.9-.3-.2-.4-.3-.4,0-.1.5-.4,1.1-.6,1.5-.5,1.2-.8,2.5-.9,3.8,0,.2,0,.8,0,.3"/>
      <path class="cls-8" d="M567,284.4c.3,0,.6-.5.8-.6.2-.2.3-.4.4-.6.2-.3.5-.5.7-.7.2-.2.6-.6.6-.9,0,0-.2-.1,0,0,.8.5,1.7.9,2.5,1.3.3.1.6.3.9.4.3.1.7.2.9.5.5.6-1.4-.8-2.1-1.1-.7-.4-1.4-1-2.3-1s-.7,0-.7.1c0,.5-.6,1-.9,1.4-.3.4-.5.8-.8,1.2,0,.1-.4.7-.4.4s.2-.5.2-.7c.3-.6.8-1.2,1.3-1.7.2-.2,0,0,0,0-.2.2-.3.4-.6.5-.5.3-1.2.8-1.8.8"/>
      <path class="cls-8" d="M569.3,282.5c.5,0,1.2,0,1.6.3.2.1.4,0,.6.1.2,0,.4.2.6.2.2,0,1.3.7,1.4.5"/>
      <path class="cls-3" d="M558.9,284.7c-.5,0-1,0-1.4,0-.3,0-.5.1-.8.2-.4,0-.7.1-1.1.2,0,0-.5.1-.4,0,.1-.2.5-.1.7-.2.5,0,1.1,0,1.6-.1.5,0,.9,0,1.4,0s.5,0,.4,0c-.2,0-.8-.2-1-.3-.6-.2-1.2-.5-1.8-.6,0,0-.4,0-.3,0,.6,0,1.2.5,1.7.8.4.2,1,.3,1.3.7.2.3-.6.2-.7.1-.3,0-.7,0-1,0s-.9,0-1-.2"/>
      <path class="cls-3" d="M569.6,280.9c.2-.4.2-.8.4-1.2"/>
      <path class="cls-3" d="M569.8,281.6c.6-.1,1.1-.7,1.6-1,.2-.1.4-.4.6-.5"/>
      <path class="cls-3" d="M563.2,276.5c-.3,0-.5.2-.8.4-.2.2-.6.7-.7,1-.2.8.7,1.2,1.3,1.2.4,0,1.2-.2,1.4-.6.2-.5.3-1,0-1.4-.2-.2-.5-.4-.8-.4-.1,0-.4,0-.5-.2"/>
      <path class="cls-3" d="M563.1,279.2c0,.6-.3,1.2-.3,1.8v1.6c0,.4-.4.7-.6,1.1-.1.3-.4,1.2-.7,1.3"/>
      <path class="cls-3" d="M563.2,279.5c.9,1.3,1.8,2.5,2.9,3.6"/>
      <path class="cls-3" d="M563.5,279.5c.6.2,1.2.4,1.8.6.3.1.6.4.9.5.1,0,.8.4.8.3"/>
      <path class="cls-44" d="M280.7,273.8l-36.5-5.9v24.1l36.5-1.6v-16.6Z"/>
      <path class="cls-24" d="M258.4,314.4c.8,2,3.2,2.2,4.3,2.1l-1.4-4.1-3.8-3.8c0,1.1.1,3.7.9,5.8Z"/>
      <path class="cls-64" d="M259.1,311.3c.3,5.4,3.7,5.7,5.3,5.2,4.9-1.9,3.9-8.2,2.1-10.3-2.8-.4-7.7-.2-7.4,5.1Z"/>
      <path class="cls-56" d="M222.4,270.5l20.8-8,.7,29.8,36.9-1.5v14.7l-11.2,2.6c-4.1-4.3-7.7-.4-8.9,2.1l-16.3,3.3-21.9-5.4v-37.6Z"/>
      <path class="cls-9" d="M244.4,313.5l-21.9-5.4v-37.6l20.8-8,.7,29.8M244.4,313.5l16.3-3.3c1.3-2.5,4.8-6.4,8.9-2.1l11.2-2.6v-14.7l-36.9,1.5M244.4,313.5l-.5-21.2"/>
      <path class="cls-62" d="M280.5,273.7l-37-6.1v12.6l37,2.2v-8.7Z"/>
      <path class="cls-77" d="M280.7,273.6l-37.3-6.1v-4.8l37.3,6.7v4.2Z"/>
      <path class="cls-9" d="M257.6,269.9v21.7"/>
      <path class="cls-9" d="M280.8,269.2l-37.7-6.6.9,29.7,36.8-1.5v-21.5Z"/>
      <path class="cls-9" d="M269.2,271.6v19.7"/>
      <path class="cls-79" d="M303.7,270.8l-29.5-9.1-29.2,6.1,35.6,5.7,23.2-2.7Z"/>
      <path class="cls-18" d="M253.1,303.2l-.4-5.8h2c.5-.2.8-.1,1.1,0,.3.1.5.3.7.6.2.3.2.6.3.9,0,.3,0,.7-.1.9-.1.3-.3.5-.6.7-.3.2-.6.3-1.1.3h-1.4c0,0,0-.5,0-.5h1.4c.3-.1.6-.2.7-.3.2-.1.3-.3.4-.5,0-.2.1-.4,0-.6,0-.2,0-.4-.2-.6,0-.2-.2-.3-.4-.4-.2,0-.5-.1-.8-.1h-1.2c0,0,.4,5.3.4,5.3h-.7ZM258.5,303l-.5-.3,2.7-4.7.5.3-2.7,4.7ZM259.8,302.8c-.4,0-.7,0-1.1-.2-.3-.2-.6-.4-.7-.7-.2-.3-.3-.7-.3-1.2,0-.5,0-.9.2-1.2.1-.4.4-.6.6-.8.3-.2.6-.3,1-.4.4,0,.7,0,1.1.2.3.2.6.4.7.7.2.3.3.7.3,1.2,0,.5,0,.8-.2,1.2-.1.3-.4.6-.6.8-.3.2-.6.3-1,.4ZM259.8,302.2c.3,0,.5-.1.7-.3.2-.2.3-.4.4-.6,0-.3.1-.5,0-.8,0-.3,0-.6-.2-.8-.1-.2-.3-.4-.5-.6-.2-.1-.5-.2-.8-.2-.3,0-.5.1-.7.3-.2.2-.3.4-.4.6,0,.3-.1.5,0,.8,0,.3,0,.6.2.8.1.2.3.4.5.6.2.1.5.2.8.2ZM263.1,296.7l.4,5.8h-.7s-.4-5.8-.4-5.8h.7ZM267.5,298.8l-.6.2c0,0-.1-.2-.2-.3,0,0-.2-.2-.3-.2-.1,0-.3,0-.5,0-.3,0-.5,0-.7.2-.2.1-.2.3-.2.5,0,.2,0,.3.2.4.1,0,.3.2.6.2h.7c.4.2.7.3.9.5.2.2.3.4.3.7,0,.2,0,.5-.2.7-.1.2-.3.4-.6.5-.2.1-.5.2-.9.2-.4,0-.8,0-1.1-.2-.3-.2-.5-.4-.6-.8l.6-.2c0,.2.2.4.4.5.2.1.4.1.7.1.3,0,.6-.1.7-.2.2-.1.3-.3.2-.5,0-.2,0-.3-.2-.4-.1,0-.3-.2-.5-.2h-.7c-.4-.2-.7-.3-.9-.5-.2-.2-.3-.4-.3-.7,0-.2,0-.5.2-.7.1-.2.3-.4.5-.5.2-.1.5-.2.8-.2.4,0,.8,0,1,.2.3.2.5.4.6.7ZM270.7,302.1c-.4,0-.8,0-1.1-.2-.3-.2-.6-.4-.8-.7-.2-.3-.3-.7-.3-1.2,0-.4,0-.8.2-1.2.1-.4.4-.6.6-.8.3-.2.6-.3,1-.4.2,0,.5,0,.7,0,.2,0,.4.2.6.3.2.2.4.4.5.6.1.3.2.6.2,1v.3s-3.3.2-3.3.2v-.6s2.6-.2,2.6-.2c0-.2,0-.5-.2-.6-.1-.2-.3-.3-.4-.4-.2,0-.4-.1-.6-.1-.3,0-.5.1-.7.2-.2.1-.3.3-.4.5,0,.2-.1.4-.1.7v.4c0,.3.1.6.3.8.1.2.3.4.5.5.2.1.5.1.7.1.2,0,.3,0,.5-.1.1,0,.3-.1.4-.3,0-.1.2-.2.2-.4h.7c0,.4-.2.6-.3.7-.2.2-.3.3-.6.4-.2.1-.5.2-.8.2ZM273.5,301.8l-.3-4.4h.6s0,.6,0,.6h0c0-.2.2-.4.4-.6.2-.1.4-.2.7-.2,0,0,.1,0,.2,0s.1,0,.2,0v.7s0,0-.1,0c0,0-.2,0-.3,0-.2,0-.4,0-.6.2-.2,0-.3.2-.4.4,0,.2-.1.3-.1.5l.2,2.8h-.7Z"/>
      <g class="cls-83">
        <path class="cls-65" d="M253.1,303.2h-1c0,.6.5,1,1.1,1v-1ZM252.7,297.4v-1c-.6,0-1,.5-1,1.1h1ZM255.8,297.4l-.4.9h0s.4-.9.4-.9ZM256.5,298l-.9.5h0l.9-.5ZM256.6,299.9l-.9-.4h0s.9.4.9.4ZM256,300.6l.6.8h0s-.6-.8-.6-.8ZM253.5,301h-1c0,.6.5,1,1.1,1v-1ZM253.5,300.4v-1c-.6,0-1,.5-1,1.1h1ZM255.6,300.1l-.6-.8h0l.6.8ZM256,299.6l-.9-.4h0s.9.4.9.4ZM255.9,298.4l-.9.5h0s.9-.5.9-.5ZM255.4,298l-.4.9h0s.4-.9.4-.9ZM253.4,297.9v-1c-.6,0-1,.5-1,1.1h1ZM253.8,303.1v1c.6,0,1-.5,1-1.1h-1ZM254.1,303.1l-.4-5.8h-2c0,.1.4,5.9.4,5.9h2ZM252.8,298.4h2c0-.1-.1-2.1-.1-2.1h-2c0,.1.1,2.1.1,2.1ZM254.7,298.2c.3,0,.5,0,.6,0l.9-1.8c-.5-.2-1.1-.3-1.6-.3v2ZM255.4,298.3c.1,0,.2.1.3.2l1.7-1c-.3-.5-.7-.8-1.1-1l-.9,1.8ZM255.6,298.5c0,.1.1.3.1.5h2c0-.6-.2-1.1-.4-1.5l-1.7,1ZM255.8,299c0,.2,0,.4,0,.5l1.8.8c.2-.4.3-.9.2-1.4h-2ZM255.7,299.5c0,0-.1.2-.2.3l1.1,1.7c.4-.3.8-.7,1-1.2l-1.9-.8ZM255.5,299.8c0,0-.3.1-.6.2v2c.7,0,1.3-.2,1.7-.5l-1.1-1.7ZM254.9,299.9h-1.4c0,0,.1,2.1.1,2.1h1.4c0,0-.1-2.1-.1-2.1ZM254.5,300.9v-.6s-2,.1-2,.1v.6s2-.1,2-.1ZM253.5,301.4h1.4c0,0-.1-2.1-.1-2.1h-1.4c0,0,.1,2.1.1,2.1ZM254.9,301.3c.4,0,.8-.1,1.2-.4l-1.1-1.7s0,0-.3,0v2ZM256.1,300.9c.3-.2.6-.5.8-.9l-1.9-.7s0,0,0,0c0,0,0,0,0,0,0,0,0,0,0,0,0,0,0,0,0,0l1.1,1.7ZM256.9,300c.1-.3.2-.7.2-1.1h-2c0,.2,0,.3,0,.3l1.9.7ZM257.1,298.9c0-.4-.1-.7-.3-1l-1.7,1s0,0,0,.2h2ZM256.8,297.9c-.2-.4-.5-.7-.9-.8l-.8,1.8s0,0,0,0c0,0,0,0,0,0s0,0,0,0c0,0,0,0,0,0s0,0,0,0l1.8-1ZM255.9,297.1c-.4-.2-.8-.2-1.3-.2v2c.4,0,.4,0,.4,0l.8-1.8ZM254.6,296.9h-1.2c0,0,.1,2.1.1,2.1h1.2c0,0-.1-2.1-.1-2.1ZM252.4,298l.4,5.2h2c0-.1-.4-5.3-.4-5.3h-2ZM253.7,302.1h-.7s.1,2,.1,2h.7s-.1-2-.1-2ZM258.5,303l-.5.9c.2.1.5.2.8.1.3,0,.5-.2.6-.5l-.9-.5ZM258.1,302.8l-.9-.5c-.3.5-.1,1.1.4,1.4l.5-.9ZM260.8,298.1l.5-.9c-.2-.1-.5-.2-.8-.1-.3,0-.5.2-.6.5l.9.5ZM261.2,298.3l.9.5c.3-.5.1-1.1-.4-1.4l-.5.9ZM258.7,302.6l-.5.9h0s.5-.9.5-.9ZM258,301.9l-.9.5h0s.9-.5.9-.5ZM257.8,299.5l-.9-.4h0s.9.4.9.4ZM258.5,298.7l-.6-.8h0s.6.8.6.8ZM260.5,298.5l-.5.9h0s.5-.9.5-.9ZM261.3,299.3l-.9.5h0s.9-.5.9-.5ZM261.4,301.6l-.9-.4h0s.9.4.9.4ZM260.8,302.5l-.6-.8h0s.6.8.6.8ZM260.5,301.9l-.7-.7.7.7ZM260.9,301.3l1,.3h0l-1-.3ZM260.8,299.7l.9-.4h0l-.9.4ZM260.3,299.1l.6-.8h0l-.6.8ZM258.8,299.2l-.7-.7h0l.7.7ZM258.4,299.8l-1-.3h0l1,.3ZM258.5,301.4l-.9.4.9-.4ZM259,302l.6-.8h0l-.6.8ZM259,302.2l-.5-.3-1,1.7.5.3,1-1.7ZM258.9,303.3l2.7-4.7-1.7-1-2.7,4.7,1.7,1ZM260.3,298.9l.5.3,1-1.7-.5-.3-1,1.7ZM260.4,297.8l-2.7,4.7,1.7,1,2.7-4.7-1.7-1ZM259.7,301.8c-.2,0-.4,0-.5,0l-.9,1.8c.5.3,1,.4,1.6.3v-2ZM259.2,301.7c-.1,0-.3-.2-.4-.4l-1.7,1c.3.5.7.9,1.1,1.1l1-1.8ZM258.9,301.4c0-.2-.2-.4-.2-.7h-2c0,.7.2,1.2.5,1.7l1.7-1ZM258.7,300.6c0-.3,0-.6,0-.8l-1.9-.7c-.2.5-.3,1.1-.2,1.6h2ZM258.8,299.9c0-.2.2-.3.3-.4l-1.2-1.6c-.4.3-.8.8-1,1.3l1.9.8ZM259.1,299.5c.1,0,.3-.1.5-.2v-2c-.7,0-1.2.2-1.7.5l1.2,1.6ZM259.6,299.3c.2,0,.4,0,.5,0l1-1.8c-.5-.3-1-.4-1.6-.3v2ZM260.1,299.4c.1,0,.3.2.4.4l1.7-1c-.3-.5-.7-.9-1.1-1.1l-.9,1.8ZM260.4,299.8c0,.2.2.4.2.7h2c0-.7-.2-1.3-.5-1.7l-1.7,1ZM260.6,300.5c0,.3,0,.6,0,.7l1.9.8c.2-.5.3-1.1.2-1.6h-2ZM260.5,301.2c0,.2-.2.3-.3.4l1.2,1.6c.4-.3.8-.8,1-1.3l-1.9-.8ZM260.2,301.6c-.1,0-.3.1-.5.2v2c.7,0,1.2-.2,1.7-.5l-1.2-1.6ZM259.8,303.2c.5,0,.9-.2,1.3-.5l-1.3-1.5s0,0,0,0c0,0,0,0-.1,0v2ZM261.2,302.7c.3-.3.5-.7.7-1.1l-1.9-.6c0,0,0,.1-.1.2l1.3,1.5ZM261.8,301.6c.1-.4.1-.8.1-1.2h-2c0,.3,0,.5,0,.6l1.9.6ZM261.9,300.4c0-.4-.1-.8-.3-1.1l-1.8.8c0,.1,0,.3.1.5h2ZM261.7,299.3c-.2-.4-.4-.7-.8-1l-1.1,1.6s0,0,.1.2l1.8-.8ZM260.9,298.3c-.4-.3-.9-.4-1.4-.4v2c.2,0,.2,0,.2,0,0,0,0,0,0,0l1.1-1.6ZM259.5,297.9c-.5,0-.9.2-1.3.5l1.4,1.5s0,0,0,0c0,0,0,0,.1,0v-2ZM258.1,298.5c-.3.3-.5.7-.7,1.1l1.9.6c0,0,0-.1.1-.2l-1.4-1.5ZM257.5,299.5c-.1.4-.1.8-.1,1.2h2c0-.3,0-.5,0-.6l-1.9-.6ZM257.3,300.7c0,.4.1.8.3,1.1l1.8-.8c0-.1,0-.3-.1-.5h-2ZM257.6,301.9c.2.4.4.7.8,1l1.1-1.6s0,0-.1-.2l-1.8.8ZM258.4,302.8c.4.3.9.4,1.4.4v-2c-.2,0-.2,0-.2,0,0,0,0,0,0,0l-1.1,1.6ZM263.1,296.7h1c0-.6-.5-1-1.1-1v1ZM263.5,302.5v1c.6,0,1-.5,1-1.1h-1ZM262.8,302.5h-1c0,.6.5,1,1.1,1v-1ZM262.4,296.7v-1c-.6,0-1,.5-1,1.1h1ZM262.1,296.7l.4,5.8h2c0-.1-.4-5.9-.4-5.9h-2ZM263.4,301.5h-.7s.1,2,.1,2h.7s-.1-2-.1-2ZM263.8,302.4l-.4-5.8h-2c0,.1.4,5.9.4,5.9h2ZM262.5,297.7h.7s-.1-2-.1-2h-.7s.1,2,.1,2ZM267.5,298.8l.3.9c.3,0,.5-.3.6-.5.1-.2.1-.5,0-.8l-.9.4ZM266.9,299l-.9.4c.2.5.8.7,1.2.5l-.3-.9ZM266.8,298.7l-.8.7s0,0,0,0l.7-.7ZM266.4,298.5l.4-.9-.4.9ZM265.3,298.7l.6.8h0s-.6-.8-.6-.8ZM265.3,299.5l-.6.8h0l.6-.8ZM265.9,299.7l-.2,1h0s.2-1,.2-1ZM266.5,299.8l-.2,1h0s.2-1,.2-1ZM267.4,300.2l-.7.7h0s.7-.7.7-.7ZM267.6,301.6l-.8-.5h0s.9.5.9.5ZM265,302.2l.5-.9-.5.9ZM264.4,301.3l-.3-1c-.5.2-.8.7-.7,1.2l1-.3ZM265,301.1l.9-.3c-.2-.5-.7-.8-1.3-.6l.3,1ZM265.4,301.6l-.5.9h0s.5-.9.5-.9ZM266.8,301.5l.6.8h0s-.6-.8-.6-.8ZM266.9,300.7l-.6.8h0s.6-.8.6-.8ZM266.4,300.5l-.2,1h0l.2-1ZM265.6,300.3l-.2,1h0l.2-1ZM264.7,300l-.7.7h0s.7-.7.7-.7ZM264.6,298.6l-.8-.5h0s.8.5.8.5ZM265.1,298.1l-.5-.9h0s.5.9.5.9ZM266.9,298.1l-.6.8h0s.5-.8.5-.8ZM267.2,297.8l-.6.2.7,1.9.6-.2-.7-1.9ZM267.8,298.6c0-.2-.2-.4-.4-.5l-1.5,1.3s0,0,0,0l1.8-.8ZM267.5,298.1c-.2-.2-.4-.4-.7-.5l-.8,1.8s0,0,0,0c0,0,0,0,0,0l1.5-1.3ZM266.8,297.6c-.3-.1-.6-.2-.9-.1v2c.2,0,.2,0,.2,0,0,0,0,0,0,0l.8-1.8ZM265.9,297.4c-.4,0-.8.2-1.2.4l1.2,1.6s0,0,0,0c0,0,0,0,.1,0v-2ZM264.7,297.9c-.4.3-.6.8-.6,1.3h2c0,0,0,0,0,.1,0,0,0,.1,0,.1l-1.2-1.6ZM264.1,299.2c0,.4.2.9.6,1.1l1.1-1.6c0,0,.1,0,.2.2,0,0,0,.2,0,.2h-2ZM264.7,300.4c.3.2.7.3,1,.4l.4-2c0,0-.2,0-.2,0,0,0,0,0,0,0l-1.1,1.6ZM265.7,300.7h.7c0,.1.3-1.9.3-1.9h-.7c0-.1-.3,1.9-.3,1.9ZM266.4,300.8c.3,0,.4.1.4.1l1.3-1.5c-.4-.4-.9-.5-1.4-.6l-.3,2ZM266.8,301s0,0,0,0c0,0,0,0,0,0,0,0,0,0,0,0h2c0-.7-.2-1.2-.7-1.5l-1.3,1.5ZM266.8,301s0,0,0,0l1.7,1.1c.2-.4.4-.8.3-1.3h-2ZM266.7,301.1s0,0-.2.2l.9,1.8c.4-.2.7-.5.9-.9l-1.7-1.1ZM266.6,301.3c-.1,0-.3.1-.5.1v2c.6,0,1-.1,1.4-.3l-.9-1.8ZM266.1,301.4c-.3,0-.5,0-.6,0l-1,1.7c.5.3,1.1.4,1.7.3v-2ZM265.5,301.3c0,0-.1,0-.1-.2l-1.9.5c.2.6.5,1.1,1.1,1.4l1-1.7ZM264.7,302.3l.6-.2-.6-1.9-.6.2.6,1.9ZM264.1,301.5c.1.4.4.8.8,1l1-1.7s0,0,0,0c0,0,0,0,0,0,0,0,0,0,0,0l-1.9.6ZM264.9,302.5c.4.2.8.3,1.3.3v-2c-.3,0-.3,0-.2,0l-1,1.7ZM266.2,302.8c.4,0,.9-.2,1.3-.5l-1.3-1.5s0,0-.2,0v2ZM267.5,302.3c.4-.3.6-.8.6-1.3h-2c0,0,0,0,0-.1,0,0,0,0,0,0l1.3,1.5ZM268.1,301c0-.4-.2-.8-.5-1.1l-1.3,1.5s0,0-.1-.2c0,0,0-.1,0-.2h2ZM267.5,299.9c-.3-.3-.7-.4-1-.4l-.3,2s0,0,0,0c0,0,0,0,0,0,0,0,0,0,0,0l1.3-1.5ZM266.5,299.5h-.7c0-.1-.3,1.9-.3,1.9h.7c0,.1.3-1.9.3-1.9ZM265.8,299.4c-.1,0-.2,0-.3,0,0,0,0,0,0,0l-1.4,1.5c.4.4.9.5,1.4.6l.3-2ZM265.4,299.2s0,0,0,0c0,0,0,0,0,0h0s0,0,0,0,0,0,0,0h-2c0,.7.2,1.1.6,1.5l1.4-1.5ZM265.4,299.2s0,0,0,0c0,0,0,0,0,0l-1.7-1.1c-.2.4-.3.8-.3,1.3h2ZM265.4,299.1s0,0,.2-.1l-.9-1.8c-.4.2-.7.5-.9.8l1.7,1.1ZM265.6,299c0,0,.2,0,.4-.1v-2c-.6,0-1,.1-1.3.3l.9,1.8ZM266,298.9c.3,0,.4,0,.4,0l1.1-1.7c-.5-.3-1.1-.4-1.7-.4v2ZM266.4,298.9c0,0,.2.1.2.3l1.8-.8c-.2-.5-.5-.9-1-1.2l-1.1,1.7ZM269.6,301.8l-.5.9h0s.5-.9.5-.9ZM268.8,301.1l-.9.5h0s.9-.5.9-.5ZM268.7,298.8l-.9-.4h0s.9.4.9.4ZM269.3,297.9l.6.8h0s-.6-.8-.6-.8ZM271,297.6l.3-1h0l-.3,1ZM271.6,297.9l-.6.8h0s.6-.8.6-.8ZM272.1,298.6l.9-.4h0l-.9.4ZM272.3,299.9v1c.6,0,1-.5,1-1.1h-1ZM269,300.1h-1c0,.6.5,1,1.1,1v-1ZM268.9,299.5v-1c-.6,0-1,.5-1,1.1h1ZM271.6,299.4v1c.6,0,1-.5,1-1.1h-1ZM271.4,298.7l-.9.5h0s.9-.5.9-.5ZM271,298.3l-.5.9h0s.5-.9.5-.9ZM269.7,298.4l.6.8h0s-.6-.8-.6-.8ZM269.3,298.9l-.9-.4h0l.9.4ZM269.4,300.8l-.9.5h0s.9-.5.9-.5ZM269.9,301.3l-.4.9h0s.4-.9.4-.9ZM271.1,301.3l.4.9h0s-.4-.9-.4-.9ZM271.5,301.1l.7.7h0s-.7-.7-.7-.7ZM271.7,300.7l.2-1c-.5-.1-1,.2-1.2.7l1,.3ZM272.3,300.8l1,.2c0-.3,0-.5-.1-.8-.1-.2-.4-.4-.6-.4l-.2,1ZM272,301.4l.8.6h0s-.8-.6-.8-.6ZM271.5,301.9l.4.9h0s-.4-.9-.4-.9ZM270.6,301.1c-.3,0-.4,0-.6,0l-.9,1.8c.5.3,1.1.4,1.6.3v-2ZM270,301c-.1,0-.3-.2-.4-.4l-1.7,1c.3.5.7.9,1.2,1.1l.9-1.8ZM269.7,300.6c0-.2-.2-.4-.2-.7h-2c0,.7.2,1.2.5,1.7l1.7-1ZM269.5,299.9c0-.3,0-.6,0-.8l-1.9-.7c-.2.5-.3,1.1-.2,1.6h2ZM269.6,299.1c0-.2.2-.3.3-.4l-1.2-1.6c-.4.3-.8.8-1,1.3l1.9.7ZM269.9,298.7c.1,0,.3-.1.5-.2v-2c-.7,0-1.2.2-1.7.6l1.2,1.6ZM270.4,298.6c.1,0,.2,0,.4,0l.5-1.9c-.3,0-.7-.1-1,0v2ZM270.7,298.6c0,0,.2,0,.3.1l1.3-1.5c-.3-.2-.6-.4-1-.5l-.5,1.9ZM271,298.7c0,0,.1.1.2.3l1.8-.8c-.2-.4-.4-.7-.8-1l-1.3,1.6ZM271.2,299c0,.1.1.3.1.7h2c0-.6-.1-1.1-.3-1.5l-1.8.8ZM271.3,299.7v.3s2-.1,2-.1v-.3s-2,.1-2,.1ZM272.3,298.9l-3.4.2v2c.1,0,3.5-.2,3.5-.2v-2ZM270,300.1v-.6s-2,.1-2,.1v.6s2-.1,2-.1ZM269,300.5l2.7-.2v-2c-.1,0-2.8.2-2.8.2v2ZM272.6,299.3c0-.4-.1-.8-.3-1.1l-1.7,1s0,0,0,.2h2ZM272.3,298.2c-.2-.3-.5-.6-.8-.8l-.9,1.8s0,0,0,0l1.7-1ZM271.5,297.4c-.4-.2-.8-.3-1.2-.2v2c.2,0,.2,0,.2,0,0,0,0,0,0,0l.9-1.8ZM270.3,297.2c-.4,0-.9.2-1.2.5l1.2,1.6s0,0,.1,0v-2ZM269,297.6c-.3.3-.6.6-.7.9l1.8.8c0,0,0,0,.1-.1l-1.2-1.6ZM268.3,298.6c-.1.4-.2.7-.2,1.1h2c0-.2,0-.3,0-.4l-1.8-.8ZM268.1,299.7v.4s2-.1,2-.1v-.4s-2,.1-2,.1ZM268.2,300.1c0,.4.1.9.4,1.3l1.7-1c0,0,0-.2,0-.4h-2ZM268.5,301.4c.2.4.5.7.9.9l.9-1.8s0,0-.1-.1l-1.7,1ZM269.5,302.2c.4.2.8.3,1.2.2v-2c-.3,0-.3,0-.4,0l-.9,1.8ZM270.7,302.4c.3,0,.5,0,.8-.2l-.8-1.8s0,0-.1,0v2ZM271.5,302.3c.3-.1.5-.3.7-.5l-1.5-1.3h0s0,0,0,0l.8,1.8ZM272.2,301.8c.2-.2.3-.5.4-.8l-1.9-.6s0,0,0,0c0,0,0,0,0,0l1.5,1.3ZM271.5,301.7h.7c0,.1.4-1.8.4-1.8h-.7c0-.1-.4,1.8-.4,1.8ZM271.4,300.6c0,0,0,.1,0,.2l1.5,1.3c.2-.3.4-.6.5-1l-1.9-.5ZM271.3,300.8c0,0-.1.1-.2.2l.9,1.8c.3-.2.7-.4.9-.7l-1.5-1.3ZM271,301c-.1,0-.2,0-.4.1v2c.5,0,.9-.1,1.3-.3l-.8-1.8ZM273.5,301.8h-1c0,.6.5,1,1.1,1v-1ZM273.2,297.4v-1c-.6,0-1,.5-1,1.1h1ZM273.8,297.4h1c0-.6-.5-1-1.1-1v1ZM273.9,298h-1c0,.6.5,1,1.1,1v-1ZM273.9,298v1c.5,0,.8-.3,1-.7l-1-.3ZM274.3,297.5l-.6-.8h0l.6.8ZM275.4,297.2h1c0-.6-.5-1-1-1v1ZM275.4,297.9l-.2,1c.3,0,.6,0,.8-.2.2-.2.4-.5.3-.8h-1ZM275.3,297.9v1c0,0,0,0,0,0v-1ZM274.4,298l.5.9h0s-.5-.9-.5-.9ZM274.1,298.4l-.9-.5h0s.9.5.9.5ZM274.2,301.7v1c.6,0,1-.5,1-1.1h-1ZM274.5,301.7l-.3-4.4h-2c0,.1.3,4.5.3,4.5h2ZM273.3,298.4h.6s-.1-2-.1-2h-.6s.1,2,.1,2ZM272.8,297.4v.7s2-.1,2-.1v-.7s-2,.1-2,.1ZM274,299h0s-.1-2-.1-2h0s.1,2,.1,2ZM274.9,298.3s0,0,0,0h0s0,0,0,0l-1.2-1.6c-.4.3-.6.6-.8,1.1l1.9.6ZM274.9,298.3s0,0,.2,0v-2c-.6,0-1,.2-1.4.4l1.2,1.6ZM275.1,298.2s0,0,.2,0v-2c-.2,0-.2,0-.3,0v2ZM275.2,298.2s0,0,0,0c0,0,0,0,0,0v-2s-.1,0-.2,0v2ZM274.4,297.3v.7s2-.1,2-.1v-.7s-2,.1-2,.1ZM275.6,296.9c0,0-.2,0-.3,0v2c-.1,0,0,0,0,0,0,0,0,0,0,0s0,0,0,0c0,0,0,0,0,0l.3-2ZM275.3,296.9c-.1,0-.3,0-.4,0v2c.2,0,.2,0,.2,0l.2-2ZM274.9,296.9c-.4,0-.7.1-1,.3l1.1,1.7s0,0,0,0v-2ZM273.9,297.2c-.3.2-.6.5-.7.8l1.8.9s0,0,0,0h0s0,0,0,0c0,0,0,0,0,0l-1.1-1.7ZM273.2,298c-.2.3-.2.7-.2,1.1h2c0-.2,0-.2,0-.2,0,0,0,0,0,0,0,0,0,0,0,0l-1.8-.9ZM273,299l.2,2.8h2c0-.1-.2-2.9-.2-2.9h-2ZM274.1,300.7h-.7s.1,2,.1,2h.7s-.1-2-.1-2Z"/>
      </g>
      <path class="cls-15" d="M598.6,199.6c21,3.2,42.9,8.8,58.3,17.2,17.1,9.3,27.8,20.2,26.7,29.2-1.1,9.3-12.4,16.7-32.3,18.5-18.5,1.6-41.9-6.1-64.2-10-26.6-4.6-59.8-3.4-76.9-14.5-17.1-11.1,2.6-19.7,11.7-28,6.1-5.6,17.2-8.8,30.7-11,13.7-2.2,28-4.2,46-1.5Z"/>
      <path class="cls-15" d="M435.7,104.4c17.4,2.6,35.4,7.3,48.1,14.2,14.1,7.7,22.9,16.7,22,24.1-.9,7.7-10.3,13.8-26.7,15.3-15.3,1.3-34.6-5-53-8.2-22-3.8-49.4-2.8-63.5-12-14.1-9.2,2.2-16.3,9.6-23.1,5-4.6,14.2-7.2,25.4-9,11.3-1.8,23.1-3.5,38-1.2Z"/>
      <path class="cls-49" d="M604.8,218l-4.7,2.2,11.9,2.7-7.2-4.9Z"/>
      <path class="cls-19" d="M604.2,203.8l41.3,9.7c-11.8,2.8-35.1,8.4-34.8,8.6h0s0,0,0,0l-7.2-3,.8-15.2Z"/>
      <path class="cls-29" d="M673.7,206l-78.1-16.5,1.2,13.4,47,11.2,29.8-8.1Z"/>
      <path class="cls-43" d="M595.8,201.9l-1,16.9-33.8-10.4,34.8-6.5Z"/>
      <path class="cls-66" d="M673.7,206l-63.1,15.9,3.6,19.5,74.9-22.9-15.4-12.5Z"/>
      <path class="cls-66" d="M595.6,203l-36.9,6.2-24.1-10.1,61.1-9.6,2.4,6.9-3.2,2,.7,1.1v3.5Z"/>
      <path class="cls-51" d="M595.6,199.5l-1.4,18.6c3.3,4,7.7,2.3,9.5,1l.6-18.8c-3.9,1-7.4,0-8.7-.8Z"/>
      <path class="cls-34" d="M534.6,199.1l-16.8,11.1c0,6.4,65.1,24.2,97.5,31.9l-4.8-20.1c-10.3-1.5-54.9-15.9-76-22.8Z"/>
      <path class="cls-61" d="M523.3,232.3l89.7,31.3,2.7-23.1c-9.5.3-69.1-20.1-97.9-30.5l5.5,10.4v11.9Z"/>
      <path class="cls-50" d="M511.2,230.6c2.8,3.6,9.4,2.4,12.3,1.4v-11.2c-6.5.6-10.9-1.2-12.2-2.1v11.9Z"/>
      <path class="cls-43" d="M686.8,238.8l-73.8,24.8,2-23.1,74.1-22-2.3,20.3Z"/>
      <path class="cls-71" d="M510.5,218.3l7.2-8.5,6.2,11.5c-9.7.6-12.9-1.7-13.4-2.9Z"/>
      <path class="cls-78" d="M605.3,199.5c-4.3,3.1-9,.5-10.8-1.2,1.3-.3,4.4-3.2,5.8-4.6.6,1.1,3.3,4.4,5,5.8Z"/>
      <path class="cls-2" d="M483.2,132.6c1.6,1.5,4.4,4.9,6.7,5.1,1.2,0,2.3.5,3.6.5s2.3-.8,3.3-1.3c1.8-.9,4.3-.8,5.2,1.2.5,1.1,1.8,3.2,3,3.6,1.2.4,2.4,0,3.7,0,3,0,5.9,1,8.8,1.3,4.1.5,11.3.3,11.4-5.4.1-5.2-6.2-7.9-10.4-9.4-2.1-.7-4.9-1.9-7.2-1.2-2.1.7-2.5,1.8-3.6,3.4-1.1,1.6-2.9,3.9-1.2,5.8.4.5.7,1.9,1.1,2.2.7.5,1.1,1,1.7,1.6"/>
      <path class="cls-2" d="M343.6,131.8c.2,1.9.6,3.8,1.3,5.6,1.2,2.9,2.1,6.1,4,8.6,1,1.3,3.3,1.5,4.8,1.7,3,.3,5.9-.6,8.8-1.3,2.4-.5,4.8-1.4,7.3-1.9,1.3-.2,2.5-.3,3-1.7,1.4-3.6-.2-7.9-1.5-11.2-.6-1.4-1.4-2.7-1.9-4.2-.2-.6-.5-2.1-1.3-2.1s-1.1.2-1.7.4c-2.5.7-5.1,1.2-7.6,1.7-3.2.7-6.5,1-9.7,1.9-2.2.7-5.1-.1-7.1,1.5-1,.8,3.5,7.3,3.9,8,2.2,3.7,4.6,8.1,8,11,1.5,1.3,2.7,1.4,4.5.3,3.5-2.3,6.6-5.3,10.5-7.2,2-1,4.5-2.2,5.4-4.4.7-1.6-1-2.8-.7-4.2,0-.5,7,3,7.5,3.4.5.3,4.8,4.7,4.9,3.3.2-1.9-.8-3.7-.8-5.7s.5-.6,1.2.8c.6,1.1,1.3,1.9,2,2.9.2.3.8,1.3.8,1.1"/>
      <path class="cls-4" d="M354,135c-1.3-.1-5-1.3-3.9-.6.2.1,2,.7,1.9.8-.3.8-4.3-2.3-5.2-2.7-.4-.2,1.4,3,1.6,3.4.9,1.8,2.2,3.6,3.5,5.1.7.8,1.7,2.2,2.7,2.7,2,1,4.2-.9,5.8-1.9,1.8-1.1,3.4-1.9,5.4-2.5,1.2-.4,2.8-1,3.8-1.7,1-.7,1.1-.4.6-1.6-.8-1.8-2.1-3.1-3.8-3.9-.7-.3-4.2-1.2-4.3-2,0-.7,3.3-.4,3.5.9.1.7.4,1.1,0,1.9-.7,1.5-4.1.8-5,.7-3.8-.4-4.2-.9-6.8-.9"/>
      <path class="cls-2" d="M508.8,137.9c1.2,1.1,2.9,2,4.4,2.7,1.3.6,2.5,1.8,4,1.9,2.5.2,4.9.3,7.3.3"/>
      <path class="cls-2" d="M529.1,135.8c-1.4-1.2-3.8-1.9-5.5-2.7-.9-.4-1.7-1.6-2-2.5-.3-.8-1.6-1.4-2.4-1.6-1.7-.5-3.2-1.2-5.1-1.2s-1.4,0-2.1.7c-.5.5-.9.9-1.6.9"/>
      <path class="cls-4" d="M354.4,136.6c.6.4,7.4,2.6,7.8,1.9"/>
      <path class="cls-76" d="M453.6,96.7c1.3-.5,27.8,10.7,40.8,16l-11.8,13.2-36.4-19.9c1-4.4,5.2-7.7,7.4-9.2Z"/>
      <path class="cls-63" d="M469.4,97.1c-5.7-.6-13.3-.3-16.3,0l36.1,17.3h8.6l1.6-1.4c-12.5-3.7-24.2-12.9-30-15.9Z"/>
      <path class="cls-76" d="M453.1,152.3l-9.1-3.7c-8.7-6.9-26.1-22.6-26.1-30.8s6.3-13.1,9.4-14.6c1.8,5.3,35.2,14.7,47.6,19.8l-21.8,29.3Z"/>
      <path class="cls-63" d="M483.2,125l-12.5-1.1c-13.7-6.3-45.8-18.3-44-20,1.8-1.7,14.5.2,20.5,1.3l35.9,19.8Z"/>
      <path class="cls-76" d="M367.8,108.1c5-14.2,9.7-16.9,11.3-16.4l49.8,44.4-19.1,28.8c-6.1-3.5-21.7-25.1-28.8-35.5-10.9-10.4-13.4-18.5-13.3-21.3Z"/>
      <path class="cls-63" d="M402.9,98.5c-15-6.5-22.5-7.2-24.4-6.8,5.5,15.2,14.2,24.2,17.8,28.9,2.8,3.7,24,11,31.7,15h19.6c-21.5-9.8-38.7-28.9-44.6-37.1Z"/>
      <path class="cls-26" d="M444.8,148.9l-35.3,16c4-24.6,13.4-30.3,17.6-30.1l20.5,1.3-2.7,12.9Z"/>
      <path class="cls-26" d="M469.4,123.4l12.6.8c2.6-10,6-11.7,7.4-11.2h10l-2.1,18.6-7.1,4.2-4.2-1.4v-2.7l-1.6.8v3.4h-2.4l-28.9,16.5c7-24.5,13.8-29.5,16.3-28.9Z"/>
      <g class="cls-80">
        <rect class="cls-63" x="421.1" y="138.4" width="1.9" height="7"/>
      </g>
      <g class="cls-80">
        <rect class="cls-63" x="424.8" y="136.6" width="1.9" height="7"/>
      </g>
      <g class="cls-80">
        <rect class="cls-63" x="425.3" y="145.4" width="1.9" height="7"/>
      </g>
      <g class="cls-80">
        <rect class="cls-63" x="417.9" y="146.3" width="1.9" height="7"/>
      </g>
      <g class="cls-80">
        <rect class="cls-63" x="429.9" y="140.3" width="1.9" height="7"/>
      </g>
      <g class="cls-80">
        <rect class="cls-63" x="429.9" y="149.1" width="1.9" height="5.1"/>
      </g>
      <g class="cls-80">
        <rect class="cls-63" x="434.6" y="137" width="1.9" height="5.1"/>
      </g>
      <g class="cls-80">
        <rect class="cls-63" x="434.6" y="144.9" width="1.9" height="5.1"/>
      </g>
      <g class="cls-80">
        <rect class="cls-63" x="421.6" y="151.4" width="1.9" height="5.1"/>
      </g>
      <g class="cls-80">
        <rect class="cls-63" x="414.6" y="155.1" width="1.9" height="5.1"/>
      </g>
      <g class="cls-80">
        <path class="cls-63" d="M438.5,138.7h1.9v7h-1.9v-7Z"/>
      </g>
      <g class="cls-80">
        <rect class="cls-63" x="468.9" y="131" width="1.9" height="7"/>
      </g>
      <g class="cls-80">
        <rect class="cls-63" x="466.1" y="127.3" width="1.9" height="7"/>
      </g>
      <g class="cls-80">
        <rect class="cls-63" x="493.4" y="120.4" width="1.9" height="7"/>
      </g>
      <g class="cls-80">
        <rect class="cls-63" x="462.4" y="132.4" width="1.9" height="7"/>
      </g>
      <g class="cls-80">
        <rect class="cls-63" x="473.5" y="125.9" width="1.9" height="7"/>
      </g>
      <g class="cls-80">
        <rect class="cls-63" x="490.2" y="125.9" width="1.9" height="5.1"/>
      </g>
      <g class="cls-80">
        <rect class="cls-63" x="490.2" y="117.6" width="1.9" height="5.1"/>
      </g>
      <g class="cls-80">
        <rect class="cls-63" x="478.1" y="130.6" width="1.9" height="5.1"/>
      </g>
      <g class="cls-80">
        <rect class="cls-63" x="465.2" y="137" width="1.9" height="5.1"/>
      </g>
      <g class="cls-80">
        <rect class="cls-63" x="458.2" y="140.8" width="1.9" height="5.1"/>
      </g>
      <circle class="cls-52" cx="165" cy="42.7" r="17.9"/>
      <circle class="cls-52" cx="165" cy="42.7" r="17.9"/>
      <circle class="cls-52" cx="182.8" cy="34.2" r="17.9"/>
      <circle class="cls-52" cx="182.8" cy="34.2" r="17.9"/>
      <circle class="cls-52" cx="182.8" cy="55.1" r="17.9"/>
      <circle class="cls-52" cx="182.8" cy="55.1" r="17.9"/>
      <circle class="cls-52" cx="158" cy="65.2" r="17.9"/>
      <circle class="cls-52" cx="158" cy="65.2" r="17.9"/>
      <circle class="cls-52" cx="181.3" cy="78.4" r="17.9"/>
      <circle class="cls-52" cx="181.3" cy="78.4" r="17.9"/>
      <circle class="cls-52" cx="200.7" cy="48.1" r="17.9"/>
      <circle class="cls-52" cx="200.7" cy="48.1" r="17.9"/>
      <circle class="cls-52" cx="200.7" cy="72.2" r="17.9"/>
      <circle class="cls-52" cx="200.7" cy="72.2" r="17.9"/>
      <circle class="cls-52" cx="201.9" cy="27.6" r="9.7"/>
      <circle class="cls-52" cx="201.9" cy="27.6" r="9.7"/>
      <circle class="cls-52" cx="196.8" cy="64.5" r="17.9"/>
      <circle class="cls-30" cx="196.8" cy="64.5" r="17.9"/>
      <circle class="cls-52" cx="214.7" cy="55.9" r="17.9"/>
      <circle class="cls-30" cx="214.7" cy="55.9" r="17.9"/>
      <circle class="cls-52" cx="214.7" cy="76.9" r="17.9"/>
      <circle class="cls-30" cx="214.7" cy="76.9" r="17.9"/>
      <circle class="cls-52" cx="189.8" cy="87" r="17.9"/>
      <circle class="cls-30" cx="189.8" cy="87" r="17.9"/>
      <circle class="cls-52" cx="213.1" cy="100.2" r="17.9"/>
      <circle class="cls-30" cx="213.1" cy="100.2" r="17.9"/>
      <circle class="cls-52" cx="232.5" cy="69.9" r="17.9"/>
      <circle class="cls-30" cx="232.5" cy="69.9" r="17.9"/>
      <circle class="cls-52" cx="232.5" cy="94" r="17.9"/>
      <circle class="cls-30" cx="232.5" cy="94" r="17.9"/>
      <circle class="cls-52" cx="233.7" cy="49.3" r="9.7"/>
      <circle class="cls-30" cx="233.7" cy="49.3" r="9.7"/>
      <circle class="cls-52" cx="179.7" cy="66" r="17.9"/>
      <circle class="cls-30" cx="179.7" cy="66" r="17.9"/>
      <circle class="cls-52" cx="161.9" cy="57.5" r="17.9"/>
      <circle class="cls-30" cx="161.9" cy="57.5" r="17.9"/>
      <circle class="cls-52" cx="161.9" cy="78.4" r="17.9"/>
      <circle class="cls-30" cx="161.9" cy="78.4" r="17.9"/>
      <circle class="cls-52" cx="186.7" cy="88.5" r="17.9"/>
      <circle class="cls-30" cx="186.7" cy="88.5" r="17.9"/>
      <circle class="cls-52" cx="163.4" cy="101.7" r="17.9"/>
      <circle class="cls-30" cx="163.4" cy="101.7" r="17.9"/>
      <circle class="cls-52" cx="144" cy="71.4" r="17.9"/>
      <circle class="cls-30" cx="144" cy="71.4" r="17.9"/>
      <circle class="cls-52" cx="144" cy="95.5" r="17.9"/>
      <circle class="cls-30" cx="144" cy="95.5" r="17.9"/>
      <circle class="cls-52" cx="142.9" cy="50.9" r="9.7"/>
      <circle class="cls-30" cx="142.9" cy="50.9" r="9.7"/>
      <circle class="cls-52" cx="217.8" cy="74.5" r="17.9"/>
      <circle class="cls-52" cx="217.8" cy="74.5" r="17.9"/>
      <circle class="cls-52" cx="199.9" cy="66" r="17.9"/>
      <circle class="cls-52" cx="199.9" cy="66" r="17.9"/>
      <circle class="cls-52" cx="199.9" cy="87" r="17.9"/>
      <circle class="cls-52" cx="199.9" cy="87" r="17.9"/>
      <circle class="cls-52" cx="224.8" cy="97.1" r="17.9"/>
      <circle class="cls-52" cx="224.8" cy="97.1" r="17.9"/>
      <circle class="cls-52" cx="201.5" cy="110.3" r="17.9"/>
      <circle class="cls-52" cx="201.5" cy="110.3" r="17.9"/>
      <circle class="cls-52" cx="182.1" cy="80" r="17.9"/>
      <circle class="cls-52" cx="182.1" cy="80" r="17.9"/>
      <circle class="cls-52" cx="182.1" cy="104" r="17.9"/>
      <circle class="cls-52" cx="182.1" cy="104" r="17.9"/>
      <circle class="cls-52" cx="180.9" cy="59.4" r="9.7"/>
      <circle class="cls-52" cx="180.9" cy="59.4" r="9.7"/>
      <circle class="cls-52" cx="286.1" cy="64.5" r="17.9"/>
      <circle class="cls-52" cx="286.1" cy="64.5" r="17.9"/>
      <circle class="cls-52" cx="268.2" cy="55.9" r="17.9"/>
      <circle class="cls-52" cx="268.2" cy="55.9" r="17.9"/>
      <circle class="cls-52" cx="268.2" cy="76.9" r="17.9"/>
      <circle class="cls-52" cx="268.2" cy="76.9" r="17.9"/>
      <circle class="cls-52" cx="293.1" cy="87" r="17.9"/>
      <circle class="cls-52" cx="293.1" cy="87" r="17.9"/>
      <circle class="cls-52" cx="269.8" cy="100.2" r="17.9"/>
      <circle class="cls-52" cx="269.8" cy="100.2" r="17.9"/>
      <circle class="cls-52" cx="250.4" cy="69.9" r="17.9"/>
      <circle class="cls-52" cx="250.4" cy="69.9" r="17.9"/>
      <circle class="cls-52" cx="250.4" cy="94" r="17.9"/>
      <circle class="cls-52" cx="250.4" cy="94" r="17.9"/>
      <circle class="cls-52" cx="249.2" cy="49.3" r="9.7"/>
      <circle class="cls-52" cx="249.2" cy="49.3" r="9.7"/>
      <circle class="cls-52" cx="254.3" cy="86.2" r="17.9"/>
      <circle class="cls-30" cx="254.3" cy="86.2" r="17.9"/>
      <circle class="cls-52" cx="236.4" cy="77.7" r="17.9"/>
      <circle class="cls-30" cx="236.4" cy="77.7" r="17.9"/>
      <circle class="cls-52" cx="236.4" cy="98.6" r="17.9"/>
      <circle class="cls-30" cx="236.4" cy="98.6" r="17.9"/>
      <circle class="cls-52" cx="261.3" cy="108.7" r="17.9"/>
      <circle class="cls-30" cx="261.3" cy="108.7" r="17.9"/>
      <circle class="cls-52" cx="238" cy="121.9" r="17.9"/>
      <circle class="cls-30" cx="238" cy="121.9" r="17.9"/>
      <circle class="cls-52" cx="218.6" cy="91.6" r="17.9"/>
      <circle class="cls-30" cx="218.6" cy="91.6" r="17.9"/>
      <circle class="cls-52" cx="218.6" cy="115.7" r="17.9"/>
      <circle class="cls-30" cx="218.6" cy="115.7" r="17.9"/>
      <circle class="cls-52" cx="217.4" cy="71.1" r="9.7"/>
      <circle class="cls-30" cx="217.4" cy="71.1" r="9.7"/>
      <circle class="cls-52" cx="271.4" cy="87.7" r="17.9"/>
      <circle class="cls-30" cx="271.4" cy="87.7" r="17.9"/>
      <circle class="cls-52" cx="289.2" cy="79.2" r="17.9"/>
      <circle class="cls-30" cx="289.2" cy="79.2" r="17.9"/>
      <circle class="cls-52" cx="289.2" cy="100.2" r="17.9"/>
      <circle class="cls-30" cx="289.2" cy="100.2" r="17.9"/>
      <circle class="cls-52" cx="264.4" cy="110.3" r="17.9"/>
      <circle class="cls-30" cx="264.4" cy="110.3" r="17.9"/>
      <circle class="cls-52" cx="287.7" cy="123.5" r="17.9"/>
      <circle class="cls-30" cx="287.7" cy="123.5" r="17.9"/>
      <circle class="cls-52" cx="307.1" cy="93.2" r="17.9"/>
      <circle class="cls-30" cx="307.1" cy="93.2" r="17.9"/>
      <circle class="cls-52" cx="307.1" cy="117.2" r="17.9"/>
      <circle class="cls-30" cx="307.1" cy="117.2" r="17.9"/>
      <circle class="cls-52" cx="308.2" cy="72.6" r="9.7"/>
      <circle class="cls-30" cx="308.2" cy="72.6" r="9.7"/>
      <circle class="cls-52" cx="233.3" cy="96.3" r="17.9"/>
      <circle class="cls-52" cx="233.3" cy="96.3" r="17.9"/>
      <circle class="cls-52" cx="251.2" cy="87.7" r="17.9" transform="translate(121.2 319.9) rotate(-80)"/>
      <circle class="cls-52" cx="251.2" cy="87.7" r="17.9" transform="translate(121.2 319.9) rotate(-80)"/>
      <circle class="cls-52" cx="251.2" cy="108.7" r="17.9"/>
      <circle class="cls-52" cx="251.2" cy="108.7" r="17.9"/>
      <circle class="cls-52" cx="226.3" cy="118.8" r="17.9"/>
      <circle class="cls-52" cx="226.3" cy="118.8" r="17.9"/>
      <circle class="cls-52" cx="249.6" cy="132" r="17.9" transform="translate(79.3 357.2) rotate(-80.8)"/>
      <circle class="cls-52" cx="249.6" cy="132" r="17.9" transform="translate(79.3 357.2) rotate(-80.8)"/>
      <circle class="cls-52" cx="269" cy="101.7" r="17.9"/>
      <circle class="cls-52" cx="269" cy="101.7" r="17.9"/>
      <circle class="cls-52" cx="269" cy="125.8" r="17.9"/>
      <circle class="cls-52" cx="269" cy="125.8" r="17.9"/>
      <circle class="cls-52" cx="270.2" cy="81.1" r="9.7"/>
      <circle class="cls-52" cx="270.2" cy="81.1" r="9.7"/>
      <circle class="cls-52" cx="178.2" cy="102.5" r="17.9"/>
      <circle class="cls-30" cx="178.2" cy="102.5" r="17.9"/>
      <circle class="cls-52" cx="196" cy="94" r="17.9"/>
      <circle class="cls-30" cx="196" cy="94" r="17.9"/>
      <circle class="cls-52" cx="196" cy="114.9" r="17.9"/>
      <circle class="cls-30" cx="196" cy="114.9" r="17.9"/>
      <circle class="cls-52" cx="171.2" cy="125" r="17.9"/>
      <circle class="cls-30" cx="171.2" cy="125" r="17.9"/>
      <circle class="cls-52" cx="194.5" cy="138.2" r="17.9"/>
      <circle class="cls-30" cx="194.5" cy="138.2" r="17.9"/>
      <circle class="cls-52" cx="213.9" cy="107.9" r="17.9"/>
      <circle class="cls-30" cx="213.9" cy="107.9" r="17.9"/>
      <circle class="cls-52" cx="213.9" cy="132" r="17.9"/>
      <circle class="cls-30" cx="213.9" cy="132" r="17.9"/>
      <circle class="cls-52" cx="215.1" cy="87.4" r="9.7"/>
      <circle class="cls-30" cx="215.1" cy="87.4" r="9.7"/>
      <ellipse class="cls-37" cx="134.3" cy="115.9" rx="8.7" ry="11.6" transform="translate(-23.3 34.5) rotate(-13.5)"/>
      <path class="cls-11" d="M132.5,109.5c1.8,5,3.2,10,4.5,15.1,1.1,4.3,2.2,8.6,2.9,13,.3,1.9.8,3.7,1.1,5.6.1.8.4,1.7.4,2.5"/>
      <path class="cls-11" d="M137.4,124.5c.2-1.8,2-3.2,2.4-4.9.1-.5.6-1,.8-1.6"/>
      <path class="cls-11" d="M135.6,120.6c-1.4-.4-2.7-1-4.1-1.4-.9-.3-1.6-.8-2.5-1-.6-.1-1-.5-1.6-.5"/>
      <path class="cls-11" d="M134.5,114c.6-.8,1.3-1.6,1.8-2.4.3-.4.9-.9.9-1.4"/>
      <ellipse class="cls-37" cx="325.3" cy="105.8" rx="11.6" ry="8.7" transform="translate(146.5 397.4) rotate(-76.5)"/>
      <path class="cls-11" d="M327.1,99.4c-1.8,5-3.2,10-4.5,15.1-1.1,4.3-2.2,8.6-2.9,13-.3,1.9-.8,3.7-1.1,5.6-.1.8-.4,1.7-.4,2.5"/>
      <path class="cls-11" d="M322.1,114.4c-.2-1.8-2-3.2-2.4-4.9-.1-.5-.6-1-.8-1.6"/>
      <path class="cls-11" d="M323.9,110.5c1.4-.4,2.7-1,4.1-1.4.9-.3,1.6-.8,2.5-1,.6-.1,1-.5,1.6-.5"/>
      <path class="cls-11" d="M325,103.9c-.6-.8-1.3-1.6-1.8-2.4-.3-.4-.9-.9-.9-1.4"/>
      <rect class="cls-6" x="852.9" y="163.8" width="113.4" height="86.2"/>
      <rect class="cls-6" x="-1.2" y="240.7" width="90.8" height="132"/>
      <path class="cls-15" d="M174.2,217.4c15.7-.3,27.9,3.8,41,6.9,18.2,4.4,49.8,6.7,48.4,14.5-1.5,7.9-36.5,7.6-53.6,12.7-14.1,4.2-17.4,13.2-35.7,14-18.7.8-32.7-5.6-45.8-10.4-12.8-4.7-28.9-9.8-26.9-16.2,1.9-6.3,22.1-9.1,35.8-13.1,11.7-3.4,21.8-8,37-8.3Z"/>
      <path class="cls-23" d="M191.8,243.8l-67.5-19.4,41.9-19,66.4,19-40.8,19.4Z"/>
      <path class="cls-63" d="M124.2,235v-10.7l67.5,19.4v10.5l-67.5-19.2Z"/>
      <path class="cls-46" d="M232.1,224.4l-40.4,19.4v10.5l40.4-20.2v-9.7Z"/>
      <path class="cls-63" d="M138.2,224.9l-1.3-.7v-23l1.3.3v23.3Z"/>
      <path class="cls-46" d="M139.2,201.2l-1,.3v23.3l1-.7v-23Z"/>
      <path class="cls-46" d="M167.7,180.9l-1.2.4v27.2l1.2-.8v-26.8Z"/>
      <path class="cls-63" d="M190.8,239.5l-1.3-.7v-23l1.3.3v23.3Z"/>
      <path class="cls-46" d="M191.8,215.9l-1,.3v23.3l1-.7v-23Z"/>
      <path class="cls-63" d="M221.4,224.9l-1.3-.7v-23l1.3.3v23.3Z"/>
      <path class="cls-46" d="M222.4,201.2l-1,.3v23.3l1-.7v-23Z"/>
      <path class="cls-20" d="M195.3,218.2l-63-18.7c10.3-.4,34-14.2,46-29.4,7.9,7.9,27.7,31.8,48,30.4l-31,17.7Z"/>
      <path class="cls-12" d="M178.3,170c.8,10.6,2.3,42.3,17,48.1M178.3,170c-12,15.2-35.6,29-46,29.4l63,18.7M178.3,170c7.9,7.9,27.7,31.8,48,30.4l-31,17.7"/>
      <path class="cls-53" d="M147.9,222.8l-4.7-3.5v5l4.7,3.5v-5Z"/>
      <path class="cls-48" d="M147.9,217.8l-4.7,1.6,4.7,3.5,4.7-1.6-4.7-3.5Z"/>
      <path class="cls-42" d="M152.6,225.9v-4.7l-4.7,1.6v5l4.7-1.9Z"/>
      <path class="cls-53" d="M185.2,234.1l-4.7-3.5v5l4.7,3.5v-5Z"/>
      <path class="cls-48" d="M185.2,229l-4.7,1.6,4.7,3.5,4.7-1.6-4.7-3.5Z"/>
      <path class="cls-42" d="M189.8,237.2v-4.7l-4.7,1.6v5l4.7-1.9Z"/>
      <path class="cls-15" d="M367,225.9c7.2-.1,12.8,1.7,18.8,3.1,8.4,2,22.9,3,22.2,6.6-.7,3.6-16.8,3.4-24.6,5.7-6.5,1.9-8,6-16.4,6.3-8.6.4-15-2.5-21.1-4.7-5.9-2.1-13.3-4.4-12.4-7.3.9-2.8,10.1-4.1,16.4-5.9,5.4-1.5,10-3.6,17-3.7Z"/>
      <path class="cls-33" d="M387.7,233.6l-3.4,6.9-.2-14.1,3.6-1.1v8.3Z"/>
      <path class="cls-54" d="M352.3,234.5v-8.8l5.7,2.1v13c0,0-5.7-6.3-5.7-6.3Z"/>
      <path class="cls-28" d="M384.3,240.5l-12.8,2.9v-13.8l13.1-2.2-.3,13.1Z"/>
      <path class="cls-14" d="M371.5,243.4l-13.6-2.6v-12.8l13.6,1.4v13.9Z"/>
      <path class="cls-40" d="M352.2,212.2h1.7l32.9.7,8.3,5.8-3.5,7.4-18.2,4.4-20.2-2.7-8-8.3,7-7.3Z"/>
      <path class="cls-5" d="M395.4,212.3l-4.6-2.9M386.1,206.5l4.6,2.9M390.7,209.4l-.4,2.8M390,215.1l.4-2.8M390.4,212.2l5.2,3.3M390.4,212.2l-4.3-2.8"/>
      <path class="cls-14" d="M363.5,173.6l-5.2,51.5,14.3,1.7v-53.2h-9.1Z"/>
      <path class="cls-54" d="M352.7,219.6l5.6,5.5,5.2-51.5-4.8-.3-6.1,46.3Z"/>
      <path class="cls-28" d="M385.3,224.3l-12.6,2.5v-53.3c0,0,7.8,0,7.8,0l4.9,50.8Z"/>
      <path class="cls-33" d="M388,218.8l-2.7,5.5-4.9-50.7,2.4-.3,5.2,45.6Z"/>
      <path class="cls-5" d="M354.5,206.3l-2.3.5M352.2,206.8v5.2M352.2,206.8l-3.5,3.4-.2.2M354.1,209.2l-1.9.3-7.1,6.8v-2.7l3.3-3.2M348.4,210.4v4.9l.2.4"/>
      <path class="cls-72" d="M383.5,173.3c-11.4,1.5-21.8.6-25.4,0,.3-3.3,2.9-12.5,12.4-13,9.5-.5,13,9.3,13,13Z"/>
      <path class="cls-7" d="M345,213.7l3.9,3.8M352.9,221.3v2.9M352.9,221.3l-3.9-3.8M352.9,221.3l10,1.5M352.9,227.2v-2.9M352.9,224.2l-4.3-4.2M352.9,224.2l10,1.5M348.9,217.5l-.4,2.6M348.5,220.1l-3.5-3.4v2.6M348.5,220.1l.4,3.2M372.8,230.3v-3M372.8,227.3v-3l-10-1.5M372.8,227.3l-10-1.5M362.8,222.8v3M362.8,225.8v3.3"/>
      <path class="cls-7" d="M374.1,230.4v-3.1M391.5,226l-.3-3.1M391.2,222.9l-.3-3.1-8.4,2.2M391.2,222.9l-17.1,4.4M374.1,227.3v-3.1l8.4-2.2M382.5,222.1v6.1"/>
      <path class="cls-7" d="M391.5,225.8l-.2-3M391.3,222.8l-.2-3,2.1-3.7M391.3,222.8l2.2-3.4M395.6,215.9l-.3-3.5-2.1,3.7M395.6,215.9l-.3,2.3M395.6,215.9l-2.2,3.4M393.2,216.1l.3,3.3M393.5,219.4v2.7"/>
      <path class="cls-58" d="M371.3,172c.3-4.1-2.6-5-4.5-4.7-.9,0-5,0-5,4.7s2.4,4.8,4.3,5.1c1.6,0,4.9-1,5.2-5.1Z"/>
      <line class="cls-13" x1="333.6" y1="126.3" x2="401.7" y2="217.3"/>
      <line class="cls-13" x1="399.6" y1="132.6" x2="333.5" y2="213.6"/>
      <path class="cls-57" d="M332.7,125.7l-8.3,6.1,21.3,29.9,9.3-6.9-22.3-29.1Z"/>
      <path class="cls-57" d="M399.6,132.5l-7.7-6.8-24.8,27,8.7,7.7,23.8-27.9Z"/>
      <path class="cls-57" d="M386.2,182.7l-8,6.4,22.5,28.9,9-7.3-23.5-28.1Z"/>
      <path class="cls-57" d="M363.9,191.4l-7.9-6.6-24,27.7,8.9,7.4,22.9-28.6Z"/>
    </g>
  </g>
</svg>