<?xml version="1.0" encoding="UTF-8"?>
<svg id="Layer_1" data-name="Layer 1" xmlns="http://www.w3.org/2000/svg" version="1.1" viewBox="0 0 1453 290">
  <defs>
    <style>
      .cls-1 {
        fill: #fae0e2;
      }

      .cls-1, .cls-2, .cls-3 {
        stroke-width: 0px;
      }

      .cls-2 {
        fill: #f7d0d3;
      }

      .cls-3 {
        fill: #fb9da4;
      }
    </style>
  </defs>
  <path class="cls-3" d="M1453.1,30.5v242.5c-25.8-5.5-60.8-11-98.5-15,0,0,0,0,0,0-60.1-6.3-127.2-8.8-175.2-1.1,0,0,0,0,0,0-4.1.7-8.1,1.4-11.9,2.2-62.8,13.2-249.1,27.7-338.3,20.8-42.6-3.3-109-11.4-181-17.6h0c-85.9-7.3-179.6-11.9-249.8-2-.2,0-.4,0-.6,0h0c-129.1,18-319.7,13-399,8.3L.4,137.8v-.2L1.8,38.4c22.1-5.9,51.4-12.5,84.1-18.6h0C172.7,3.7,284-8.2,352.7,8.4c26.5,6.4,59.2,12.1,94,16.6,81,10.6,172.9,14.9,222.7,7,3.2-.5,6.5-1,10.2-1.5,74-10.7,241.5-26.2,396.6-12.3,6.5.6,13,1.2,19.6,1.7,0,0,0,0,0,0,111.8,10,218.9,18.7,290.9,17.3,1.3,0,2.5,0,3.8,0,5.5-.1,10.8-.3,15.8-.6,14.9-.8,27.7-2.1,38.2-4.2,1.6-.3,3.1-.6,4.5-.9,1.4-.3,2.8-.7,4.1-1Z"/>
  <path class="cls-2" d="M375.5,29.1C212.8,42.5,56.5,18.1-1.4,4.2L2,251.1c70.5-13.8,205.8-18.3,282-3.8,62.8,11.9,249,24.8,338.3,18.4,89.8-12.9,301.8-34.6,430.8-18.4,129,16.2,320.2,11.5,399.6,7.1l-2.8-208.5c-80.8-19.4-256.2-47.5-350.9-26.7-88.3,19.4-245.6,31.9-316.7,21.8-67.8-9.6-244.1-25.4-406.7-12Z"/>
  <path class="cls-1" d="M1449.9,57.4c-.2.1-.4.2-.5.3h0c-.2.1-.3.3-.4.4-.6.5-.8,1.3-.3,2.2.5.8.9,1.6,1.3,2.4,1.2,2.5,2.2,5.2,3,7.9v-14.7c-1.3.5-2.4,1-3.1,1.5ZM1391.9,33.8c3.1-2.5,10.9-.8,13.9-.4,3.9.6,8.2,1.8,12.1,1.4.9-.1,1.4-.7,1.6-1.4.4.1.8,0,1.1-.5,2-3.8,3.5-8,5.3-12,2.1-4.4,4.9-11.8,9.9-13.5,5.2-1.8,5.9,11.7,6.2,14.4.4,3.5.6,7.5,2.4,10.6.3.5.6.9.9,1.3.5.6,1.2.7,1.8.5,1.5,1.2,3.6,1.8,5.9,2.2v-3.5c-1.5-.2-2.9-.7-4.1-1.4-.4-.2-.8-.5-1.1-.9-3.7-7.5.2-27.4-11.8-27.1-5.6.1-9.3,7-11.4,11.2-2.6,5.1-4.8,11.2-5.8,16.9-.3-.1-.6-.3-1-.3-8.4-.1-23.7-6.5-29.9,1.8,0,0,0,0,0,0-.9,1.3-1.3,2.6-1.4,4,0,6.6,9.1,14.2,15.3,19.1-3.5,7.9-17.8,24.4-9.7,29.8,9.6,6.4,23.1-10.2,30.2-14.5,8.8-5.3,17.3,22.3,27.9,20.7.9-.1,1.7-.5,2.6-1v-8c-.7,1.2-1.6,2.1-2.7,2.6-1.7.8-3.8.6-6.1-1.3-1.8-1.6-3.3-3.5-4.8-5.3-3.2-3.7-9.6-13.6-15.9-12.1-8,2-14.8,10.5-21.6,14.8-5.6,3.5-8-3.1-5.5-7.5,1.4-2.5,3-4.9,4.5-7.3,1.8-2.8,3.1-5.7,3.7-8.8.7.5,1.3,1,1.7,1.4.6.5,1.5-.1,1.1-.8-.5-.9-1.4-2-2.5-3.1,0-.5,0-.9,0-1.4,0-1.1-1.6-1.6-2.1-.7-5.3-5.1-12.7-11.2-12.4-16.6,0-.8.2-1.5.6-2.2.2-.5.5-.8.9-1.1Z"/>
  <path class="cls-1" d="M434.6,242.1c.1-5.2-5.1-9.1-9.6-10.4-5.1-1.4-15,1-19.1-3.1-3.7-7.5.2-27.4-11.8-27.1-5.6.1-9.3,7.1-11.4,11.2-2.6,5.1-4.8,11.2-5.8,16.9-.3-.2-.6-.3-1-.3-8.4-.1-23.8-6.5-29.9,1.9-5.4,7.4,6.4,17.3,14,23.1-3.5,7.9-17.9,24.4-9.7,29.8,9.6,6.4,23.1-10.2,30.2-14.5,9.6-5.8,18.8,27.5,30.8,19.5,9.7-6.4,5.4-22.5-.2-31.2,7.4-3.7,23.3-6.9,23.5-15.9h0ZM407.4,255.7c-.2.1-.3.3-.4.4-.6.5-.8,1.3-.3,2.2,2.7,4.7,4.4,9.8,5.6,15.1,1.5,6.4-3.8,14.8-10,9.2-1.8-1.6-3.3-3.5-4.8-5.3-3.2-3.7-9.6-13.6-16-12.1-8,2-14.8,10.5-21.6,14.8-5.6,3.5-8-3.1-5.5-7.5,1.4-2.5,3-4.9,4.5-7.3,1.8-2.8,3.1-5.7,3.7-8.8.7.5,1.3,1,1.7,1.4.6.5,1.5-.1,1.1-.8-.5-1-1.4-2-2.5-3.1,0-.5,0-.9,0-1.4,0-1.1-1.6-1.6-2.2-.7-6-5.8-14.8-12.9-11.9-18.8,2-4,11.5-2,14.8-1.5,3.9.6,8.2,1.9,12.1,1.4.9-.1,1.4-.7,1.6-1.4.4.1.8,0,1.1-.5,2-3.8,3.5-8,5.3-12,2.1-4.4,4.9-11.8,9.9-13.5,5.2-1.8,5.9,11.7,6.2,14.3.5,4,.7,8.7,3.4,11.9.5.6,1.2.7,1.8.5,5.4,4.3,18,1.4,23.2,5.6,9.3,7.6-16.5,14.8-21,17.8h0Z"/>
  <path class="cls-1" d="M140.5,138.3c-2.2-7.2-5.4-14.5-9.9-20.5-9.1-12-21-15.7-34.9-9.8-14.9,6.3-26.8,23.2-24.9,39.9.2,2.2,2.8,21,6,24-.2,0-.3,0-.5.2-.8.3-.5,1.4.3,1.3,1.5-.3,3-.5,4.5-.8.4.3,1,.2,1.3-.2,2.4-.4,4.7-.8,7.1-1.3,2.9-.6,7-1.3,9.5-3.3.6,0,1.2-.2,1.8-.4.6-.2,1.1-.9,1-1.5,0,0,0-.2,0-.3-.4-2.8-1.4-5.1-.5-7.9.8-2.4,3-4.3,5.2-5.2,2.5-1,5.2-.7,7.6.6,3,1.6,3.9,4.5,5.9,7,0,.1.1.3.2.3,0,0,0,0,0,0,.2.2.6.3.9.2,2.6.7,5.4-.7,7.7-1.9,4.2-2,7.5-4.4,12.4-3.9.7,0,1.1-.4,1.3-.9.2,0,.3-.1.4-.2,3-2.4-1.7-12.3-2.6-15.3h0ZM124,157.4c-.5-7.1-10.2-13.7-16.7-12.9-4.5.5-8.1,3.2-10.5,7.1-2.2,3.8-1.4,8.5-2.2,12.7,0,0,0,0,0,.1,0,0,0,0,0,.1-.2.7-.3,1.4-.6,2-.7.3-1.5.5-2.2.8-2-13.7-5.1-36.2,14-36.9,14-.5,13.9,17.6,21.5,25.4-1.1.5-2.2,1.1-3.3,1.6h0ZM132.4,153.4c-.2,0-.3.2-.5.3-6.7-12.3-10-35.1-27.9-32.7-22,3-21.7,31.6-16.5,47.8-1.7.5-3.4.9-5.2,1.4-4-21.4-3-55.7,26.7-55.6,16,0,22,25.6,27,37.4-1.2.4-2.4.9-3.5,1.4ZM137.5,139.4c-.4-1-.8-2.1-1.4-3.2,0-.1-.1-.2-.2-.2,0,0,0-.2,0-.2.1,0,.2-.2.3-.3.1.4.3.8.4,1.1.2.5.6,1.6,1.1,2.9,0,0-.2,0-.3,0Z"/>
  <path class="cls-1" d="M1181.9,205.4c2.4-7.1,4.1-14.9,3.9-22.4-.5-15-8-25-22.7-28.3-15.7-3.6-35.3,3.3-43.5,17.9-1.1,1.9-9.9,18.8-9.1,22.9-.2,0-.3-.1-.5-.2-.8-.3-1.2.9-.5,1.2,1.4.7,2.8,1.3,4.1,2,.2.5.7.7,1.2.6,2.2,1.1,4.3,2.1,6.5,3.1,2.7,1.2,6.5,3,9.7,2.9.5.3,1.1.5,1.7.8.6.2,1.4,0,1.7-.6,0,0,.1,0,.2-.2,1.3-2.5,1.8-4.9,4.2-6.7,2-1.5,4.9-1.8,7.3-1.2,2.6.6,4.6,2.5,5.8,4.9,1.5,3,.6,6,.7,9.1,0,.1,0,.3,0,.4,0,0,0,0,0,0,0,.3.3.6.5.7,1.7,2.1,4.8,2.5,7.4,3,4.6.8,8.7.8,12.3,4,.5.4,1.1.3,1.6,0,.2,0,.3,0,.5,0,3.9-.2,5.8-11,6.8-13.9h0ZM1157.3,211.4c3.7-6-.3-17.1-6.1-20.2-4-2.2-8.5-2.2-12.6-.3-4,1.8-6.1,6.1-9.2,9,0,0-.1,0-.2,0,0,0,0,0,0,.1-.5.5-1.1.9-1.7,1.3-.7-.2-1.5-.4-2.2-.6,6.3-12.3,16.9-32.4,32.9-21.8,11.6,7.7,1,22.4,2.7,33.1-1.2-.2-2.4-.4-3.6-.6h0ZM1166.5,213c-.2,0-.4,0-.6-.1,1.7-13.9,12.4-34.4-3.7-42.8-19.6-10.4-36.1,13.1-41.3,29.2-1.7-.6-3.3-1.3-5-1.8,9.2-19.7,30-47,54.1-29.7,13,9.3,3,33.6.1,46.2-1.2-.4-2.5-.7-3.7-.9ZM1178.8,204.6c.3-1.1.5-2.2.7-3.4,0-.1,0-.2,0-.3,0,0,0-.1.2-.2.1,0,.3,0,.4,0,0,.4-.2.8-.3,1.2-.2.5-.4,1.6-.8,3,0,0-.1-.2-.2-.2Z"/>
</svg>