<?xml version="1.0" encoding="UTF-8"?>
<svg id="Layer_1" data-name="Layer 1" xmlns="http://www.w3.org/2000/svg" version="1.1" viewBox="0 0 1461.5 310.9">
  <defs>
    <style>
      .cls-1 {
        fill: #8fc84e;
        isolation: isolate;
        opacity: .6;
        stroke-width: 0px;
      }

      .cls-2 {
        fill: #7eba45;
        stroke: #8cbe3f;
      }
    </style>
  </defs>
  <path class="cls-2" d="M1461,0v291.7c-120.4-51-315.8-51.2-398.5-44.9-95.5,7.2-306.5,12.1-499.5,6.4C344,246.8,100.3,219.8,0,235V0h1461Z"/>
  <path class="cls-1" d="M817,0l-2.5,8.4c-1.7,5.8-7.9,9.2-13.8,7.6l-37.6-10.3c-3.2-.9-5.6-3-6.9-5.7h60.8Z"/>
  <path class="cls-1" d="M653.7,20.8l-38.5,6.8c-6,1.1-11.8-2.9-12.9-8.9L598.7,0h62.2l1.6,8.1c1.2,6-2.8,11.7-8.7,12.7Z"/>
  <path class="cls-1" d="M927,0l29.8,11.9c5.6,2.3,8.2,8.6,5.8,14.2l-9.8,22.2c-2.4,5.6-9,8.2-14.6,6l-36-14.4c-5.6-2.3-8.2-8.6-5.8-14.2l9.8-22.2c.6-1.4,1.4-2.5,2.4-3.5h18.5Z"/>
  <path class="cls-1" d="M836.3,60l17.7,6c2.6.9,4,3.7,3,6.3l-4.1,11c-1,2.6-3.9,4-6.5,3.1l-17.7-6c-2.6-.9-4-3.7-3-6.3l4.1-11c1-2.6,3.9-4,6.5-3.1Z"/>
  <path class="cls-1" d="M558.2,76.6l17.1-7.3c2.5-1.1,5.5,0,6.7,2.6l5,10.7c1.2,2.5,0,5.4-2.5,6.5l-17.1,7.3c-2.5,1.1-5.5,0-6.7-2.6l-5-10.7c-1.2-2.5,0-5.4,2.5-6.5Z"/>
  <path class="cls-1" d="M699.5,104.1l18.5-3.3c2.7-.5,5.4,1.3,5.9,4l2.2,11.4c.5,2.7-1.2,5.3-4,5.8l-18.5,3.3c-2.7.5-5.4-1.3-5.9-4l-2.2-11.4c-.5-2.7,1.2-5.3,4-5.8Z"/>
  <path class="cls-1" d="M598.2,176l15.5-10.5c2.3-1.5,5.4-1,7,1.3l6.7,9.6c1.6,2.3,1,5.4-1.3,6.9l-15.5,10.5c-2.3,1.5-5.4,1-7-1.3l-6.7-9.6c-1.6-2.3-1-5.4,1.3-6.9Z"/>
  <path class="cls-1" d="M821.4,131.3l16.8,8.3c2.5,1.2,3.5,4.2,2.4,6.7l-5,10.5c-1.2,2.5-4.1,3.5-6.6,2.3l-16.8-8.3c-2.5-1.2-3.5-4.2-2.4-6.7l5-10.5c1.2-2.5,4.1-3.5,6.6-2.3Z"/>
  <path class="cls-1" d="M923.7,117.9l16.8,8.3c2.5,1.2,3.5,4.2,2.4,6.7l-5,10.5c-1.2,2.5-4.1,3.5-6.6,2.3l-16.8-8.3c-2.5-1.2-3.5-4.2-2.4-6.7l5-10.5c1.2-2.5,4.1-3.5,6.6-2.3Z"/>
  <path class="cls-1" d="M943.7,185.9l16.8,8.3c2.5,1.2,3.5,4.2,2.4,6.7l-5,10.5c-1.2,2.5-4.1,3.5-6.6,2.3l-16.8-8.3c-2.5-1.2-3.5-4.2-2.4-6.7l5-10.5c1.2-2.5,4.1-3.5,6.6-2.3Z"/>
  <path class="cls-1" d="M1152.9,0l-6.3,14.5c-2.5,5.5-8.9,8-14.4,5.5l-35.4-16.3c-1.8-.8-3.3-2.1-4.4-3.7h60.5Z"/>
  <path class="cls-1" d="M1293.5,57l-32.6-21.5c-5.1-3.3-12-2-15.4,3l-13.5,19.8c-3.4,5-2.1,11.8,3,15.1l32.6,21.5c5.1,3.3,12,2,15.4-3l13.5-19.8c3.4-5,2.1-11.8-3-15.1Z"/>
  <path class="cls-1" d="M1420.4,189.4l-24.9-29.7c-3.9-4.7-10.7-5.1-15.3-1.1l-18.1,16.2c-4.5,4.1-5,11.1-1.1,15.8l24.9,29.7c3.9,4.7,10.7,5.1,15.3,1.1l18.1-16.2c4.5-4.1,5-11.1,1.1-15.8Z"/>
  <path class="cls-1" d="M1051.7,37.1l-18.6-1.5c-2.8-.2-5.1,1.8-5.3,4.6l-.6,11.7c0,2.8,2,5.2,4.7,5.4l18.6,1.5c2.8.2,5.1-1.8,5.3-4.6l.6-11.7c0-2.8-2-5.2-4.7-5.4h0Z"/>
  <path class="cls-1" d="M1300.4,162.6l-12.8-13.5c-1.9-2-5.1-2.1-7.2-.3l-8.8,7.8c-2.1,1.8-2.2,4.9-.3,6.9l12.8,13.5c1.9,2,5.1,2.1,7.2.3l8.8-7.8c2.1-1.8,2.2-4.9.3-6.9Z"/>
  <path class="cls-1" d="M1159.7,131.8l-15.6-10.3c-2.3-1.5-5.4-.9-7,1.4l-6.6,9.6c-1.6,2.3-1,5.4,1.3,6.9l15.6,10.3c2.3,1.5,5.4.9,7-1.4l6.6-9.6c1.6-2.3,1-5.4-1.3-6.9Z"/>
  <path class="cls-1" d="M1099,185.8l-15.6-10.3c-2.3-1.5-5.4-.9-7,1.4l-6.6,9.6c-1.6,2.3-1,5.4,1.3,6.9l15.6,10.3c2.3,1.5,5.4.9,7-1.4l6.6-9.6c1.6-2.3,1-5.4-1.3-6.9Z"/>
  <path class="cls-1" d="M1041.9,115.9l-15.6-10.3c-2.3-1.5-5.4-.9-7,1.4l-6.6,9.6c-1.6,2.3-1,5.4,1.3,6.9l15.6,10.3c2.3,1.5,5.4.9,7-1.4l6.6-9.6c1.6-2.3,1-5.4-1.3-6.9Z"/>
  <path class="cls-1" d="M1405.2,58.4l-18.5,14.8c-8.6,6.9-21.5,5.8-28.7-2.6l-28.3-32.7c-7.3-8.3-6.1-20.7,2.5-27.6L1345.1,0h36l26.7,30.8c7.3,8.3,6.1,20.7-2.5,27.6Z"/>
  <path class="cls-1" d="M345,0l11.3,17.9c3.3,5.1,1.8,12-3.2,15.4l-32.4,21.7c-5.1,3.4-11.8,2-15-3.2l-12.9-20.4c-3.3-5.1-1.8-12,3.2-15.4L319.9,0h25.1Z"/>
  <path class="cls-1" d="M156.1,94.1l32.2-22.1c5-3.4,11.9-2.2,15.4,2.7l13.9,19.6c3.5,5,2.3,11.8-2.7,15.2l-32.2,22.1c-5,3.4-11.9,2.2-15.4-2.7l-13.9-19.6c-3.5-5-2.3-11.8,2.7-15.2Z"/>
  <path class="cls-1" d="M495.7,11.6l-34.2,18.3c-5.4,2.9-11.9.8-14.6-4.7l-10.7-21.8c-.5-1.1-.9-2.2-1-3.4h66.4c.6,4.6-1.6,9.4-5.8,11.6Z"/>
  <path class="cls-1" d="M397.5,69.7l18.6-1.9c2.7-.3,5.1,1.7,5.3,4.5l.8,11.7c.2,2.8-1.9,5.2-4.6,5.5l-18.6,1.9c-2.7.3-5.1-1.7-5.3-4.5l-.8-11.7c-.2-2.8,1.9-5.2,4.6-5.5Z"/>
  <path class="cls-1" d="M114.4,163.1l12.5-13.7c1.9-2,5.1-2.2,7.2-.4l9,7.7c2.1,1.8,2.3,4.9.4,6.9l-12.5,13.7c-1.9,2-5.1,2.2-7.2.4l-9-7.7c-2.1-1.8-2.3-4.9-.4-6.9Z"/>
  <path class="cls-1" d="M291.2,166.4l15.5-10.6c2.3-1.6,5.4-1,7,1.2l6.8,9.5c1.6,2.2,1.1,5.3-1.2,6.9l-15.5,10.6c-2.3,1.6-5.4,1-7-1.2l-6.8-9.5c-1.6-2.2-1.1-5.3,1.2-6.9Z"/>
  <path class="cls-1" d="M502.1,132.2l15.5-10.6c2.3-1.6,5.4-1,7,1.2l6.8,9.5c1.6,2.2,1.1,5.3-1.2,6.9l-15.5,10.6c-2.3,1.6-5.4,1-7-1.2l-6.8-9.5c-1.6-2.2-1.1-5.3,1.2-6.9h0Z"/>
  <path class="cls-1" d="M408.7,148.2l15.5-10.6c2.3-1.6,5.4-1,7,1.2l6.8,9.5c1.6,2.2,1.1,5.3-1.2,6.9l-15.5,10.6c-2.3,1.6-5.4,1-7-1.2l-6.8-9.5c-1.6-2.2-1.1-5.3,1.2-6.9Z"/>
  <path class="cls-1" d="M41.5,69.9l27.7-33.3c7.1-8.5,19.9-9.9,28.6-3.2l18.8,14.5c8.7,6.8,10.1,19.1,3,27.6l-27.7,33.3c-7.1,8.5-19.9,9.9-28.6,3.2l-18.8-14.5c-8.7-6.8-10.1-19.1-3-27.6Z"/>
</svg>