<?xml version="1.0" encoding="UTF-8"?>
<svg id="Layer_1" data-name="Layer 1" xmlns="http://www.w3.org/2000/svg" version="1.1" viewBox="0 0 11.4 16.6">
  <defs>
    <style>
      .cls-1 {
        fill: #282465;
        stroke-width: 0px;
      }
    </style>
  </defs>
  <path class="cls-1" d="M5.7,16.6c-1.5,0-2.7-.2-3.6-.6-.9-.4-1.4-1-1.4-1.6s.1-.6.4-.9c.2-.3.6-.5,1-.7l1,.9c-.2,0-.4.2-.6.3-.2.1-.3.2-.4.4.1.3.6.5,1.3.7.7.2,1.5.3,2.4.3s1.7,0,2.4-.3c.7-.2,1.2-.4,1.3-.7,0-.1-.2-.3-.4-.4-.2-.1-.4-.2-.6-.3l1-1c.4.2.8.4,1,.7.2.3.4.6.4.9,0,.7-.5,1.2-1.4,1.6-.9.4-2.1.6-3.6.6ZM5.7,12.4c1.4-1.1,2.5-2.2,3.3-3.3.7-1.1,1.1-2.1,1.1-3.2,0-1.5-.5-2.6-1.4-3.4-.9-.8-1.9-1.2-3-1.2s-2,.4-3,1.2c-.9.8-1.4,1.9-1.4,3.4s.4,2,1.1,3.1c.7,1.1,1.8,2.2,3.3,3.4ZM5.7,14c-1.9-1.4-3.3-2.8-4.3-4.2-.9-1.3-1.4-2.7-1.4-4s.2-1.8.5-2.6c.3-.7.8-1.3,1.3-1.8.5-.5,1.2-.9,1.8-1.1.7-.2,1.3-.4,2-.4s1.3.1,2,.4c.7.2,1.3.6,1.8,1.1.5.5,1,1.1,1.3,1.8.3.7.5,1.6.5,2.6s-.5,2.6-1.4,4c-.9,1.3-2.4,2.7-4.3,4.2ZM5.7,7.3c.4,0,.8-.2,1.1-.5.3-.3.5-.7.5-1.1s-.2-.8-.5-1.1c-.3-.3-.7-.5-1.1-.5s-.8.2-1.1.5c-.3.3-.5.7-.5,1.1s.2.8.5,1.1c.3.3.7.5,1.1.5Z"/>
</svg>