<?xml version="1.0" encoding="UTF-8"?>
<svg id="Layer_1" data-name="Layer 1" xmlns="http://www.w3.org/2000/svg" version="1.1" viewBox="0 0 209 123">
  <defs>
    <style>
      .cls-1 {
        fill: #bdbdbd;
      }

      .cls-1, .cls-2, .cls-3, .cls-4, .cls-5 {
        stroke-width: 0px;
      }

      .cls-2 {
        fill: #d9d9d9;
      }

      .cls-3 {
        fill: #895627;
      }

      .cls-4 {
        fill: #17a681;
        fill-rule: evenodd;
      }

      .cls-6 {
        fill: none;
        stroke: #532d0a;
      }

      .cls-5 {
        fill: #999;
      }
    </style>
  </defs>
  <path class="cls-4" d="M93.9,61c20.2-.4,36,4.8,52.7,8.9,23.4,5.6,64.2,8.7,62.3,18.7-2,10.2-47,9.7-69,16.3-18.2,5.4-22.4,17-46,18-24.1,1.1-42.2-7.2-59.1-13.4C18.3,103.5-2.4,96.9.2,88.6c2.5-8.1,28.4-11.7,46.1-16.9,15-4.4,28.1-10.3,47.6-10.7h0Z"/>
  <path class="cls-5" d="M116.5,95l-87-25,54-24.5,85.5,24.5-52.5,25Z"/>
  <path class="cls-2" d="M29.5,83.7v-13.7l87,25v13.5l-87-24.8Z"/>
  <path class="cls-1" d="M168.5,70l-52,25v13.5l52-26v-12.5Z"/>
  <path class="cls-2" d="M47.4,70.6l-1.7-.9v-29.6l1.7.4v30h0Z"/>
  <path class="cls-1" d="M48.7,40.1l-1.3.4v30l1.3-.9v-29.6h0Z"/>
  <path class="cls-1" d="M85.5,14l-1.5.5v35l1.5-1V14h0Z"/>
  <path class="cls-2" d="M115.2,89.5l-1.7-.9v-29.6l1.7.4v30h0Z"/>
  <path class="cls-1" d="M116.5,59l-1.3.4v30l1.3-.9v-29.6h0Z"/>
  <path class="cls-2" d="M154.7,70.6l-1.7-.9v-29.6l1.7.4v30h0Z"/>
  <path class="cls-1" d="M156,40.1l-1.3.4v30l1.3-.9v-29.6h0Z"/>
  <path class="cls-3" d="M121.1,62l-81.1-24.1c13.3-.6,43.8-18.3,59.2-37.9,10.2,10.2,35.7,40.9,61.8,39.2l-39.9,22.8Z"/>
  <path class="cls-6" d="M99.2,0c1,13.6,3,54.4,21.9,62M99.2,0c-15.4,19.6-45.9,37.3-59.2,37.9l81.1,24.1M99.2,0c10.2,10.2,35.7,40.9,61.8,39.2l-39.9,22.8"/>
</svg>