<?xml version="1.0" encoding="UTF-8"?>
<svg id="Layer_1" data-name="Layer 1" xmlns="http://www.w3.org/2000/svg" version="1.1" xmlns:xlink="http://www.w3.org/1999/xlink" viewBox="0 0 258 219">
  <defs>
    <style>
      .cls-1 {
        fill: #feffff;
      }

      .cls-1, .cls-2, .cls-3, .cls-4, .cls-5, .cls-6, .cls-7, .cls-8, .cls-9, .cls-10, .cls-11, .cls-12, .cls-13, .cls-14, .cls-15, .cls-16, .cls-17, .cls-18, .cls-19, .cls-20, .cls-21, .cls-22, .cls-23, .cls-24, .cls-25, .cls-26, .cls-27, .cls-28, .cls-29, .cls-30, .cls-31, .cls-32, .cls-33, .cls-34, .cls-35, .cls-36, .cls-37, .cls-38, .cls-39, .cls-40, .cls-41, .cls-42, .cls-43, .cls-44, .cls-45, .cls-46, .cls-47, .cls-48, .cls-49, .cls-50, .cls-51, .cls-52, .cls-53, .cls-54, .cls-55, .cls-56, .cls-57 {
        stroke-width: 0px;
      }

      .cls-2 {
        fill: url(#linear-gradient);
      }

      .cls-3 {
        fill: #502914;
      }

      .cls-4 {
        fill: #ad2125;
      }

      .cls-5 {
        fill: #7c471d;
      }

      .cls-5, .cls-8, .cls-10, .cls-13, .cls-18, .cls-26, .cls-27, .cls-29, .cls-37, .cls-40, .cls-46, .cls-48, .cls-52, .cls-55 {
        fill-rule: evenodd;
      }

      .cls-6 {
        fill: #32180e;
      }

      .cls-7 {
        fill: #94887d;
      }

      .cls-8 {
        fill: #a15f23;
      }

      .cls-9 {
        fill: #c6c5c4;
      }

      .cls-10 {
        fill: #aa6526;
      }

      .cls-58 {
        clip-path: url(#clippath-2);
      }

      .cls-11 {
        fill: #1d1b15;
      }

      .cls-12 {
        fill: #987671;
      }

      .cls-13 {
        fill: #9c5c21;
      }

      .cls-14 {
        fill: #5390a1;
      }

      .cls-15 {
        fill: #d5d2cf;
      }

      .cls-16 {
        fill: none;
      }

      .cls-17, .cls-52 {
        fill: #e6e7e8;
      }

      .cls-18 {
        fill: #e6872c;
      }

      .cls-59 {
        clip-path: url(#clippath-1);
      }

      .cls-19 {
        fill: #5a4b51;
      }

      .cls-20 {
        fill: #5e5c59;
      }

      .cls-21 {
        fill: #e79424;
      }

      .cls-22 {
        fill: #796668;
      }

      .cls-23 {
        fill: #e3e4e8;
      }

      .cls-24 {
        fill: #987a7d;
      }

      .cls-25 {
        fill: #55250e;
      }

      .cls-26 {
        fill: #404041;
      }

      .cls-27, .cls-30 {
        fill: #d0c2af;
      }

      .cls-28 {
        fill: #060606;
      }

      .cls-29 {
        fill: #231f20;
      }

      .cls-31 {
        fill: #d96d27;
      }

      .cls-32 {
        fill: #3f6e7d;
      }

      .cls-33 {
        fill: #8e191c;
      }

      .cls-60 {
        clip-path: url(#clippath);
      }

      .cls-34 {
        fill: #15151f;
      }

      .cls-35 {
        fill: #a75726;
      }

      .cls-36 {
        fill: #f37874;
      }

      .cls-37 {
        fill: #c6c7c9;
      }

      .cls-38 {
        fill: #659fab;
      }

      .cls-39 {
        fill: #4a312d;
      }

      .cls-40 {
        fill: #414042;
      }

      .cls-41 {
        fill: #6c4c47;
      }

      .cls-42 {
        fill: #bfb7b6;
      }

      .cls-43 {
        fill: #dab0a3;
      }

      .cls-44 {
        fill: #e1e0de;
      }

      .cls-45 {
        fill: #491e12;
      }

      .cls-46 {
        fill: #58595b;
      }

      .cls-47 {
        fill: #ab9d9b;
      }

      .cls-48 {
        fill: #ca6928;
      }

      .cls-49 {
        fill: #1a5d6a;
      }

      .cls-50 {
        fill: #696963;
      }

      .cls-51 {
        fill: #f2c118;
      }

      .cls-53 {
        fill: #2d5465;
      }

      .cls-54 {
        fill: #d8cfcd;
      }

      .cls-55 {
        fill: #b1681d;
      }

      .cls-56 {
        fill: #e5862c;
      }

      .cls-57 {
        fill: #866662;
      }
    </style>
    <clipPath id="clippath">
      <polygon class="cls-16" points="4.9 142 103.8 145.2 102.6 201.9 3.8 198.6 4.9 142"/>
    </clipPath>
    <clipPath id="clippath-1">
      <polygon class="cls-16" points="191.3 121.6 258.4 135 243.9 219.2 176.8 205.9 191.3 121.6"/>
    </clipPath>
    <clipPath id="clippath-2">
      <rect class="cls-16" x="39.7" y="10.5" width="64.3" height="64.3" transform="translate(1.8 88.2) rotate(-63.8)"/>
    </clipPath>
    <linearGradient id="linear-gradient" x1="-495.5" y1="405.3" x2="-497" y2="399.9" gradientTransform="translate(564 454) scale(1 -1)" gradientUnits="userSpaceOnUse">
      <stop offset="0" stop-color="#998b8b"/>
      <stop offset="1" stop-color="#867679"/>
    </linearGradient>
  </defs>
  <g class="cls-60">
    <g>
      <path class="cls-48" d="M57.5,182.3c1.5,1.7,4.5,5,6.8,7.3,2.3,2.3,2.9,3.2,2.8,4.5-.1,1.3-.5,3.7-1,3.6-.4,0-1.7.2-2.2.5-.5.3-.6.5-.6.9s1.2,1.1,2,.9c.8-.3,1.4-.3,2.2-.2.8,0,1.3.3,1.8-.2.5-.5.9-2.9,1.4-5.8.5-3,1.4-3.9-.2-5.4-1.6-1.5-4.1-3.2-5.3-6.1-1.2-2.9-1.5-4-1.9-3.7-.4.3-5.8,3.8-5.8,3.8h0Z"/>
      <path class="cls-26" d="M66.3,191.9c.7.9.9,1.5.8,2.3-.1,1.3-.5,3.7-1,3.6-.4,0-1.7.2-2.2.5-.5.3-.6.5-.6.9s1.2,1.1,2,.9c.8-.3,1.4-.3,2.2-.2.5,0,.8.1,1.2,0,.3,0,.4-.1.6-.3.5-.5.9-2.9,1.4-5.8.5-3,1.4-3.9-.2-5.4-.5-.4-1-.9-1.6-1.4,0,0-.1-.1-.2-.2,0,0-.2-.1-.2-.2-1.2-1-2.6-1.4-2.6-1.4l1.1,2-1-.4-.3.4s-.6.5-.9.1c-.2-.3-1-.4-.5-.2.4.1,1.5,2.6,1.9,4.8h0Z"/>
      <path class="cls-48" d="M25.6,174.2c1.6,2.5,3.9,8.6,4.3,12.9.4,4.3-.1,8.6-.7,8.9-.5.3-1.4,0-1.9.4-.5.3-.5.7-.8,1.1-.3.4-.5.8-.2,1s1.3,0,1.5,0c.2.1.5.2.8.3.4,0,.5,0,.9,0,.4,0,.6,0,.8,0,.2,0,1.2,0,1.6-.3.4-.3.8-.7,1.1-1.9.4-1.2.1-1.9.5-2.7.3-.8-.3-5.9.8-9,1.1-3.1,2.1-6.9,1.5-7.4-.6-.4-10.2-3.3-10.2-3.3h0Z"/>
      <path class="cls-26" d="M29.9,187h0c.4,4.5-.1,8.7-.7,9-.5.3-1.4,0-1.9.4-.5.3-.5.7-.8,1.1-.3.4-.5.8-.2,1s1.3,0,1.5,0c.2.1.5.2.8.3.4,0,.5,0,.9,0,.4,0,.6,0,.8,0,.2,0,1.2,0,1.6-.3.4-.3.8-.7,1.1-1.9.4-1.2.1-1.9.5-2.7.2-.5,0-2.5.1-4.6-.2-.4-.4-.9-.5-1.2-.3-1.1-.3-1.6-.4-1,0,.6-.2,2.2-.2,2.2l-.5-1.1s-.2,1.7-.3,1.5c0-.2-.5-.8-.5-1.1,0-.3-.8-1.9-.8-1.9v1.4s-.7-1-.7-1Z"/>
      <path class="cls-52" d="M15.3,147.1c0,.6.3,1.5-.2,1.3-.4-.2-1.6-.7-1.6-.7h.6s-.6-.3-.7-.3c0,0,.3,0,.5,0,.2,0,.4.1.4.1,0,0-.2-.4-.6-.6-.4-.2-.6-.2-.6-.2h.6c0,0-.8-.5-.8-.5h.7c0,0-.9-.6-.9-.6,0,0,.3,0,.5,0,.2,0,.3.1.3.1,0,0-.4-.4-.6-.6-.3-.3-.4-.5-.4-.4,0,0,.6.2.6.2,0,0-.2-.3-.4-.5-.2-.2-.2-.5-.2-.4,0,0,.3.3.3.2,0,0-.2-.4-.2-.4l.5.2,2,3.3h0Z"/>
      <path class="cls-31" d="M101.4,189c-1.8-3.8-3.6-4.2-6.8-5.4.3,0,.5,0,.5,0,0,0-.4-.3-1-.5-.1,0-.3-.1-.5-.2-.4-.2-.9-.4-1.5-.6-.6-.2-1.2-.4-1.6-.5,0,0,0,0-.1,0,0,0-.1,0-.2-.1.4.1.7.2.7.2,0,0,0,0-.2-.2.8,0,1.3,0,1.3,0,0,0-.9-.4-2-.6-.1,0-.2,0-.3,0-.2-.1-.4-.2-.6-.3-.4-.2-.9-.4-1.2-.5-.3-.2-.6-.4-.8-.6.4,0,.7,0,.7,0,0,0-.3-.4-.9-.7,0,0-.2-.1-.3-.2-.2-.2-.5-.4-.8-.6.2,0,.3,0,.3,0,0,0-.2-.2-.6-.5-.4-.3-.8-.6-1.2-.9,0,0-.1-.1-.2-.2.1,0,.2,0,.2,0,0,0-.6-.8-1.6-1.7-.1-.1-.2-.3-.3-.4.7.3,1.2.5,1.2.5,0,0-.7-.8-1.8-1.5-.2-.1-.4-.2-.5-.3-.6-.7-1.1-1.2-1.7-1.8.3.1.5.1.5.1,0,0-.7-.7-1.7-1.3-.1,0-.3-.1-.4-.2-.2-.1-.4-.3-.6-.4.7.2,1.3.3,1.3.3,0,0-.9-.7-2.2-1.2-.2,0-.4-.1-.5-.2-.3-.2-1.3-.9-2.5-1.5-.3-.1-.6-.3-.9-.4-.5-.3-.9-.6-1.3-1-2.3-2.1-3.7-3.2-8.1-4.9-4.5-1.7-8.2-2-13.1-1.6-4.9.4-14.3-1.4-15.4-1.5-1.1,0-2.2-1-4.6-2.9-2.4-2-6.9-5.3-6.9-5.3,0,0-.6-.9-1.9-2.5-1.3-1.6-2.9-3.3-3.3-3-.4.3-.7,1.6-.7,1.6,0,0-.2-.3-1.2-1.3-.8-.7-1.9-1.4-2.5-1.8-.3-.1-.4-.2-.4-.2,0,0,0,.6.7,2.4.7,1.8,1.6,3.7,1.6,3.7,0,0-1.6.8-2.7,2.1-1.1,1.3-1.6,3.2-2.3,3.9-.6.7-3.4,2.7-3.9,3.1-.5.3-1,.4-1.2.6-.2.2-.4.7-.1,1.1.2.5.6.7,1,.9.4.2.5.8,1.3,1.1.8.2,1.9.5,3.4.2,1.5-.3,3.6-.7,4.4,0,0,0,.2.3.8,1,.6.8.8,1.2,1.5,3.9.7,2.8,4.2,9.7,9,12.2,4.8,2.4,8.5,1.3,8.5,1.3,0,0,.8,2.5,2.4,6.2,1.6,3.7,1.6,10.8,1.4,10.9-.2.2-1.5.4-2.1.9-.7.5-.7,1.1-.5,1.6.2.5.4,0,.6.2.2.2.5.2.9,0,.4,0,.3,0,1,.2.7.2,1.6,0,2.2-.4.6-.4.6-1,1.1-1.9.4-.8,1.2-5.1.3-11.4-.9-6.3-.8-6.6-.8-6.6,0,0,2.3-.2,5-.4,2.7-.2,5-1,5-1,0,0-.3,1.6,1.7,3.9s6.3,5.3,7.1,5.9c.7.7,1.3,3.1.6,4.7-.7,1.7-1.5,4.2-2.4,4.8-1,.6-2.5.4-3.2.9-.7.4-.7,1.1-.6,1.4,0,.3.5.3,1,.2.5,0,.4,0,1.1.3.7.2,3.4.2,3.9-.2.5-.4.9-.7,1.8-1.4.9-.7,3-4.5,3.6-5.2.6-.8,1.6-1.9,1.2-3.1-.4-1.2-3.7-4.9-3.4-6.1.3-1.2,4.1-7.5,4.1-7.5,0,0,.2.2.5.6,0,.2.2.4.3.7,0,.1.1.3.2.4,0,.3.2.5.2.7.1.3.2.5.2.5,0,0,0-.1,0-.3,0,0,0,0,0,.1.1.3.2.4.2.4,0,0,0-.1,0-.4,0,0,0,0,0,0,0,0,0-.1,0-.4.1.3.2.6.3.8.1.3.2.4.2.4,0,0,0,0,0,0,0,.2,0,.3.2.5.3.7.7,1.2,1.1,1.6h0s0,0,0,0c0,0,0,0,0,0,.2.2.3.3.4.3,0,0,0,0,0,0,.5,1,1,1.6,1,1.6,0,0,0-.2-.1-.6.6,1.1,1.2,1.8,1.2,1.8,0,0,0-.3-.2-.8,0,.1.2.2.3.4,0,0,0,0,0,.1.6,1.3,1.4,2.2,1.4,2.2,0,0,0-.3-.2-.9,0,0,0,0,0,0,0,0,.1.2.2.3.4.6.9,1.1,1.3,1.4.4.3.7.5.7.5,0,0,0-.1-.2-.4,0,0,0,0,.1,0,.3.3.6.6.9.8.2.2.3.5.6.7.5.5,1,.8,1.4.9.4.2.7.2.7.2,0,0-.2-.2-.5-.5.3.2.7.5,1,.7.1.1.2.3.4.5.7.7,1.5,1.2,1.5,1.2,0,0-.1-.3-.4-.7.2,0,.3.2.5.3.1.2.3.5.5.7.4.4.9.7,1.2.8.3.2.6.2.6.2,0,0-.2-.2-.4-.4-.1-.1-.3-.3-.5-.5,0,0,.2,0,.3.1.2.2.3.4.5.5.4.3.8.5,1.2.6.2.2.4.4.7.6.5.4,1.1.6,1.5.7.4,0,.7,0,.7,0,0,0-.3-.2-.6-.4-.2-.1-.5-.3-.8-.5,0,0,0,0,0,0,5.2,2.4,12.9,3.5,13.6,4.9.7,1.3,1.8-6.4-.5-11.1h0ZM71.3,182.1c0,0,0-.2-.1-.2,0,0,0,0,0,0,0,.1.1.2.2.3,0,0,0,0,0,0Z"/>
      <path class="cls-31" d="M68.2,178.7s-.5-.7-.7-1.6c-.2-.9,0-1.8,0-1.8,0,0,.5.7.7,1.6.2.9,0,1.8,0,1.8Z"/>
      <path class="cls-31" d="M67.6,177.3s-.5-.3-.6-.8c-.1-.5,0-.9,0-.9,0,0,.5.3.6.8.1.5,0,.9,0,.9Z"/>
      <path class="cls-26" d="M42.3,193.5c-.1,2.1-.4,3.5-.7,3.9-.4.8-.5,1.5-1.1,1.9-.6.4-1.5.6-2.2.4-.7-.2-.6-.2-1-.2-.4,0-.7,0-.9,0-.3-.2-.4.3-.6-.2-.2-.5-.2-1.1.5-1.6.7-.5,1.9-.7,2.1-.9.1,0,.2-1.8,0-3.9.1-1.4-.3-3-.5-3.8,0-.2,0-.4-.1-.6,0-.3,0,.4.2.4.1,0,.4.6.4.7,0,.1,0-1.1,0-1.1,0,0,.5.6.6.9,0,.2.1-1.3,0-1.5,0-.2.5.8.6,1.2.1.4,0-1.5,0-2,0-.5.1.8.8,2.4s1.8,2.3,1.7,4h0Z"/>
      <path class="cls-26" d="M66,192.9c-.1.2-.3.4-.4.5-.6.8-2.7,4.5-3.6,5.2-.9.7-1.3,1-1.8,1.4-.5.4-3.2.4-3.9.2-.7-.2-.7-.3-1.1-.3-.5,0-.9,0-1-.2,0-.3-.1-1,.6-1.4.7-.4,2.2-.2,3.2-.9,1-.6,1.8-3.1,2.4-4.8.7-1.7.2-4.1-.6-4.7-.3-.3-1.3-1-2.4-1.9.6,0,1.5.2,2.4.9,1.4,1.2,2,3.7,2,3.4,0-.2-.2-1.8-.2-1.8,0,0,.5,1,1,1.5s.2.7.1,1c0,.3,1.1-.2,1.1-.2l.2,1.5s1-1.7,1.3-1.4c.2.2.4,1,.4,1.8h0Z"/>
      <path class="cls-26" d="M16.9,145.2c.1-.4.4-1.1.6-1.3.4-.3,2,1.4,3.3,3,1.3,1.6,1.9,2.5,1.9,2.5,0,0-.3,0-.4,0,0,0,.2.7.3.8,0,.1-.6-.6-.7-.7-.1,0-.1,0-.1,0,0,0,.2.3,0,.1-.2-.2-.6-.5-1.2-1.3s-.7-1.9-.8-2.2c-.1-.3-1.5-1.8-1.8-1.7-.3,0-1,1.7-1.2,2.2-.2.5-.5,1.6-.5,1.8,0,.1,0-1.4.2-2.2.2-.8.4-.8.4-.8,0,0,0-.1,0-.3h0Z"/>
      <path class="cls-26" d="M12.7,142.7c0-.4,0-.5,0-.5,0,0,.2,0,.4.2.6.4,1.8,1.1,2.5,1.8.5.5.8.8,1,1,0,.1-.2.3-.2.4,0,.1-.3,0-.4,0-.1,0-.1.1-.1.2,0,0-.2,0-.4-.1-.2-.1-.2.4-.2.4,0,0-1.1-1.3-1.5-2.2-.2-.4-.6-.9-1-1.3h0Z"/>
      <path class="cls-52" d="M97.5,184.7c1.5.8,2.7,1.8,3.9,4.3,2.3,4.7,1.2,12.4.5,11.1-.5-1.1-5.4-2-10-3.5-.9-.9-1.7-1.9-1.1-1.7.9.4,2,.7,1.7.3-.3-.4-1.4-1.7-.7-1.4.7.3,1.8,1,1.4.4-.4-.6-1.4-2-.9-1.8.6.3,2.8,1,2.4.6-.4-.4-1.7-2-.8-1.9,1,.1,2,.4,2,.1,0-.2-1.1-1.6-.6-1.5.5,0,1,0,1.4.1.4.2-.7-1.4-.4-1.4.3,0,2,.6,2.1.4,0-.1-1.5-1.8-1.1-1.8.4,0,2.1.4,2.1.4,0,0-.8-.9-1.9-1.9-.5-.5-.2-.7.2-.8h0Z"/>
      <path class="cls-52" d="M51.2,178s-2.3.8-5,1c-2.7.2-5,.4-5,.4,0-.7-.7-3.6-.3-3.1.4.5,1.5,2.1,1.5,1.7,0-.4-.4-1.6-.1-1.4.2.2,1,.8,1,.8l.5-.6s.9.8,1,.7c0-.1.3-.7.5-.6.2.1,1.2.8,1.2.6,0-.1.4-.7.6-.5s1.2.3,1.2.2c0-.1.4-.6.7-.4.3.2,1.2.5,1.2.5l.5-.5.6.2-.2.9h0Z"/>
      <path class="cls-48" d="M54.3,183.3c-.5-.5-1-.9-1.3-1.4-1-1.2-1.4-2.1-1.6-2.8,0-1.2,0-2,0-2.1,0-.1.1-.5.2-1,.4-1.5,4.5-9,5.9-9.4.2,0-1.1,1-2.2,2.9-3.9,6.4-4.6,8-1.6,12.8.2.3.4.7.6,1h0Z"/>
      <path class="cls-17" d="M33.9,179.4s-.1.2-.4.5c-.3.3-.8.5-1.3.5-.3,0-.6,0-.8-.1-.2,0-.4-.2-.6-.4,0,0-.2-.2-.2-.3,0,0,0-.2,0-.2,0-.1,0-.2,0-.2,0,0,0,0,.1,0,0,0,0,0,.1,0,0,0,0,0,.2,0,0,0,.3-.1.5-.2.2,0,.4,0,.6,0,.4,0,.9,0,1.2.2.3,0,.6.2.6.2h0Z"/>
      <path class="cls-17" d="M33.3,176.6c-.7-.7-1.1-.7-1.4-.7-.2,0,.5-.4.9-.6.4-.2-2.3-.1-3.2-.7-1-.6-.9-1.9-.9-1.9,0,0,.8.6.9.7,0,.2,0-.4.1-1,0-.6,0-1.3,0-1.3,0,0,.9.7,1,1,0,.2,0-.9-.4-2.4-.5-1.5-1.5-2.9-1.5-2.9,0,0,1-.3,1.4-.1.3.2-1.2-1.2-1.5-1.6-.3-.4.3-.2.6,0,.3.1-.2-.4-1.6-1.7s-1.7-2.7-1.9-2.9c-.2-.2.5-.2.9,0,.4.2-.1-.2-1-1-.8-.8-1.9-2.8-1.9-2.8l-1,1.1s-.9-.1-1.1-.2c-.3,0,.4.7.5.8.1.1-1.1,0-1.3-.1-.2,0,.6.6.7.6.1,0-.5,0-1.3,0-.9-.1-1.2-.3-1.4-.4-.2,0,.7.8.7.8,0,0-.6-.1-1.6-.6-1.1-.5-4.7-.8-6.8-.6-2.1.2-3.2.3-4.4.3-.7,0-1.4,0-1.9-.3,0,0,0,0,0,0-.2.2-.4.7-.1,1.1s.6.7,1,.9c.4.2.5.8,1.3,1.1.8.2,1.9.5,3.4.2,1.5-.3,3.6-.7,4.4,0,0,0,0,0,.2.2,0,.3,0,.7,0,1.1,0,.4,0,.8.2,1.1,0,.3.1.5.1.5,0,0,.2-.1.4-.4.2.6.5,1.1.7,1.4,0,.1,0,.3,0,.4,0,.2,0,.4,0,.6,0,.1,0,.2,0,.2,0,0,0,0,.2-.2,0,0,.2-.2.3-.4,0,.4,0,.8,0,1.2.1,1,.5,1.8.8,2.3.2.3.3.5.4.6.1.1.2.2.2.2,0,0,0-.1,0-.3,0-.2,0-.4,0-.7,0-.2,0-.4,0-.6,0,.2.2.4.3.6,0,.5.2,1.1.5,1.7.1.3.3.6.4.9,0,.3.2.5.2.8,0,.2,0,.4,0,.6s0,.2,0,.2c0,0,0,0,.2-.2,0,0,.2-.2.3-.4.3.7.7,1.2,1.1,1.5.2.2.4.3.5.4.1,0,.2.1.2.1,0,0,0,0,0-.2,0,0,0-.2,0-.3.2.3.4.5.7.8,0,.3.1.6.2.9.1.4.3.7.5,1,.2.3.4.5.6.7.2.2.4.3.6.3.2,0,.2,0,.2,0,0,0,0,0-.1-.2,0-.1-.2-.3-.3-.5-.1-.2-.2-.5-.3-.8.3.3.6.6,1,.8,0,0,.1.2.2.3.3.3.7.6,1,.8.1,0,.2.1.3.2.1.2.2.3.4.5.7.7,1.6,1,1.6,1,0,0,0-.4-.4-.9.1,0,.2,0,.3.1.2.4.6.8,1.2,1.1.3.2.6.3.9.4.3,0,.6,0,.9,0,.3,0,.5-.1.6-.2s.1-.1.1-.1c0,0,0,0-.2,0-.1,0-.3,0-.5-.1-.2,0-.4-.2-.6-.3-.1,0-.2-.1-.3-.2.8.2,1.6.2,2.3.2,1.3-.1,2.3-.3,2.3-.3,0,0-.7-2.4-1.4-3.1h0Z"/>
      <path class="cls-46" d="M4.9,159.5c0,0-.2-.2-.2-.3-.2-.4,0-.9.1-1.1.2,0,.4.2.7.2.4,0,.6,0,.7.2,0,.3,0,.7-.4.9-.4.2-.5.1-.8,0,0,0-.1,0-.1,0h0Z"/>
      <path class="cls-46" d="M10.8,155.9c.2-.3.5-.5.4-.9,0-.3-.2-.6,0-.6.1,0,.5.1,1,.4s.4.4,1,.5c.6.1.7.3.7.3,0,0-1.1-.2-1.6-.2s-.7,0-.9.2c-.2.2-.5.3-.5.3h0Z"/>
      <path class="cls-26" d="M4.8,158.8c.2,0,.4.1.6.2.2,0,.4-.2.5-.1.1,0,0,.3-.2.4-.2,0-.5-.1-.6-.1-.2,0-.2,0-.3,0,0-.1,0-.3,0-.3h0Z"/>
      <path class="cls-29" d="M6.4,160.5c1,.2,2.2.5,3.2.3,1-.1,2-.9,2.4-1,.4,0,1.1,0,1.1,0,0,0-1.1.3-1.7.6-.6.2-1.3.5-2,.5-.7,0-2.3-.3-2.6-.4-.3,0-.4-.1-.4-.1h0Z"/>
      <path class="cls-37" d="M6.5,158.6c.7-.1,2.5-1.4,3.1-1.8.6-.5,1.1-.8,1.1-.6,0,.2-.4.9-.5,1,0,.1.4,0,.4,0,0,0-.5.6-.5.6,0,0,.6-.2.4,0-.2.2-.5.9-.5.9,0,0-.2.6,0,.7.1,0,.7.3.5.3-.3,0-.4.3-.4.3,0,0,.3.2.2.2-.1,0-.6.2-.6.3,0,.1-.3.3-.4.4-.2,0-1.6-.1-2-.2-.4-.1-.6-.3-.5-.3.1,0,.5,0,.4,0-.1,0-.4-.5-.3-.4,0,0,.8,0,.7-.1-.1,0-.7-.4-.5-.4.2,0,.5-.1.4-.2-.2,0-.8-.2-.6-.2.2,0,.7-.3.6-.3,0,0-.8,0-.8,0h0Z"/>
      <path class="cls-46" d="M16.6,150.1c-.2.2-.5.8-.3.8.2,0,1.4,0,1.2,0-.1,0-.5.4-.3.3.2,0,.9,0,.9,0l-.2.2s.8-.1.7,0c0,0-.3.4-.2.3,0,0,.3-.2.3-.2l.2.3h.3s.5-1,.7-1.6c.2-.5.3-1.3.2-1.8-.1-.5-.9-2.7-1.2-3.1-.4-.3-.9-.6-.9-.6,0,0-.4,1.1-.5,1.8-.1.7,0,1.3-.4,2.1-.4.8-.6,1.4-.6,1.4h0Z"/>
      <path class="cls-52" d="M18.2,150c-.2-.1-1-.9-.7-.8.2,0,.5-.2.5-.2,0,0-.8-.3-.6-.3.3,0,.9-.2,1-.4.1-.2-.6-.4-.5-.5.1,0,.5-.5.5-.5l-.4-.4s.4-.3.3-.5c-.1-.1-.3-.4-.2-.5.1-.1.1-.7.1-.7,0,0,.6.3,1.3,1.6.7,1.4.6,2.2.7,2.5s0,.5,0,.4c0-.2-.3-.5-.3-.3,0,.2,0,1.3-.1,1.1,0-.2-.3-.4-.3-.2,0,.2,0,1.1,0,1,0,0-.3-.2-.3,0,0,.1.2.8.2.8h-.2c-.6.5,2.1-.4,1.9-1.3,0-.1-.3-2.1-.3-2.1-.2-.5-.8-2-1.5-2.9-.7-.9-1.1-1.3-1.4-1.2s-.9,1.5-1.1,2.1c-.2.6.4,2.1-.7,3.7-1.1,1.6.6.9.6.9l1.7-.8h0Z"/>
      <path class="cls-26" d="M11.7,155.3c.2,0,.3-.1.3-.3,0-.2-.1-.3-.3-.3-.2,0-.3.1-.3.3,0,.2.1.3.3.3Z"/>
      <path class="cls-48" d="M40.9,176.3c.4.5,1.5,2.1,1.5,1.7,0-.4-.4-1.6-.1-1.4.2.2,1,.8,1,.8l.2-.2c-1.1-1.2-2-1.5-1.8-2,.2-1,1.5-3.4,2.2-5.6.7-2.1.3-5.1.3-5.1,0,0-.2,1.9-1,4.7-.8,2.8-2.3,3.3-2.3,3.7,0,.4-4-4.1-4-4.1,0,0,.7.9,2.2,3.6.9,1.7,1.4,2.7,1.7,4,0-.2,0-.3.1-.2h0Z"/>
    </g>
  </g>
  <g class="cls-59">
    <g>
      <path class="cls-55" d="M245,153.6s.7-1.3,2.1-2.2c1.3-.9,3.5-1.7,5.1-2.9,1.6-1.2,4.2-3.3,4.8-5.4.7-2.1.5-5.3.3-5.4-.2-.1-.1.5-.3,1.5-.1,1-.5,3.3-.9,4.1-.4.8-.8,1.4-1.2,1.4-.3,0-1-4.7-1.2-4.8-.2-.2,0,1.1.1,2.3,0,1.2.2,3.2-.1,3.7-.4.5-2.5,1.9-2.6,1.9-.2,0,.1-.5.3-1.6.2-1.1.7-4.6.7-4.6,0,0,0-.2.7-1.3.6-1.1,1-3,.9-3.1-.2-.1,0,.4-.7,1.5-.6,1.2-.8,1.3-.9,1.4-.1.1,0-.3-.2-1.4-.2-1.1-1.1-5.1-1.3-5.2-.2-.1.5,2.9.7,4.8.1,1.9-.2,4.9-.2,5,0,0-.2.1-.7-.4-.6-.5-2.2-2.4-2.2-2.6,0-.2-.1.4.5,1.9.7,1.5,1.7,2.2,1.8,2.7.2.5-.3,2.8-.8,3.4-.5.6-3.3,2.1-3.4,2.2,0,0,.4-1.1.2-2.2-.2-1.1-1.3-3.1-1.4-3.2-.2,0,0,0,.3,1,.3.9.4,2.7-.6,4.3-1,1.7-1.2,2.1-1.2,2.1,0,0,0,0-.4-.2-.4-.1-2.5-.4-2.5-.4,0,0-1.4-2.2-1.6-3.2-.2-.9.7-4.2.7-4.2,0,0-.4.3-1.1,1.4-.7,1-.8,3.6-.8,3.6,0,0-1.8-1-3.5-1.8-1.6-.8-4.2-2.5-4.5-3.3-.4-.9-.2-1.8.6-2.7.9-.9,2.8-.5,4-1.4,1.2-.9,1.5-1.6,1.5-1.6,0,0,0,0-1.1.5-1,.5-2.6.5-4.3,1.1-.5.2-.8.3-1,.4-.2-.4-.4-1.1-.5-2.4,0-.5,0-.9-.1-1.4.9-.8,1.9-1.4,1.9-1.4,0,0-.2,0-1.3.5-.2,0-.4.2-.5.3,0-2,.2-3.4.3-4.4.2-1.2.6-1.9.6-1.9,0,0-1.5,1-1.8,3.6-.1,1.1-.1,2.3-.1,3.4-.5.4-.8.8-.8.8,0,0,0,0-.1-.5-.1-.5.2-3.6.3-3.9,0-.3-1.1,4.1-.9,6.2.2,2,1.5,4.4,2.8,5.9,1.3,1.5,5.8,3.3,7.1,3.9,1.3.7,2.5,2.3,2.5,2.3,0,0-.6,0-1.3-.2-.7-.2-1-.7-3-2-2-1.3-4.1-1.4-5.1-1.4-.9,0,1.9,4.4,3.7,5.1,1.8.7,1.7.4,2.4.6.7.2.8.8.8.8,0,0,0,.1-.4,1-.5.9-.6,1.7-1.7,4.8-1.1,3.1-2.1,4-2.3,4-.2,0-8,0-12.8-1-4.8-1-5-2.4-13.8-4.3-8.8-1.9-8.5,1-11.9,3.3-3.3,2.3-3.4,5.7-3.5,6.1,0,.4-.5,1.4-.7,1.5-.2.2.2,0,.6-.2.3-.2,0,0-.3,1.2-.4,1.2-2.2,3.9-2.6,4.2-.4.3,3-1.7,3-1.7,0,0-.1.5-.2.6,0,0,.1,0,.5-.2.4-.2,1.3-1.9,1.4-2.1.1-.2.4,3.9-1.3,8.2-1.8,4.3-4.8,4.6-5.7,5.2-.9.6-1.2,1.6-2.2,4.7-.9,3.2-3.5,6.3-3.8,6.7-.3.4-1,2.3-.9,2.6.1.4,0,1,0,1.4,0,.4.6,0,.8,0,.2-.1-.2.9-.2,1.7,0,.8.8,1.3,1.5,1.6s1.4.6,1.6.4c.2-.2.4,0,.9,0,.6,0-1.4-3.3-1.5-4-.1-.8,3.4-8.2,4.5-9.4,1.1-1.2,4.9-4.8,4.9-4.8,0,0-1.3,1.8-1.7,2.8-.4,1,0,2.8,1,7.2.9,4.4,1.1,6.1,1.2,7,0,.8,0,2.2.2,2.7.2.4.7,0,.8-.1,0-.1,0,1.8.3,2.3.3.6,3.2,1.2,3.5,1.2.3,0,.3-.1.2-.2,0-.1.1,0,.4,0,.3,0-.8-1.2-1-1.6-.3-.5-2.2-5.2-2.2-8.5s0-8,1.4-9.9c1.3-1.9,9.4-6.2,9.8-9.8-.1,2,10.4,1.9,13.4,3.5,2.9,1.6,3.4,3.1,3.6,3.9.2.7-2.8,7.4-2.8,7.5s-1,1.4-1.4,2.9c-.3,1.5-3.6,7.9-3.9,8.2-.2.3-.6,1.1-.5,1.7.1.6.9,0,.9,0,0,0,0,0,0,.4,0,.5-.4,2.9,0,3.4.4.5,3.3,1.3,3.6,1.2.3-.2-.4-.9-.7-1.4-.3-.5-.4-.7-.4-1,0-.4-.5-2.2-.3-3,.1-.7,2-5.5,3-7.5,1-2,1.2-2,2.6-4,1.4-2,3.9-5.3,4.1-5.3.2,0,6.2,5.5,6.7,6.4.5.9,1.9,7.4,2,8.6,0,1.2-.4,2.6-.4,2.6,0,0,0,.2,0,.4.1.2.6-.1.6-.1,0,0,0,.2,0,.8,0,.6-.7,1.2-.9,2.4-.2,1.2,1.1,3,1.5,3.1.4.1.5,0,.8,0,.3,0,.8-2.1.9-2.5.1-.5,0-1.2,0-2.2,0-1,.7-1.8.8-2.4.2-.5,0-1-.4-2-.3-1.1-1.1-7.1-.9-8,.2-.9-2-4.3-2.7-5.7-6.4-12.4-3.5-9.3,4.5-14.3,3.2-2,4.8-6.1,4.7-9.8,0-3.7-.3-3.2-.3-3.2,0,0,3,1,3.5.9.5,0,.7-.6.7-.6,0,0,.4,0,.6-.3.2-.3,0-1.2.1-1.5.2-.4.3-.7,0-1.3-.3-.6-1.5-2.3-1.5-2.7,0-.4.3-.8.6-1.8.2-1,0-1.3,0-1.3,0,0,.7,0,2.3-.6,1.5-.6,4.3-2.5,4.5-2.6.2-.1-1.9-.3-4.6-.4-2.6,0-3.5,1.2-3.9,1.6h0ZM228.4,140.4c.2.5.4,1,.5,1.3-.3.4-.2.4-.7,0-.5-.4-.9-1.8-.3-3.2,0-.1.1-.3.2-.4,0,1,.2,1.8.3,2.3h0Z"/>
      <path class="cls-8" d="M225.8,190c-.2,0-2.7,3.3-4.1,5.3-1.4,2-1.6,2-2.6,4-1,2-2.9,6.8-3,7.5s.3,2.6.3,3c0,.4,0,.6.4,1,.3.5,1,1.2.7,1.4-.3.2-3.1-.6-3.6-1.2-.4-.5,0-2.9,0-3.4,0-.5,0-.4,0-.4,0,0-.8.6-.9,0-.1-.6.2-1.4.5-1.7.2-.3,3.5-6.7,3.9-8.2.3-1.5,1.3-2.8,1.4-2.9s3-6.9,2.8-7.5c-.2-.6-.9-1.7-1.8-2.7,1.7,1.4,3.1,3.4,6.2,5.8h0Z"/>
      <path class="cls-18" d="M191.8,172.3s0,0,0,0c-.1.2-1,1.9-1.4,2.1-.4.2-.5.3-.5.2,0,0,.2-.6.2-.6,0,0-3.4,2-3,1.7.4-.3,2.2-3,2.6-4.2.4-1.2.6-1.5.3-1.2-.3.2-.7.4-.6.2.2-.2.6-1.2.7-1.5,0-.4.2-3.8,3.5-6.1.5-.3.9-.7,1.2-1,0,0-1.2,2.6-1.6,4.5-.5,1.9-1.4,5.5-1.3,6h0Z"/>
      <path class="cls-8" d="M190.5,186.6s-3.8,3.6-4.9,4.8c-1.1,1.2-4.6,8.6-4.5,9.4.1.8,2.1,3.9,1.5,4-.6,0-.8-.2-.9,0-.2.2-.9-.2-1.6-.4-.7-.3-1.4-.8-1.5-1.6,0-.8.4-1.8.2-1.7-.2.1-.8.4-.8,0,0-.4,0-1.1,0-1.4-.1-.4.6-2.2.9-2.6.3-.4,2.9-3.5,3.8-6.7.9-3.2,1.3-4.1,2.2-4.7.9-.6,3.9-.9,5.7-5.2,1.8-4.3,1.5-8.4,1.3-8.2-.1.2-1,1.9-1.4,2.1-.4.2-.5.3-.5.2,0,0,.2-.6.2-.6,0,0-3.4,2-3,1.7.4-.3,2.2-3,2.6-4.2.4-1.2.6-1.5.3-1.2-.3.2-.7.4-.6.2.2-.2.6-1.2.7-1.5,0-.4.2-3.8,3.5-6.1.5-.3.9-.7,1.2-1-.4,2.8-1.9,4-.6,9.2.4,1.3,1,5.9,0,8.7-1,2.8-3.6,6.9-3.6,6.9h0Z"/>
      <path class="cls-13" d="M190.4,174.4c-.4.2-.5.3-.5.2,0,0,.2-.6.2-.6,0,0-3.4,2-3,1.7.4-.3,2.2-3,2.6-4.2.4-1.2.6-1.5.3-1.2-.3.2-.7.4-.6.2.2-.2.6-1.2.7-1.5,0-.4.2-3.8,3.5-6.1.5-.3.9-.7,1.2-1,0,0-.7,3-1.1,4.8-.7,2.8,0,5.9-3.3,7.7h0Z"/>
      <path class="cls-27" d="M225.8,190c-.2,0-2.7,3.3-4.1,5.3,0,.1-.2.2-.3.4,0-.8-.2-1.3,0-2.3.3-1.1,2-4.3,2.4-4.9,0,0,1.3,1,2,1.6h0Z"/>
      <path class="cls-30" d="M204.5,179.5c0,1.8,6.9,2.1,11.6,2.8-.1,0-.2,0-.3-.1,0,0-.1-.2-.2-.3-.2-.2-.4-.4-.7-.7-.3-.3-.5-.5-.7-.6-.2-.2-.3-.3-.3-.3,0,0,0,.2.1.4,0,0,0,0,0,0-.4-.4-.8-.5-.8-.5,0,0,.2.5.6.9,0,0-.2,0-.3-.1,0-.2-.2-.4-.3-.6-.4-.6-1-1-1-1,0,0,.1.6.5,1.2,0,0-.2-.1-.3-.2,0-.2-.2-.3-.3-.5-.5-.8-1.1-1.3-1.1-1.3,0,0,.1.6.5,1.3,0,0,0,0,0,0,0-.1-.2-.2-.2-.3-.3-.4-.5-.7-.7-1-.2-.3-.3-.4-.3-.4,0,0,0,.2.1.5,0,.2.1.4.2.6-.3-.2-.6-.4-.9-.7-.2-.3-.3-.5-.4-.7-.1-.2-.2-.4-.2-.4,0,0,0,.2,0,.5,0,0,0,.1,0,.2,0,0,0,0,0,0,0-.2-.2-.5-.2-.6,0-.2-.1-.4-.1-.4,0,0,0,.1-.1.4,0,0,0,.1,0,.2,0,0-.1-.1-.2-.2-.2-.6-.5-1-.5-1,0,0,0,.2,0,.6-.1-.1-.3-.3-.4-.4,0-.3,0-.6,0-.9,0-.2,0-.4,0-.4,0,0-.1.1-.2.4,0,.1,0,.3-.1.5,0,0,0,0,0,0,0,0,0,0,0,0,0-.4,0-.7,0-.9,0-.2,0-.4,0-.4,0,0,0,.1-.2.4,0,.2-.1.4-.1.6,0,0,0,0,0,0,0,0,0,0,0,0,0-.4,0-.7,0-1,0-.2,0-.4,0-.4,0,0-.1.1-.2.4,0,.1,0,.2-.1.4,0-.1,0-.3,0-.4,0-.2,0-.4,0-.4,0,0,0,.1-.2.3,0,0,0,.2,0,.3,0,0,0,0,0,0-.2,2-.5,4.2-.8,4.7h0ZM214.7,181.7s0,0,0,0c0,0,0,0,0,0,0,0,0,0,0,0h0Z"/>
      <path class="cls-26" d="M247.6,161.2c0,0,.1.2.1.2.3.6.2.9,0,1.3-.2.4,0,1.2-.1,1.5-.4.6-.8.1-1.2,0-.6-.2-1,.1-1.3,0-.9-.2-.2-1-.2-1.3-.1-.4-.8-.6-.8-1.2,0-.6,1-1,2.2-1,.6,0,1.1.2,1.5.4h0Z"/>
      <path class="cls-30" d="M229.5,179.1c0,0,.2-.1.3-.1-.1,0-.2,0-.2-.1,0,0,0,0,0,0,0,0,0,0,.1,0,0,0,.2,0,.3,0,.1,0,.3,0,.4-.1.1,0,.2-.2.3-.3-.2,0-.4,0-.6,0-.3,0-.6,0-.6,0,0,0,.2,0,.5-.2.3-.1.7-.3,1.1-.4.2,0,.4-.1.6-.2,0,0,.1-.1.2-.2-.2,0-.4,0-.5-.1,0,0-.1-.1-.1-.1,0,0,0,0,.2,0,.1,0,.2,0,.4,0,.1,0,.3-.2.5-.3,0,0,.2-.1.2-.2,0,0,0,0-.1,0-.3,0-.5-.1-.5-.1,0,0,.2,0,.4-.2.2-.1.6-.2.9-.4.2,0,.3-.1.5-.2,0,0,.2-.2.3-.3-.2,0-.3,0-.3,0,0,0,.2-.1.5-.3,0,0,.2,0,.2-.1.2-.2.4-.4.5-.6-.5.3-.8.5-.8.5,0,0,.3-.6.9-1.2,0,0-.1,0-.1,0,0,0,.1-.1.3-.3.2-.2.5-.4.8-.7.2-.1.3-.2.5-.4,0,0,0-.1.1-.2,0,0,0,0,0,0-.3.2-.5.4-.5.4,0,0,0-.2.3-.6,0-.2.2-.3.3-.5-.2,0-.3.1-.4.1-.1,0-.2,0-.2,0,0,0,0,0,.1-.1,0,0,.2-.2.4-.3.3-.3.6-.7,1-1.2,0,0,0,0,0,0,0-.2.1-.4.2-.7,0,0,0,0,0,0-.2.2-.4.3-.5.4-.1,0-.2.1-.2.1,0,0,0,0,.1-.2,0-.1.2-.3.3-.5.2-.3.3-.7.4-1.2,0,0,0,0,0,0-.1.1-.2.2-.3.3,0,0-.1,0-.1,0,0,0,0,0,0-.1,0,0,0-.2.1-.4.1-.3.2-.7.3-1.1,0-.2,0-.4.1-.6,0-.1,0-.2,0-.4,0,.2-.2.4-.2.5-.2.3-.3.5-.3.5,0,0,0-.2,0-.6,0-.2,0-.5,0-.9,0,0,0,.1,0,.1,0,0,0-.4,0-.9,0,0,0,0,0,0,0,0,0-.2-.2-.4,0,.1,0,.2,0,.2,0,0-.1-.2-.2-.5-.1-.3-.2-.7-.1-1.2,0-.5.3-.8.5-1.1,0,0,0,0,0,0,0,0,0,0,0,0-.2.4-.4.6-.4.6,0,0-.2-.5,0-1,0-.3.2-.5.3-.6-.3-1.4-.4-2.2-.4-2.2,0,0,.8,2.4,2.1,3.5,1.3,1.1,3.4,2.1,4.1,2.3,0,0,0,0,0,0h0s.1.1.3.4c.3.2.6.5.8.9.3.5.4,1,.4,1.3,0,.2,0,.3,0,.4,0,0,0,.1,0,.1,0,0-.1-.2-.2-.5,0,0,0-.1-.1-.2.1.9.1,1.7.1,2,0,.2.1.4.1.6,0,.5-.1.9-.3,1.2,0,.1-.2.2-.2.3,0,0-.1,0-.1,0,0,0,0,0,0-.2,0,0,0,.1,0,.2-.3.9-.5,1.5-.6,1.8-.1.6-.4,1-.4,1,0,0,0,0,0-.2-.2.5-.4,1-.7,1.6,0,0,0,0,0,0,0,.4-.1.8-.2,1.1,0,.3-.1.5-.1.5,0,0-.1-.2-.2-.5,0,0,0,0,0,0,0,0,0,0,0,0,0,0,0,.1,0,.2,0,.5-.2.9-.2.9,0,0-.1-.2-.2-.4-.6.9-1,1.2-.9,1.2,0,0,.3-1,.3-1,0,0,0,0-.1.2,0,.2,0,.4-.2.6-.3.7-.8,1.2-.8,1.2,0,0,0,0,0-.1-.2.7-.6,1.2-.6,1.2,0,0,0,0,0-.2-.1.7-.5,1.2-.5,1.2,0,0-.1-.4-.1-.8,0,0,0,0,0,0,0,.1,0,.3,0,.5-.2.8-.7,1.3-.7,1.3,0,0,0-.4,0-.8,0,0,0,.1-.1.1,0,.1,0,.3,0,.5-.2.7-.6,1.1-.6,1.1,0,0,0-.4,0-.9-1,.8-1.5,1.1-1.5,1.1l.6-.8s-.2.2-.5.4c0,0,0,.1,0,.2-.2.4-.5.6-.8.7-.2.1-.4.2-.4.2,0,0,0-.2.2-.4-.3.2-.5.3-.8.5-1.1.6-2,.6-2,.6,0,0,0,0,0-.2,0,0,0,0,0,0,0-.2,0-.4-.1-.5,0-.4-.1-.7-.2-.8h0s0,0,0,0h0s0,0,0,0h0s0,0,0,0h0s0,0,0,0h0s0,0,0,0h0c-.2-.9-.4-1.9-.5-3.2,0,0,0,0,0,0,0,0-.2,0-.2-.1-.1,0-.2-.2-.2-.2,0,0,0,0,.2-.1h0Z"/>
      <path class="cls-5" d="M243.6,152.6s.2-.5,1.2-2.1c1-1.7.9-3.4.6-4.3-.3-.9-.5-1.1-.3-1,.2,0,1.3,2.1,1.4,3.2.2,1.1-.3,2.2-.2,2.2,0,0,2.9-1.6,3.4-2.2s1-2.9.8-3.4c-.2-.5-1.2-1.2-1.8-2.7-.7-1.5-.6-2.1-.5-1.9,0,.2,1.7,2.1,2.2,2.6.6.5.7.4.7.4,0,0,.3-3.1.2-5-.1-1.9-.9-4.9-.7-4.8.2.1,1.2,4.2,1.3,5.2.2,1.1,0,1.5.2,1.4.1-.1.2-.2.9-1.4.6-1.2.5-1.7.7-1.5.2.1-.3,2-.9,3.1-.6,1.1-.7,1.3-.7,1.3,0,0-.5,3.5-.7,4.6-.2,1.1-.5,1.5-.3,1.6.2,0,2.3-1.4,2.6-1.9.4-.5.2-2.4.1-3.7,0-1.2-.3-2.5-.1-2.3.2.2.8,4.9,1.2,4.8.3,0,.8-.6,1.2-1.4.4-.8.8-3,.9-4.1.1-1,0-1.6.3-1.5.2.1.3,3.3-.3,5.4-.7,2.1-3.2,4.2-4.8,5.4-1.6,1.2-3.8,2-5.1,2.9-1.1.7-1.8,1.7-2,2.1,0,0,0,.1,0,.1l-1.3-1h0Z"/>
      <path class="cls-26" d="M240.9,156.6c0-.2-.5-1-1.2-1.5-.7-.5-1.1-.1-1.1.2,0,1.1,1.4,1.1,2.1,1.3.2,0,.9,1.1.8.9,0-.2-.6-1-.6-1Z"/>
      <path class="cls-29" d="M246,162.2c-.3-.2-1.2-.7-1.3-.4-.1.3,0,.5.4.5.3,0,.9.2.9.1,0-.1,0-.2,0-.2Z"/>
      <path class="cls-29" d="M247.7,162.3c-.1,0-.3,0-.5,0-.2,0-.2.2-.3.2,0,0,0-.2.2-.4.3-.2.5-.2.6-.2.1.1,0,.3,0,.4h0Z"/>
      <path class="cls-5" d="M238.9,152.1h1.2c0,0,.7-.1.7-.1,0,0-1.4-2.2-1.6-3.2s.7-4.2.7-4.2c0,0-.4.3-1.1,1.4-.7,1-.8,3.6-.8,3.6,0,0-1.8-1-3.4-1.8-1.6-.8-4.2-2.5-4.5-3.3-.4-.9-.2-1.8.6-2.7.9-.9,2.8-.5,4-1.4,1.2-.9,1.5-1.6,1.5-1.6,0,0,0,0-1.1.5-1,.5-2.6.5-4.3,1.1-.5.2-.8.3-1,.4-.2-.4-.4-1.1-.5-2.4,0-.5,0-.9-.1-1.4.9-.8,1.9-1.4,1.9-1.4,0,0-.2,0-1.3.5-.2,0-.4.2-.5.3,0-2,.2-3.4.3-4.4.2-1.2.6-1.9.6-1.9,0,0-1.5,1-1.8,3.6-.1,1.1-.1,2.3-.1,3.4-.5.4-.8.8-.8.8,0,0,0,0-.1-.5,0-.4.2-3,.4-3.9,0,0,0-.1-.1,0-1.3,1.9-2.1,8.5,1.9,12.2,1.4,1.3,5.8,3.4,7.1,4.1,1.3.7,2.6,2.1,2.6,2.1h0ZM228.9,141.7c-.3.4-.2.4-.7,0-.5-.4-.9-1.8-.3-3.2,0-.1.1-.3.2-.4,0,1,.2,1.8.3,2.3.2.5.4,1,.5,1.3h0Z"/>
      <path class="cls-27" d="M246.1,155s.5-.8,1.6-1.4c1.1-.6,4.7-1.4,5.3-1.3.3,0,.5,0,.4.1-.2.1-2.9,2-4.5,2.6-1.5.6-2.3.6-2.3.6l-.6-.6h0Z"/>
      <path class="cls-27" d="M234.1,150.4c1.4,1.2,1.6,2,2,3.5,0,0,.1,0-.6,0-.6-.1-2.7-.9-4.1-1.8-1.1-1.3-2-2.8-2-3.4.3,0,.7,0,1.3.2,1.3.2,2.3.7,3.4,1.6Z"/>
      <path class="cls-26" d="M245.8,158c-.1-.3,0-1.6.3-2,.2-.2.5-.2.7,0,0,.2,0,.5,0,1,0,.4-.2.6-.3.9-.1,0-.3,0-.3,0-.2.1-.1.5-.1.6,0,0,0-.1-.2-.5h0Z"/>
      <path class="cls-40" d="M234.2,209.7c.3.4.8,1,1.4,1.3.6.3.9.3,1.2.3,0,.2,0,.3,0,.4-.1.5-.6,2.6-.9,2.5-.3,0-.4,0-.8,0-.4-.1-1.7-1.9-1.5-3.1,0-.6.3-1,.5-1.4Z"/>
      <path class="cls-40" d="M234.7,207.9s-.5.4-.6.1c-.1-.2,0-.4,0-.4,0,0,0,0,0-.2.3.2.5.4.6.5Z"/>
      <path class="cls-40" d="M216.4,210c0,.2.1.5.4.8.3.5,1,1.2.7,1.4-.3.2-3.1-.6-3.6-1.1-.2-.2-.2-.7-.2-1.3.7,0,2,.3,2.7.3h0Z"/>
      <path class="cls-40" d="M213.8,207.2s-.8.6-.9,0c0-.2,0-.5,0-.8.5,0,.9.8.9.8Z"/>
      <path class="cls-40" d="M195.5,207.7c.3.4,1.3,1.6,1,1.6-.3,0-.5,0-.4,0,0,.1.1.2-.2.2-.3,0-3.2-.6-3.5-1.2-.2-.3-.2-1-.2-1.5.6-.2,2.1.1,2.7.3.2,0,.4.2.6.3,0,.1,0,.2.1.2h0Z"/>
      <path class="cls-40" d="M192,206.1c0,.1-.6.5-.8.1-.1-.3-.1-1.1-.2-1.8.1.1.2.4.5.7.5.5.5.6.5,1h0Z"/>
      <path class="cls-40" d="M182.6,204.1c.1.4.2.7,0,.7-.6,0-.8-.2-.9,0-.2.2-.9-.2-1.6-.4-.6-.2-1.2-.6-1.4-1.2.7-.5,1.8,0,2.5.2.4.1.9.4,1.4.8h0Z"/>
      <path class="cls-40" d="M178.7,199.9c.3.2.2.8,0,1.2-.2.1-.7.4-.8,0,0-.4,0-.9,0-1.3.3-.1.6-.1.8,0h0Z"/>
      <path class="cls-29" d="M239.9,155.4c.4.2.6.6.4.8-.1.2-.5.2-.9,0-.4-.2-.6-.6-.4-.8.1-.2.5-.2.9,0h0Z"/>
      <path class="cls-29" d="M246.4,157.5c-.2,0-.3-.4-.3-.7,0-.4.3-.6.5-.6.2,0,.3.4.3.7,0,.4-.3.6-.5.6Z"/>
      <path class="cls-10" d="M197,185.4c4-3.7,5.8-4.8,6-10,.3-5.2-.2-8.6-.2-8.6.7,1,2.4,7.1,2.5,8,0,.7-.8,4.9-.8,4.7-.4,3.6-8.5,7.8-9.8,9.8-1.3,1.9-1.4,6.6-1.4,9.9,0,2.1.7,4.7,1.4,6.5-.2-.6-2.3-5.5-2.4-11-.2-5.5.8-5.5,4.8-9.3h0Z"/>
      <path class="cls-10" d="M225.1,167.8c-1.7,1.2-4,1.7-5.4,5.4-1.4,3.7-1.2,6.7-1.2,6.7,0,0-1.2-4.1-3.6-6.9-2.4-2.7-8.1-3.2-8.1-3.2,0,0,1.8-3.1.3-6l-1.5-3s2.5.7,3.6,3.2c1.1,2.5.7,1.8,1.7,2.7,1,.9,5.3,2.6,8.7,1.1,3.3-1.6,4.2-2.4,7.2-2.1l3,.4-4.7,1.6h0Z"/>
    </g>
  </g>
  <path class="cls-51" d="M175,74.2c-.5.3-1,1.3-1.4,1.7.5.2,1.6,1.2,2.3,1.5l1.5-3.6c-.7.2-1.8,0-2.3.3h0Z"/>
  <path class="cls-34" d="M152,70.2c.2.6,0,.8.3,1.3.2.5.4.9.7,1.3,0,.1.1.2.2.3,1.7,2.7,5.9,7,9.1,7.9.3,0,.8,0,1,.3.8-1.3,1.6-2.3,2.8-3.4-3.4,0-5.8-2.3-7.3-5.2-.2-.4-.1-1-.6-1.2-.3-.2-4-.7-4.8-.7.6-.4,3.1-.3,3.1-.4-1.4-.3-3.1-.7-4.5-.1Z"/>
  <path class="cls-56" d="M149.2,59.5c1.5,1.9,3.1,3.7,4.9,5.4-1.8-.9-3.7-2.2-4.9-4,0,0-.2.5,0,1.6,1.7,1.4,3.4,2.8,5.4,3.8h-.2c-1.6-.6-3.3-.9-4.7-1.9.1.5.3.9.4,1.3l5.2,2.2-4.6-.8c.1.4.3.8.4,1.3,1.7-.2,3.4.3,5,.8-1.5,0-3.1-.1-4.5.4.3.8.4.6.4.7,1.4-.6,3.1-.2,4.5.1,0,.2-2.5,0-3.1.4.8,0,4.5.5,4.8.7.2-.3-.2-.8-.2-1.3-.4-1.7-.1-3.6-.2-3.7,0-.2-1.8-1.2-2.8-2.5-.9-1.1-2.8-4.1-3.1-5.4-.3-.1-.3-.9-.6-.8,1.3,4.3,3,5.6,2.7,5.7-1.6-1.7-3.3-3.3-4.3-5.5-.2.5-.3.9-.4,1.4h0Z"/>
  <path class="cls-34" d="M151.8,58.6c.3,1.3,2.2,4.3,3.1,5.4,1.1,1.3,2.8,2.3,2.8,2.5l.6-.9c-4.3-4.8-3.5-10.2-4-10.9-.7-.9-3.2,1.2-2.6,3.9h0Z"/>
  <path class="cls-49" d="M157.8,66.4c0,.2-.2,2,.2,3.7,0,.4.5.9.2,1.3.4.3.4.8.6,1.2,1.5,2.9,3.9,5.1,7.3,5.2,1-.9,2.1-1.7,3.1-2.5,0,0-.2,0-.3,0,.3.9-2.9,0-3.3-.2-2.6-1-3.4-2.9-2.9-5.6-1.5-1.6-3.2-2.7-4.3-4l-.6.9h0Z"/>
  <path class="cls-49" d="M168.9,75.3c-2.9-.8-3.9-3.3-6.3-5.8-.4,2.7.3,4.5,2.9,5.6.5.2,3.6,1.1,3.3.2h0Z"/>
  <path class="cls-34" d="M149.6,58.1c1,2.1,2.7,3.8,4.3,5.5.3-.2-1.5-1.5-2.7-5.7-.5-1.6-.1-2.6-1.1-.9-.5.8-.4,1.1-.4,1.2h0Z"/>
  <path class="cls-34" d="M149.3,60.9c1.2,1.8,3.1,3.1,4.9,4-1.8-1.7-3.4-3.5-4.9-5.4-.1,1,0,1.3,0,1.4Z"/>
  <path class="cls-34" d="M149.3,62.5c0,.6.3,1.2.4,1.9,1.4,1,3.1,1.3,4.7,2h.2c-2-1.1-3.7-2.5-5.4-3.9Z"/>
  <path class="cls-34" d="M150.2,65.7c.2.5.4.9.5,1.4l4.6.8-5.2-2.2h0Z"/>
  <path class="cls-34" d="M151.6,69.5c1.4-.5,3-.4,4.5-.4-1.6-.5-3.3-1-5-.8.2.4.3.8.5,1.2h0Z"/>
  <path class="cls-4" d="M160.3,85.1c-.3.2-.5.3-.8.5.9-.2-.7,1.6-.7,2,0,.1.2.2.2.4,0,.3-3.4,4-3.6,4.3-.7,1.3,1.4,2.7,2.5.8-.6,1.7,1.4,3,2.4,1.3.2,1.7,2.2,2.1,2.6.7.3.9,1.6,2.2,2.4,1.2.3-.4.6-6.8.5-7.6,0-.2,0-.8-.1-.9-.2-.2-3.4-.9-4.4-3.3l-.9.4h0Z"/>
  <path class="cls-4" d="M157.9,86.6c.2.2.5.2.4.5-1.4,1.1-3.7,2.6-4.9,3.7,0,0-.3.2-.3.2-.8.9.4,2,1.2,1.9.7-.1.9-.7,1.1-.5.2-.4,3.5-4.1,3.6-4.3,0-.2-.2-.3-.2-.4,0-.3,1.7-2.2.7-2-.5.3-1.1.6-1.6,1h0Z"/>
  <path class="cls-4" d="M153,90.9s0-.3.3-.1c1.2-1.1,3.5-2.7,4.9-3.7,0-.3-.2-.3-.4-.5-2.1,1.2-6.8,3.5-7.1,3.8-.1.1-.2.4-.2.6.5,1.4,1.5.6,2.5,0h0Z"/>
  <path class="cls-33" d="M160.3,85.1l.9-.4c1,2.4,4.2,3,4.4,3.3,0,0,0,.6.1.9,0-.8.1-1.7.1-2.6,0-.1-.1-.4,0-.8-.4-.2-1.2.1-2.5-.1-.9-.2-1.3-.2-1.4-1.4-.3.3-1.1.8-1.5,1.1h0Z"/>
  <path class="cls-36" d="M153,90.9h0s.2,0,.3-.1c-.2-.2-.3,0-.3.1Z"/>
  <path class="cls-1" d="M165.7,85.4c0,.3,0,.6,0,.8,1.5,2,1.7.6,1.9.8,0,2.3,1.2.3,1.5,1.6,1.1-1,.7,1.2,1.9-.1,1,1.6,1.2.4,1.5.4,0,0,.8,1.1,1,1,.5,0,.1-1.2,1.8-.2.9-3.1.8-2.2.4.5h.2c1-1,1.4.4,2-.8.8.7.8,0,1.1-.1.4-.1.5.2,1,0,0,0,.3-.6,1.7-.6-1.2-.4-2.7-.5-4-.9-2.1-.6-5.9-2.4-7.1-4.2-1.5,1.1-3.3,1.3-5,1.8h0Z"/>
  <path class="cls-1" d="M162.2,83.4s0,0,0,0c.2,0,.5-.9.6-1.2l-.6-1.2c-3.2-.9-7.4-5.1-9.1-7.9-.4,0,.3,1.7.4,1.8.2.3.6.2.6.3,0,0,0,.7.2,1,.1.2.7.2.7.2,0,0,.1.6.4.8.5.6,1,.6,1,.6,0,0-.4.6.1,1.1.4.4,1.1.1,1.1.2.1,0-.8,1.7,1.3,1.4,0,1.5,1,.8,1.2.9,0,0-.1.3.2.6.3.2.5,0,.6,0,0,0,0,1.6,1.3,1.3h0Z"/>
  <path class="cls-1" d="M153,72.8c-.3-.5-.5-.8-.7-1.3-1,.7.3,2.6.7,1.3Z"/>
  <path class="cls-23" d="M162.2,81l.6,1.2c.2-.4.4-.8.5-.9-.3-.2-.8-.2-1-.3h0Z"/>
  <path class="cls-7" d="M169.2,75.4c-1,.8-2.1,1.7-3.1,2.5-1.2,1-2,2-2.8,3.4,0,.1-.3.6-.5.9-.1.2-.4,1.1-.6,1.2.2,0,.4,1.6.5,1.7.3.3.6-.1.7.1,1.9-.6,5.7-2.4,6-4.7,0-.4-.1-1.2,0-1.5,0-.6.3-.9.3-1,.6-1.8,2-3,3.9-2.2.4-.4,1-1.4,1.4-1.7h-1.1c.9-1.2,1-.6,2-.7.4,0,.8-.2,1.3-.2-2.8-3.2-5.8.4-8,2.2h0Z"/>
  <path class="cls-34" d="M175,74.2c.5-.3,1.6-.2,2.3-.3,1.2-.3,3.1-1.1,4.3-1.5-1.5,0-3,.5-4.4.8-.4,0-.8.2-1.3.2-1,.1-1.1-.5-2,.6h1.1Z"/>
  <path class="cls-7" d="M161.8,84c0,1.1.5,1.2,1.4,1.4h.2c-.2-.3-.5,0-.7-.2,0,0-.3-1.6-.5-1.7,0,0,0,0,0,0,0,.2-.2.4-.3.6h0Z"/>
  <path class="cls-50" d="M163.5,85.2h-.2c1.3.3,2.1,0,2.5.2,1.7-.5,3.5-.7,5-1.8-.6-.9-.9-2-1.3-3.1-.3,2.3-4,4.1-6,4.7h0Z"/>
  <path class="cls-34" d="M169.4,79c0,.3.1,1.2,0,1.5.4,1,.6,2.2,1.3,3.1,1.3,1.8,5,3.6,7.1,4.2,1.3.4,2.8.5,4,.9.6,0,1.5.6,1.5,0-1.3-1.1-1.9-2.9-2.6-4.4h-.1c.4,1.9,1.1,4.2,0,2.6-.6-1-.7-2.4-1-3.5,0,0,0-.1,0-.1-3.4-.2-7.6-1.1-9.9-3.8-.1-.1-.2-.6-.4-.4Z"/>
  <path class="cls-49" d="M169.6,78s-.2.4-.3,1c.2-.1.3.3.4.4,2.3,2.7,6.5,3.7,9.9,3.8,0,0,0,.1,0,.1,1.6,0,3.4-.2,5-.5-.2-.2-1.3-1.4-1.2-1.6,0,0,0,0-.1,0-.7.3-5.4-1.4-6.4-1.9-2.5-1.1-4.3-2.5-4.6-2.5-1.2-.2-3,2.6-2.7,1.2h0Z"/>
  <path class="cls-49" d="M169.6,78c-.3,1.4,1.6-1.3,2.7-1.2.3,0,2,1.4,4.6,2.5,1,.4,5.7,2.2,6.4,1.9-.6-.3-1.6-1-2.9-1.6-1.8-.9-1.8-.5-4.6-2.2-.6-.4-1.8-1.3-2.3-1.5-1.9-.8-3.3.4-3.9,2.2Z"/>
  <path class="cls-34" d="M186.5,84.9c.8.6,2.9,3.5,3.1,3.7.4.3,2.9,1,2.9.7-.3-.2-.5-.4-.7-.6-1.7-1.4-3.7-2.4-5.3-3.9h0c0,0,0,0,0,0Z"/>
  <path class="cls-34" d="M183.5,84.6c.3.7,1.8,4,2.1,4.4.3.3,2.3.6,2.3.4-.2-.1-.3-.4-.4-.5,0,0-1.2-.8-2.1-1.7-.8-.9-1.5-2.1-1.9-2.6h0c0,.1,0,.1,0,.1Z"/>
  <path class="cls-34" d="M184.7,82.9c.7.6,2.7,1.8,3.6,2.5,1.2,1,3.1,2.7,3.6,3,1.1.7,1.9.9,3.2,1v-.2c-1.1-.7-3.4-1.8-4.3-2.7,0,0-.3,0-.2-.2.2,0,.2.2.2.2,3.8,1.9,5.3,4,11.4,1.7-6.7-.7-12.8-4-18.8-7,0,.2,1,1.4,1.2,1.6Z"/>
  <path class="cls-24" d="M192.8,86.6h-.1c0,.3,4,1.9,4.6,1.9l-4.5-1.9Z"/>
  <path class="cls-15" d="M190.8,86.6s0-.1-.2-.2c0,.2.2.2.2.2Z"/>
  <path class="cls-56" d="M179.7,83.4c.3,1.1.3,2.5,1,3.5,1,1.6.4-.8,0-2.5h.1c.7,1.4,1.3,3.2,2.6,4.3h0c-.3-.5-1.3-3.7-1.6-4.7,1,1.9,2.1,3.7,3.7,5.1,0,0,0-.1.1-.1-.4-.3-1.9-3.6-2.1-4.4-.1-.3-.3-.6,0-.1.4.5,1.1,1.7,1.9,2.6.8.9,2,1.6,2.1,1.7v-.2c0,0-2.8-4.4-2.8-4.4,1.6,2.4,3.7,3.5,4.8,4.4h0c-.2-.3-2.2-3.2-3.1-3.8h0c1.6,1.4,3.7,2.4,5.3,3.8l.2-.3c-.5-.4-2.4-2.1-3.6-3-.9-.7-3-1.9-3.6-2.5-1.6.3-3.3.6-5,.5Z"/>
  <path class="cls-34" d="M187.5,88.7c.5.4,2.6.9,2.7.6-.4-.3-.6-.6-.6-.6-1.1-1-3.1-2.1-4.8-4.4l2.7,4.4h0Z"/>
  <path class="cls-34" d="M183.5,88.6c.2.3,1.8.7,2,.6.2,0,0-.2,0-.2-1.6-1.5-2.7-3.3-3.7-5.1.3,1,1.3,4.2,1.6,4.7Z"/>
  <path class="cls-25" d="M183.5,84.6h0c-.4-.6-.2-.3,0,0Z"/>
  <g class="cls-58">
    <g>
      <path class="cls-28" d="M69.4,15.3c-1.7.7-4.7,4.5-5.6,6.1.5-.1,2-.3,2.2-.4.5-.2,1.2-1.5,1.9-1,.5.4,0,1.6,1.7.6.6.6.8,1.2,1.2,1.8,0,.1.4.6.5.5,0-.2-.2-1.6-.3-2-.2-1.1-.5-4.5-.6-5.1l-1-.5h0Z"/>
      <path class="cls-28" d="M69.4,15.3l1,.5c-.2-.7-.3-.8-1-.5Z"/>
      <path class="cls-45" d="M68.5,55.9c-.5,2.4-2.1,3.7-1.6,5.7,0,.5,1.3,0,1.6-.8.1-.7-.5-2,.6-4.6,0,0,0-.2-.5-.4,0,0,0,.1,0,0h0Z"/>
      <path class="cls-6" d="M66.9,61.5c0,.1,0,.3,0,.4.3,1,1.3.2,1.6-1.2-.2.9-1.5,1.3-1.6.8h0Z"/>
      <path class="cls-45" d="M71,57.6c.1.4.4,1.8.3,2,.7,0-.2.7-.4,2h-.1c0,.7,0,2.1.9,1.9,1.7-1.5.6-2.9.2-4.1,0-.3,0-1-.1-1.1-.1-.5-.2-.4-.5-.6-.3-.2-.3-.1-.3-.1h0Z"/>
      <path class="cls-3" d="M71.3,59.6c0,.1-.5.4-.6,2h.1c.2-1.3,1.1-1.9.4-2Z"/>
      <path class="cls-38" d="M63.8,21.4c-.4.7-1.1,2.2-1.3,2.9-.4,1.5,0,3,.5,4.4,0,0,0,0,0,0,.6-.1.9-.1,1.5,0,0,0,0-.1,0,0,1.6.2,3.2.4,4.8.7-.9-1.5,1.1-4.8,1.3-7-.4-.6-.6-1.2-1.2-1.8-1.7,1-1.2-.2-1.7-.6-.6-.5-1.4.8-1.9,1-.2.1-1.7.3-2.2.4h0Z"/>
      <path class="cls-43" d="M70.7,22.4c-.2,2.2-2.1,5.5-1.3,7,.7,1.2,3.6,3.6,4.6,4.8.1,0,.2,0,.3,0,.1-.1.4,0,.3-.4,0-.1-1.1-2.1-1.3-2.6-1.2-3-1.2-6.8-1.5-7.4-.2-.5-.4-.4-.7-1-.1,0-.4-.4-.5-.5h0Z"/>
      <path class="cls-14" d="M64.5,28.8c3,.8,6.6,4.4,8.4,6.9.4-.5.7-1.1,1.1-1.6-1-1.2-3.9-3.6-4.6-4.8-1.6-.3-3.2-.5-4.8-.7,0,0,0,0,0,0h0Z"/>
      <path class="cls-32" d="M64.5,28.8c-.6-.2-.9-.2-1.5,0,.2.4.4.9.5,1.3.5,1.2.9,2.2,1.1,3.5.2,1.6.3,4.2-.7,5.5,2.4-.3,4.8-1,7.2-.9.7-.8,1.2-1.5,1.8-2.3-1.8-2.5-5.4-6.2-8.4-6.9h0Z"/>
      <path class="cls-53" d="M63.9,39c2.9,1.7,5,1.6,7.2-.9-2.4,0-4.8.6-7.2.9Z"/>
      <path class="cls-3" d="M51.1,38.8c-.2.3-.6.6-.8,1,.3,0,.6,0,.9,0,.5,0,1,0,1.5,0-1-1,1.1-1.6-1.6-1h0Z"/>
      <path class="cls-35" d="M51.7,38.4c-.2,0-.3,0-.5.1,0,0,0,.2-.1.3,2.7-.6.7,0,1.6,1,.1,0,.2,0,.4,0,0-.3.2-.5.3-.8.2-.4.3-.6.6-1-.6.2-1.7.2-2.2.4Z"/>
      <path class="cls-21" d="M50.3,39.9c.2-.4.6-.7.8-1,0,0,0-.2.1-.3-.9.3-.7.6-1.3,1.1-.2.3.3.2.4.2Z"/>
      <path class="cls-3" d="M55.4,39.2c-.6,0-1.4,0-2.1-.1-.1.2-.3.4-.3.8,0,0,.4,0,.5,0,.7-.1,1.6-.4,2.3-.6-.2,0-.4,0-.4,0Z"/>
      <path class="cls-44" d="M56.2,36.4c-.7.3-1.4.8-2,1.3,0,.1-.1.2-.2.3-.3.4-.4.6-.6,1,.6.1,1.5,0,2.1.1-.2,0-.1-.5,0-.6,0,0-.2,0-.2,0-.7,0-.8,0-.6-.3,1.2-.9,1.4-1.5,2.9-.8,0-.3.1-.6,0-.9,0-.1-.1-.2-.2-.3-.4,0-.8.1-1.2.3h0Z"/>
      <path class="cls-44" d="M55.2,38.4c.7,0,1.3,0,1.9.2,0-.3.2-.5.2-.8,0-.1,0-.3,0-.4-1.5-.7-1.7-.1-2.9.8-.2.4,0,.2.6.3h0Z"/>
      <path class="cls-11" d="M57.4,37.8c0,.3-.2.5-.2.8,0,0,.1,0,.2,0,.8.1.9.3,1.1-.7l-1.1-.2Z"/>
      <path class="cls-42" d="M55.9,39.2c-.7.2-1.6.5-2.3.6.2,0,.1.1.1.1,0,0,.2,0,.2.1,0,0,.2,0,.2,0,.9.3,4.2,1.5,4.8,1.8.2-.1-.8-.9-1.1-1.1-1.1-.8-2.7-1.1-1.9-1.4h0Z"/>
      <path class="cls-42" d="M59.7,42.5c.5.5.9,1.4,1.4,2,0,0,0-.2-.1-.3.1-.1,2.5,2,2.8,2.2.3,0,.2-.4.3-.8-1-.2-.9-.7-.9-.8-.2-.2-.7-.3-.7-.7-.2,0-.2.1,0,.3-.9-.1-.3-.5-.7-.7,0,0,0,.2-.3,0-.3-.3-.3-2.9-.6-1.2-.2-.1-1-.4-1.1-.1h0Z"/>
      <path class="cls-44" d="M74.1,34.2c-.5.5-.8,1-1.1,1.6-.6.8-1.1,1.6-1.8,2.3-2.3,2.5-4.3,2.6-7.2.9,1.1-1.3,1-3.8.7-5.5-1.1,1.2-4,2.3-5.5,2.5-.6,0-1.2,0-1.8,0,0,0,.2.2.2.3,0,0,.5.1.7.3,1.7,1,1.6,1.4,1.7,1.5,0,0,1.5,1,1.6,1.1.2,0,.3-.3.5-.2,0,0-.5.3,1.1,1.4,0,0,0-.2,0-.2,0,0,0-.2.2-.1.3.5,1.2,1.5,1.4,1.7.3.5-.3,0-1.2-.3-.3.6,1.9,1.5,2,1.8,0,0-.2.7,0,1.3,0,.2,1.8,2.7,2.2,2.7,0-1,.4.9,1.1,2.1.3-2.3,0-.7.7.6.8,1.7.8.7.7-.6h.1c0-.1.2,0,.2,0,.3,1.5,1.7,1.7,1.5,2.6.2.2.5-1,.4.6,0,.1,0,.4-.2.5.2.3,1,1.3,1.2,1.6.1.2.1.5.1.6,0,0-.1-.4,1.4.9.1.1.1.3.1.3.5.4.9.7,1.4,1.1,0-.5-.5-1.3-.7-1.8-.6-1.1-1.4-2.1-2.1-3.1,0,0,0,0-.5-.6-2.3-3.3-4.7-6.5-6.9-9.9.1,0,.2-.6.2-.7,0,0,1.3-.2,2.2-.6,2.5-1.2,3.8-3.7,5.3-5.8.2-.3.2-.3.5-.7,0,0-.2,0-.3,0h0Z"/>
      <path class="cls-42" d="M67.8,47.3c0,.6.9,1.3-1.3.3,0,.2.2,1.4.2,1.4.1.2.8.6.7.8.2.2.5.5.7.7.2-.9.8-.2.4.4,2.1,2,4,4.3,6.3,6.1,0-.2,0-.6.2-.8,0,0,0-.2-.1-.3-1.5-1.3-1.4-.9-1.4-.9,0,0,0-.4-.1-.6-.1-.2-.9-1.3-1.2-1.6-.1-.1-1.8-1.9-1.7-1.9l1.3.3c-1.3-.7-1.7-.6-1.5-2.1h-.1c.1,1.3.2,2.4-.7.7-.6-1.3-.4-2.9-.7-.6-.6-1.1-1-3-1.1-2.1h0Z"/>
      <path class="cls-42" d="M64,45.6c0,.4,0,.8-.3.8.6.5,1.1,1,1.7,1.5.1-.1-.3-2.5,0-2.4.4.8.2-.4,0-.7,0,0-.2.4-.2-.6-.4,1,.2,2.7-.4,2.6-.5-1.3-.7-1.1-.7-1.1,0,0,0-1.1-.1,0h0Z"/>
      <path class="cls-9" d="M63.3,40.2c.2,1.4.2.9,1.2,1.4,0,0,.3.4.4.2-.1-.2-1.1-1.2-1.4-1.7-.1,0-.1,0-.2.1Z"/>
      <path class="cls-47" d="M66,48.5c.5.5.9.9,1.4,1.4.1-.2-.5-.6-.7-.8,0,0-.2-1.2-.2-1.4,0-.3-.1-.9-.2-1.1-.3-1,.3,2.2-.3,2h0Z"/>
      <path class="cls-9" d="M57.5,36.5c0,.3,0,.6,0,.9,0,.1,0,.3,0,.4l1.1.2c-.3,1-.4.8-1.1.7-.6.1-1.3,0-1.9-.2,0,.1-.2.6,0,.6,0,0,.2,0,.4,0h0c-.8.4.7.8,1.9,1.5.3.2,1.3,1,1.1,1.1.6.3.4.3.7.6,0-.2.8,0,1.1.1.3-1.8.3.9.6,1.2.2.2.2,0,.3,0,.5.1-.1.6.7.7,0-.2,0-.2,0-.3,0,.4.5.5.7.7,0,0-.1.6.9.8.2-1,0,0,.1,0,0,0,.3-.2.7,1.1.6.2,0-1.6.4-2.6,0,.9.2.6.2.6.1.3.3,1.6,0,.7-.4,0,.1,2.2,0,2.4.2.2.4.4.6.6.6.2,0-3,.3-2,0,.2.2.8.2,1.1,2.2.9,1.2.2,1.3-.3-.4,0-2.1-2.5-2.2-2.7-.2-.5,0-1.2,0-1.3-.1-.2-2.3-1.1-2-1.8.9.3,1.5.7,1.2.3,0,.2-.3-.2-.4-.2-1-.5-1,0-1.2-1.4,0,0,0,.1,0,.2-1.7-1-1-1.3-1.1-1.4-.3,0-.3.3-.5.2,0,0-1.5-1-1.6-1.1,0,0,0-.4-1.7-1.5-.2-.1-.7-.4-.7-.3h0Z"/>
      <path class="cls-20" d="M57.2,38.6c-.7,0-1.3-.1-1.9-.2,0,.1,0,0,.2,0,.6.1,1.3.3,1.9.2,0,0-.1,0-.2,0Z"/>
      <path class="cls-42" d="M60.4,40.3c-1-.7-.7.2-.2.7l.2-.7Z"/>
      <path class="cls-22" d="M58.9,41.9c-.6-.3-3.9-1.5-4.8-1.8,0,0-.2,0-.2,0,.3.2.6.5.9.7,0,0,.1.1.2.2.1,0,.2-.2.3-.1,2,.5,4.2,5.7,5.5,7.5,2.2,3.2,5,5.4,8.5,7,1.1.5,2.2.9,3.3,1.4.4-.4-.5-.4-1.7-1.2-1.2-.8-4.2-3.6-5.2-4.7-.9-1-4.2-5.4-4.6-6.4-.5-.6-.9-1.4-1.4-2-.3-.4-.2-.3-.7-.6h0Z"/>
      <path class="cls-22" d="M55,41c3.7,3.2,3,6.2,6.8,10.2,2.2,2.3,4,3.2,6.7,4.7,0,0,0-.1,0,0,.4.2.4.4.5.4,0,0,0-.2.2,0,.6.4,1.2,1,1.8,1.4,0,0,0,0,.3.1h0c-.9-.6-1.5-1.4-2.3-1.8-.1-.3.2-.1.3-.5-3.5-1.6-6.3-3.9-8.5-7-1.2-1.8-3.4-7-5.5-7.5-.1,0-.2.1-.3.1Z"/>
      <path class="cls-2" d="M61.1,44.5c.3,1,3.7,5.4,4.6,6.4,1.1,1.2,4,3.9,5.2,4.7,1.2.8,2.1.8,1.7,1.2.7.3,1.4.5,2.1.8,0,0,.2,0,.2,0,0-.1,0-.2,0-.4-2.3-1.8-4.2-4.1-6.3-6.1-.1-.1-.3-.3-.4-.4-.2-.2-.5-.5-.7-.7-.5-.5-.9-.9-1.4-1.4-.2-.2-.4-.4-.6-.6-.6-.5-1.1-1-1.7-1.5-.3-.2-2.6-2.3-2.8-2.2.1.1.1.2.1.3h0Z"/>
      <path class="cls-19" d="M74.9,57.5s-.2,0-.2,0c-.7-.2-1.4-.5-2.1-.8-1.1-.4-2.3-.9-3.3-1.4-.1.4-.4.3-.3.5.9.4,1.5,1.1,2.3,1.6h0c.3.4.4.3.5.7,1.1,1,5,4.5,5.8,4.9.5.3,1.8,0,2.4-.2.9-.2,1.7-.5,2.6-.8,0-.2-1.8-1.4-2.1-1.6-1.1-.8-2.1-1.6-3.2-2.5h0c-.6-.2-1.2-.2-1.8-.4-.5-.2-.6-.3-.6-.3Z"/>
      <path class="cls-19" d="M75.1,56.3c0,.2-.2.6-.2.8,0,.2.1.2,0,.4,0,0,0,.1.6.3.6.2,1.2.2,1.8.5h0c-.3-.3-.6-.6-.9-.8-.5-.4-1-.7-1.4-1.1Z"/>
      <path class="cls-42" d="M68.1,50.6c.1.1.3.3.4.4.4-.6-.3-1.4-.4-.4Z"/>
      <path class="cls-54" d="M70.3,49.3c-.1,1.5.2,1.4,1.5,2.1l-1.3-.3c-.1,0,1.5,1.8,1.7,1.9.1,0,.2-.4.2-.5.2-1.6-.2-.3-.4-.6.2-.9-1.2-1.2-1.5-2.6h-.2s0,0,0,0Z"/>
      <path class="cls-28" d="M90.8,32.1c-.9.2-1.8.3-2.7.4-3.3.7-6.6,1.3-9.9,2,.9.4,1.5,1.2,1.6,1.4.1.1.2.3.4.3.2,0,4.3-.3,5.1-.3,1.7,0,6.7.2,8.1.8.5.2.3.6.5,1.1,0,0,.1,0,.1,0,.5-.2,1.1-.3,1.7-.5,2.2-.9,4.5-3.2,6-5.1,1.8-2.5,1.2-1.7-1.2-1,.8-.9,2.1-1,1.8-2-3.7,1.3-7.5,2.3-11.4,3h0Z"/>
      <path class="cls-41" d="M79.9,35.9l-1,1.9c.6.2,1.9.4,2.1.9,1.5.4,3.1,1.1,4.1,1.4,0,0,0,0,.1,0,0,0,0,.1.2.2,0,0,1.1,0,1.1.3,4.3.7,3.1.5-.3-.6-2.6-1.2-1.4-.8.5-.4,6,.3,4,.8-.2-1.3,2.1.4,4.2.4,6.3.3.4-.3.6-.5,1-.7-.2-.4,0-.9-.5-1.1-1.4-.7-6.4-.8-8.1-.8-.7,0-4.8.4-5.1.3-.2,0-.2-.2-.4-.3h0Z"/>
      <path class="cls-12" d="M86.5,40.5c-1.3-.2-2.6-.4-3.8-.8,1.4.7,2.9,1.5,4.3,2.2l-5.7-1.3c-.2,0,.7.5,1.2.8,1.6.8,5.2,2.4,2.6,1.6-.6-.2-1.4-.5-2-.7-.2.3-.2.7-.5.9,2.1,1.6,2.2,1.6-.5.4-.2.4-.3,1.1-.6,1,.1,0,1.2.8,1.1.9-.4-.2-.9-.4-1.4-.6l-.8,1c.2.2.3.4.5.5,0,0,.2,0,.2.3,0,0,.7-.3,1.2-.5,2.7-1.6,4.9-3.1,7.4-5,1-.8,2.1-1.9,3-2.6-2.1,0-4.2.1-6.3-.3,4.2,2.1,6.2,1.6.2,1.3-1.8-.4-3.1-.8-.5.4,3.3,1.2,4.6,1.3.3.6h0Z"/>
      <path class="cls-39" d="M78.2,34.5l-4.3.4c-1.5,2.2-2.7,4.7-5.3,5.8-.9.4-2.1.5-2.2.6,0,0,0,.6-.2.7,2.2,3.4,4.6,6.6,6.9,9.9,1.3-4.5,2.5-8.9,5.1-12.9l2,.6c-1.7-1.2-2.4-.5-1.4-1.7.7.3,1.4.5,2.1.7-.2-.4-1.4-.7-2.1-.9l1-1.9c-.2-.2-.7-1-1.6-1.4h0Z"/>
      <path class="cls-38" d="M83.9,32.8c-1.6.2-3.5.3-5.1.6-.8.1-4.2.9-4.4.9-.3.3-.3.4-.5.7l4.3-.4c3.3-.7,6.6-1.3,9.9-2-1.1.1-2.8.1-4.2.3Z"/>
      <path class="cls-12" d="M78.3,44.9l-.5.7c2.3,2.1,2.8,2.5,0,.6l-.6.8c2.3,2.2,1.4,1.4-.6.4l-.5.7c.4.4.8.7,1.2,1.1.2.3,0,0-.2,0-.6-.1-.7-.2-1.1.5.7.6-.2,0-.5-.2l-1.7,2.8c1.3-.8,3.4-2.1,4.5-3,1.1-.9,2.7-2.6,3-2.7,0-.2-.1-.2-.2-.3,0,0,0,.1,0,0-.2,0-2.2-1.3-2.6-1.5h0Z"/>
      <path class="cls-41" d="M81,38.6c-.7-.2-1.5-.4-2.1-.7-.9,1.3-.3.5,1.4,1.7l-2-.6c-2.5,4-3.8,8.4-5.1,12.9.4.5.5.6.5.6,0,0,0-.1.1-.1l1.7-2.8c.3.3,1.1.8.5.2-.7-.7-1.4-.6-.2-1.5l1.2,1.1c.1,0,.4.3.2,0-.4-.4-.8-.7-1.2-1.1-.4-.4-.7-.5-.5-.8.4-.4.3-.2.9,0,2,1,2.9,1.8.6-.4-.6-.6-1.2-.6-.3-1.5,0,0,.6.5,1,.7,2.9,1.9,2.3,1.5,0-.6-.9-.8-1.4-.8-.7-1.4.4.3.8.5,1.2.7.5.3,2.5,1.5,2.6,1.5,0,0,0,0,0,0-.2-.2-.3-.4-.5-.5-1-1-1.8-1.4-1.8-1.5,0,0,0-.6.2-.7.8.3,1.6.8,2.4,1.2.5.2.9.4,1.4.6,0,0-1-.8-1.1-.9-.3-.3-2.3-1.7-2.4-1.8,0-.1,0-.2,0-.5,1,.3,1.9.9,2.9,1.3,2.6,1.2,2.6,1.2.5-.4-.7-.5-1.5-1.1-2.3-1.6-.2-.6,1.8.4,2.8.7.6.2,1.4.5,2,.7,2.5.7-1.1-.8-2.6-1.6-.5-.3-1.4-.7-1.2-.8l5.7,1.3c-1.4-.7-2.9-1.5-4.3-2.2,1.2.4,2.5.6,3.8.8,0-.4-1-.3-1.1-.3-.1,0-.1-.1-.2-.2,0,0,0,0-.1,0-1-.3-2.6-1-4.1-1.4h0Z"/>
      <path class="cls-57" d="M81.6,44.5c.2,0,.4-.5.6-1-1-.4-1.9-1-2.9-1.3,0,.3-.2.3,0,.5,0,.1,2,1.5,2.4,1.8Z"/>
      <path class="cls-57" d="M80.5,45.8l.8-1c-.8-.4-1.6-.8-2.4-1.2,0,0-.2.6-.2.7,0,.1.8.5,1.8,1.5Z"/>
      <path class="cls-57" d="M82.6,43.2c.3-.2.3-.6.5-.9-1-.3-2.9-1.3-2.8-.7.7.6,1.5,1.1,2.3,1.6Z"/>
      <path class="cls-41" d="M76,49.8c.4-.6.4-.6,1.1-.5l-1.2-1.1c-1.2.9-.6.8.2,1.5Z"/>
      <path class="cls-41" d="M77.2,47.1l.6-.8c-.3-.2-.9-.7-1-.7-.9.9-.3.9.3,1.5Z"/>
      <path class="cls-41" d="M77.8,45.6l.5-.7c-.4-.2-.8-.5-1.2-.7-.6.6-.1.6.7,1.4Z"/>
      <path class="cls-41" d="M76.1,48.1l.5-.7c-.7-.3-.5-.5-.9,0-.2.2.1.4.5.8Z"/>
    </g>
  </g>
</svg>