<svg width="58" height="58" viewBox="0 0 58 58" fill="none" xmlns="http://www.w3.org/2000/svg">
<circle cx="29" cy="29" r="28" stroke="#D0EAE3" stroke-width="2"/>
<path d="M33.5248 17.8945L30.7846 21.8131L37.1214 25.5614L38.149 23.0058H42.2593C44.1775 20.6887 43.972 19.5415 43.6294 19.2575C42.4877 18.8032 40.2041 17.7923 40.2041 17.3834C40.2041 16.9745 39.5191 16.6451 39.1765 16.5315H35.7513C35.7513 15.4411 34.267 14.487 33.5248 14.1462V17.8945Z" fill="black"/>
<path d="M37.1214 28.4578L29.2432 23.6873L27.8732 24.5392H20.3375C19.3784 24.5392 18.5678 24.9935 18.2823 25.2207C17.3233 25.357 16.5126 23.8009 16.2272 23.0058C15.6563 22.3243 14.4459 21.3702 14.1719 23.0058C13.8979 24.6414 15.8846 26.5269 16.9122 27.2652C16.6838 28.1738 16.2956 30.1956 16.5696 31.0134C16.8436 31.8312 16.6838 33.5123 16.5696 34.2506L15.1995 36.1247V42.599C16.8436 44.5072 18.2823 43.3941 18.7961 42.599V37.3173C20.4402 36.3632 21.993 34.4209 22.5639 33.5691H32.4972C32.3602 36.5677 33.1252 39.9298 33.5248 41.236C33.639 42.0311 34.1756 43.6212 35.4087 43.6212C36.6418 43.6212 36.8359 42.2582 36.7788 41.5767C35.6827 36.8062 35.8654 34.0234 36.0938 33.2283L37.1214 31.8653V28.4578Z" fill="black"/>
<path d="M24.2766 35.7839L21.3651 38.3396L22.0502 41.5767C22.2214 42.4854 22.9064 44.2005 24.2766 43.7916C25.6468 43.3827 25.6467 42.1446 25.4755 41.5767L24.2766 35.7839Z" fill="black"/>
<path d="M33.5248 17.8945L30.7846 21.8131L37.1214 25.5614L38.149 23.0058H42.2593C44.1775 20.6887 43.972 19.5415 43.6294 19.2575C42.4877 18.8032 40.2041 17.7923 40.2041 17.3834C40.2041 16.9745 39.5191 16.6451 39.1765 16.5315H35.7513C35.7513 15.4411 34.267 14.487 33.5248 14.1462V17.8945Z" stroke="black"/>
<path d="M37.1214 28.4578L29.2432 23.6873L27.8732 24.5392H20.3375C19.3784 24.5392 18.5678 24.9935 18.2823 25.2207C17.3233 25.357 16.5126 23.8009 16.2272 23.0058C15.6563 22.3243 14.4459 21.3702 14.1719 23.0058C13.8979 24.6414 15.8846 26.5269 16.9122 27.2652C16.6838 28.1738 16.2956 30.1956 16.5696 31.0134C16.8436 31.8312 16.6838 33.5123 16.5696 34.2506L15.1995 36.1247V42.599C16.8436 44.5072 18.2823 43.3941 18.7961 42.599V37.3173C20.4402 36.3632 21.993 34.4209 22.5639 33.5691H32.4972C32.3602 36.5677 33.1252 39.9298 33.5248 41.236C33.639 42.0311 34.1756 43.6212 35.4087 43.6212C36.6418 43.6212 36.8359 42.2582 36.7788 41.5767C35.6827 36.8062 35.8654 34.0234 36.0938 33.2283L37.1214 31.8653V28.4578Z" stroke="black"/>
<path d="M24.2766 35.7839L21.3651 38.3396L22.0502 41.5767C22.2214 42.4854 22.9064 44.2005 24.2766 43.7916C25.6468 43.3827 25.6467 42.1446 25.4755 41.5767L24.2766 35.7839Z" stroke="black"/>
</svg>
