<?xml version="1.0" encoding="UTF-8"?>
<svg id="Layer_1" data-name="Layer 1" xmlns="http://www.w3.org/2000/svg" version="1.1" viewBox="0 0 1461.5 515.2">
  <defs>
    <style>
      .cls-1 {
        fill: #8fc84e;
        isolation: isolate;
        opacity: .6;
        stroke-width: 0px;
      }

      .cls-2 {
        fill: #7eba45;
        stroke: #8cbe3f;
      }
    </style>
  </defs>
  <path class="cls-2" d="M563,430.5c-219-10.9-462.7-56.7-563-31V0h1461v496c-120.4-86.8-315.8-87.1-398.5-76.4-95.5,12.3-306.5,20.6-499.5,10.9Z"/>
  <path class="cls-1" d="M776.3,165.9l37.6,10.3c5.9,1.6,9.2,7.6,7.5,13.4l-6.9,23.1c-1.7,5.8-7.9,9.2-13.8,7.6l-37.6-10.3c-5.9-1.6-9.2-7.6-7.5-13.4l6.9-23.1c1.7-5.8,7.9-9.2,13.8-7.6Z"/>
  <path class="cls-1" d="M606.4,186.7l38.5-6.8c6-1.1,11.8,2.9,12.9,8.9l4.6,23.6c1.2,6-2.8,11.7-8.7,12.7l-38.5,6.8c-6,1.1-11.8-2.9-12.9-8.9l-4.6-23.6c-1.2-6,2.8-11.7,8.7-12.7Z"/>
  <path class="cls-1" d="M920.8,201.8l36,14.4c5.6,2.3,8.2,8.6,5.8,14.2l-9.8,22.2c-2.4,5.6-9,8.2-14.6,6l-36-14.4c-5.6-2.3-8.2-8.6-5.8-14.2l9.8-22.2c2.4-5.6,9-8.2,14.6-6Z"/>
  <path class="cls-1" d="M836.3,264.3l17.7,6c2.6.9,4,3.7,3,6.3l-4.1,11c-1,2.6-3.9,4-6.5,3.1l-17.7-6c-2.6-.9-4-3.7-3-6.3l4.1-11c1-2.6,3.9-4,6.5-3.1Z"/>
  <path class="cls-1" d="M558.2,280.9l17.1-7.3c2.5-1.1,5.5,0,6.7,2.6l5,10.7c1.2,2.5,0,5.4-2.5,6.5l-17.1,7.3c-2.5,1.1-5.5,0-6.7-2.6l-5-10.7c-1.2-2.5,0-5.4,2.5-6.5Z"/>
  <path class="cls-1" d="M699.5,308.4l18.5-3.3c2.7-.5,5.4,1.3,5.9,4l2.2,11.4c.5,2.7-1.2,5.3-4,5.8l-18.5,3.3c-2.7.5-5.4-1.3-5.9-4l-2.2-11.4c-.5-2.7,1.2-5.3,4-5.8Z"/>
  <path class="cls-1" d="M598.2,380.3l15.5-10.5c2.3-1.5,5.4-1,7,1.3l6.7,9.6c1.6,2.3,1,5.4-1.3,6.9l-15.5,10.5c-2.3,1.5-5.4,1-7-1.3l-6.7-9.6c-1.6-2.3-1-5.4,1.3-6.9Z"/>
  <path class="cls-1" d="M821.4,335.6l16.8,8.3c2.5,1.2,3.5,4.2,2.4,6.7l-5,10.5c-1.2,2.5-4.1,3.5-6.6,2.3l-16.8-8.3c-2.5-1.2-3.5-4.2-2.4-6.7l5-10.5c1.2-2.5,4.1-3.5,6.6-2.3Z"/>
  <path class="cls-1" d="M923.7,322.2l16.8,8.3c2.5,1.2,3.5,4.2,2.4,6.7l-5,10.5c-1.2,2.5-4.1,3.5-6.6,2.3l-16.8-8.3c-2.5-1.2-3.5-4.2-2.4-6.7l5-10.5c1.2-2.5,4.1-3.5,6.6-2.3Z"/>
  <path class="cls-1" d="M943.7,390.2l16.8,8.3c2.5,1.2,3.5,4.2,2.4,6.7l-5,10.5c-1.2,2.5-4.1,3.5-6.6,2.3l-16.8-8.3c-2.5-1.2-3.5-4.2-2.4-6.7l5-10.5c1.2-2.5,4.1-3.5,6.6-2.3Z"/>
  <path class="cls-1" d="M884.2,89.2l40.6,15.6c10.3,3.9,15.2,15.4,10.9,25.6l-9.1,21.7c-4.3,10.2-16.1,15.2-26.4,11.3l-40.6-15.6c-10.3-3.9-15.2-15.4-10.9-25.6l9.1-21.7c4.3-10.2,16.1-15.2,26.4-11.3Z"/>
  <path class="cls-1" d="M713.5,49.9l43.5,6.3c10.9,1.6,18.4,11.7,16.6,22.6l-3.6,22.9c-1.7,10.9-12,18.5-22.9,16.9l-43.5-6.3c-10.9-1.6-18.4-11.7-16.6-22.6l3.6-22.9c1.7-10.9,12-18.5,22.9-16.9Z"/>
  <path class="cls-1" d="M512,117.3l38.9-18.8c9.9-4.8,22.2-.8,27.4,9l11.1,20.9c5.2,9.8,1.3,21.6-8.6,26.4l-38.9,18.8c-9.9,4.8-22.2.8-27.4-9l-11.1-20.9c-5.2-9.8-1.3-21.6,8.6-26.4Z"/>
  <path class="cls-1" d="M1150.6,182l-35.4-16.3c-5.5-2.5-11.9,0-14.4,5.5l-9.6,22.1c-2.4,5.6.1,12.2,5.6,14.7l35.4,16.3c5.5,2.5,11.9,0,14.4-5.5l9.6-22.1c2.4-5.6-.1-12.2-5.6-14.7Z"/>
  <path class="cls-1" d="M1293.5,261.3l-32.6-21.5c-5.1-3.3-12-2-15.4,3l-13.5,19.8c-3.4,5-2.1,11.8,3,15.1l32.6,21.5c5.1,3.3,12,2,15.4-3l13.5-19.8c3.4-5,2.1-11.8-3-15.1Z"/>
  <path class="cls-1" d="M1420.4,393.7l-24.9-29.7c-3.9-4.7-10.7-5.1-15.3-1.1l-18.1,16.2c-4.5,4.1-5,11.1-1.1,15.8l24.9,29.7c3.9,4.7,10.7,5.1,15.3,1.1l18.1-16.2c4.5-4.1,5-11.1,1.1-15.8Z"/>
  <path class="cls-1" d="M1051.7,241.4l-18.6-1.5c-2.8-.2-5.1,1.8-5.3,4.6l-.6,11.7c-.1,2.8,2,5.2,4.7,5.4l18.6,1.5c2.8.2,5.1-1.8,5.3-4.6l.6-11.7c.1-2.8-2-5.2-4.7-5.4Z"/>
  <path class="cls-1" d="M1300.4,366.9l-12.8-13.5c-1.9-2-5.1-2.1-7.2-.3l-8.8,7.8c-2.1,1.8-2.2,4.9-.3,6.9l12.8,13.5c1.9,2,5.1,2.1,7.2.3l8.8-7.8c2.1-1.8,2.2-4.9.3-6.9Z"/>
  <path class="cls-1" d="M1159.7,336.1l-15.6-10.3c-2.3-1.5-5.4-.9-7,1.4l-6.6,9.6c-1.6,2.3-1,5.4,1.3,6.9l15.6,10.3c2.3,1.5,5.4.9,7-1.4l6.6-9.6c1.6-2.3,1-5.4-1.3-6.9Z"/>
  <path class="cls-1" d="M1099,390.1l-15.6-10.3c-2.3-1.5-5.4-.9-7,1.4l-6.6,9.6c-1.6,2.3-1,5.4,1.3,6.9l15.6,10.3c2.3,1.5,5.4.9,7-1.4l6.6-9.6c1.6-2.3,1-5.4-1.3-6.9Z"/>
  <path class="cls-1" d="M1041.9,320.2l-15.6-10.3c-2.3-1.5-5.4-.9-7,1.4l-6.6,9.6c-1.6,2.3-1,5.4,1.3,6.9l15.6,10.3c2.3,1.5,5.4.9,7-1.4l6.6-9.6c1.6-2.3,1-5.4-1.3-6.9Z"/>
  <path class="cls-1" d="M1086.7,71.5l-40-17.2c-10.1-4.4-21.7.4-25.7,10.7l-8.6,21.9c-4,10.3.9,22.1,11,26.5l40,17.2c10.1,4.4,21.7-.4,25.7-10.7l8.6-21.9c4-10.3-.9-22.1-11-26.5Z"/>
  <path class="cls-1" d="M1249.5,93.3l-42.4-11.4c-10.7-2.9-21.5,3.5-24.3,14.2l-5.7,22.4c-2.7,10.7,3.7,21.7,14.4,24.6l42.4,11.4c10.7,2.9,21.5-3.5,24.3-14.2l5.7-22.4c2.7-10.7-3.7-21.7-14.4-24.6Z"/>
  <path class="cls-1" d="M1407.7,235.1l-28.3-32.7c-7.2-8.4-20.1-9.5-28.7-2.6l-18.5,14.8c-8.6,6.9-9.8,19.3-2.5,27.6l28.3,32.7c7.2,8.4,20.1,9.5,28.7,2.6l18.5-14.8c8.6-6.9,9.8-19.3,2.5-27.6Z"/>
  <path class="cls-1" d="M296,220.3l32.4-21.7c5.1-3.4,11.8-2,15,3.2l12.9,20.4c3.3,5.1,1.8,12-3.2,15.4l-32.4,21.7c-5.1,3.4-11.8,2-15-3.2l-12.9-20.4c-3.3-5.1-1.8-12,3.2-15.4Z"/>
  <path class="cls-1" d="M156.1,298.4l32.2-22.1c5-3.4,11.9-2.2,15.4,2.7l13.9,19.6c3.5,5,2.3,11.8-2.7,15.2l-32.2,22.1c-5,3.4-11.9,2.2-15.4-2.7l-13.9-19.6c-3.5-5-2.3-11.8,2.7-15.2Z"/>
  <path class="cls-1" d="M441,192.7l34.2-18.3c5.4-2.9,11.9-.8,14.6,4.7l10.7,21.8c2.7,5.4.5,12.2-4.8,15l-34.2,18.3c-5.4,2.9-11.9.8-14.6-4.7l-10.7-21.8c-2.7-5.4-.5-12.2,4.8-15Z"/>
  <path class="cls-1" d="M397.5,274l18.6-1.9c2.7-.3,5.1,1.7,5.3,4.5l.8,11.7c.2,2.8-1.9,5.2-4.6,5.5l-18.6,1.9c-2.7.3-5.1-1.7-5.3-4.5l-.8-11.7c-.2-2.8,1.9-5.2,4.6-5.5Z"/>
  <path class="cls-1" d="M114.4,367.4l12.5-13.7c1.9-2,5.1-2.2,7.2-.4l9,7.7c2.1,1.8,2.3,4.9.4,6.9l-12.5,13.7c-1.9,2-5.1,2.2-7.2.4l-9-7.7c-2.1-1.8-2.3-4.9-.4-6.9Z"/>
  <path class="cls-1" d="M291.2,370.7l15.5-10.6c2.3-1.6,5.4-1,7,1.2l6.8,9.5c1.6,2.2,1.1,5.3-1.2,6.9l-15.5,10.6c-2.3,1.6-5.4,1-7-1.2l-6.8-9.5c-1.6-2.2-1.1-5.3,1.2-6.9Z"/>
  <path class="cls-1" d="M502.1,336.5l15.5-10.6c2.3-1.6,5.4-1,7,1.2l6.8,9.5c1.6,2.2,1.1,5.3-1.2,6.9l-15.5,10.6c-2.3,1.6-5.4,1-7-1.2l-6.8-9.5c-1.6-2.2-1.1-5.3,1.2-6.9Z"/>
  <path class="cls-1" d="M408.7,352.5l15.5-10.6c2.3-1.6,5.4-1,7,1.2l6.8,9.5c1.6,2.2,1.1,5.3-1.2,6.9l-15.5,10.6c-2.3,1.6-5.4,1-7-1.2l-6.8-9.5c-1.6-2.2-1.1-5.3,1.2-6.9Z"/>
  <path class="cls-1" d="M359.4,104.7l39.6-17.9c10.1-4.5,21.7,0,25.9,10.2l9,21.7c4.2,10.2-.5,22.2-10.6,26.7l-39.6,17.9c-10.1,4.5-21.7,0-25.9-10.2l-9-21.7c-4.2-10.2.5-22.2,10.6-26.7Z"/>
  <path class="cls-1" d="M191,139.6l36.5-24.5c9.2-6.2,21.5-3.6,27.5,5.6l12.6,19.4c6,9.3,3.5,21.7-5.7,27.9l-36.5,24.5c-9.2,6.2-21.5,3.6-27.5-5.6l-12.6-19.4c-6-9.3-3.5-21.7,5.7-27.9Z"/>
  <path class="cls-1" d="M48.6,133.6l36.5-24.5c9.2-6.2,21.5-3.6,27.5,5.6l12.6,19.4c6,9.3,3.5,21.7-5.7,27.9l-36.5,24.5c-9.2,6.2-21.5,3.6-27.5-5.6l-12.6-19.4c-6-9.3-3.5-21.7,5.7-27.9Z"/>
  <path class="cls-1" d="M41.5,274.2l27.7-33.3c7.1-8.5,19.9-9.9,28.6-3.2l18.8,14.5c8.7,6.8,10.1,19.1,3,27.6l-27.7,33.3c-7.1,8.5-19.9,9.9-28.6,3.2l-18.8-14.5c-8.7-6.8-10.1-19.1-3-27.6Z"/>
</svg>