<?xml version="1.0" encoding="UTF-8"?>
<svg id="Layer_1" data-name="Layer 1" xmlns="http://www.w3.org/2000/svg" version="1.1" viewBox="0 0 1587 787">
  <defs>
    <style>
      .cls-1 {
        fill: #ffe6bb;
      }

      .cls-1, .cls-2, .cls-3, .cls-4 {
        stroke-width: 0px;
      }

      .cls-2 {
        fill: #eaf6fc;
      }

      .cls-3 {
        fill: #f7d0d3;
      }

      .cls-4 {
        fill: #cae8f7;
      }
    </style>
  </defs>
  <g>
    <path class="cls-1" d="M801.7,727.6c-429.9-50.5-746.5-3.2-851.1,26.7V8.1h1643v629c-84.8,1.9-362,141-791.9,90.5Z"/>
    <path class="cls-3" d="M1642.6,84.1v539.5l-45.5,145.4-4,12.6c-84.8,1.9-169.5,21-599.5-29.5-41.4-4.9-80.1-10.8-116.4-17.4,0,0,0,0,0,0-55.9-10.3-106-22.4-151.1-35.4-229.6-65.9-330-153.3-408.9-130.7L168.6,84.1h1474Z"/>
    <path class="cls-2" d="M1642.6-7.9v631.5l-45.5,145.4c-92.1-1-268.9-8.9-518.3-33h0c-70.3-6.8-146.4-14.9-228-24.5-42.7-5-84.3-9.1-124.7-12.3-366.1-29-632.2,12-726.4,39V-7.9h1643Z"/>
  </g>
  <path class="cls-4" d="M203.5,376c-4.2-10.8-10.9-34.3-26.1-33.9-4.8.1-9.4,2.5-13.4,6-3.2-10.5-18.1-11-26.8-7.2-10.9,4.8-16.3,18-5.8,26-15.2,5.9-21.4,33.4-15.2,46.4.3.7.9.9,1.5.9,0,0,0,0,0,0,2.8,4.3,9.7,3.9,14.2,4,8.6.2,17.1-.9,25.7-1.3,1,0,2.3-.7,2.4-1.8,0-.6.2-1.3.2-1.9,7.2,7.7,30.4,4.1,39.4,2,19.7-4.5,8-28.1,3.7-39.3h0ZM184.7,350.8c3.6,2.9,6,7,8.1,11.3-.1.1-.3.2-.4.4-3.9,5.8-8.7-.3-10-3.5-.9-2.2-4.8-2.2-4.5.6,0,.2,0,.4.1.6,0,0,0,0,0,0,0,0,0,0,0,0,.2,1.3-.5,2.3-2,2.9-1.8-.9-2.1-3.2-2.4-4.9-.4-2.2-4-2.2-4.4,0-.4,2.3-1.9,8.6-5.2,5.6-1.7-1.5-1.8-4-1.7-6.3,5.9-8,14.6-13.3,22.5-6.8h0ZM133.8,365.8c-2.6-3.5-4.8-7.1-3.6-11.6,1.1-4.1,5-6.9,8.5-8.8,3.9-2.1,8.7-2.8,13-2,5,1,6.5,4.6,8.7,8.5-5.2,6.1-8.8,14.1-9.2,21.1-3.1-3.8-6.9-6.5-11.8-7-1.9-.2-3.7,0-5.4.3,0-.2,0-.3-.2-.5h0ZM140.1,370.9c4.5,1,7.8,4.8,10.3,9.8-.2,0-.5,0-.7,0-2.5.5-3.7,1-5.7-1.7-1.1-1.4-3.3-1.4-3.9.5-1.6,5.3-5.2-.9-6.1-3.4-.7-1.8-3.7-2.2-4.1,0-.4,2.1-1.2,3.8-3.4,4.5-1.6.4-1,.1-.8-1.2,0-.2-.2-.4-.3-.4-.2,0-.4,0-.6,0,3.4-5.9,8.4-9.6,15.4-7.9h0ZM155.6,412.1c-5.1,0-10.1.6-15.2.9-5.7.3-14.5,1.6-19.5-1.7-.6-.4-1.1-.4-1.7-.2-1.1-6.8-.3-18.9,3.4-28.1.3.4.6.7,1,1,3.2,2,6.4,0,8.4-2.7,3,4.2,7.9,6.7,10.8,2.4,2.2,1.6,4.6,1.8,8,1.1.5-.1.8-.4,1.1-.7,3.6,9.2,4.6,21,3.6,28ZM190.4,411.8c-8.9.7-19.5,1.2-28-1.8-.7-.2-1.3,0-1.7.3.4-9.5-1.4-23.1-6.6-32.7.5-.3.9-.8.9-1.6,0-3.8,1.6-8.8,4.2-13.4.4,2.6,1.7,4.9,4.4,6.1,3.7,1.7,6.4-.6,8.1-3.7,2.9,3.3,7.5,3.8,9.7.5,3.8,4,9.2,5.6,13.5,1.3,1.7,4.5,3.2,9.1,4.9,13.1,2.4,5.6,4.7,11,6.2,16.9,2.8,11-7.2,14.2-15.5,14.9h0Z"/>
  <path class="cls-4" d="M119.8,363.7c-2.5.2-3.9,3.7-4.8,5.7-.7,1.6,1.8,2.4,2.7,1.1.6-.9,1.1-1.7,1.8-2.5.8-1,1.7-1.6,1.7-3,0-.7-.7-1.4-1.4-1.4Z"/>
  <path class="cls-4" d="M118,355.4c-1.1.2-2.1,1.7-3.4,1.2-.8-.3-1.6.8-1.1,1.5,1.4,2.2,5.7,1.8,6.4-.8.3-1.2-.8-2.1-1.9-1.9h0Z"/>
  <path class="cls-4" d="M122.1,347.2c-.7-.8-1.3-.8-2.3-1-1-.2-1.9-.7-2.7-1.3-1.3-1-2.7,1.1-1.7,2.2,1.4,1.6,4.8,3.9,6.7,2,.5-.6.5-1.3,0-1.9h0Z"/>
  <path class="cls-4" d="M127.3,338.2c-1.9-1.1-3.6-2.3-5.4-3.5-1.1-.7-2.7.8-1.9,1.9,1.3,1.8,3.5,3.8,5.4,4.9,2.1,1.2,4-2,1.9-3.2Z"/>
  <path class="cls-4" d="M135.5,334.8c-.4-1.1-.9-2.1-1.4-3.2-.6-1.4-.7-2.9-2.3-3.4-.7-.2-1.4.1-1.8.7,0,0-.1.2-.2.3-.4.6-.3,1.4,0,2,.8,1.7,1.9,3.2,2.9,4.7.9,1.4,3.4.5,2.8-1.2h0Z"/>
  <path class="cls-4" d="M143.8,326.4c-.9-1.2-2.4-1.2-3.3,0-.7.9-.2,2.6-.1,3.6.1,1.2.2,2.4.4,3.6.2,1.3,2.4,1.3,2.7,0,.2-1.2.3-2.4.4-3.6,0-1.1.6-2.7-.1-3.6h0Z"/>
  <path class="cls-4" d="M151.8,325.9c-1.3,1.5-1.2,3.4-1.1,5.3.2,2.1,3,2.1,3.2,0,.1-1.4.7-2.7.8-4.1.2-1.5-2-2.3-2.9-1.2Z"/>
  <path class="cls-4" d="M161.3,329.8c-1.6.8-2.4,2.7-3.4,4.1-1,1.4,1.1,2.7,2.2,1.7,1.1-.9,2.3-1.9,3.3-2.9,1.5-1.5-.4-3.7-2.2-2.8h0Z"/>
  <path class="cls-4" d="M169.5,333.6c-2.1.9-2.9,3.8-4.2,5.6-1.1,1.5,1.1,2.8,2.3,1.8.9-.7,1.6-1.6,2.3-2.5.8-1.1,1.7-1.9,1.7-3.3,0-1-1.1-2-2.1-1.6h0Z"/>
  <path class="cls-4" d="M616.9,183.8c-7.9-3-15,.5-20.9,5.7-.6-2-1.2-3.8-1.8-5.3-3.8-10-9.8-19.3-16.5-27.6-.4-.5-1-.6-1.5-.3-.6-.8-1.6-1.3-2.7-.5-11.4,8.5-18.8,21.5-21.3,35.5-5.3-5.6-6.6-12.1-16.7-11.1-6.2.6-10.5,8.5-11.1,14-2.5,22.5,22.2,30.7,40.3,32.7,23.1,2.5,48.2-3.2,57.7-26.6,2.2-5.4.3-14.2-5.6-16.4h0ZM575.8,159.6c0,0,.1-.2.2-.2,3.9,6.6,7.8,13.1,11.3,19.9,2.9,5.7,4.4,10.6,4.8,15.9-12,.9-23.1.1-34.6-3.8,2.9-12.2,6.9-23.3,18.4-31.8h0ZM596,219.6c-9.7,3.7-21.1,3.4-31.2,2.7-10.9-.7-22.1-4.1-30.3-11.5-3.7-3.7-5.7-8.2-5.9-13.6.2-11.1,6.5-13.2,18.9-6.5,1.5,2.2,2.5,2.9,4.4,3.9-.4,3.1-.5,6.3-.4,9.4-.2,1.1,1.5,2.2,2.4,1.6,9.4,5.6,30.4,9.7,38.7,1.5.5.1,1,0,1.5-.4,3.5-2.7,3.9-7.5,3.1-12.2l.8-.8c8.3-9.8,15-8.1,19.9,5.1-2,10.3-13.1,17.3-21.9,20.7h0Z"/>
  <path class="cls-4" d="M1317.1,706.9c-5.2-2-9.8.3-13.7,3.7-.4-1.3-.8-2.5-1.2-3.4-2.5-6.5-6.5-12.6-10.8-18-.3-.3-.7-.4-1-.2-.4-.6-1.1-.8-1.8-.3-7.5,5.5-12.3,14-14,23.2-3.5-3.7-4.3-7.9-10.9-7.2-4.1.4-6.9,5.6-7.3,9.1-1.6,14.7,14.6,20.1,26.4,21.3,15.2,1.6,31.7-2.1,37.9-17.4,1.4-3.5.2-9.2-3.7-10.7h0ZM1290.1,691.1c0,0,0-.1.1-.1,2.5,4.3,5.1,8.6,7.4,13,1.9,3.7,2.9,6.9,3.1,10.4-7.9.6-15.2,0-22.7-2.5,1.9-8,4.5-15.2,12.1-20.8h0ZM1303.4,730.3c-6.4,2.4-13.8,2.2-20.5,1.8-7.2-.5-14.5-2.7-19.9-7.5-2.4-2.4-3.7-5.4-3.9-8.8.1-7.2,4.2-8.6,12.4-4.2,1,1.4,1.7,1.9,2.9,2.5-.2,2-.3,4.1-.2,6.1,0,.7,1,1.5,1.6,1.1,6.2,3.6,20,6.3,25.4,1,.3,0,.7,0,1-.2,2.3-1.8,2.5-4.9,2-8l.5-.5c5.5-6.4,9.8-5.3,13.1,3.3-1.3,6.7-8.6,11.3-14.4,13.5h0Z"/>
  <path class="cls-4" d="M183.2,124.2c-.4-.8-1.5-.4-1.5.4v.4c-1.9-.7-3.7-.6-5.7-.5-2.7,0-5.4,0-8.1,0-1.3,0-2.1,1-2.2,2.2-.2,1.6,0,3.2.2,4.7-.9,3.3.4,7.1,2.7,9.6,3.4,3.8,10.1,4.4,14,1,5.4-4.7,3.2-12.5.7-18h0Z"/>
  <path class="cls-4" d="M222.9,127.5c0-.9-.6-1.5-1.3-1.9v-.2c-.2-1.1-1.4-1.8-2.4-1.8-6-.1-12.4-.5-18,2.2,0,0-.1,0-.2.1-.6.1-1,.5-1.1,1.2-1.2,7.9,2.1,17,11.1,17.8,9.8.9,12.8-9.5,11.9-17.4h0Z"/>
  <path class="cls-4" d="M249.5,104.8c-7.4.6-16.6,5.2-22.1,10.6-6.5-1.2-13.8-1.7-20.3-.9,1.2-2.9.4-6.3-.7-9.5-5.4-15-35.6,3.8-41.7,10.9-.4-.2-.8-.2-1.2,0-23.7,14,4,55.9,24.6,32.2,8.8-10.2,7.6.3,14.4,2.5,6.4,2.1,13.1,1.6,19.6.1,11.5-2.6,11.4-15.8,9.6-26.1,4.2-1.3,7.9-4,12-5.7,4.7-1.9,7.2,2.7,10,5.7,6,6.2,8.2-1.2,8.1-6.8-.2-7.9-3.4-13.9-12.1-13.2h0ZM202.8,107.9c.7,2,.3,7-2.5,4.8-.6-.5-1.3-.9-2.1-1.1-2-.5-2.8-.8-4.5-1.9-4.2-2.8-8.6,4.4-11.4,6.1-2.5,0-5.2.3-7.4.4-1.7,0-3.5.1-5.2.2,9.2-6.2,29.4-18.4,33.1-8.4h0ZM198.4,116.8c-3.6,1.7-7.2,6.2-10.3.5-.2-.3-.4-.5-.6-.6.2-.2.5-.5.7-.7,2.4-2.3,3.4-2,5.8-.7,1.5.8,3,.7,4.4,1.5ZM215.2,147.8c-6.6.8-12.5,0-15.9-6.5-.4-.8-1.5-1.3-2.4-1.5-4.1-1.1-9.1,2.9-11.8,5.6-17.5,17.2-34.8-11.3-21.6-25.4,2.3.7,5.9,0,7.7,0,4.4,0,10.4,1,14.7-.2,1.5,4.6,4.8,6.1,9.7,3.6,5-2.5,8.1-4.6,14.1-5.1,5.4-.5,10.7.4,16.1.7,2.5,11.8,5.5,26.7-10.6,28.7h0ZM248.2,114.5c-5.5-2.2-12.2,4.2-17.4,6.2-.3-1.2-.5-2.3-.8-3.3,0,0,0,0,0-.1,5.1-2.3,9.9-5.4,15.3-7.2,3.2-1.1,7.5-2.1,10.3.4,3,2.7.4,11.5,2.3,12.5-3.8-1.9-5.5-6.8-9.7-8.4h0Z"/>
  <path class="cls-4" d="M1042.2,640c-.3-.6-1.2-.3-1.2.3v.4c-1.5-.6-2.9-.4-4.5-.4-2.1,0-4.3,0-6.4,0-1,0-1.6.8-1.7,1.7-.1,1.3,0,2.5.2,3.7-.7,2.6.4,5.6,2.1,7.6,2.7,3,8,3.5,11.1.8,4.3-3.7,2.5-9.9.5-14.2h0Z"/>
  <path class="cls-4" d="M1073.7,642.7c0-.7-.5-1.2-1-1.5v-.2c-.2-.9-1.1-1.4-1.9-1.5-4.8,0-9.8-.4-14.3,1.8,0,0,0,0-.1.1-.4,0-.8.4-.9.9-1,6.2,1.6,13.5,8.8,14.1,7.7.7,10.1-7.6,9.4-13.8h0Z"/>
  <path class="cls-4" d="M1094.8,624.6c-5.8.5-13.1,4.1-17.5,8.4-5.2-1-10.9-1.4-16.1-.7,1-2.3.4-5-.5-7.5-4.3-11.9-28.2,3-33.1,8.7-.3-.1-.6-.2-1,0-18.8,11.1,3.2,44.3,19.5,25.5,7-8.1,6,.2,11.4,2,5,1.7,10.4,1.3,15.5.1,9.1-2,9-12.5,7.6-20.7,3.3-1,6.3-3.2,9.5-4.5,3.7-1.5,5.7,2.2,7.9,4.5,4.8,4.9,6.5-1,6.4-5.4-.1-6.3-2.7-11-9.6-10.5h0ZM1057.8,627.1c.6,1.5.3,5.5-2,3.8-.5-.4-1-.7-1.7-.9-1.5-.4-2.3-.7-3.6-1.5-3.4-2.2-6.8,3.5-9,4.8-2,0-4.1.3-5.9.3-1.4,0-2.8,0-4.1.2,7.3-4.9,23.3-14.6,26.2-6.7h0ZM1054.3,634.2c-2.9,1.4-5.7,4.9-8.2.4-.1-.2-.3-.4-.5-.4.2-.2.4-.4.6-.6,1.9-1.8,2.7-1.6,4.6-.6,1.2.6,2.3.6,3.5,1.2ZM1067.6,658.7c-5.2.6-9.9,0-12.6-5.2-.3-.6-1.2-1-1.9-1.2-3.2-.9-7.2,2.3-9.4,4.4-13.9,13.6-27.6-9-17.2-20.1,1.8.6,4.7,0,6.1,0,3.5,0,8.2.8,11.7-.1,1.2,3.7,3.8,4.8,7.7,2.9,4-2,6.4-3.6,11.2-4,4.3-.4,8.5.3,12.8.6,2,9.4,4.3,21.1-8.4,22.7h0ZM1093.7,632.3c-4.3-1.7-9.7,3.3-13.8,4.9-.2-.9-.4-1.8-.6-2.6,0,0,0,0,0-.1,4.1-1.8,7.9-4.2,12.1-5.7,2.5-.9,6-1.7,8.2.3,2.4,2.2.3,9.1,1.9,9.9-3-1.5-4.3-5.4-7.7-6.7h0Z"/>
  <path class="cls-4" d="M428.1,558.9c1.5-6,.5-10.2-2.4-13,1.3-1.1,2.1-2.6,3-4.1,1.7-2.6,3.5-5.1,5.3-7.7,1.1-1.5-.4-3.3-2-3.5-4.6-.4-10.2-3.1-14.9-2-5,1.2-10.3,6.7-12.6,11.1-.2.4-.3.8-.2,1.1-6.9-.1-13.8,0-20.8-.7-9.1-1.1-21.8-2.5-30.2,2.5-7.2,4.3-12.3,9.7-20.1,13.5-2.3,1.1-8.8,3.3-7.7,7.4,3.6,13,26.9,10.9,36.3,8.9.1,0,.2-.1.3-.2,7.2,5.8,16.6,9.9,24.8,13.2,7.5,3,21.4,9.1,27.6.3,6.1-8.6-4.2-16.2-11.8-20.4,1-.2,2-.5,3-.7,1.6-.3,3.2-.6,4.8-.8.4.4.9.6,1.6.5.3,0,.6-.1.9-.2,6,4.3,11.9,9.3,19.7,6.4,1.2-.5,2-1.6,1.7-2.9-.9-3.9-2.9-7.1-6.3-8.7h0ZM349.9,551.8c2-3.4,5.2-5.5,9-6.7-.3,3.6-1.3,6.2-4.8,8.2-1.2.6-2.7,1.1-4,1.2-.6,0-1.4,0-2,.3,0,0-.2,0-.2-.1.8-.8,1.5-1.6,2.1-2.8h0ZM404.8,585.6c-13.8.3-29.6-9.8-41.6-16.9,6.2-.3,11.9-2.6,17.8-3.4,4.8,4.5,9.9,8.7,14.9,12.9,2.7,2.2,6,5.6,9.5,7.3-.2,0-.4,0-.7,0h0ZM404.5,572.2c2,1.3,4.1,3.5,5.4,5.7-1-1.1-2.2-2.1-3.3-3-1.2-1.4-2.5-2.7-3.9-3.8.6.4,1.2.7,1.8,1.1h0ZM423.7,557.9c-2.2,0-4.4.4-6.6,1.1-2.6-.5-5.4,0-8.1.5-3.5.6-9,.6-11.6,3,0,0-.1.2-.2.3-11.1-4.5-26.7-4.5-36.7,2.1-1.1.7-1.2,2.1-.6,3-.6.5-.9,1.3-.4,2-1.4-.2-2.5-.3-4.6-.5-2.8-.2-5.6-.3-8.4-.4-2.1.3-4,.2-5.7-.3,1.5-3.4,2-7.2.8-10.6,2-.7,3.8-1.4,5.5-2.7,0,.2.2.4.3.5,0,0,0,0,.2.3.3.4.6.6,1,.8,1.9.8,4.2.3,6.1-.2,5.3-1.6,9-7,7.9-12.5,10.1-1.8,23,.9,30.6,1.8,8.7,1,33.7-4.9,30.5,12h0Z"/>
  <path class="cls-4" d="M373.8,548.1c-1.1-.9-3.7-2.2-5-.8-.3.3-.5.7-.8,1h0c-1.1.6-1.7,1.7-1.9,3-.1,1,.4,2.2,1.6,2.1,1.2-.1,1.7.2,2.7.1,1.5-.1,2.4-1.7,3.3-2.8.6-.7.8-1.9,0-2.6h0Z"/>
  <path class="cls-4" d="M386.2,551.1c-.5-1.5-1.9-1.8-3.4-1.7-.1,0-.3-.1-.4-.1,0-.3,0-.7-.1-1-.2-1.3-2.1-1.1-2.4,0-.5,1.7-1.3,3.2-1.5,5-.1,1.3,1.3,2.1,2.5,1.9,1.7-.3,6.3-1.3,5.3-4.1Z"/>
  <path class="cls-4" d="M397,550.5c0-.2-.2-.4-.4-.6,0-1.1-.3-2-1-2.5-.6-.3-1.5-.4-2,0,0,0-.1.2-.2.2-1.5.5-2.6,2.1-2.5,3.6-.2.8,0,1.8.1,2.6.2.8,1,1.3,1.8,1.4h.3c.7.2,1.4,0,1.9-.5.3-.3.5-.8.8-1.4,1-.5,1.6-1.5,1.2-2.9h0Z"/>
  <path class="cls-4" d="M409.7,552c0-.2-.1-.3-.2-.5,0,0,0,0,0,0-.1-.3-.3-.5-.5-.7-1-1.3-2.3-2.4-4-2-1.4.4-2,1.6-1.9,2.9-.5.8-.2,1.8.6,2.3.2.2.5.3.7.5.5.8,1.6,1.3,2.5.6,1.2-.8-.1.1.4-.3.1-.1.3-.2.4-.3q0,0,.2,0c1.1,0,2.2-1,1.8-2.5h0Z"/>
</svg>