<?xml version="1.0" encoding="UTF-8"?>
<svg id="Layer_1" data-name="Layer 1" xmlns="http://www.w3.org/2000/svg" version="1.1" viewBox="0 0 1920 1080">
  <defs>
    <style>
      .cls-1 {
        fill: #ffe6bb;
      }

      .cls-1, .cls-2, .cls-3 {
        stroke-width: 0px;
      }

      .cls-2 {
        fill: #f7d0d3;
      }

      .cls-3 {
        fill: #cae8f7;
      }
    </style>
  </defs>
  <path class="cls-2" d="M1617.7,375.9c0-1.4-.8-2.6-1.9-3.3.1-.1.2-.3.3-.6.6-7.4,0-14.3-7.4-17.7-7.5-3.5-18.2-1.8-26.1-.8-14.1,1.8-19.4,18.4-13.6,30.3-.2.6,0,1.4.9,1.5,1.1,0,2.2.1,3.2-.3.2,0,.3-.1.4-.2,1.6,3.4,5.6,4,8.8,2.6,1.5-.7,2.6-1.6,3.2-2.8,4.6.3,9-.3,13.6-.7,1.2,2.5,3.7,4.7,6.5,4.3,1.8-.2,3.1-1.6,3.9-3.1.2-.4.4-.8.5-1.2,0,.4.3.8.8.9,1.3.2,2.5,0,3.8,0,.5,0,1-.4,1.2-.9.4-1.6.9-3.5.4-5.2.2,0,.4-.1.6-.2.8-.5.9-1.6.8-2.4ZM1578.3,357.3c-.8,1.5-.8,4.6-1,5.3-.2,1.4-.4,2.9-2,3.1-1.5.2-3.1,0-4.7,0,1.4-3.6,3.9-6.6,7.6-8.4ZM1581.7,385.2c-2.2,1.1-4.9.8-6.1-1.4-1.2-2.3.5-4.4,2.1-5.9,2.2-.4,4.5,0,5.8,2,1.5,2.1.3,4.2-1.8,5.3h0ZM1569.3,371.8c.1-1.6.4-3.1.9-4.6,0,0,.1,0,.2,0,2.3.6,6.7,1.6,8.2-.8.9-1.4,1.2-3.1,1.4-4.7,0-.8.2-1.7.3-2.5,0-.4.1-.7.2-1.1,0-.5,0-.2,0-.2.3-.4,0-1-.3-1.3,0,0-.1,0-.2,0,1.4-.5,3-.9,4.8-1.1,4.9-.6,9.9-.6,14.8-.4,1.4,0,2.9.2,4.2.5-1.2,1.5-1.4,4.5-1.4,5.9,0,3.2.8,7.9,3.6,9.9-12.2.8-24.5-.5-36.8.5h0ZM1604.8,385.9c-1.9-.1-3.5-2.4-4-4-.3-.9-.4-1.8-.1-2.6.2-.5.5-.8.9-1,.2,0,.3.1.5,0,0-.1.2-.2.3-.3.2-.1.5-.2.7-.4.2-.1.3-.3.4-.5.6-.3,1.3-.4,2.1,0,1.3.7,2.3,1.9,2.8,3.4.7,2.2-.8,5.7-3.4,5.6h0ZM1612.8,370.7c-1.8.3-3.6.4-5.4.6,0-.2,0-.3-.2-.5-2-2.1-2.4-5.2-2.5-8-.2-2.7.5-4.4,1.6-6.7.9.3,1.9.6,2.8,1.1,5.4,2.5,4.8,9.2,4.9,14.1-.3-.4-.7-.6-1.3-.5h0ZM1615.8,376.7c-.1,0-.4,0-.6-.1-.6-.2-1.2-.8-1.5-1.4-.2-.5,0-1,.3-1.4,1,.4,1.7,1,1.8,2.1,0,.2,0,.6,0,.8Z"/>
  <path class="cls-2" d="M1597,356.6c-3.9-.3-7.6.7-11.4,1.2-.5,0-1.2.3-1.2.9-.4,2.6-.4,5.2-.4,7.8,0,0-.1,0-.2.1-.2.2-.2.4,0,.6,0,0,.2.1.3.2.3.7,1.2.9,1.8.5,1.1,0,2.3,0,3,0,2.7,0,5.4.1,8.1.2.7,0,1.2-.6,1.2-1.2,0-3,0-6,0-9,0-.7-.6-1.2-1.3-1.3h0ZM1586.5,365.9c0-1.9,0-3.8.3-5.7,3-.5,6-1.1,9-1.1,0,2.2,0,4.4,0,6.6-2.3,0-4.6,0-6.8.1-.7,0-1.6,0-2.5,0Z"/>
  <path class="cls-1" d="M1513.1,685.7c-3.3-2.8-6.3-5.9-9.4-9,2.6.6,5.8,0,8.4-.3.9-.1,1.2-1.5.5-2-3-2.4-5.6-5.2-8.3-8,1.8-1,3.6-2.3,5.2-3.6.2-.2.3-.5.4-.8.3-.2.6-.5.6-1,0-2.3-2-4.6-3.3-6.4-2.5-3.2-5.2-6.1-7.8-9.1-.5-.5-1.4-.5-1.9,0-4.3,4.9-7.9,10.3-11.7,15.6-.3.4-.2,1,.2,1.4l.2.2c0,.1.2.2.3.2-.1.4,0,.8.4,1,.7.4,1.6.6,2.4.9.2.1.5.2.8.3.4.3.8.6,1.2.8-1.8,3.9-5.1,6.9-8.2,10-.8.8-.2,2.1.9,2.1,1.7,0,3.4,0,5.1-.1-1.5,2.7-3.8,4.9-6,7.1-.6.6-.4,1.9.6,2.1,5.1.8,10.2,1,15.3,1,0,1.1.1,5.4-1.7,5-.3,0-.6-.2-.8-.4,0,0-.2-.1-.3-.2,0,0,0,0,0-.1,0-.2-.1-.4-.2-.7-.2-1-.4-2.1-.8-3-.3-.6-1.2-.7-1.4,0-.4,1.3,0,2.8.2,4.1.1.5.3,1.1.8,1.4.3.1.4.1,0,0,.2.2.4.3.7.5.4.2.9.4,1.3.5,3.8.8,4.7-4.6,4.4-7.3,3.7,0,7.3-.1,11-.2,1.1,0,1.8-1.4.9-2.2h0Z"/>
  <path class="cls-3" d="M356.3,392c-2.5-13.7-15.4-22.4-28.9-21.7-15,.8-24.6,15.3-24.8,29.2-.2,16.8,16.1,27.1,31.4,25.4,0,0,.1,0,.1,0,.2,0,.4,0,.6,0,15.9-4.6,24.5-16.2,21.5-32.9h0ZM321.6,420.7c-5.2-2-9.7-5.3-12.6-10.3.1-.1.2-.3,0-.5-1-2.8,2-4.3,3-6.4.3-.6.2-1.5.2-2,.2-2.5.4-4.1,2-6.2,1.4-2,1.9-4.1,2.2-6.5.5-4.6-1.6-5.6,3.1-10.5,1.4-1.4,2.9-2.5,4.2-4,0,0,0-.2.1-.2.7-.2,1.4-.4,2.1-.5.7,3.1-1.7,4.9-1.7,7.9s5.6,4.4,2.6,7.1c-1.3,1.2-3.3,3.7-3.7,5.2-.9,3.4-.1,7.3-4.1,3.1-.5-.5-1.3-.3-1.7.2-5.5,8.3,9.9,16.4,4.1,23.7ZM342.4,418.4c-.5-2.3-3.3-4.6-2.8-6.9.1-.7.7-1.1,1.5-1.4,2.9.4,5.8.6,8.7.8.3,0,.6,0,.8-.3-2,3.1-4.8,5.7-8.2,7.7ZM348.1,396.2c-.6.4-1.6.6-2.1,1.2-.6.7-2.3,4.4-2.8-.6-.7-6-5.5-13.9.4-18.9,0,0,0,0,.1-.1,4.3,3.2,7.6,7.8,9.3,13,.5,1.6.9,3.2,1.1,4.8-2.1-.4-4.1-.5-6,.7h0Z"/>
  <path class="cls-2" d="M642.7,197.8c1.1-1,0-3.2-1.4-2.2,0,0-.2.1-.3.2,0-.2,0-.5-.1-.8-2-4.1-8.1-5.8-12.9-5.4,0-.8-.2-1.5-.3-2.3-.1-.8-1.1-1.3-1.8-1-4.4,1.5-8.7,3.1-12.8,5.2-.6-.1-1.3.1-1.6.8-.3.2-.6.3-.9.5,0,0,0,0-.1,0-.3.2-.6.5-.6.9,0,0,0,.1,0,.2h0c.1,1.2.3,2.3.4,3.5-1.1.5-2.2,1.1-3.3,1.5-4.5,1.9-8.7,3.9-12.4,7-.8-.3-1.7,0-1.7,1-.2,9-2,18-.7,27-.3.2-.4.7-.1.9h0c0,0,.2.2.3.2,0,.1,0,.2,0,.4.1.6.8.7,1.2.5,1.3.8,2.9,1.3,4.2,1.8.1,0,.2.1.4.2,0,0,0,.1-.1.2-.7,3.1.8,5.9,4.2,6.2,3.4.2,5.6-2.9,5.7-6,2.6,0,8.8-3.7,11-4.4,2.1-.8,4.6-1.2,7.1-1.7.2,1.8,1.6,3.2,3.9,3,3-.3,5.4-2.8,5.9-5.6,1.2-.6,2.4-1.3,3.3-2.1,3.1-2.7,3-5.9,2.9-9.7-.2-6.5,1.8-13.6.6-20h0ZM631.3,192.2c.8.2,1.5.5,2.2.9-1.7.4-3.4,1.1-5.1,1.9,0-1-.1-2-.2-3,1-.1,2,0,3.1.2ZM623.7,195.2c0,.7,0,1.4,0,2.2-1.6.8-3.2,1.6-4.8,2.2-1.4.5-2.8,1-4.2,1.6,0-.4,0-.8,0-1.1,0-.5,0-1.1,0-1.6.8-.4,1.7-.7,2.5-1.1,2.2-1,4.4-2.6,6.6-3.8,0,.5,0,1.1,0,1.6h0ZM623.6,190.2v.6c-3.1,1.4-6.1,3-9.2,4.6,0-.5,0-.9,0-1.3,3-1.5,6.1-2.7,9.2-3.8h0ZM612.1,204.6c.8.5,2,.2,2.2-.8,0,0,0,0,0-.1,2.2-.9,4.4-1.7,6.5-2.5,1.2-.4,2.4-.9,3.5-1.4,0,0,0,0,0,0,.5.7,1.4.7,1.9.3.9,1.1,2.9.3,2.6-1.4,0-.3-.1-.7-.1-1,2.4-1.1,4.8-2.2,7.4-3.1,1.1.7,2.2,1.4,3.4,1.9.1,0,.2,0,.3,0-4.3,2.6-9.2,4-13.8,6.1-7.2,3.2-13.4,7.3-21.3,8.9,0,0,0,0,0,0-.7-.5-1.3-1-2-1.5,2.9-2.2,6.2-4,9.5-5.5h0ZM610.7,200.2c.1.8.3,1.6.5,2.4-3.7,1.7-7.2,3.7-9.9,6.7-1.6-.9-3.2-1.8-4.8-2.5,4.6-2.5,9.5-4.5,14.3-6.6h0ZM598.5,235.8c-1.4-.6-3-1.3-4.5-1.7-.7-8.5.7-16.9,1.1-25.4,1.3.6,2.6,1.3,3.9,2-2.2,7.8-1.9,17-.4,25ZM604.6,238.2c0,0-.1-.2-.3-.2-1.4-.9-3.2-1.3-4.8-1.8-.7-8.2.2-16.3,1.1-24.4,1,.6,2.1,1.2,3.1,1.8.3,8.3,1.5,16.4.9,24.7h0ZM639.4,220.9c0,6-8.5,7.3-13,8.4-2.1.5-17,3.6-20,7.6.6-4.2.6-8.3.4-12.5-.2-2.9-.4-5.8-.5-8.7-.1-2.4,6-3.4,7.4-3.9,4.7-1.8,9.1-4.4,13.5-6.7,4.3-2.2,8.9-3.2,13-5.6-.4,4.9-.8,9.8-.9,14.6,0,2.3,0,4.6,0,6.9Z"/>
  <path class="cls-2" d="M622.7,214.9c-.1-.4-.5-.8-.9-.9-2.9-.6-6.1-1.1-9-.3-2.7.8-4.3,4.5-1.9,6.5,0,0,.2,0,.3.1,0,.2.2.3.3.4,0,0,.3.3.7.4.9,0,1.9,0,2.8,0,2.1,0,4.3,0,6.4,0,.5,0,1-.4,1.1-.9.5-1.7.5-3.6,0-5.4h0ZM612.7,219.3c0-.9-.7-1.8-.2-2.6.4-.6,1.7-.8,2.3-.8,1.9-.2,3.8,0,5.7.4.1.8.2,1.7,0,2.5-1.8,0-3.6.2-5.4.3-.8,0-1.6.1-2.4.2Z"/>
  <path class="cls-2" d="M634.8,220.1c-.6-2.1-3.2-4.6-5.6-3.5-.5.2-.6.7-.5,1.1-1.1.7-1.9,2-2.1,3.4-.4,3.1,3,4.8,5.6,4.3,2.5-.4,3.1-3.3,2.6-5.3ZM631.9,223.1c-1.2.7-3-.4-3.1-1.7-.1-1,.4-2,1.2-2.6.5,0,.9.1,1.3.4.5.3.8.8,1.1,1.3.4.8.4,2.1-.5,2.6h0Z"/>
  <path class="cls-1" d="M775,769.1c-1.3-4.6-19.1-5.3-22.8-5.9-5.8-.9-11.6-1.7-17.4-2.3-2.6-.3-6.7-1.3-9.2,0,0,0-.1,0-.2-.1-.5-.3-1,0-1.2.5-.4.1-.7.5-.6.9,3.8,12.2,6.8,25.8,14.5,36.3.5.8,1.4.9,2.2.3,2.2-1.8,4.2-3.7,6.3-5.6.1.4.4.7.9.7,3.8.3,8,.9,11.7,2.2,0,.1.2.3.2.4.7,1.2,2.4.6,2.5-.7.2-3.1,0-6.2-.2-9.2-.2-2.7,0-5.7-.4-8.4,0,0,0,0,0-.1,1.5-.4,3.1-1.5,4.2-2.2,2.6-1.5,5.1-3.2,7.8-4.7.3-.2.5-.4.6-.7h0c.7,0,1.3-.7,1.1-1.4h0ZM745.8,773.1c2.5,1.3,9.9,7,12.9,5.4.3-.2.4-.4.4-.7,0,0,0,0,0,0,0,0-.1.2-.2.3-.8,2.2-.2,5,0,7.3.1,2,.2,3.9.3,5.8-1.6-2.5-3.3-4.9-5.1-7.3,0-.3,0-.6-.3-.8-4.2-4.4-9.6-8.1-14.3-11.8-1.7-1.3-3.4-2.7-5.2-4.1,3.8,1.9,7.6,3.8,11.4,5.9h0ZM739.6,795.6c-6.4-9.5-8.4-20.8-13.1-31.1,1,.8,2.3,1.6,2.8,2,2.8,2.2,5.5,4.5,8.4,6.7,4.5,3.5,8.9,8.2,13.9,11.1-3.9,3.9-7.8,7.7-12,11.3ZM748,791.7c1.9-1.8,3.8-3.7,5.7-5.5,1.1,2.2,2.3,4.3,3.5,6.4-3-.8-6.4-1.3-9.2-.8ZM764.5,773c-1.2.7-2.4,1.4-3.6,2.2-.4.3-.9.5-1.2.8-.3.2-1.1.8-.4.7-.2,0-.3.2-.3.3,0,0-.1-.1-.2-.2-4.5-2.6-9.4-4.8-14-7.3-2.9-1.5-5.7-3.3-8.6-4.9,5.2.5,10.7.6,15.4,1.4,4.9.8,9.8,1.6,14.7,2.6,1.1.2,2.4.7,3.8,1.1-1.8,1.1-3.6,2.2-5.4,3.3h0Z"/>
  <path class="cls-1" d="M755.9,810.8c-.2-.7-.9-1.1-1.4-1.5-.8-.6-1.6-1.3-2.4-2-.6-.5-1.3-1.1-2-1.6-.4-.3-.8-.3-1.1-.6-.3-.2-.8.2-.6.6.2.3.3.6.5.9.6.7,1.2,1.3,1.9,1.9.7.7,1.5,1.4,2.3,2.1.6.5,1.2,1.2,2,1.2.6,0,1-.6.8-1.1h0Z"/>
  <path class="cls-1" d="M762.7,809.3c-.8-.9-2-1.3-2.9-2-1.2-.9-2.3-2-3.5-3-.6-.5-1.4.2-.9.9.9,1.1,2,2.2,3,3.1,1,.9,2.2,2.1,3.5,2.3.7,0,1.3-.7.7-1.2h0Z"/>
  <path class="cls-1" d="M768.7,806.7c-.2-.5-.5-.6-1-.8-.5-.2-.9-.6-1.4-.9-1-.7-2-1.5-2.9-2.3-.6-.5-1.4.3-.9.9.9,1,1.9,1.9,2.9,2.7.8.7,1.8,1.7,2.9,1.5.5,0,.6-.7.4-1.1Z"/>
  <path class="cls-1" d="M773.1,801c-.5-.2-1.6-1.1-2.3-1.6-1.1-.8-2.1-1.7-3.1-2.6-.7-.6-1.5.3-1,1,1,1.1,2.1,2.2,3.2,3.1.8.7,1.8,1.7,2.9,1.4.6-.1.7-1,.2-1.3h0Z"/>
  <path class="cls-1" d="M775,793.9c-.6-.8-1.8-1.2-2.6-1.8-1.1-.8-2.1-1.8-3-2.8s-1.3.2-.9.7c.8,1.1,1.7,2.1,2.7,3,.8.8,1.9,2,3.1,2.2.9.2,1.4-.8.8-1.4h0Z"/>
  <path class="cls-1" d="M775.5,787.6c-1.6-.7-3.1-1.6-4.4-2.8-.4-.4-1.1.1-.8.6.6,1.1,1.5,1.9,2.5,2.7.8.6,1.5,1.2,2.5.9.6-.2.8-1.1.2-1.4h0Z"/>
  <path class="cls-1" d="M779.6,783.6c-.4-1-2.1-1.5-3.1-2.1-.7-.4-2.2-1.6-3.1-1.2,0,0,0,0,0,0,0,0,0,0,0,0h0c-.2,0-.3.3-.2.5-.1-.3,0,.4,0,.5.1.2.3.3.5.5.5.4,1.1.8,1.7,1.2.9.6,2.4,2.1,3.5,1.9.5,0,1-.8.8-1.3h0Z"/>
  <path class="cls-2" d="M1114.3,848c2.5-4.1,19.8-.1,23.5.3,5.8.6,11.6,1.4,17.4,2.3,2.6.4,6.8.5,8.9,2.4,0,0,.2,0,.2,0,.6-.2,1,.3,1.1.8.4.2.6.6.3,1-6.8,10.8-13.3,23.1-23.5,31.2-.7.6-1.6.5-2.2-.3-1.6-2.3-3.1-4.7-4.6-7.1-.2.3-.6.6-1.1.5-3.8-.7-8-1.3-11.9-.9-.1.1-.2.2-.3.3-1,.9-2.5,0-2.2-1.3.6-3,1.6-5.9,2.6-8.9.9-2.6,1.4-5.5,2.6-8,0,0,0,0,0-.1-1.4-.7-2.6-2.3-3.5-3.2-2.1-2.1-4.1-4.4-6.3-6.5-.3-.2-.4-.5-.4-.8,0,0,0,0,0,0-.7-.2-1-1-.7-1.6h0ZM1141.5,859.5c-2.7.6-11.4,4.2-13.9,1.8-.2-.2-.3-.5-.2-.8,0,0,0,0,0,0,0,.1,0,.2,0,.3.2,2.3-1.1,4.9-1.8,7.1-.6,1.9-1.3,3.7-1.8,5.6,2.2-2,4.5-3.9,6.8-5.7,0-.3.2-.5.5-.7,5.2-3.1,11.4-5.3,16.9-7.6,2-.8,4-1.7,6.1-2.6-4.2.8-8.3,1.7-12.5,2.7h0ZM1141.6,882.9c8.7-7.4,13.6-17.9,20.8-26.6-1.2.5-2.6,1-3.2,1.2-3.3,1.4-6.5,2.9-9.8,4.3-5.3,2.2-10.7,5.6-16.3,7,2.8,4.8,5.5,9.5,8.6,14.1ZM1134.5,876.9c-1.4-2.3-2.7-4.5-4-6.8-1.6,1.8-3.3,3.5-5.1,5.2,3.1,0,6.5.5,9.1,1.6ZM1123.5,854.5c1,1,2,2,2.9,3.1.3.4.7.7,1,1.1.3.3.8,1.1.2.8.2,0,.2.2.3.4,0,0,.1-.1.2-.1,5-1.3,10.3-2.2,15.4-3.3,3.1-.7,6.4-1.7,9.6-2.5-5.2-.9-10.5-2.2-15.2-2.7-4.9-.6-9.9-1-14.8-1.3-1.2,0-2.5,0-3.9,0,1.5,1.5,2.9,3,4.4,4.6h0Z"/>
  <path class="cls-2" d="M1121.8,893.3c.4-.6,1.1-.8,1.8-1.1,1-.4,1.9-.8,2.8-1.3.8-.3,1.5-.7,2.3-1,.4-.2.9-.1,1.2-.2.4-.1.7.4.4.7-.3.2-.4.5-.7.7-.7.5-1.5,1-2.3,1.4-.9.5-1.8,1-2.7,1.5-.7.4-1.5.9-2.3.7-.5-.1-.8-.8-.5-1.3h0Z"/>
  <path class="cls-2" d="M1115.7,890.1c1-.6,2.3-.8,3.3-1.2,1.4-.6,2.7-1.4,4.1-2,.7-.3,1.2.6.6,1.1-1.2.9-2.5,1.6-3.7,2.2-1.1.6-2.7,1.5-4,1.3-.7,0-1.1-1-.4-1.4h0Z"/>
  <path class="cls-2" d="M1110.6,886c.3-.4.7-.4,1.2-.5.5,0,1.1-.3,1.6-.5,1.2-.4,2.3-1,3.4-1.5.7-.3,1.3.6.6,1.1-1.1.7-2.3,1.3-3.5,1.8-1,.4-2.2,1.2-3.2.7-.5-.2-.4-.8-.1-1.2Z"/>
  <path class="cls-2" d="M1107.8,879.3c.6,0,1.8-.6,2.6-.9,1.3-.5,2.5-1.1,3.7-1.7.8-.4,1.4.7.7,1.2-1.3.8-2.6,1.5-4,2.2-1,.5-2.1,1.2-3.2.6-.5-.3-.4-1.2.2-1.3h0Z"/>
  <path class="cls-2" d="M1107.9,872c.8-.6,2.1-.7,3-1,1.3-.4,2.5-1.2,3.6-1.9.6-.4,1.3.5.7,1-1.1.9-2.2,1.6-3.4,2.2-1,.5-2.4,1.4-3.5,1.3-.9,0-1.1-1.1-.4-1.6h0Z"/>
  <path class="cls-2" d="M1109,865.7c1.7-.3,3.4-.8,4.9-1.6.5-.3,1,.4.6.8-.9.9-2,1.5-3.1,2-.9.4-1.8.8-2.7.2-.5-.3-.5-1.3.2-1.4h0Z"/>
  <path class="cls-2" d="M1106.1,860.8c.7-.9,2.5-.9,3.6-1.2.8-.2,2.6-1,3.3-.4,0,0,0,0,0,0,0,0,0,0,0,0h0c.2.1.2.4,0,.6.2-.3-.1.4-.2.5-.2.2-.4.2-.6.3-.6.3-1.3.5-1.9.7-1,.4-2.8,1.4-3.9.9-.5-.2-.7-1-.4-1.5h0Z"/>
  <path class="cls-2" d="M208,859.5c1.1-1,0-3.2-1.4-2.2,0,0-.2.1-.3.2,0-.2,0-.5-.1-.8-2-4.1-8.1-5.8-12.9-5.4,0-.8-.2-1.5-.3-2.3-.1-.8-1.1-1.3-1.8-1-4.4,1.5-8.7,3.1-12.8,5.2-.6-.1-1.3.1-1.6.8-.3.2-.6.3-.9.5,0,0,0,0-.1,0-.3.2-.6.5-.6.9,0,0,0,.1,0,.2h0c.1,1.2.3,2.3.4,3.5-1.1.5-2.2,1.1-3.3,1.5-4.5,1.9-8.7,3.9-12.4,7-.8-.3-1.7,0-1.7,1-.2,9-2,18-.7,27-.3.2-.4.7-.1.9h0c0,0,.2.2.3.2,0,.1,0,.2,0,.4.1.6.8.7,1.2.5,1.3.8,2.9,1.3,4.2,1.8.1,0,.2.1.4.2,0,0,0,.1-.1.2-.7,3.1.8,5.9,4.2,6.2,3.4.2,5.6-2.9,5.7-6,2.6,0,8.8-3.7,11-4.4,2.1-.8,4.6-1.2,7.1-1.7.2,1.8,1.6,3.2,3.9,3,3-.3,5.4-2.8,5.9-5.6,1.2-.6,2.4-1.3,3.3-2.1,3.1-2.7,3-5.9,2.9-9.7-.2-6.5,1.8-13.6.6-20h0ZM196.6,853.9c.8.2,1.5.5,2.2.9-1.7.4-3.4,1.1-5.1,1.9,0-1-.1-2-.2-3,1-.1,2,0,3.1.2ZM189,856.9c0,.7,0,1.4,0,2.2-1.6.8-3.2,1.6-4.8,2.2-1.4.5-2.8,1-4.2,1.6,0-.4,0-.8,0-1.1,0-.5,0-1.1,0-1.6.8-.4,1.7-.7,2.5-1.1,2.2-1,4.4-2.6,6.6-3.8,0,.5,0,1.1,0,1.6h0ZM188.9,851.8v.6c-3.1,1.4-6.1,3-9.2,4.6,0-.5,0-.9,0-1.3,3-1.5,6.1-2.7,9.2-3.8h0ZM177.4,866.3c.8.5,2,.2,2.2-.8,0,0,0,0,0-.1,2.2-.9,4.4-1.7,6.5-2.5,1.2-.4,2.4-.9,3.5-1.4,0,0,0,0,0,0,.5.7,1.4.7,1.9.3.9,1.1,2.9.3,2.6-1.4,0-.3-.1-.7-.1-1,2.4-1.1,4.8-2.2,7.4-3.1,1.1.7,2.2,1.4,3.4,1.9.1,0,.2,0,.3,0-4.3,2.6-9.2,4-13.8,6.1-7.2,3.2-13.4,7.3-21.3,8.9,0,0,0,0,0,0-.7-.5-1.3-1-2-1.5,2.9-2.2,6.2-4,9.5-5.5h0ZM176.1,861.9c.1.8.3,1.6.5,2.4-3.7,1.7-7.2,3.7-9.9,6.7-1.6-.9-3.2-1.8-4.8-2.5,4.6-2.5,9.5-4.5,14.3-6.6h0ZM163.8,897.5c-1.4-.6-3-1.3-4.5-1.7-.7-8.5.7-16.9,1.1-25.4,1.3.6,2.6,1.3,3.9,2-2.2,7.8-1.9,17-.4,25ZM169.9,899.9c0,0-.1-.2-.3-.2-1.4-.9-3.2-1.3-4.8-1.8-.7-8.2.2-16.3,1.1-24.4,1,.6,2.1,1.2,3.1,1.8.3,8.3,1.5,16.4.9,24.7h0ZM204.8,882.6c0,6-8.5,7.3-13,8.4-2.1.5-17,3.6-20,7.6.6-4.2.6-8.3.4-12.5-.2-2.9-.4-5.8-.5-8.7-.1-2.4,6-3.4,7.4-3.9,4.7-1.8,9.1-4.4,13.5-6.7,4.3-2.2,8.9-3.2,13-5.6-.4,4.9-.8,9.8-.9,14.6,0,2.3,0,4.6,0,6.9Z"/>
  <path class="cls-2" d="M188,876.6c-.1-.4-.5-.8-.9-.9-2.9-.6-6.1-1.1-9-.3-2.7.8-4.3,4.5-1.9,6.5,0,0,.2,0,.3.1,0,.2.2.3.3.4,0,0,.3.3.7.4.9,0,1.9,0,2.8,0,2.1,0,4.3,0,6.4,0,.5,0,1-.4,1.1-.9.5-1.7.5-3.6,0-5.4h0ZM178,881c0-.9-.7-1.8-.2-2.6.4-.6,1.7-.8,2.3-.8,1.9-.2,3.8,0,5.7.4.1.8.2,1.7,0,2.5-1.8,0-3.6.2-5.4.3-.8,0-1.6.1-2.4.2Z"/>
  <path class="cls-2" d="M200.1,881.8c-.6-2.1-3.2-4.6-5.6-3.5-.5.2-.6.7-.5,1.1-1.1.7-1.9,2-2.1,3.4-.4,3.1,3,4.8,5.6,4.3,2.5-.4,3.1-3.3,2.6-5.3ZM197.2,884.7c-1.2.7-3-.4-3.1-1.7-.1-1,.4-2,1.2-2.6.5,0,.9.1,1.3.4.5.3.8.8,1.1,1.3.4.8.4,2.1-.5,2.6h0Z"/>
  <path class="cls-1" d="M340.4,1430.7c-1.3-4.6-19.1-5.3-22.8-5.9-5.8-.9-11.6-1.7-17.4-2.3-2.6-.3-6.7-1.3-9.2,0,0,0-.1,0-.2-.1-.5-.3-1,0-1.2.5-.4.1-.7.5-.6.9,3.8,12.2,6.8,25.8,14.5,36.3.5.8,1.4.9,2.2.3,2.2-1.8,4.2-3.7,6.3-5.6.1.4.4.7.9.7,3.8.3,8,.9,11.7,2.2,0,.1.2.3.2.4.7,1.2,2.4.6,2.5-.7.2-3.1,0-6.2-.2-9.2-.2-2.7,0-5.7-.4-8.4,0,0,0,0,0-.1,1.5-.4,3.1-1.5,4.2-2.2,2.6-1.5,5.1-3.2,7.8-4.7.3-.2.5-.4.6-.7h0c.7,0,1.3-.7,1.1-1.4h0ZM311.1,1434.8c2.5,1.3,9.9,7,12.9,5.4.3-.2.4-.4.4-.7,0,0,0,0,0,0,0,0-.1.2-.2.3-.8,2.2-.2,5,0,7.3.1,2,.2,3.9.3,5.8-1.6-2.5-3.3-4.9-5.1-7.3,0-.3,0-.6-.3-.8-4.2-4.4-9.6-8.1-14.3-11.8-1.7-1.3-3.4-2.7-5.2-4.1,3.8,1.9,7.6,3.8,11.4,5.9h0ZM305,1457.3c-6.4-9.5-8.4-20.8-13.1-31.1,1,.8,2.3,1.6,2.8,2,2.8,2.2,5.5,4.5,8.4,6.7,4.5,3.5,8.9,8.2,13.9,11.1-3.9,3.9-7.8,7.7-12,11.3ZM313.3,1453.4c1.9-1.8,3.8-3.7,5.7-5.5,1.1,2.2,2.3,4.3,3.5,6.4-3-.8-6.4-1.3-9.2-.8ZM329.9,1434.6c-1.2.7-2.4,1.4-3.6,2.2-.4.3-.9.5-1.2.8-.3.2-1.1.8-.4.7-.2,0-.3.2-.3.3,0,0-.1-.1-.2-.2-4.5-2.6-9.4-4.8-14-7.3-2.9-1.5-5.7-3.3-8.6-4.9,5.2.5,10.7.6,15.4,1.4,4.9.8,9.8,1.6,14.7,2.6,1.1.2,2.4.7,3.8,1.1-1.8,1.1-3.6,2.2-5.4,3.3h0Z"/>
  <path class="cls-1" d="M321.3,1472.5c-.2-.7-.9-1.1-1.4-1.5-.8-.6-1.6-1.3-2.4-2-.6-.5-1.3-1.1-2-1.6-.4-.3-.8-.3-1.1-.6-.3-.2-.8.2-.6.6.2.3.3.6.5.9.6.7,1.2,1.3,1.9,1.9.7.7,1.5,1.4,2.3,2.1.6.5,1.2,1.2,2,1.2.6,0,1-.6.8-1.1h0Z"/>
  <path class="cls-1" d="M328,1471c-.8-.9-2-1.3-2.9-2-1.2-.9-2.3-2-3.5-3-.6-.5-1.4.2-.9.9.9,1.1,2,2.2,3,3.1,1,.9,2.2,2.1,3.5,2.3.7,0,1.3-.7.7-1.2h0Z"/>
  <path class="cls-1" d="M334.1,1468.4c-.2-.5-.5-.6-1-.8-.5-.2-.9-.6-1.4-.9-1-.7-2-1.5-2.9-2.3-.6-.5-1.4.3-.9.9.9,1,1.9,1.9,2.9,2.7.8.7,1.8,1.7,2.9,1.5.5,0,.6-.7.4-1.1Z"/>
  <path class="cls-1" d="M338.5,1462.7c-.5-.2-1.6-1.1-2.3-1.6-1.1-.8-2.1-1.7-3.1-2.6-.7-.6-1.5.3-1,1,1,1.1,2.1,2.2,3.2,3.1.8.7,1.8,1.7,2.9,1.4.6-.1.7-1,.2-1.3h0Z"/>
  <path class="cls-1" d="M340.3,1455.6c-.6-.8-1.8-1.2-2.6-1.8-1.1-.8-2.1-1.8-3-2.8s-1.3.2-.9.7c.8,1.1,1.7,2.1,2.7,3,.8.8,1.9,2,3.1,2.2.9.2,1.4-.8.8-1.4h0Z"/>
  <path class="cls-1" d="M340.9,1449.3c-1.6-.7-3.1-1.6-4.4-2.8-.4-.4-1.1.1-.8.6.6,1.1,1.5,1.9,2.5,2.7.8.6,1.5,1.2,2.5.9.6-.2.8-1.1.2-1.4h0Z"/>
  <path class="cls-1" d="M344.9,1445.2c-.4-1-2.1-1.5-3.1-2.1-.7-.4-2.2-1.6-3.1-1.2,0,0,0,0,0,0,0,0,0,0,0,0h0c-.2,0-.3.3-.2.5-.1-.3,0,.4,0,.5.1.2.3.3.5.5.5.4,1.1.8,1.7,1.2.9.6,2.4,2.1,3.5,1.9.5,0,1-.8.8-1.3h0Z"/>
  <path class="cls-1" d="M1330.9,44.6c-1.3-4.6-19.1-5.3-22.8-5.9-5.8-.9-11.6-1.7-17.4-2.3-2.6-.3-6.7-1.3-9.2,0,0,0-.1,0-.2-.1-.5-.3-1,0-1.2.5-.4.1-.7.5-.6.9,3.8,12.2,6.8,25.8,14.5,36.3.5.8,1.4.9,2.2.3,2.2-1.8,4.2-3.7,6.3-5.6.1.4.4.7.9.7,3.8.3,8,.9,11.7,2.2,0,.1.2.3.2.4.7,1.2,2.4.6,2.5-.7.2-3.1,0-6.2-.2-9.2-.2-2.7,0-5.7-.4-8.4,0,0,0,0,0-.1,1.5-.4,3.1-1.5,4.2-2.2,2.6-1.5,5.1-3.2,7.8-4.7.3-.2.5-.4.6-.7h0c.7,0,1.3-.7,1.1-1.4h0ZM1301.7,48.6c2.5,1.3,9.9,7,12.9,5.4.3-.2.4-.4.4-.7,0,0,0,0,0,0,0,0-.1.2-.2.3-.8,2.2-.2,5,0,7.3.1,2,.2,3.9.3,5.8-1.6-2.5-3.3-4.9-5.1-7.3,0-.3,0-.6-.3-.8-4.2-4.4-9.6-8.1-14.3-11.8-1.7-1.3-3.4-2.7-5.2-4.1,3.8,1.9,7.6,3.8,11.4,5.9h0ZM1295.5,71.1c-6.4-9.5-8.4-20.8-13.1-31.1,1,.8,2.3,1.6,2.8,2,2.8,2.2,5.5,4.5,8.4,6.7,4.5,3.5,8.9,8.2,13.9,11.1-3.9,3.9-7.8,7.7-12,11.3ZM1303.9,67.2c1.9-1.8,3.8-3.7,5.7-5.5,1.1,2.2,2.3,4.3,3.5,6.4-3-.8-6.4-1.3-9.2-.8ZM1320.4,48.5c-1.2.7-2.4,1.4-3.6,2.2-.4.3-.9.5-1.2.8-.3.2-1.1.8-.4.7-.2,0-.3.2-.3.3,0,0-.1-.1-.2-.2-4.5-2.6-9.4-4.8-14-7.3-2.9-1.5-5.7-3.3-8.6-4.9,5.2.5,10.7.6,15.4,1.4,4.9.8,9.8,1.6,14.7,2.6,1.1.2,2.4.7,3.8,1.1-1.8,1.1-3.6,2.2-5.4,3.3h0Z"/>
  <path class="cls-1" d="M1311.8,86.3c-.2-.7-.9-1.1-1.4-1.5-.8-.6-1.6-1.3-2.4-2-.6-.5-1.3-1.1-2-1.6-.4-.3-.8-.3-1.1-.6-.3-.2-.8.2-.6.6.2.3.3.6.5.9.6.7,1.2,1.3,1.9,1.9.7.7,1.5,1.4,2.3,2.1.6.5,1.2,1.2,2,1.2.6,0,1-.6.8-1.1h0Z"/>
  <path class="cls-1" d="M1318.6,84.8c-.8-.9-2-1.3-2.9-2-1.2-.9-2.3-2-3.5-3-.6-.5-1.4.2-.9.9.9,1.1,2,2.2,3,3.1,1,.9,2.2,2.1,3.5,2.3.7,0,1.3-.7.7-1.2h0Z"/>
  <path class="cls-1" d="M1324.6,82.2c-.2-.5-.5-.6-1-.8-.5-.2-.9-.6-1.4-.9-1-.7-2-1.5-2.9-2.3-.6-.5-1.4.3-.9.9.9,1,1.9,1.9,2.9,2.7.8.7,1.8,1.7,2.9,1.5.5,0,.6-.7.4-1.1Z"/>
  <path class="cls-1" d="M1329,76.5c-.5-.2-1.6-1.1-2.3-1.6-1.1-.8-2.1-1.7-3.1-2.6-.7-.6-1.5.3-1,1,1,1.1,2.1,2.2,3.2,3.1.8.7,1.8,1.7,2.9,1.4.6-.1.7-1,.2-1.3h0Z"/>
  <path class="cls-1" d="M1330.9,69.4c-.6-.8-1.8-1.2-2.6-1.8-1.1-.8-2.1-1.8-3-2.8s-1.3.2-.9.7c.8,1.1,1.7,2.1,2.7,3,.8.8,1.9,2,3.1,2.2.9.2,1.4-.8.8-1.4h0Z"/>
  <path class="cls-1" d="M1331.4,63.1c-1.6-.7-3.1-1.6-4.4-2.8-.4-.4-1.1.1-.8.6.6,1.1,1.5,1.9,2.5,2.7.8.6,1.5,1.2,2.5.9.6-.2.8-1.1.2-1.4h0Z"/>
  <path class="cls-1" d="M1335.5,59.1c-.4-1-2.1-1.5-3.1-2.1-.7-.4-2.2-1.6-3.1-1.2,0,0,0,0,0,0,0,0,0,0,0,0h0c-.2,0-.3.3-.2.5-.1-.3,0,.4,0,.5.1.2.3.3.5.5.5.4,1.1.8,1.7,1.2.9.6,2.4,2.1,3.5,1.9.5,0,1-.8.8-1.3h0Z"/>
  <path class="cls-2" d="M1670.2,123.5c2.5-4.1,19.8-.1,23.5.3,5.8.6,11.6,1.4,17.4,2.3,2.6.4,6.8.5,8.9,2.4,0,0,.2,0,.2,0,.6-.2,1,.3,1.1.8.4.2.6.6.3,1-6.8,10.8-13.3,23.1-23.5,31.2-.7.6-1.6.5-2.2-.3-1.6-2.3-3.1-4.7-4.6-7.1-.2.3-.6.6-1.1.5-3.8-.7-8-1.3-11.9-.9-.1.1-.2.2-.3.3-1,.9-2.5,0-2.2-1.3.6-3,1.6-5.9,2.6-8.9.9-2.6,1.4-5.5,2.6-8,0,0,0,0,0-.1-1.4-.7-2.6-2.3-3.5-3.2-2.1-2.1-4.1-4.4-6.3-6.5-.3-.2-.4-.5-.4-.8,0,0,0,0,0,0-.7-.2-1-1-.7-1.6h0ZM1697.4,135c-2.7.6-11.4,4.2-13.9,1.8-.2-.2-.3-.5-.2-.8,0,0,0,0,0,0,0,.1,0,.2,0,.3.2,2.3-1.1,4.9-1.8,7.1-.6,1.9-1.3,3.7-1.8,5.6,2.2-2,4.5-3.9,6.8-5.7,0-.3.2-.5.5-.7,5.2-3.1,11.4-5.3,16.9-7.6,2-.8,4-1.7,6.1-2.6-4.2.8-8.3,1.7-12.5,2.7h0ZM1697.5,158.4c8.7-7.4,13.6-17.9,20.8-26.6-1.2.5-2.6,1-3.2,1.2-3.3,1.4-6.5,2.9-9.8,4.3-5.3,2.2-10.7,5.6-16.3,7,2.8,4.8,5.5,9.5,8.6,14.1ZM1690.4,152.4c-1.4-2.3-2.7-4.5-4-6.8-1.6,1.8-3.3,3.5-5.1,5.2,3.1,0,6.5.5,9.1,1.6ZM1679.4,130c1,1,2,2,2.9,3.1.3.4.7.7,1,1.1.3.3.8,1.1.2.8.2,0,.2.2.3.4,0,0,.1-.1.2-.1,5-1.3,10.3-2.2,15.4-3.3,3.1-.7,6.4-1.7,9.6-2.5-5.2-.9-10.5-2.2-15.2-2.7-4.9-.6-9.9-1-14.8-1.3-1.2,0-2.5,0-3.9,0,1.5,1.5,2.9,3,4.4,4.6h0Z"/>
  <path class="cls-2" d="M1677.7,168.8c.4-.6,1.1-.8,1.8-1.1,1-.4,1.9-.8,2.8-1.3.8-.3,1.5-.7,2.3-1,.4-.2.9-.1,1.2-.2.4-.1.7.4.4.7-.3.2-.4.5-.7.7-.7.5-1.5,1-2.3,1.4-.9.5-1.8,1-2.7,1.5-.7.4-1.5.9-2.3.7-.5-.1-.8-.8-.5-1.3h0Z"/>
  <path class="cls-2" d="M1671.6,165.6c1-.6,2.3-.8,3.3-1.2,1.4-.6,2.7-1.4,4.1-2,.7-.3,1.2.6.6,1.1-1.2.9-2.5,1.6-3.7,2.2-1.1.6-2.7,1.5-4,1.3-.7,0-1.1-1-.4-1.4h0Z"/>
  <path class="cls-2" d="M1666.5,161.5c.3-.4.7-.4,1.2-.5.5,0,1.1-.3,1.6-.5,1.2-.4,2.3-1,3.4-1.5.7-.3,1.3.6.6,1.1-1.1.7-2.3,1.3-3.5,1.8-1,.4-2.2,1.2-3.2.7-.5-.2-.4-.8-.1-1.2Z"/>
  <path class="cls-2" d="M1663.7,154.8c.6,0,1.8-.6,2.6-.9,1.3-.5,2.5-1.1,3.7-1.7.8-.4,1.4.7.7,1.2-1.3.8-2.6,1.5-4,2.2-1,.5-2.1,1.2-3.2.6-.5-.3-.4-1.2.2-1.3h0Z"/>
  <path class="cls-2" d="M1663.8,147.5c.8-.6,2.1-.7,3-1,1.3-.4,2.5-1.2,3.6-1.9.6-.4,1.3.5.7,1-1.1.9-2.2,1.6-3.4,2.2-1,.5-2.4,1.4-3.5,1.3-.9,0-1.1-1.1-.4-1.6h0Z"/>
  <path class="cls-2" d="M1664.9,141.2c1.7-.3,3.4-.8,4.9-1.6.5-.3,1,.4.6.8-.9.9-2,1.5-3.1,2-.9.4-1.8.8-2.7.2-.5-.3-.5-1.3.2-1.4h0Z"/>
  <path class="cls-2" d="M1662,136.3c.7-.9,2.5-.9,3.6-1.2.8-.2,2.6-1,3.3-.4,0,0,0,0,0,0,0,0,0,0,0,0h0c.2.1.2.4,0,.6.2-.3-.1.4-.2.5-.2.2-.4.2-.6.3-.6.3-1.3.5-1.9.7-1,.4-2.8,1.4-3.9.9-.5-.2-.7-1-.4-1.5h0Z"/>
  <path class="cls-3" d="M1811.1,960.5c-2.5-13.7-15.4-22.4-28.9-21.7-15,.8-24.6,15.3-24.8,29.2-.2,16.8,16.1,27.1,31.4,25.4,0,0,.1,0,.1,0,.2,0,.4,0,.6,0,15.9-4.6,24.5-16.2,21.5-32.9h0ZM1776.3,989.3c-5.2-2-9.7-5.3-12.6-10.3.1-.1.2-.3,0-.5-1-2.8,2-4.3,3-6.4.3-.6.2-1.5.2-2,.2-2.5.4-4.1,2-6.2,1.4-2,1.9-4.1,2.2-6.5.5-4.6-1.6-5.6,3.1-10.5,1.4-1.4,2.9-2.5,4.2-4,0,0,0-.2.1-.2.7-.2,1.4-.4,2.1-.5.7,3.1-1.7,4.9-1.7,7.9s5.6,4.4,2.6,7.1c-1.3,1.2-3.3,3.7-3.7,5.2-.9,3.4-.1,7.3-4.1,3.1-.5-.5-1.3-.3-1.7.2-5.5,8.3,9.9,16.4,4.1,23.7ZM1797.2,987c-.5-2.3-3.3-4.6-2.8-6.9.1-.7.7-1.1,1.5-1.4,2.9.4,5.8.6,8.7.8.3,0,.6,0,.8-.3-2,3.1-4.8,5.7-8.2,7.7ZM1802.8,964.8c-.6.4-1.6.6-2.1,1.2-.6.7-2.3,4.4-2.8-.6-.7-6-5.5-13.9.4-18.9,0,0,0,0,.1-.1,4.3,3.2,7.6,7.8,9.3,13,.5,1.6.9,3.2,1.1,4.8-2.1-.4-4.1-.5-6,.7h0Z"/>
  <path class="cls-1" d="M171.7,101.8c-3.3-2.8-6.3-5.9-9.4-9,2.6.6,5.8,0,8.4-.3.9-.1,1.2-1.5.5-2-3-2.4-5.6-5.2-8.3-8,1.8-1,3.6-2.3,5.2-3.6.2-.2.3-.5.4-.8.3-.2.6-.5.6-1,0-2.3-2-4.6-3.3-6.4-2.5-3.2-5.2-6.1-7.8-9.1-.5-.5-1.4-.5-1.9,0-4.3,4.9-7.9,10.3-11.7,15.6-.3.4-.2,1,.2,1.4l.2.2c0,.1.2.2.3.2-.1.4,0,.8.4,1,.7.4,1.6.6,2.4.9.2.1.5.2.8.3.4.3.8.6,1.2.8-1.8,3.9-5.1,6.9-8.2,10-.8.8-.2,2.1.9,2.1,1.7,0,3.4,0,5.1-.1-1.5,2.7-3.8,4.9-6,7.1-.6.6-.4,1.9.6,2.1,5.1.8,10.2,1,15.3,1,0,1.1.1,5.4-1.7,5-.3,0-.6-.2-.8-.4,0,0-.2-.1-.3-.2,0,0,0,0,0-.1,0-.2-.1-.4-.2-.7-.2-1-.4-2.1-.8-3-.3-.6-1.2-.7-1.4,0-.4,1.3,0,2.8.2,4.1.1.5.3,1.1.8,1.4.3.1.4.1,0,0,.2.2.4.3.7.5.4.2.9.4,1.3.5,3.8.8,4.7-4.6,4.4-7.3,3.7,0,7.3-.1,11-.2,1.1,0,1.8-1.4.9-2.2h0Z"/>
</svg>