<?xml version="1.0" encoding="UTF-8"?>
<svg id="Layer_1" data-name="Layer 1" xmlns="http://www.w3.org/2000/svg" version="1.1" xmlns:xlink="http://www.w3.org/1999/xlink" viewBox="0 0 37 33">
  <defs>
    <style>
      .cls-1 {
        fill: #d9d9d9;
      }

      .cls-1, .cls-2 {
        stroke-width: 0px;
      }

      .cls-2 {
        fill: #fff;
      }

      .cls-3 {
        mask: url(#mask);
      }
    </style>
    <mask id="mask" x="11.1" y="11.4" width="16" height="16" maskUnits="userSpaceOnUse">
      <g id="mask0_880_12000" data-name="mask0 880 12000">
        <rect class="cls-1" x="11.1" y="11.4" width="16" height="16"/>
      </g>
    </mask>
  </defs>
  <g class="cls-3">
    <path class="cls-2" d="M19.1,24.7c-1.1,0-2-.2-2.8-.5-.7-.3-1.1-.7-1.1-1.3s0-.5.3-.7c.2-.2.4-.4.7-.5l.8.7c-.1,0-.3.1-.5.2-.2,0-.3.2-.3.3.1.2.4.4,1,.5.5.1,1.2.2,1.8.2s1.3,0,1.8-.2c.6-.1.9-.3,1-.5,0-.1-.2-.2-.3-.3-.2,0-.3-.2-.5-.2l.8-.7c.3.2.6.3.8.5.2.2.3.4.3.7,0,.5-.4.9-1.1,1.3-.7.3-1.6.5-2.8.5ZM19.1,21.5c1.1-.8,1.9-1.7,2.5-2.5.6-.8.8-1.6.8-2.4,0-1.2-.4-2-1.1-2.6-.7-.6-1.5-.9-2.2-.9s-1.5.3-2.3.9c-.7.6-1.1,1.5-1.1,2.6s.3,1.5.8,2.4c.5.8,1.4,1.7,2.5,2.6ZM19.1,22.7c-1.5-1.1-2.5-2.1-3.3-3.2-.7-1-1.1-2-1.1-3s.1-1.4.4-2c.3-.6.6-1,1-1.4.4-.4.9-.7,1.4-.8.5-.2,1-.3,1.5-.3s1,0,1.5.3c.5.2,1,.5,1.4.8.4.4.8.8,1,1.4.3.6.4,1.2.4,1.9s-.4,2-1.1,3c-.7,1-1.8,2.1-3.3,3.2ZM19.1,17.6c.3,0,.6-.1.8-.4.2-.2.4-.5.4-.9s-.1-.6-.4-.9c-.2-.2-.5-.4-.9-.4s-.6.1-.8.4c-.2.2-.4.5-.4.9s.1.6.4.9c.2.2.5.4.9.4Z"/>
  </g>
</svg>