<?xml version="1.0" encoding="UTF-8"?>
<svg id="Layer_1" data-name="Layer 1" xmlns="http://www.w3.org/2000/svg" version="1.1" viewBox="0 0 1438 834">
  <defs>
    <style>
      .cls-1 {
        fill: #ffea79;
      }

      .cls-1, .cls-2, .cls-3, .cls-4, .cls-5, .cls-6, .cls-7, .cls-8, .cls-9 {
        stroke-width: 0px;
      }

      .cls-2 {
        fill: #35b0e6;
      }

      .cls-3 {
        fill: none;
      }

      .cls-4 {
        fill: #cae8f7;
      }

      .cls-5 {
        fill: #2091b6;
      }

      .cls-6 {
        fill: #fffba1;
      }

      .cls-7 {
        fill: #fff;
      }

      .cls-8 {
        fill: #71ccf4;
      }

      .cls-9 {
        fill: #ffd25f;
      }
    </style>
  </defs>
  <polygon class="cls-2" points="1439 32.4 1439 413.7 -1 413.7 -1 -1.2 1438.6 -1.2 1438.6 32.4 1439 32.4"/>
  <rect class="cls-8" x="334.2" y="2.2" width="244.3" height="47.2"/>
  <path class="cls-8" d="M625,1.5c0,18.8-10.9,35.1-26.8,42.9-6,3-12.6,4.7-19.7,4.9-.6,0-1.1,0-1.7,0-5.9,0-11.5-1-16.7-2.9-16.4-6-28.6-20.6-31.1-38.3-.3-1.9-.4-3.9-.5-5.9,0-.2,0-.5,0-.7,0-.9,0-1.8,0-2.6h96.4c0,.9,0,1.8,0,2.6Z"/>
  <path class="cls-8" d="M537.4-1.2c-.8,1.1-1.7,2.2-2.6,3.3-1.8,2.1-3.7,4.1-5.8,5.9-11.6,10.3-27.5,16.6-44.9,16.6s-38.8-8.8-50.6-22.4c0,0,0-.1-.1-.2-.9-1.1-1.8-2.2-2.7-3.3h106.8Z"/>
  <path class="cls-8" d="M379.3,13.8c0,4.7-1,9.2-2.8,13.2-5.7,13.1-19.6,22.3-35.9,22.3s-4.4-.2-6.5-.5c-18.3-2.8-32.2-17.5-32.2-35.1s1.3-10.4,3.6-15h70.2c.6,1.1,1,2.2,1.5,3.3,1.4,3.6,2.1,7.6,2.1,11.6Z"/>
  <path class="cls-8" d="M433.9-1.2c-.1,1.1-.3,2.2-.5,3.3,0,0,0,.1,0,.2-3.4,16.6-19.1,29.2-38,29.2s-13.3-1.7-18.9-4.5c-9.9-5.1-17.1-14.2-19.2-24.9-.2-1.1-.4-2.2-.5-3.3h77Z"/>
  <rect class="cls-8" x="776.6" y="314.9" width="194.4" height="37.6"/>
  <ellipse class="cls-8" cx="969.6" cy="314.3" rx="38.4" ry="38.1"/>
  <ellipse class="cls-8" cx="895.8" cy="286.3" rx="51.2" ry="46.6"/>
  <ellipse class="cls-8" cx="781.8" cy="324.1" rx="30.8" ry="28.3"/>
  <ellipse class="cls-8" cx="825.3" cy="309.7" rx="30.8" ry="28.6"/>
  <rect class="cls-8" x="-2.4" y="114.9" width="112.3" height="37.6"/>
  <ellipse class="cls-8" cx="108.6" cy="114.3" rx="38.4" ry="38.1"/>
  <path class="cls-8" d="M86,86.3c0,10.8-4,20.7-10.8,28.6-1.4,1.7-3,3.2-4.6,4.7-9.2,8.2-21.9,13.2-35.8,13.2s-26.6-5.1-35.8-13.3c-.5-.4-.9-.8-1.4-1.3v-64c.5-.4.9-.9,1.4-1.3,9.2-8.2,21.9-13.3,35.8-13.3,27.3,0,49.6,19.4,51.1,43.9,0,.9,0,1.8,0,2.7Z"/>
  <path class="cls-8" d="M1443.7,32.4c-1.4,1.7-3,3.2-4.7,4.6v24.4h-118.3v-29h123Z"/>
  <path class="cls-8" d="M1443.7,32.4c-1.4,1.7-3,3.2-4.7,4.6-.1,0-.2.2-.4.3-6.9,5.6-16.1,9-26.1,9s-23.8-5.4-31-13.7c0,0,0,0,0-.1-5-5.8-8.1-13.2-8.3-21.1,0-.3,0-.6,0-.9,0-4,.7-7.9,2.1-11.6h63.4v33.6h5.1Z"/>
  <ellipse class="cls-8" cx="1324.7" cy="39.6" rx="23.7" ry="21.8"/>
  <ellipse class="cls-8" cx="1358.3" cy="28.5" rx="23.7" ry="22"/>
  <polygon class="cls-5" points="1441 379.7 1441 423.8 1438.6 423.8 1438.6 834 1 834 1 379.7 1441 379.7"/>
  <path class="cls-6" d="M881,50.7c0,89.5-71.8,162-160.5,162s-160.5-72.5-160.5-162,0-.9,0-1.3c0-1,0-2,0-2.9.4-15.4,2.9-30.2,7.3-44.3.3-1.1.7-2.2,1.1-3.3h304.2c5.4,16.3,8.4,33.7,8.4,51.9Z"/>
  <path class="cls-1" d="M843,50.2c0,68.2-54.8,123.5-122.5,123.5s-122.5-55.3-122.5-123.5,0-3.9.1-5.8c.7-16.2,4.6-31.6,10.9-45.6h222.9c7.1,15.6,11.1,33,11.1,51.4Z"/>
  <path class="cls-9" d="M800,50.2c0,43.9-35.6,79.5-79.5,79.5s-79.5-35.6-79.5-79.5,7.1-37.5,18.8-51.4h121.3c11.8,13.9,18.8,31.8,18.8,51.4Z"/>
  <rect class="cls-7" x="1" y="286.7" width="486" height="94"/>
  <path class="cls-7" d="M162,238.2c0,17.7-4.9,34.3-13.4,48.5-.8,1.4-1.7,2.8-2.6,4.1-1.6,2.4-3.3,4.8-5.2,7-1.9,2.3-3.8,4.5-5.9,6.7-2.1,2.2-4.3,4.2-6.7,6.2-16.9,14.3-38.8,23-62.8,23s-3.2,0-4.9-.1c-8.2-.4-16.2-1.8-23.8-4.2-12.7-3.9-24.3-10.3-34.1-18.7-.6-.5-1.1-1-1.7-1.5-.7-.6-1.3-1.2-2-1.8-.5-.4-.9-.9-1.4-1.3v-135.7c.5-.5.9-.9,1.4-1.3,7.1-6.7,15.2-12.3,24.1-16.6,12.8-6.2,27.2-9.7,42.4-9.7s13.5.7,20,2.1c7.9,1.6,15.4,4.2,22.4,7.6,0,0,0,0,0,0,7.8,3.8,15,8.5,21.4,14.2,9,7.8,16.4,17.3,22,27.9,6.8,13.1,10.7,28,10.7,43.7Z"/>
  <ellipse class="cls-7" cx="245.5" cy="216.7" rx="128.5" ry="117"/>
  <ellipse class="cls-7" cx="473" cy="309.7" rx="77" ry="71"/>
  <ellipse class="cls-7" cx="364" cy="273.7" rx="77" ry="71"/>
  <path class="cls-7" d="M1443,380v.7h-471v-94h467v93h2v.5c.7,0,1.3-.2,2-.3Z"/>
  <path class="cls-7" d="M1439,154v168.5c-.1,0-.2.1-.4.2-12,6.3-25.5,10.2-39.8,10.9-1.8,0-3.5.1-5.3.1s-.7,0-1,0h0c-5.2,0-10.3-.5-15.3-1.4-7.1-1.2-13.9-3.2-20.3-5.8h0c-9.1-3.7-17.5-8.7-24.9-14.8-7.3-6-13.7-13.1-18.9-20.9-.3-.5-.7-1-1-1.5-.6-.9-1.1-1.8-1.6-2.6-2.1-3.5-4-7.2-5.7-11-5-11.5-7.7-24.2-7.7-37.5s1.5-19,4.2-27.8c0,0,0,0,0,0,5.3-17.1,15.3-32.2,28.5-43.8,17-14.9,39.4-23.9,63.8-23.9s31.7,4,45.1,11.1c.1,0,.3.1.4.2Z"/>
  <ellipse class="cls-7" cx="1213.5" cy="216.7" rx="128.5" ry="117"/>
  <ellipse class="cls-7" cx="986" cy="309.7" rx="77" ry="71"/>
  <ellipse class="cls-7" cx="1082" cy="244.7" rx="77" ry="71"/>
  <path class="cls-4" d="M1443,380v.7h-357v-69h353v68h2v.5c.7,0,1.3-.2,2-.3Z"/>
  <ellipse class="cls-4" cx="1088.5" cy="310.7" rx="70.5" ry="70"/>
  <ellipse class="cls-4" cx="1224" cy="259.2" rx="94" ry="85.5"/>
  <path class="cls-4" d="M1441,379.7v.5c-.7,0-1.3.2-2,.2-.1,0-.3,0-.4,0-1.7.1-3.4.2-5.1.2-3.8,0-7.5-.3-11-1-4.6-.8-9-2.2-13.1-4-5.1-2.2-9.7-5.1-13.8-8.5-6.3-5.2-11.3-11.8-14.5-19.2-2.1-4.9-3.5-10.2-3.9-15.7,0-1.2-.1-2.4-.1-3.6s0-1.2,0-1.7c.2-5.3,1.2-10.5,3.1-15.3,3.8-10.1,10.9-18.8,20.1-25,1.9-1.3,3.9-2.5,6-3.5,8.1-4.1,17.4-6.5,27.3-6.5s3.4,0,5.1.2c.1,0,.2,0,.4,0v102.8h2Z"/>
  <ellipse class="cls-4" cx="1353.5" cy="302.2" rx="56.5" ry="52.5"/>
  <rect class="cls-4" x="-5" y="310.7" width="357" height="69"/>
  <ellipse class="cls-4" cx="349.5" cy="309.7" rx="70.5" ry="70"/>
  <ellipse class="cls-4" cx="214" cy="258.2" rx="94" ry="85.5"/>
  <path class="cls-4" d="M61,327.7c0,2-.1,3.9-.4,5.9-.6,4.7-1.8,9.2-3.7,13.5-2.3,5.3-5.5,10.1-9.4,14.3-4.7,5.1-10.5,9.4-17.1,12.5-3,1.4-6.2,2.6-9.5,3.6-5.2,1.5-10.7,2.2-16.5,2.2s-2.3,0-3.5-.1c-.7,0-1.3,0-2-.1-.5,0-.9,0-1.4-.1-.9,0-1.8-.2-2.6-.3v-68.3h2.6v-34.6c.5,0,.9-.1,1.4-.1,1.8-.2,3.7-.2,5.5-.2,9.9,0,19.2,2.3,27.3,6.5,2.6,1.3,5.1,2.8,7.4,4.5,8.5,6.1,15.1,14.4,18.7,24,2,5.3,3.1,11,3.1,17Z"/>
  <ellipse class="cls-4" cx="84.5" cy="301.2" rx="56.5" ry="52.5"/>
  <rect class="cls-7" x="1281.9" y="390.7" width="159.1" height="32.7"/>
  <path class="cls-7" d="M1443,380v.7h-2v23.9c-.7.3-1.3.5-2,.7-.1,0-.2,0-.4.1-3.2,1-6.6,1.5-10.2,1.5-11.7,0-22-5.9-28-14.9-.3-.5-.6-.9-.9-1.4-1.8-3.1-3.2-6.4-3.9-10,0-.3-.1-.7-.2-1-.3-1.9-.5-3.9-.5-5.9s.2-4.5.7-6.6c1.5-7.2,5.3-13.6,10.7-18.3,5.9-5.2,13.7-8.3,22.2-8.3s7,.5,10.2,1.6c.1,0,.2,0,.4.1v37.4h2v.5c.7,0,1.3-.2,2-.3Z"/>
  <ellipse class="cls-7" cx="1365.9" cy="366.4" rx="44.7" ry="40.7"/>
  <ellipse class="cls-7" cx="1286.8" cy="398.7" rx="26.8" ry="24.7"/>
  <ellipse class="cls-7" cx="1320.2" cy="376.1" rx="26.8" ry="24.7"/>
  <rect class="cls-7" x="-2.4" y="422.7" width="152.5" height="32.7"/>
  <path class="cls-7" d="M37.1,405.9c0,2.7-.3,5.3-1,7.9-.8,3.2-2,6.2-3.7,9-.3.5-.6,1-.9,1.4-6,9-16.3,14.9-28,14.9s-1.7,0-2.5,0c-1.2,0-2.3-.2-3.4-.4v-58.8h-2.6v-6c.9-.2,1.7-.4,2.6-.6.5,0,.9-.2,1.4-.2.7-.1,1.3-.2,2-.2.8,0,1.7-.1,2.5-.1,6.4,0,12.3,1.8,17.4,4.8,1.1.7,2.2,1.4,3.3,2.2.4.3.8.7,1.2,1,0,0,.2.2.3.2,7,6.1,11.4,15,11.4,24.9Z"/>
  <ellipse class="cls-7" cx="66.2" cy="398.4" rx="44.7" ry="40.7"/>
  <ellipse class="cls-7" cx="145.3" cy="430.7" rx="26.8" ry="24.7"/>
  <ellipse class="cls-7" cx="111.9" cy="408.1" rx="26.8" ry="24.7"/>
  <rect class="cls-3" x="-2.4" y="-1.2" width="1441" height="831"/>
</svg>