<?xml version="1.0" encoding="UTF-8"?>
<svg id="Layer_1" data-name="Layer 1" xmlns="http://www.w3.org/2000/svg" version="1.1" viewBox="0 0 335 114.4">
  <defs>
    <style>
      .cls-1 {
        fill: #f8ffd0;
      }

      .cls-1, .cls-2, .cls-3, .cls-4, .cls-5, .cls-6, .cls-7, .cls-8 {
        stroke-width: 0px;
      }

      .cls-2 {
        fill: #b8baae;
      }

      .cls-3 {
        fill: #f2b977;
      }

      .cls-9 {
        isolation: isolate;
      }

      .cls-4 {
        fill: #c19158;
      }

      .cls-5 {
        fill: #653771;
      }

      .cls-6 {
        fill: #b6b6b6;
      }

      .cls-10 {
        mix-blend-mode: darken;
        opacity: .4;
      }

      .cls-7 {
        fill: #ffd9d9;
      }

      .cls-8 {
        fill: #b4ffcd;
      }
    </style>
  </defs>
  <g class="cls-9">
    <g id="Layer_1-2" data-name="Layer 1">
      <path class="cls-2" d="M325.3,95.6l-8.1,9.4v-62l3.1-13.8,5,8.8v57.6Z"/>
      <path class="cls-1" d="M45.3,43v62h271.9v-62H45.3Z"/>
      <path class="cls-4" d="M48.4,29.8l271.9-.6-3.1,13.8H45.3l3.1-13.1h0Z"/>
      <rect class="cls-7" x="92.5" y="42.9" width="43.5" height="62.1"/>
      <rect class="cls-6" x="136" y="42.9" width="27.3" height="62.1"/>
      <rect class="cls-6" x="250.2" y="42.9" width="27.3" height="62.1"/>
      <rect class="cls-8" x="163.3" y="42.9" width="43.5" height="62.1"/>
      <rect class="cls-3" x="206.7" y="42.9" width="43.5" height="62.1"/>
      <g class="cls-10">
        <rect class="cls-5" x="210.5" y="49.1" width="5" height="9"/>
      </g>
      <g class="cls-10">
        <rect class="cls-5" x="218.5" y="49.1" width="5" height="9"/>
      </g>
      <g class="cls-10">
        <rect class="cls-5" x="226.5" y="49.1" width="5" height="9"/>
      </g>
      <g class="cls-10">
        <rect class="cls-5" x="234.5" y="49.1" width="5" height="9"/>
      </g>
      <g class="cls-10">
        <rect class="cls-5" x="168.3" y="56.5" width="5" height="9"/>
      </g>
      <g class="cls-10">
        <rect class="cls-5" x="176.3" y="56.5" width="5" height="9"/>
      </g>
      <g class="cls-10">
        <rect class="cls-5" x="184.3" y="56.5" width="5" height="9"/>
      </g>
      <g class="cls-10">
        <rect class="cls-5" x="192.3" y="56.5" width="5" height="9"/>
      </g>
      <g class="cls-10">
        <rect class="cls-5" x="96.2" y="56.5" width="5" height="9"/>
      </g>
      <g class="cls-10">
        <rect class="cls-5" x="104.2" y="56.5" width="5" height="9"/>
      </g>
      <g class="cls-10">
        <rect class="cls-5" x="112.2" y="56.5" width="5" height="9"/>
      </g>
      <g class="cls-10">
        <rect class="cls-5" x="120.2" y="56.5" width="5" height="9"/>
      </g>
      <g class="cls-10">
        <rect class="cls-5" x="140.9" y="47.8" width="6.2" height="11.2"/>
      </g>
      <g class="cls-10">
        <rect class="cls-5" x="255.2" y="50.3" width="6.2" height="11.2"/>
      </g>
      <g class="cls-10">
        <rect class="cls-5" x="265.1" y="50.3" width="6.2" height="11.2"/>
      </g>
      <g class="cls-10">
        <rect class="cls-5" x="140.9" y="83.8" width="6.2" height="11.2"/>
      </g>
      <g class="cls-10">
        <rect class="cls-5" x="255.2" y="86.3" width="6.2" height="11.2"/>
      </g>
      <g class="cls-10">
        <rect class="cls-5" x="265.1" y="86.3" width="6.2" height="11.2"/>
      </g>
      <g class="cls-10">
        <rect class="cls-5" x="150.9" y="47.8" width="6.2" height="11.2"/>
      </g>
      <g class="cls-10">
        <rect class="cls-5" x="150.9" y="83.8" width="6.2" height="11.2"/>
      </g>
      <g class="cls-10">
        <rect class="cls-5" x="280" y="56.5" width="5" height="9"/>
      </g>
      <g class="cls-10">
        <rect class="cls-5" x="288" y="56.5" width="5" height="9"/>
      </g>
      <g class="cls-10">
        <rect class="cls-5" x="296" y="56.5" width="5" height="9"/>
      </g>
      <g class="cls-10">
        <rect class="cls-5" x="304" y="56.5" width="5" height="9"/>
      </g>
      <g class="cls-10">
        <rect class="cls-5" x="168.3" y="78.9" width="5" height="9"/>
      </g>
      <g class="cls-10">
        <rect class="cls-5" x="176.3" y="78.9" width="5" height="9"/>
      </g>
      <g class="cls-10">
        <rect class="cls-5" x="184.3" y="78.9" width="5" height="9"/>
      </g>
      <g class="cls-10">
        <rect class="cls-5" x="192.3" y="78.9" width="5" height="9"/>
      </g>
      <g class="cls-10">
        <rect class="cls-5" x="96.2" y="78.9" width="5" height="9"/>
      </g>
      <g class="cls-10">
        <rect class="cls-5" x="104.2" y="78.9" width="5" height="9"/>
      </g>
      <g class="cls-10">
        <rect class="cls-5" x="112.2" y="78.9" width="5" height="9"/>
      </g>
      <g class="cls-10">
        <rect class="cls-5" x="120.2" y="78.9" width="5" height="9"/>
      </g>
      <g class="cls-10">
        <rect class="cls-5" x="280" y="78.9" width="5" height="9"/>
      </g>
      <g class="cls-10">
        <rect class="cls-5" x="288" y="78.9" width="5" height="9"/>
      </g>
      <g class="cls-10">
        <rect class="cls-5" x="296" y="78.9" width="5" height="9"/>
      </g>
      <g class="cls-10">
        <rect class="cls-5" x="304" y="78.9" width="5" height="9"/>
      </g>
      <g class="cls-10">
        <rect class="cls-5" x="210.5" y="66.4" width="5" height="9"/>
      </g>
      <g class="cls-10">
        <rect class="cls-5" x="218.5" y="66.4" width="5" height="9"/>
      </g>
      <g class="cls-10">
        <rect class="cls-5" x="226.5" y="66.4" width="5" height="9"/>
      </g>
      <g class="cls-10">
        <rect class="cls-5" x="234.5" y="66.4" width="5" height="9"/>
      </g>
      <g class="cls-10">
        <rect class="cls-5" x="210.5" y="83.8" width="5" height="9"/>
      </g>
      <g class="cls-10">
        <rect class="cls-5" x="218.5" y="83.8" width="5" height="9"/>
      </g>
      <g class="cls-10">
        <rect class="cls-5" x="226.5" y="83.8" width="5" height="9"/>
      </g>
      <g class="cls-10">
        <rect class="cls-5" x="234.5" y="83.8" width="5" height="9"/>
      </g>
      <g class="cls-10">
        <rect class="cls-5" x="50.3" y="49.1" width="5" height="9"/>
      </g>
      <g class="cls-10">
        <rect class="cls-5" x="58.3" y="49.1" width="5" height="9"/>
      </g>
      <g class="cls-10">
        <rect class="cls-5" x="66.3" y="49.1" width="5" height="9"/>
      </g>
      <g class="cls-10">
        <rect class="cls-5" x="74.3" y="49.1" width="5" height="9"/>
      </g>
      <g class="cls-10">
        <rect class="cls-5" x="50.3" y="66.4" width="5" height="9"/>
      </g>
      <g class="cls-10">
        <rect class="cls-5" x="58.3" y="66.4" width="5" height="9"/>
      </g>
      <g class="cls-10">
        <rect class="cls-5" x="66.3" y="66.4" width="5" height="9"/>
      </g>
      <g class="cls-10">
        <rect class="cls-5" x="74.3" y="66.4" width="5" height="9"/>
      </g>
      <g class="cls-10">
        <rect class="cls-5" x="50.3" y="83.8" width="5" height="9"/>
      </g>
      <g class="cls-10">
        <rect class="cls-5" x="58.3" y="83.8" width="5" height="9"/>
      </g>
      <g class="cls-10">
        <rect class="cls-5" x="66.3" y="83.8" width="5" height="9"/>
      </g>
      <g class="cls-10">
        <rect class="cls-5" x="74.3" y="83.8" width="5" height="9"/>
      </g>
      <g class="cls-10">
        <rect class="cls-5" x="140.9" y="66.4" width="6.2" height="11.2"/>
      </g>
      <g class="cls-10">
        <rect class="cls-5" x="255.2" y="68.9" width="6.2" height="11.2"/>
      </g>
      <g class="cls-10">
        <rect class="cls-5" x="150.9" y="66.4" width="6.2" height="11.2"/>
      </g>
      <g class="cls-10">
        <rect class="cls-5" x="265.1" y="68.9" width="6.2" height="11.2"/>
      </g>
    </g>
  </g>
</svg>