<?xml version="1.0" encoding="UTF-8"?>
<svg id="Layer_1" data-name="Layer 1" xmlns="http://www.w3.org/2000/svg" version="1.1" xmlns:xlink="http://www.w3.org/1999/xlink" viewBox="0 0 239.2 132.8">
  <defs>
    <style>
      .cls-1 {
        fill: #dc8b54;
      }

      .cls-1, .cls-2, .cls-3, .cls-4, .cls-5, .cls-6, .cls-7, .cls-8, .cls-9, .cls-10, .cls-11 {
        stroke-width: 0px;
      }

      .cls-2 {
        fill: url(#linear-gradient);
      }

      .cls-3 {
        fill: #de804c;
      }

      .cls-4 {
        fill: #c07542;
      }

      .cls-12 {
        fill: #9b9b9b;
        stroke: #9b9b9b;
        stroke-linejoin: round;
      }

      .cls-5 {
        fill: #e8c9bd;
      }

      .cls-6 {
        fill: #e98e62;
      }

      .cls-7 {
        fill: #17a681;
        fill-rule: evenodd;
      }

      .cls-8 {
        fill: #f0bdaa;
      }

      .cls-9 {
        fill: #eab5a1;
      }

      .cls-10 {
        fill: url(#linear-gradient-2);
      }

      .cls-11 {
        fill: #c67a56;
      }
    </style>
    <linearGradient id="linear-gradient" x1="-430.2" y1="-177.9" x2="-435.2" y2="-178.2" gradientTransform="translate(564 236)" gradientUnits="userSpaceOnUse">
      <stop offset="0" stop-color="#f0bdaa"/>
      <stop offset="1" stop-color="#9b553a"/>
    </linearGradient>
    <linearGradient id="linear-gradient-2" x1="-553.9" y1="-161.3" x2="-538.1" y2="-161.2" gradientTransform="translate(564 236)" gradientUnits="userSpaceOnUse">
      <stop offset="0" stop-color="#f0bdaa"/>
      <stop offset="1" stop-color="#c07542"/>
    </linearGradient>
  </defs>
  <path class="cls-7" d="M122.6,41c27.1,4.1,55.2,11.3,75.1,22.2,22,12,35.8,26,34.4,37.6-1.4,12-16,21.5-41.7,23.8-23.8,2.1-54-7.9-82.7-12.8-34.3-5.9-77-4.3-99-18.7s3.4-25.4,15-36.1c7.8-7.2,22.1-11.3,39.6-14.1,17.6-2.9,36-5.4,59.3-1.9h0Z"/>
  <path class="cls-5" d="M130.7,64.6l-6,2.8,15.3,3.4-9.3-6.3h0Z"/>
  <path class="cls-2" d="M129.8,46.3l53.1,12.4c-15.2,3.6-45.2,10.8-44.9,11.1h0l-9.3-3.9,1-19.6h.1Z"/>
  <path class="cls-1" d="M219.4,49.1l-100.5-21.3,1.6,17.3,60.6,14.4,38.4-10.4h0Z"/>
  <path class="cls-4" d="M119,43.9l-1.3,21.8-43.5-13.4,44.8-8.4h0Z"/>
  <path class="cls-3" d="M219.4,49.1l-81.3,20.5,4.7,25.2,96.4-29.5-19.8-16.1h0Z"/>
  <path class="cls-3" d="M118.8,45.3l-47.5,7.9-31.1-13.1,78.6-12.4,3.1,8.9-4.1,2.6,1,1.4v4.6h0Z"/>
  <path class="cls-9" d="M118.8,40.8l-1.8,24c4.2,5.2,9.9,3,12.2,1.2l.8-24.2c-5,1.3-9.6-.1-11.3-1h0Z"/>
  <path class="cls-6" d="M40.2,40.2l-21.6,14.3c0,8.2,83.9,31.2,125.6,41l-6.1-25.9c-13.2-2-70.8-20.4-97.9-29.4h0Z"/>
  <path class="cls-8" d="M25.6,83l115.5,40.3,3.5-29.7c-12.3.3-89-25.9-126.1-39.3l7.1,13.4v15.3Z"/>
  <path class="cls-10" d="M10.1,80.8c3.6,4.6,12,3.1,15.8,1.7v-14.4c-8.4.7-14-1.5-15.7-2.7v15.3h0Z"/>
  <path class="cls-4" d="M236.2,91.4l-95,31.9,2.5-29.7,95.5-28.3-3,26.1Z"/>
  <path class="cls-11" d="M9.2,65l9.3-11,8,14.8c-12.4.7-16.7-2.2-17.2-3.8h0Z"/>
  <path class="cls-12" d="M131.2,40.8c-5.6,4-11.6.7-13.9-1.5,1.7-.4,5.7-4.1,7.5-6,.7,1.4,4.3,5.6,6.4,7.5Z"/>
</svg>