<?xml version="1.0" encoding="UTF-8"?>
<svg id="Layer_1" data-name="Layer 1" xmlns="http://www.w3.org/2000/svg" version="1.1" viewBox="0 0 250.6 94.2">
  <defs>
    <style>
      .cls-1 {
        stroke-width: 18px;
      }

      .cls-1, .cls-2 {
        fill: none;
        stroke: #2091b6;
        stroke-linecap: round;
      }

      .cls-3 {
        opacity: .5;
      }

      .cls-4 {
        fill: #858585;
      }

      .cls-4, .cls-5, .cls-6, .cls-7 {
        stroke-width: 0px;
      }

      .cls-5 {
        fill: #d9d9d9;
      }

      .cls-6 {
        fill: #17a681;
        fill-rule: evenodd;
      }

      .cls-7 {
        fill: #7a5d40;
      }

      .cls-2 {
        stroke-width: 7px;
      }
    </style>
  </defs>
  <path class="cls-6" d="M130.3,16.4c22.4,3.4,45.6,9.4,62,18.3,18.2,9.9,29.5,21.5,28.4,31.1-1.2,9.9-13.2,17.8-34.4,19.6-19.7,1.7-44.6-6.5-68.3-10.6-28.3-4.9-63.6-3.6-81.8-15.4-18.2-11.9,2.8-20.9,12.4-29.8,6.5-5.9,18.2-9.3,32.7-11.7,14.6-2.4,29.8-4.5,48.9-1.6h0Z"/>
  <path class="cls-2" d="M191.5,52.8c2,1.9,5.7,6.3,8.7,6.5,1.6,0,3,.7,4.6.7s2.9-1,4.3-1.7c2.3-1.2,5.5-1.1,6.7,1.5.6,1.4,2.3,4.1,3.8,4.6,1.6.5,3,0,4.7,0,3.8,0,7.6,1.3,11.4,1.7,5.3.6,14.5.4,14.7-6.9.2-6.7-7.9-10.2-13.3-12.1-2.7-.9-6.3-2.5-9.2-1.5-2.6.9-3.2,2.3-4.7,4.4-1.4,2.1-3.7,5.1-1.6,7.4.5.6,1,2.5,1.4,2.8,1,.6,1.5,1.3,2.2,2"/>
  <path class="cls-2" d="M11.6,51.7c.3,2.5.8,4.9,1.7,7.2,1.5,3.7,2.7,7.9,5.2,11.1,1.3,1.7,4.3,2,6.2,2.1,3.9.4,7.6-.8,11.4-1.7,3.1-.7,6.2-1.8,9.4-2.4,1.7-.3,3.2-.4,3.9-2.1,1.8-4.6-.2-10.2-2-14.4-.8-1.8-1.8-3.5-2.5-5.4-.3-.7-.7-2.7-1.7-2.7s-1.5.3-2.1.5c-3.2.9-6.5,1.5-9.8,2.2-4.1.8-8.4,1.3-12.4,2.5-2.8.9-6.6,0-9.1,1.9-1.2,1,4.5,9.4,5,10.2,2.9,4.8,6,10.4,10.3,14.1,2,1.7,3.5,1.8,5.8.4,4.5-3,8.6-6.9,13.5-9.2,2.6-1.2,5.8-2.9,7-5.6.9-2.1-1.2-3.6-.9-5.4,0-.7,9,3.8,9.7,4.3.6.4,6.2,6.1,6.4,4.2.2-2.5-1-4.8-1-7.4s.6-.8,1.6,1.1c.7,1.4,1.6,2.5,2.6,3.7.3.3,1,1.7,1,1.5"/>
  <path class="cls-1" d="M25.1,55.9c-1.7,0-6.5-1.6-5-.8.2,0,2.5.9,2.5,1-.4,1-5.6-3-6.7-3.5-.5-.2,1.8,3.9,2.1,4.4,1.1,2.3,2.8,4.6,4.5,6.5.9,1.1,2.1,2.8,3.4,3.4,2.6,1.3,5.4-1.2,7.4-2.4,2.3-1.4,4.4-2.5,7-3.3,1.5-.5,3.6-1.2,4.9-2.1,1.3-.9,1.5-.5.8-2.1-1-2.3-2.6-4-4.9-5.1-.8-.4-5.5-1.5-5.6-2.6,0-.9,4.3-.5,4.6,1.2,0,.9.6,1.4,0,2.4-.9,1.9-5.3,1-6.5.9-4.9-.5-5.4-1.2-8.8-1.2"/>
  <path class="cls-2" d="M224.4,59.6c1.6,1.4,3.8,2.5,5.7,3.4,1.7.8,3.3,2.3,5.2,2.4,3.2.3,6.3.3,9.5.3"/>
  <path class="cls-2" d="M250.6,56.9c-1.8-1.6-4.8-2.5-7.1-3.4-1.2-.5-2.1-2.1-2.6-3.3-.4-1.1-2-1.8-3.1-2.1-2.2-.7-4.2-1.6-6.5-1.6s-1.8,0-2.8.9c-.6.6-1.2,1.2-2.1,1.2"/>
  <path class="cls-1" d="M25.6,57.9c.8.5,9.5,3.3,10,2.4"/>
  <path class="cls-4" d="M153.3,6.6c1.7-.6,35.9,13.8,52.5,20.6l-15.2,17-46.8-25.7c1.3-5.7,6.7-9.9,9.6-11.9h-.1Z"/>
  <path class="cls-5" d="M173.7,7c-7.4-.8-17.1-.3-21,0l46.4,22.2h11.1l2.1-1.8c-16.1-4.8-31.1-16.6-38.7-20.4h.1Z"/>
  <path class="cls-4" d="M152.8,78.2l-11.7-4.8c-11.2-8.8-33.7-29.2-33.7-39.7s8.1-16.9,12.1-18.8c2.3,6.8,45.3,18.9,61.3,25.5l-28,37.8h0Z"/>
  <path class="cls-5" d="M191.5,42.9l-16-1.5c-17.6-8.2-59-23.6-56.7-25.7,2.3-2.2,18.6.2,26.5,1.7l46.3,25.5h0Z"/>
  <path class="cls-4" d="M42.9,21.2C49.4,2.9,55.3-.5,57.5,0l64.2,57.2-24.6,37.1c-7.8-4.5-28-32.3-37.1-45.7-14-13.4-17.2-23.9-17.1-27.4h0Z"/>
  <path class="cls-5" d="M88.1,8.8C68.8.5,59.1-.5,56.6.1c7.1,19.6,18.3,31.2,22.9,37.2,3.7,4.8,30.9,14.2,40.8,19.3h25.2c-27.7-12.6-49.9-37.2-57.5-47.8h0Z"/>
  <path class="cls-7" d="M142,73.7l-45.4,20.5c5.1-31.7,17.2-39.1,22.6-38.8l26.3,1.7-3.5,16.6h0Z"/>
  <path class="cls-7" d="M173.7,40.9l16.2,1c3.3-12.9,7.8-15,9.6-14.5h12.9l-2.7,24-9.2,5.4-5.4-1.9v-3.5l-2.1,1v4.3h-3.1l-37.2,21.3c9-31.6,17.7-38,21-37.2h0Z"/>
  <g class="cls-3">
    <rect class="cls-5" x="111.5" y="60.3" width="2.4" height="9"/>
  </g>
  <g class="cls-3">
    <rect class="cls-5" x="116.3" y="57.9" width="2.4" height="9"/>
  </g>
  <g class="cls-3">
    <rect class="cls-5" x="116.9" y="69.2" width="2.4" height="9"/>
  </g>
  <g class="cls-3">
    <rect class="cls-5" x="107.4" y="70.4" width="2.4" height="9"/>
  </g>
  <g class="cls-3">
    <rect class="cls-5" x="122.9" y="62.6" width="2.4" height="9"/>
  </g>
  <g class="cls-3">
    <rect class="cls-5" x="122.9" y="74" width="2.4" height="6.6"/>
  </g>
  <g class="cls-3">
    <rect class="cls-5" x="128.8" y="58.5" width="2.4" height="6.6"/>
  </g>
  <g class="cls-3">
    <rect class="cls-5" x="128.8" y="68.6" width="2.4" height="6.6"/>
  </g>
  <g class="cls-3">
    <rect class="cls-5" x="112.1" y="77" width="2.4" height="6.6"/>
  </g>
  <g class="cls-3">
    <rect class="cls-5" x="103.2" y="81.7" width="2.4" height="6.6"/>
  </g>
  <g class="cls-3">
    <path class="cls-5" d="M133.9,60.6h2.4v9h-2.4v-9Z"/>
  </g>
  <g class="cls-3">
    <rect class="cls-5" x="173" y="50.7" width="2.4" height="9"/>
  </g>
  <g class="cls-3">
    <rect class="cls-5" x="169.4" y="45.9" width="2.4" height="9"/>
  </g>
  <g class="cls-3">
    <rect class="cls-5" x="204.7" y="37" width="2.4" height="9"/>
  </g>
  <g class="cls-3">
    <rect class="cls-5" x="164.7" y="52.5" width="2.4" height="9"/>
  </g>
  <g class="cls-3">
    <rect class="cls-5" x="179" y="44.1" width="2.4" height="9"/>
  </g>
  <g class="cls-3">
    <rect class="cls-5" x="200.5" y="44.1" width="2.4" height="6.6"/>
  </g>
  <g class="cls-3">
    <rect class="cls-5" x="200.5" y="33.4" width="2.4" height="6.6"/>
  </g>
  <g class="cls-3">
    <rect class="cls-5" x="185" y="50.1" width="2.4" height="6.6"/>
  </g>
  <g class="cls-3">
    <rect class="cls-5" x="168.2" y="58.5" width="2.4" height="6.6"/>
  </g>
  <g class="cls-3">
    <rect class="cls-5" x="159.3" y="63.2" width="2.4" height="6.6"/>
  </g>
</svg>