<?xml version="1.0" encoding="UTF-8"?>
<svg id="Layer_1" data-name="Layer 1" xmlns="http://www.w3.org/2000/svg" version="1.1" viewBox="0 0 187 118.7">
  <defs>
    <style>
      .cls-1 {
        fill: #6e97f7;
      }

      .cls-1, .cls-2, .cls-3 {
        stroke-width: 0px;
      }

      .cls-2 {
        fill: #102a7b;
      }

      .cls-3 {
        fill: #17a681;
        fill-rule: evenodd;
      }
    </style>
  </defs>
  <path class="cls-3" d="M90.3,91c22.1-.6,45.6,0,63.1,2.2,19.4,2.6,32.6,6.4,33.5,10.5.9,4.3-9.1,8.6-29,11.3-18.5,2.5-44,1.2-67.6,1.6-28.1.4-61.7,4.1-81.4.7-19.8-3.4-1.5-9,5.9-13.6,5-3.1,15.6-5.5,29-7.8,13.5-2.3,27.6-4.5,46.6-5h0Z"/>
  <path class="cls-2" d="M95.5,9.4l-52.2,25.3v67.4l52.2,4.9V9.4h0Z"/>
  <path class="cls-1" d="M175.2,27.7L95.5,9.4v97.6l79.7-5.2V27.7h0Z"/>
</svg>