<?xml version="1.0" encoding="UTF-8"?>
<svg id="Layer_1" data-name="Layer 1" xmlns="http://www.w3.org/2000/svg" version="1.1" viewBox="0 0 75.2 69.9">
  <defs>
    <style>
      .cls-1 {
        fill: #242424;
      }

      .cls-1, .cls-2, .cls-3, .cls-4, .cls-5, .cls-6, .cls-7 {
        stroke-width: 0px;
      }

      .cls-2 {
        fill: #545454;
      }

      .cls-3 {
        fill: #3d3d3d;
      }

      .cls-8 {
        fill: none;
      }

      .cls-8, .cls-9, .cls-10 {
        stroke: #fff;
        stroke-linejoin: round;
        stroke-width: 2px;
      }

      .cls-4, .cls-5, .cls-10 {
        fill: #fff;
      }

      .cls-5 {
        fill-opacity: .5;
      }

      .cls-9, .cls-7 {
        fill: #143263;
      }

      .cls-6 {
        fill: #cf1414;
      }

      .cls-10 {
        fill-opacity: .6;
      }
    </style>
  </defs>
  <path class="cls-2" d="M75,14.6L28,7v31l47-2V14.7h0Z"/>
  <path class="cls-1" d="M46.3,67c1.1,2.6,4.1,2.9,5.5,2.7l-1.8-5.3-4.9-4.9c0,1.4,0,4.8,1.2,7.5Z"/>
  <path class="cls-3" d="M47.2,63c.4,6.9,4.8,7.4,6.9,6.7,6.3-2.4,5-10.5,2.7-13.3-3.7-.5-10-.3-9.6,6.6h0Z"/>
  <path class="cls-7" d="M0,10.4L26.8,0l.9,38.4,47.5-2v18.9l-14.4,3.3c-5.3-5.6-9.9-.5-11.5,2.7l-21,4.3L0,58.7V10.3h0Z"/>
  <path class="cls-8" d="M28.2,65.7L0,58.7V10.3L26.8,0l.9,38.4M28.2,65.7l21-4.3c1.6-3.2,6.2-8.3,11.5-2.7l14.4-3.3v-18.9l-47.5,2M28.2,65.7l-.6-27.3"/>
  <path class="cls-5" d="M74.8,14.5L27.1,6.7v16.3l47.7,2.8v-11.2h0Z"/>
  <path class="cls-9" d="M75.1,14.4L27.1,6.6V.4l48,8.7v5.4h0Z"/>
  <path class="cls-8" d="M45.2,9.6v28"/>
  <path class="cls-8" d="M75.2,8.8L26.7.2l1.1,38.3,47.4-2V8.8Z"/>
  <path class="cls-8" d="M60.3,11.8v25.4"/>
  <path class="cls-10" d="M104.6,10.7L66.6-1,29,6.8l45.8,7.3,29.8-3.4h0Z"/>
  <path class="cls-6" d="M36,52.6l-.6-8.7,2.9-.2c.7,0,1.2,0,1.7.3.5.2.8.5,1,.9s.4.9.4,1.4,0,1-.2,1.4-.5.8-.9,1.1-1,.4-1.6.5h-2.1c0,0,0-.8,0-.8h2.1c.5-.2.8-.3,1.1-.5s.5-.4.6-.7.2-.6,0-1c0-.3,0-.7-.3-.9,0-.3-.4-.5-.7-.6s-.7-.2-1.2-.2h-1.9c0,0,.5,7.9.5,7.9h-1.1.2ZM44.1,52.4l-.7-.4,4.1-7.1.7.4-4.1,7.1ZM46,52.1c-.6,0-1.1,0-1.6-.3-.5-.2-.8-.6-1.1-1.1s-.4-1.1-.5-1.7c0-.7,0-1.3.2-1.8s.5-.9,1-1.3c.4-.3.9-.5,1.5-.5s1.1,0,1.6.3c.5.2.8.6,1.1,1.1s.5,1.1.5,1.8,0,1.3-.3,1.8c-.2.5-.5.9-1,1.2-.4.3-.9.5-1.5.5h0ZM46,51.2c.4,0,.8-.2,1.1-.4s.5-.6.6-.9c0-.4.2-.8,0-1.2,0-.4,0-.8-.3-1.2s-.4-.7-.7-.9-.7-.3-1.1-.3-.8.2-1.1.4c-.3.3-.5.6-.6,1s-.2.8,0,1.2c0,.4,0,.8.3,1.2s.4.7.7.9.7.3,1.1.3h0ZM50.9,42.8l.6,8.7h-1l-.6-8.6h1ZM57.6,46l-.9.3c0,0-.2-.3-.3-.4,0,0-.3-.2-.5-.3s-.4,0-.7,0c-.4,0-.7,0-1,.3s-.4.4-.3.7c0,.2,0,.4.3.6.2,0,.5.2.9.3l1,.2c.6,0,1,.3,1.4.6.3.3.5.6.5,1.1s0,.7-.3,1c-.2.3-.5.6-.8.8-.4.2-.8.3-1.3.3s-1.2,0-1.7-.3-.8-.7-.9-1.2l.9-.3c0,.3.3.6.6.8s.6.2,1,.2.8-.2,1.1-.4.4-.5.4-.8,0-.4-.3-.6c-.2,0-.4-.2-.8-.3l-1.1-.2c-.6,0-1.1-.3-1.4-.6-.3-.3-.5-.6-.5-1.1s0-.7.2-1,.5-.5.8-.7c.4-.2.8-.3,1.2-.3.6,0,1.2,0,1.6.3.4.3.7.6.9,1.1h0ZM62.4,50.9c-.6,0-1.2,0-1.7-.3-.5-.2-.8-.6-1.1-1.1s-.4-1.1-.5-1.7c0-.7,0-1.3.2-1.8s.5-1,.9-1.3.9-.5,1.5-.5.7,0,1,0c.3,0,.7.3.9.5.3.2.5.6.7,1s.3.9.3,1.5v.4l-5,.3v-.9l4-.3c0-.4,0-.7-.3-1s-.4-.5-.7-.6-.6-.2-1-.2-.7.2-1,.4-.5.5-.6.8-.2.7-.2,1v.6c0,.5.2.9.4,1.2s.5.6.8.7c.3.2.7.2,1.1.2s.5,0,.7-.2c.2,0,.4-.2.5-.4s.3-.4.3-.6l1,.2c0,.3-.2.6-.5.9-.2.3-.5.5-.9.6-.3.2-.7.3-1.2.3l.4.2ZM66.6,50.5l-.5-6.5h1v.9h0c0-.3.3-.6.6-.8s.6-.3,1-.4h.6v1h-.6c-.3,0-.6,0-.8.3-.2,0-.4.3-.5.6,0,.2-.2.5-.2.8l.3,4.1h-1,.1Z"/>
  <path class="cls-4" d="M36,52.6h-1c0,.6.5,1,1.1,1v-1h0ZM35.4,43.9v-1c-.6,0-1,.5-1,1.1h1ZM40,44l-.4.9h0l.4-.9ZM41,44.9l-.9.5h0l.9-.5ZM41.2,47.7l-.9-.4h0l.9.4ZM40.4,48.8l.6.8h0l-.6-.8ZM36.6,49.4h-1c0,.6.5,1,1.1,1v-1h0ZM36.5,48.5v-1c-.6,0-1,.5-1,1.1h1ZM39.7,48l-.6-.8h0l.6.8ZM40.3,47.3l-.9-.4h0l.9.4ZM40.2,45.4l-.9.5h0l.9-.5ZM39.5,44.8l-.4.9h0l.4-.9ZM36.5,44.8v-1c-.6,0-1,.5-1,1.1h1ZM37,52.6v1c.6,0,1-.5,1-1.1h-1ZM37,52.6l-.6-8.7h-2c0,0,.6,8.8.6,8.8h2ZM35.4,44.9l2.9-.2v-2c0,0-3.1.2-3.1.2v2h.2ZM38.4,44.7c.6,0,1,0,1.2.2l.9-1.8c-.7-.3-1.4-.4-2.2-.4v2h0ZM39.6,44.9c.3,0,.5.3.6.5l1.7-1c-.3-.6-.9-1-1.5-1.3l-.9,1.8h.1ZM40.2,45.4c.2.3.2.6.3.9h2c0-.8-.2-1.4-.5-2l-1.7,1h0ZM40.5,46.3c0,.4,0,.7,0,1l1.8.8c.2-.6.3-1.2.3-1.9h-2ZM40.3,47.3c0,.2-.3.4-.5.6l1.1,1.7c.6-.4,1-.9,1.3-1.5l-1.9-.8h0ZM39.8,47.9c-.2.2-.6.3-1.2.3v2c.9,0,1.7-.2,2.3-.6l-1.1-1.7ZM38.6,48.2h-2.1c0,0,0,2.1,0,2.1h2.1c0,0,0-2.1,0-2.1ZM37.6,49.3v-.9h-2.1v1h2.1ZM36.6,49.4h2.1c0,0,0-2.1,0-2.1h-2.1c0,0,0,2.1,0,2.1ZM38.7,49.3c.6,0,1.1-.2,1.6-.5l-1.1-1.7s-.3,0-.6.2v2h0ZM40.3,48.8c.4-.3.8-.7,1-1.2l-1.9-.7s0,0-.2.2l1.1,1.7h0ZM41.2,47.7c.2-.4.2-.9.2-1.4h-2v.7l1.9.7h-.1ZM41.4,46.3c0-.5-.2-.9-.4-1.3l-1.7,1c0,0,0,.3,0,.5h2v-.2ZM41,44.9c-.3-.5-.6-.8-1.1-1l-.8,1.8c0,0,.2,0,.2.2l1.8-1h-.1ZM39.9,43.9c-.5-.2-1.1-.3-1.6-.3v2h.8l.8-1.8h0ZM38.3,43.7h-1.9c0,0,0,2.1,0,2.1h1.9c0,0,0-2.1,0-2.1ZM35.5,44.9l.5,7.8h2c0,0-.5-7.9-.5-7.9h-2ZM37,51.6h-1.1v2.1h1.2v-2.1ZM44.1,52.4l-.5.9c.2,0,.5.2.8,0,.3,0,.5-.2.6-.5l-.9-.5h0ZM43.4,52l-.9-.5c-.3.5,0,1.1.4,1.4l.5-.9ZM47.5,45l.5-.9c-.2,0-.5-.2-.8,0-.3,0-.5.2-.6.5l.9.5h0ZM48.2,45.4l.9.5c.3-.5,0-1.1-.4-1.4l-.5.9ZM44.4,51.8l-.5.9h0l.5-.9ZM43.3,50.6l-.9.5h0l.9-.5ZM43.1,47.1l-.9-.4h0l.9.4ZM44,45.8l-.6-.8h0l.6.8ZM47.1,45.6l-.5.9h0l.5-.9ZM48.3,46.7l-.9.5h0l.9-.5ZM48.5,50.3l-.9-.4h0l.9.4ZM47.5,51.5l-.6-.8h0l.6.8ZM47,50.7l-.7-.7.7.7ZM47.6,49.8l1,.3h0l-1-.3ZM47.5,47.4l.9-.4h0l-.9.4ZM46.8,46.5l.6-.8h0l-.6.8ZM44.5,46.6l-.7-.7h0l.7.7ZM44,47.6l-1-.3h0l1,.3ZM44.1,50l-.9.4h0l.9-.4ZM44.8,50.9l.6-.8-.6.8ZM44.6,51.6l-.7-.4-1,1.7.7.4,1-1.7ZM44.3,52.5l4.1-7.1-1.7-1-4.1,7.1,1.7,1ZM47,45.8l.7.4,1-1.7-.7-.4-1,1.7ZM47.3,44.9l-4.1,7.1,1.7,1,4.1-7.1-1.7-1ZM46,51.1c-.4,0-.8,0-1-.2l-.9,1.8c.7.3,1.4.5,2.1.4v-2h-.2ZM44.9,50.9c-.3-.2-.5-.4-.7-.7l-1.7,1c.4.6.9,1.1,1.5,1.5l1-1.8h0ZM44.2,50.1c-.2-.3-.3-.8-.4-1.3h-2c0,.9.3,1.7.6,2.3l1.7-1h.1ZM43.8,48.8c0-.6,0-1,.2-1.4l-1.9-.7c-.3.7-.4,1.4-.3,2.2h2ZM44,47.5c.2-.4.4-.6.6-.8l-1.2-1.6c-.6.4-1,1-1.3,1.7l1.9.8h0ZM44.6,46.7c.3-.2.6-.3,1-.3v-2c-.9,0-1.6.3-2.2.7l1.2,1.6ZM45.6,46.3c.4,0,.8,0,1,.2l1-1.8c-.6-.4-1.4-.5-2.1-.4v2h0ZM46.7,46.5c.3.2.5.4.7.7l1.7-1c-.4-.6-.9-1.1-1.5-1.5l-.9,1.8ZM47.4,47.2c.2.3.3.8.4,1.3h2c0-.9-.3-1.7-.6-2.3l-1.7,1h-.1ZM47.8,48.6c0,.6,0,1-.2,1.3l1.8.8c.3-.7.4-1.4.3-2.2h-2,.1ZM47.6,49.9c0,.4-.4.6-.6.8l1.2,1.6c.6-.4,1-1,1.3-1.7l-1.9-.8h0ZM47,50.7c-.3.2-.6.3-1,.3v2c.9,0,1.6-.3,2.2-.7l-1.2-1.6ZM46,52.2c.6,0,1.2-.2,1.7-.7l-1.3-1.5s-.2,0-.5.2v2h0ZM47.7,51.5c.4-.4.7-.9.9-1.4l-1.9-.6c0,.2-.2.4-.3.5l1.3,1.5ZM48.6,50.1c0-.5.2-1,.2-1.6h-2v1l1.9.6h-.1ZM48.7,48.5c0-.5-.2-1.1-.4-1.5l-1.8.8c0,.3.2.5.2.9h2v-.2ZM48.4,46.9c-.2-.5-.6-1-1-1.3l-1.1,1.6c0,0,.3.2.4.5l1.8-.8h-.1ZM47.3,45.7c-.5-.4-1.1-.5-1.8-.4v2h.6l1.1-1.6h.1ZM45.6,45.2c-.6,0-1.2.3-1.7.7l1.4,1.5s.2,0,.5-.2v-2h-.2ZM43.9,45.9c-.4.4-.7.9-.9,1.4l1.9.6c0-.2.2-.4.3-.5l-1.4-1.5h.1ZM43,47.3c0,.5-.2,1-.2,1.6h2v-1l-1.9-.6h.1ZM42.8,48.9c0,.5.2,1.1.4,1.5l1.8-.8c0-.2-.2-.5-.2-.9h-2v.2ZM43.2,50.4c.2.5.6,1,1,1.3l1.1-1.6c0,0-.3-.2-.4-.4l-1.8.8h.1ZM44.3,51.7c.5.4,1.1.5,1.8.4v-2h-.6l-1.1,1.6h-.1ZM50.9,42.8h1c0-.6-.5-1-1.1-1v1h0ZM51.5,51.6v1c.6,0,1-.5,1-1.1h-1ZM50.5,51.6h-1c0,.6.5,1,1.1,1v-1h0ZM49.9,42.9v-1c-.6,0-1,.5-1,1.1h1ZM49.9,42.9l.6,8.7h2c0,0-.6-8.8-.6-8.8h-2ZM51.4,50.6h-1v2.1h1.1v-2.1ZM51.5,51.6l-.6-8.7h-2c0,0,.6,8.8.6,8.8h2ZM50,43.9h1v-2.1h-1.1v2.1ZM57.6,46l.3.9c.3,0,.5-.3.6-.5,0-.3,0-.5,0-.8l-.9.4h0ZM56.7,46.4l-.9.4c.2.5.8.7,1.2.5l-.3-.9ZM56.5,45.9l-.8.7h0l.7-.7h0ZM56,45.6l.4-.9-.4.9ZM54.3,45.9l.6.8h0l-.6-.8ZM54.2,47.2l-.6.8h0l.6-.8ZM55.1,47.5l-.2,1h0l.2-1ZM56.1,47.6l-.2,1h0l.2-1ZM57.5,48.2l-.7.7h0l.7-.7ZM57.7,50.3l-.8-.5h0l.8.5ZM53.9,51.1l.5-.9-.5.9ZM53,49.9l-.3-1c-.5.2-.8.7-.7,1.2l1-.3h0ZM53.9,49.6l.9-.3c-.2-.5-.7-.8-1.3-.6l.3,1h0ZM54.5,50.3l-.5.9h0l.5-.9ZM56.6,50.2l.6.8h0l-.6-.8ZM56.7,48.8l-.6.8h0l.6-.8ZM55.9,48.5l-.2,1h0l.2-1ZM54.8,48.4l-.2,1h0l.2-1ZM53.4,47.8l-.7.7h0l.7-.7ZM53.2,45.7l-.8-.5h0l.8.5ZM54,45l-.5-.9h0l.5.9ZM56.8,45l-.6.8h0l.6-.8ZM57.3,45.1l-.9.3.7,1.9.9-.3-.7-1.9ZM57.6,45.9c0-.2-.3-.5-.4-.7l-1.5,1.3s0,0,0,.2l1.8-.8h0ZM57.2,45.3c-.2-.3-.5-.5-.8-.6l-.8,1.8h0l1.5-1.3h0ZM56.4,44.7c-.4-.2-.8-.2-1.2-.2v2h.4l.8-1.8ZM55.2,44.5c-.6,0-1.1.2-1.5.6l1.2,1.6s.2,0,.4,0v-2h-.1ZM53.7,45.1c-.5.4-.8.9-.7,1.6h2q0,0,0,0h0l-1.2-1.6h0ZM52.9,46.7c0,.5.3,1,.7,1.3l1.1-1.6h0c0,0-2,0-2,0l.2.2ZM53.7,48c.4.3.8.4,1.3.5l.4-2h-.4l-1.1,1.6h-.2ZM55,48.4l1,.2.3-2-1-.2-.3,2ZM55.9,48.6c.5,0,.7.2.9.3l1.3-1.5c-.5-.4-1.1-.7-1.8-.8l-.3,2h-.1ZM56.8,48.9s.2.2.2.4h2c0-.8-.3-1.4-.8-1.9l-1.3,1.5h-.1ZM57,49.3c0,.2,0,.3,0,.4l1.7,1.1c.3-.5.4-1,.4-1.6h-2ZM56.9,49.8c0,0-.2.3-.5.4l.9,1.8c.5-.3.9-.6,1.2-1.1l-1.7-1.1h0ZM56.4,50.2c-.2,0-.5.2-.9.2v2c.8,0,1.3-.2,1.9-.5l-.9-1.8h0ZM55.5,50.4c-.5,0-.9,0-1.1-.2l-1,1.7c.7.4,1.4.5,2.2.4v-2h-.1ZM54.4,50.2c-.2,0-.4-.3-.4-.6l-1.9.5c.2.8.7,1.4,1.4,1.8l1-1.7h0ZM53.3,50.8l.9-.3-.6-1.9-.9.3.6,1.9ZM52.9,49.9c.2.5.5,1,1,1.3l1-1.7v-.2c0,0-2,.6-2,.6h0ZM53.9,51.2c.5.3,1,.4,1.6.3v-2h-.6l-1,1.7ZM55.5,51.5c.6,0,1.2-.2,1.7-.6l-1.3-1.5s-.2,0-.5,0v2h0ZM57.2,50.9c.4-.4.8-.9.7-1.6h-2q0,0,0,0h0l1.3,1.5h0ZM57.9,49.3c0-.5-.2-.9-.6-1.3l-1.3,1.5h2v-.2ZM57.3,48.1c-.4-.3-.8-.5-1.2-.5l-.3,2h.2l1.3-1.5ZM56.1,47.6l-1.1-.2-.3,2,1.1.2.3-2ZM55,47.4c-.5,0-.7-.2-.8-.3l-1.4,1.5c.5.5,1.2.7,1.9.8l.3-2ZM54.1,47.1s-.2-.2-.2-.4h-2c0,.8.3,1.4.8,1.9l1.4-1.5ZM53.9,46.6v-.4l-1.7-1.1c-.3.5-.4,1-.4,1.6h2.1ZM54,46.2c0,0,.2-.3.4-.4l-.9-1.8c-.5.3-.9.6-1.2,1.1l1.7,1.1h0ZM54.5,45.9c.2,0,.5-.2.8-.2v-2c-.7,0-1.3.2-1.8.4l.9,1.8h0ZM55.3,45.6c.5,0,.8,0,.9.2l1.1-1.7c-.6-.4-1.4-.5-2.2-.5v2h.2ZM56.2,45.8c.2,0,.4.3.5.6l1.8-.8c-.3-.6-.7-1.1-1.2-1.5l-1.1,1.7ZM60.7,50.6l-.5.9h0l.5-.9ZM59.6,49.5l-.9.5h0l.9-.5ZM59.3,46l-.9-.4h0l.9.4ZM60.3,44.7l.6.8h0l-.6-.8ZM62.8,44.3l.3-1h0l-.3,1ZM63.7,44.8l-.6.8h0l.6-.8ZM64.5,45.7l.9-.4h0l-.9.4ZM64.8,47.7v1c.6,0,1-.5,1-1.1h-1ZM59.8,48h-1c0,.6.5,1,1.1,1v-1h0ZM59.7,47.2v-1c-.6,0-1,.5-1,1.1h1ZM63.8,46.9v1c.6,0,1-.5,1-1.1h-1ZM63.5,45.9l-.9.5h0l.9-.5ZM62.8,45.3l-.5.9h0l.5-.9ZM60.8,45.5l.6.8h0l-.6-.8ZM60.2,46.3l-.9-.4h0l.9.4ZM60.4,49.1l-.9.5h0l.9-.5ZM61.2,49.8l-.4.9h0l.4-.9ZM63,49.9l.4.9h0l-.4-.9ZM63.5,49.5l.7.7h0l-.7-.7ZM63.8,48.9l.2-1c-.5,0-1,.2-1.2.7l1,.3ZM64.8,49.1l1,.2c0-.3,0-.5,0-.8,0-.2-.4-.4-.6-.4l-.2,1h-.1ZM64.4,50l.8.6h0l-.8-.6ZM63.5,50.7l.4.9h0l-.4-.9ZM62.3,49.9c-.5,0-.8,0-1.1-.2l-.9,1.8c.7.3,1.4.5,2.2.4v-2h-.2ZM61.2,49.8c-.3-.2-.5-.4-.7-.7l-1.7,1c.4.6.9,1.1,1.5,1.5l.9-1.8ZM60.4,49c-.2-.3-.3-.8-.4-1.3h-2c0,.9.3,1.7.6,2.3l1.7-1h.1ZM60.1,47.7c0-.5,0-1,.2-1.4l-1.9-.7c-.3.7-.4,1.4-.3,2.2h2ZM60.2,46.4c0-.4.4-.6.6-.8l-1.2-1.6c-.6.4-1,1-1.3,1.7l1.9.7h0ZM60.9,45.5c.2-.2.6-.3,1-.3v-2c-.9,0-1.6.3-2.2.7l1.2,1.6ZM61.9,45.2h.7l.5-1.9c-.4,0-.9-.2-1.3,0v2h0ZM62.5,45.3c.2,0,.4,0,.6.3l1.3-1.5c-.4-.3-.8-.6-1.3-.7l-.5,1.9h0ZM63.1,45.6c0,0,.3.3.4.6l1.8-.8c-.2-.5-.6-1-1-1.3l-1.3,1.6h0ZM63.6,46.2c0,.3.2.6.3,1.2h2c0-.8-.2-1.5-.4-2l-1.8.8h0ZM63.8,47.3v.4h2v-.5h-2ZM64.8,46.7l-5,.3v2c0,0,5.2-.3,5.2-.3v-2h-.2ZM60.8,48v-.9h-2.1v1h2.1ZM59.8,48.2l4-.3v-2c0,0-4.2.3-4.2.3v2h.2ZM64.8,46.8c0-.5-.2-1-.4-1.4l-1.7,1c0,0,0,.3,0,.5h2ZM64.3,45.4c-.3-.4-.6-.8-1.1-1l-.9,1.8c0,0,.2,0,.3.3l1.7-1h0ZM63.3,44.4c-.5-.3-1-.3-1.5-.3v2h.6l.9-1.8h0ZM61.8,44.1c-.6,0-1.1.2-1.6.6l1.2,1.6c0,0,.2,0,.5-.2v-2h-.1ZM60.2,44.7c-.4.3-.7.7-.9,1.2l1.8.8c0-.2.2-.3.3-.4l-1.2-1.6h0ZM59.3,45.9c-.2.5-.3,1-.2,1.5h2v-.7l-1.8-.8ZM59.1,47.4v.6h2v-.7h-2ZM59.1,48c0,.6.2,1.2.5,1.7l1.7-1c0-.2-.2-.4-.2-.8h-2ZM59.6,49.6c.3.5.7.9,1.2,1.1l.9-1.8c0,0-.3-.2-.4-.3l-1.7,1ZM60.8,50.7c.5.2,1,.3,1.6.3v-2h-.7l-.9,1.8h0ZM62.4,51c.4,0,.7,0,1-.2l-.8-1.8h-.4v2h.2ZM63.4,50.8c.3,0,.6-.4.9-.6l-1.5-1.3s0,0-.2,0l.8,1.8ZM64.3,50.2c.3-.3.4-.6.5-1l-1.9-.6c0,0,0,.2,0,.2l1.5,1.3h0ZM63.6,49.9l1,.2.4-2-1-.2-.4,2ZM63.9,48.9c0,.2,0,.3-.2.5l1.5,1.3c.3-.4.5-.8.7-1.3l-1.9-.5h0ZM63.6,49.4c0,0-.3.3-.5.4l.9,1.8c.5-.2.9-.5,1.2-.9l-1.5-1.3h-.1ZM63.1,49.7c-.2,0-.5.2-.8.2v2c.7,0,1.2-.2,1.7-.4l-.8-1.8h-.1ZM66.6,50.5h-1c0,.6.5,1,1.1,1v-1h0ZM66.1,44v-1c-.6,0-1,.5-1,1.1h1ZM67.1,43.9h1c0-.6-.5-1-1.1-1v1h0ZM67.2,44.9h-1c0,.6.5,1,1.1,1v-1h0ZM67.2,44.9v1c.5,0,.8-.3,1-.7l-1-.3ZM67.8,44.1l-.6-.8h0l.6.8ZM69.4,43.7h1c0-.6-.5-1-1-1v1ZM69.4,44.7l-.2,1c.3,0,.6,0,.8-.2s.4-.5.3-.8h-1,.1ZM69.2,44.7v1h0v-1ZM68,44.9l.5.8h0l-.5-.8ZM67.4,45.5l-.9-.5h0l.9.5ZM67.6,50.4v1c.6,0,1-.5,1-1.1h-1ZM67.6,50.4l-.5-6.5h-2c0,0,.5,6.7.5,6.7h2v-.2ZM66.2,45h1v-2.1h-1.1v2.1ZM66.1,44v1h2.1v-1.1h-2.1ZM67.2,45.9h0v-2h0v2ZM68.2,45.2c0,0,0-.2.2-.3l-1.2-1.6c-.5.3-.8.8-1,1.4l1.9.6h0ZM68.4,44.9c0,0,.3-.2.5-.2v-2c-.7,0-1.2.2-1.7.6l1.2,1.6h0ZM68.9,44.7h.3v-2h-.4v2h.1ZM69.2,44.7h.2v-2h-.3v2h0ZM68.4,43.7v1h2.1v-1.1h-2.1ZM69.6,43.7h-.3v2h0l.4-2h-.1ZM69.3,43.7h-.5v2h.4l.2-2h-.1ZM68.8,43.7c-.5,0-.9.2-1.3.4l1.1,1.7s.2,0,.4,0v-2h-.2ZM67.5,44.1c-.4.2-.7.6-.9,1l1.8.9.2-.2-1.1-1.7ZM66.6,45c-.2.4-.3.9-.3,1.3h2v-.4l-1.8-.9h0ZM66.3,46.4l.3,4.1h2c0,0-.3-4.3-.3-4.3h-2v.2ZM67.5,49.4h-1v2.1h1.1v-2.1Z"/>
</svg>