<?xml version="1.0" encoding="UTF-8"?>
<svg id="Layer_1" data-name="Layer 1" xmlns="http://www.w3.org/2000/svg" version="1.1" viewBox="0 0 134.8 174.1">
  <defs>
    <style>
      .cls-1 {
        fill: #674c3c;
      }

      .cls-1, .cls-2, .cls-3, .cls-4, .cls-5, .cls-6, .cls-7, .cls-8, .cls-9 {
        stroke-width: 0px;
      }

      .cls-10 {
        stroke: #b01f1f;
        stroke-width: 4px;
      }

      .cls-10, .cls-11, .cls-12 {
        fill: none;
      }

      .cls-2 {
        fill: #17a681;
        fill-rule: evenodd;
      }

      .cls-11 {
        stroke: #311d12;
      }

      .cls-3 {
        fill: #b01f1f;
      }

      .cls-4 {
        fill: #b8c6cf;
      }

      .cls-12 {
        stroke: #4c2f1f;
      }

      .cls-5 {
        fill: #fff;
        fill-opacity: .6;
      }

      .cls-6 {
        fill: #b6c0c8;
      }

      .cls-7 {
        fill: #adb3bf;
      }

      .cls-8 {
        fill: #b4bbc5;
      }

      .cls-9 {
        fill: #393939;
      }
    </style>
  </defs>
  <path class="cls-2" d="M68.8,146c9.3-.2,16.5,2.2,24.2,4,10.8,2.5,29.5,3.9,28.6,8.4-.9,4.6-21.6,4.4-31.7,7.4-8.4,2.5-10.3,7.7-21.1,8.2-11.1.5-19.4-3.3-27.1-6.1-7.6-2.7-17.1-5.7-15.9-9.4,1.1-3.7,13.1-5.3,21.2-7.6,6.9-2,12.9-4.7,21.9-4.8h-.1Z"/>
  <path class="cls-6" d="M95.5,155.8l-4.4,8.9-.2-18.1,4.6-1.4v10.6h0Z"/>
  <path class="cls-4" d="M49.9,157.1v-11.3l7.4,2.7v16.7c0,0-7.4-8.1-7.4-8.1h0Z"/>
  <path class="cls-7" d="M91.1,164.7l-16.5,3.7v-17.8l16.9-2.9-.4,16.9h0Z"/>
  <path class="cls-8" d="M74.7,168.5l-17.6-3.3v-16.5l17.6,1.9v17.9h0Z"/>
  <path class="cls-1" d="M49.7,128.3h2.2l42.4.9,10.6,7.5-4.5,9.6-23.4,5.7-26-3.5-10.3-10.6,9-9.4v-.2Z"/>
  <path class="cls-11" d="M105.4,128.5l-6-3.8M93.4,120.9l6,3.8M99.4,124.7l-.5,3.6M98.5,132l.5-3.7M99,128.4l6.7,4.3M99,128.4l-5.5-3.6"/>
  <path class="cls-8" d="M64.3,78.6l-6.7,66.3,18.4,2.2v-68.5h-11.7Z"/>
  <path class="cls-4" d="M50.4,137.8l7.2,7,6.7-66.3-6.1-.3-7.8,59.6h0Z"/>
  <path class="cls-7" d="M92.3,143.9l-16.2,3.2v-68.6c0,0,10,0,10,0l6.3,65.4h0Z"/>
  <path class="cls-6" d="M95.9,136.9l-3.5,7-6.3-65.3,3.1-.4,6.7,58.7Z"/>
  <path class="cls-11" d="M52.7,120.7l-3,.7M49.7,121.4v6.7M49.7,121.4l-4.6,4.4-.3.3M52.2,124.5l-2.4.4-9.1,8.8v-3.5l4.3-4.1M44.9,126v6.3l.3.5"/>
  <path class="cls-9" d="M90.1,78.2c-14.7,1.9-28.1.8-32.7,0,.4-4.2,3.7-16.1,16-16.7s16.7,12,16.7,16.7Z"/>
  <path class="cls-12" d="M40.5,130.3l5,4.9M50.6,140v3.8M50.6,140l-5-4.9M50.6,140l12.8,1.9M50.6,147.6v-3.8M50.6,143.8l-5.6-5.4M50.6,143.8l12.8,2M45.6,135.2l-.5,3.3M45,138.4l-4.5-4.3v3.3M45,138.4l.5,4.1M76.3,151.7v-3.9M76.3,147.8v-3.9l-12.8-1.9M76.3,147.8l-12.8-2M63.5,141.9v3.9M63.5,145.8v4.2"/>
  <path class="cls-12" d="M78,151.8v-4M100.4,146.1l-.3-4M100,142.1l-.3-4-10.9,2.9M100,142.1l-22.1,5.7M78,147.8v-4l10.9-2.9M88.8,141v7.8"/>
  <path class="cls-12" d="M100.4,145.9l-.3-3.9M100.1,142l-.3-3.9,2.7-4.7M100.1,142l2.8-4.4M105.7,133.1l-.4-4.5-2.7,4.7M105.7,133.1l-.4,3M105.7,133.1l-2.8,4.4M102.5,133.3l.4,4.2M102.9,137.5v3.5"/>
  <path class="cls-3" d="M74.4,76.6c.4-5.3-3.4-6.4-5.8-6.1-1.2,0-6.5,0-6.5,6.1s3,6.2,5.5,6.6c2.1,0,6.3-1.3,6.7-6.6h0Z"/>
  <line class="cls-10" x1="25.3" y1="18.1" x2="113.1" y2="135.2"/>
  <line class="cls-10" x1="110.4" y1="25.4" x2="25.3" y2="129.7"/>
  <path class="cls-5" d="M24.6,17l-10.6,7.8,27.4,38.5,12-8.9L24.6,17h0Z"/>
  <path class="cls-5" d="M110.9,25.7l-9.9-8.8-31.9,34.8,11.2,9.9,30.6-35.9h0Z"/>
  <path class="cls-5" d="M93.6,90.4l-10.3,8.3,29,37.3,11.6-9.4-30.3-36.2h0Z"/>
  <path class="cls-5" d="M64.8,101.6l-10.1-8.5-30.9,35.7,11.5,9.6,29.5-36.8Z"/>
</svg>