<?xml version="1.0" encoding="UTF-8"?>
<svg id="Layer_1" data-name="Layer 1" xmlns="http://www.w3.org/2000/svg" version="1.1" viewBox="0 0 1239.8 595.3">
  <defs>
    <style>
      .cls-1 {
        fill: #b87a59;
      }

      .cls-1, .cls-2, .cls-3, .cls-4, .cls-5, .cls-6, .cls-7, .cls-8, .cls-9, .cls-10, .cls-11, .cls-12 {
        stroke-width: 0px;
      }

      .cls-1, .cls-5, .cls-6 {
        fill-rule: evenodd;
      }

      .cls-2 {
        fill: #175d7b;
      }

      .cls-3 {
        fill: #1a5a7d;
      }

      .cls-4 {
        fill: #298fb0;
      }

      .cls-13 {
        stroke: #796536;
        stroke-width: 6px;
      }

      .cls-13, .cls-14 {
        fill: none;
        stroke-linecap: round;
      }

      .cls-5 {
        fill: #edcd51;
      }

      .cls-6, .cls-8 {
        fill: #7eba45;
      }

      .cls-7 {
        fill: #c4c2b0;
      }

      .cls-9 {
        fill: #5e9841;
      }

      .cls-10 {
        fill: #88bdbe;
      }

      .cls-11 {
        fill: #8fc84e;
      }

      .cls-12 {
        fill: #71ac43;
      }

      .cls-14 {
        stroke: #1e91b6;
        stroke-width: 28px;
      }
    </style>
  </defs>
  <path class="cls-7" d="M25.2,362.9c-4-10,2.6-33.8,4.3-39l128.5,98.5c-16.3-3.7-60-7.3-64.8-8.5-6-1.5-22-11.5-28-18-4.8-5.2-16.7-11.8-22-14.5-4.3-2-14-8.5-18-18.5Z"/>
  <path class="cls-1" d="M150.9,421.1c-11.1-1.8-27-3.6-39.4-4.9-9.2-1-16.5-1.8-18.3-2.2-6-1.5-22-11.5-28-18-2-2.1-5.2-4.5-8.6-6.8l1.4-3.7-2.5-7.5,1-6.5,94.4,49.7h0Z"/>
  <path class="cls-5" d="M595.4,184.1c114.8,1.7,231-13.4,336.3-.2,118.7,14.8,238.9,40,270.5,75.8,31.3,35.5,37.9,78.6-38.7,107.9-62.7,24-277.9,6.7-355.5,26.8-94.3,24.4-117.4,49.2-239.5,59.5-122.1,10.3-215.5,4.6-316.5-17.5-99.2-21.7-177.8-64.4-200.5-99.5-21.3-33.1,43.1-32.1,75.6-64.4,34.1-33.9,3.4-79.2,106.5-98.7,103.6-19.6,237.8,8.5,361.9,10.3h0Z"/>
  <path class="cls-13" d="M30,336.4c.2,5,2,17,5.6,20.2,3.9,3.5,6.7,7.3,11.8,9.2,3.3,1.2,6,3.3,9,5.2,1.3.8,2.6,1.6,4,2.3,2.3,1.2,3.3,3,4.8,5,.8,1.1,2.1,2.7,3.2,3.4,3,1.7,4.8,4.7,7.5,6.7,3.3,2.6,7.5,3.5,10.4,6.6,1.3,1.4,3.2,2.3,4.9,3.1,2.2,1.1,4,2.9,6.4,3.5,3.7,1,7.5,2,11.2,2.8,1,.2,7.8,1.9,8.6.4"/>
  <path class="cls-6" d="M566.4,170.1c114.8,1.7,231-13.4,336.3-.2,118.7,14.8,238.9,40,270.5,75.8,31.3,35.5-37,72.7-113.7,102-62.7,24-188.8,23.2-266.4,43.3-94.3,24.4-104.6,74.1-226.7,84.4-122.1,10.3-250.2-13.4-351.2-35.5-99.2-21.7-161.1-57.2-183.7-92.2-21.3-33.1,34.1-56.9,66.6-89.2,34.1-33.9,3.4-79.2,106.5-98.7,103.6-19.6,237.8,8.5,361.9,10.3h0Z"/>
  <path class="cls-14" d="M103.5,227.8c.4,3.6,3.5,5.2,6.1,7.4,5.3,4.7,10.1,10,15.2,14.9,12,11.5,23.4,22.4,38.3,30,39.2,19.9,83.1,19.4,125.8,12.4,20-3.3,40.1-7.6,60.5-8,15.8-.2,39.1-2.2,50.3,11.5,7.4,9.1-3.2,16.2-11.6,16.2s-11,.1-16.4,0c-5.6-.1-10.6-3.6-16.1-4.7-14.9-3-28.7-8.6-44.2-8.6s-26.9-.5-40.3,0c-7,.2-16.4-2.2-23.6-2.2s-15.4-.1-18-.1"/>
  <path class="cls-9" d="M830,110.4c-52-1.6-104.7,52.7-124.5,80h266c-25.5-26-89.5-78.4-141.5-80Z"/>
  <path class="cls-12" d="M674,128.9c-42.4-13.2-90.8,17.3-113,45l169.5,21.5h202.5c-57.7-16.7-216.6-53.3-259-66.5Z"/>
  <path class="cls-8" d="M958,146.9c45.2-1.6,84,31.7,94,48.5h-328.5c38.2-15.5,189.3-46.9,234.5-48.5Z"/>
  <path class="cls-11" d="M561.5,173.9c3.6.1,8.1.6,13.3,1.6l82.7,9.9c17.3,8,49.2,27,38,39-14,15-44,23.5-46.5,31s29.5,8.5,73.5,25c35.2,13.2,34.7,46.2,30,61-6.8,8.3-22.4,30-30,50s-17.3,32.2-11,34.5c-35,21.5-86.1,48.7-104.5,37.5s17.5-44.5,30-60c15.8-10.8,46.3-38.4,41.5-62s-39.3-35.2-56-38c-17.8-6.3-52.8-21.7-50-32.5s17.8-21.8,25-26c20.3-7.5,55.5-27,33.5-45-16.8-13.7-39.6-21.3-56.2-24.4l-13.3-1.6Z"/>
  <path class="cls-10" d="M373.6,367.3l-188.1,75.7c305,40.2,533.3,25.5,606,8.7l-160.8-84.4h-257Z"/>
  <path class="cls-3" d="M185.5,459.8v-16.8c208.6,27.8,490.9,18.4,606,8.7v18.6c-373.8,23-515.7,5.6-606-10.6Z"/>
  <path class="cls-10" d="M279.9,451.7l-26.1,11.2-26.1-1.9,26.1-10.6,26.1,1.2Z"/>
  <path class="cls-2" d="M227.7,479v-18l26.1,1.9v18.6l-26.1-2.5Z"/>
  <path class="cls-4" d="M277.4,472.8l-23.6,8.7v-18.6l23.6-10.1v20Z"/>
  <path class="cls-4" d="M710.4,484.7l.5-18-26.1,1.1-.5,18.6,26.1-1.7Z"/>
  <path class="cls-3" d="M660.9,477.1l23.3,9.4.5-18.6-23.3-9.4-.5,18.6Z"/>
  <path class="cls-10" d="M658.6,457.9l26.2,9.9,26.1-1.1-25.8-11.3-26.5,2.5Z"/>
</svg>