<svg width="58" height="58" viewBox="0 0 58 58" fill="none" xmlns="http://www.w3.org/2000/svg">
<circle cx="29" cy="29" r="28" stroke="#D0EAE3" stroke-width="2"/>
<path d="M18.9246 28.848L14.7698 31.2731L17.0549 24.3009C17.0549 24.3009 24.7414 21.5727 25.1569 21.4211C25.5724 21.2696 29.3117 21.4211 29.3117 21.4211C31.8132 21.8296 32.4348 23.071 32.4279 23.6947L31.3891 29.909C30.0596 28.3327 26.6803 27.9386 25.1569 27.9386V24.7556L19.3401 26.5745L18.9246 28.848Z" fill="black"/>
<path d="M38.6601 31.2731L33.0511 31.1215C34.3806 31.3641 37.8984 37.3864 39.4911 40.3673C39.8373 40.9231 40.9037 41.8528 42.3995 41.1252C43.8732 40.4084 43.6529 39.927 43.4474 39.478L43.4382 39.4578L38.6601 31.2731Z" fill="black"/>
<path d="M34.713 40.3673C34.8792 40.1248 35.0593 39.3568 35.1285 39.0031L39.2833 42.1861H43.8537V43.2471H38.6601L34.713 40.3673Z" fill="black"/>
<path d="M18.9246 28.848L14.7698 31.2731L17.0549 24.3009C17.0549 24.3009 24.7414 21.5727 25.1569 21.4211C25.5724 21.2696 29.3117 21.4211 29.3117 21.4211C31.8132 21.8296 32.4348 23.071 32.4279 23.6947L31.3891 29.909C30.0596 28.3327 26.6803 27.9386 25.1569 27.9386V24.7556L19.3401 26.5745L18.9246 28.848Z" stroke="black"/>
<path d="M38.6601 31.2731L33.0511 31.1215C34.3806 31.3641 37.8984 37.3864 39.4911 40.3673C39.8373 40.9231 40.9037 41.8528 42.3995 41.1252C43.8732 40.4084 43.6529 39.927 43.4474 39.478L43.4382 39.4578L38.6601 31.2731Z" stroke="black"/>
<path d="M34.713 40.3673C34.8792 40.1248 35.0593 39.3568 35.1285 39.0031L39.2833 42.1861H43.8537V43.2471H38.6601L34.713 40.3673Z" stroke="black"/>
<ellipse cx="29.9351" cy="17.1776" rx="4.15484" ry="3.03138" fill="black"/>
<ellipse cx="24.1179" cy="36.5783" rx="9.97162" ry="7.27532" fill="black"/>
<ellipse cx="23.9102" cy="36.4273" rx="2.28516" ry="1.66726" fill="#D0EAE3"/>
</svg>
